<svg xmlns="http://www.w3.org/2000/svg" data-name="レイヤー_2" viewBox="0 0 1319.21 268.07"><defs><linearGradient id="a" x1="7832.93" x2="9152.14" y1="173.03" y2="173.03" data-name="新規グラデーションスウォッチ 07" gradientTransform="matrix(-1 0 0 1 9152.14 0)" gradientUnits="userSpaceOnUse"><stop offset=".34" stop-color="#dae0f5"/><stop offset=".62" stop-color="#e2e7f6"/><stop offset="1" stop-color="#f6f6fb"/></linearGradient></defs><path d="M0 268.07h1319.21V92.03c-27.19 10.69-57.46 18.44-88.81 22.6 0 .07-.07.07-.07.07h-.07c-5.74.79-11.48 1.43-17.29 2.01h-.07c-48.92 4.52-99.57.57-144.4-13.92-64.56-20.8-136.87-28.05-207.74-23.53h-.07c-10.62.72-21.23 1.65-31.71 2.87-107.1 12.27-207.82 51.51-269.87 111.84-11.19 10.83-24.32 20.01-39.02 27.76-4.09 2.15-8.25 4.23-12.63 6.17-74.17 33.29-181.06 35.08-274.67 31.06-76.76-3.23-161.12-5.67-232.78 9.11Z" style="fill:url(#a)"/><path d="M486.44 268.07h8.39c1.72-3.16 3.3-6.46 4.81-9.76 5.81-12.7 12.63-24.89 20.44-36.59 38.52-57.67 100.36-102.29 175.18-125.18 44.69-13.63 90.24-18.36 133.71-14.42 43.9 3.95 85.8 16.71 122.38 38.16 74.39 43.54 172.81 47.56 250.79 10.26 9.76-4.66 19.15-9.97 28.12-15.85h.07s.07 0 .07-.07c37.52-24.46 68.22-58.68 88.81-97.85V0c-21.66 48.35-59.33 90.24-106.24 116.71h-.07c-4.59 2.65-9.25 5.09-14.06 7.39-75.75 36.3-171.37 32.35-243.68-9.9-28.84-16.86-60.69-28.55-94.4-34.93h-.07c-53.44-10.11-111.19-6.81-167.64 10.4-80.77 24.68-146.84 74.25-185.58 138.23-5.45 8.9-10.26 18.08-14.56 27.47-1.94 4.3-4.09 8.54-6.46 12.7Z" style="fill:#c5c5fa"/></svg>