<?xml version="1.0" encoding="UTF-8"?>
<svg id="_レイヤー_2" data-name="レイヤー_2" xmlns="http://www.w3.org/2000/svg" xmlns:xlink="http://www.w3.org/1999/xlink" viewBox="0 0 318.58 70.66">
  <defs>
    <style>
      .cls-1 {
        mask: url(#mask);
      }

      .cls-2 {
        filter: url(#luminosity-noclip);
      }

      .cls-3 {
        mask: url(#mask-1);
      }

      .cls-4 {
        fill: url(#linear-gradient);
        mix-blend-mode: multiply;
      }

      .cls-5 {
        fill: url(#_名称未設定グラデーション_21);
      }
    </style>
    <filter id="luminosity-noclip" x="0" y="0" width="318.58" height="70.66" color-interpolation-filters="sRGB" filterUnits="userSpaceOnUse">
      <feFlood flood-color="#fff" result="bg"/>
      <feBlend in="SourceGraphic" in2="bg"/>
    </filter>
    <filter id="luminosity-noclip-2" x="0" y="-9394.01" width="318.58" height="32766" color-interpolation-filters="sRGB" filterUnits="userSpaceOnUse">
      <feFlood flood-color="#fff" result="bg"/>
      <feBlend in="SourceGraphic" in2="bg"/>
    </filter>
    <mask id="mask-1" x="0" y="-9394.01" width="318.58" height="32766" maskUnits="userSpaceOnUse"/>
    <linearGradient id="linear-gradient" x1="159.29" y1="70.66" x2="159.29" y2="0" gradientUnits="userSpaceOnUse">
      <stop offset="0" stop-color="#4d4d4d"/>
      <stop offset=".04" stop-color="#585858"/>
      <stop offset=".29" stop-color="#939393"/>
      <stop offset=".52" stop-color="#c1c1c1"/>
      <stop offset=".72" stop-color="#e3e3e3"/>
      <stop offset=".89" stop-color="#f7f7f7"/>
      <stop offset="1" stop-color="#fff"/>
    </linearGradient>
    <mask id="mask" x="0" y="0" width="318.58" height="70.66" maskUnits="userSpaceOnUse">
      <g class="cls-2">
        <g class="cls-3">
          <path class="cls-4" d="M318.12,66.31c-7.26-10.91-27.14-38.78-43.01-42.45-19.79-4.58-23.64,25-55.93-10.66-25.74-28.43-59.24-5.71-83.27,19.04-6.23,6.42-15.74,7.27-22.68,1.78-14.61-11.54-31.63-17.78-45.4-2.58-22.03,24.33-24.66,4.15-38.16,7.27-10.83,2.5-24.4,21.52-29.35,28.97-.87,1.31.18,2.97,1.87,2.97h313.19c2.48,0,4.02-2.44,2.74-4.35Z"/>
        </g>
      </g>
    </mask>
    <linearGradient id="_名称未設定グラデーション_21" data-name="名称未設定グラデーション 21" x1="159.29" y1="70.66" x2="159.29" y2="0" gradientUnits="userSpaceOnUse">
      <stop offset=".1" stop-color="#dae0f5"/>
      <stop offset=".17" stop-color="#e0e5f6"/>
      <stop offset=".41" stop-color="#f1f3fb"/>
      <stop offset=".68" stop-color="#fbfcfe"/>
      <stop offset="1" stop-color="#fff"/>
    </linearGradient>
  </defs>
  <g id="cloud">
    <g class="cls-1">
      <path id="cloud-white-03" class="cls-5" d="M318.12,66.31c-7.26-10.91-27.14-38.78-43.01-42.45-19.79-4.58-23.64,25-55.93-10.66-25.74-28.43-59.24-5.71-83.27,19.04-6.23,6.42-15.74,7.27-22.68,1.78-14.61-11.54-31.63-17.78-45.4-2.58-22.03,24.33-24.66,4.15-38.16,7.27-10.83,2.5-24.4,21.52-29.35,28.97-.87,1.31.18,2.97,1.87,2.97h313.19c2.48,0,4.02-2.44,2.74-4.35Z"/>
    </g>
  </g>
</svg>