<?xml version="1.0" encoding="UTF-8"?>
<svg id="_レイヤー_2" data-name="レイヤー_2" xmlns="http://www.w3.org/2000/svg" xmlns:xlink="http://www.w3.org/1999/xlink" viewBox="0 0 190.06 49.75">
  <defs>
    <style>
      .cls-1 {
        mask: url(#mask);
      }

      .cls-2 {
        filter: url(#luminosity-noclip);
      }

      .cls-3 {
        mask: url(#mask-1);
      }

      .cls-4 {
        fill: url(#linear-gradient);
        mix-blend-mode: multiply;
      }

      .cls-5 {
        fill: url(#_新規グラデーションスウォッチ_07);
      }
    </style>
    <filter id="luminosity-noclip" x="0" y="0" width="190.06" height="49.75" color-interpolation-filters="sRGB" filterUnits="userSpaceOnUse">
      <feFlood flood-color="#fff" result="bg"/>
      <feBlend in="SourceGraphic" in2="bg"/>
    </filter>
    <filter id="luminosity-noclip-2" x="0" y="-9506.27" width="190.06" height="32766" color-interpolation-filters="sRGB" filterUnits="userSpaceOnUse">
      <feFlood flood-color="#fff" result="bg"/>
      <feBlend in="SourceGraphic" in2="bg"/>
    </filter>
    <mask id="mask-1" x="0" y="-9506.27" width="190.06" height="32766" maskUnits="userSpaceOnUse"/>
    <linearGradient id="linear-gradient" x1="95.03" y1="49.75" x2="95.03" y2="0" gradientUnits="userSpaceOnUse">
      <stop offset="0" stop-color="#4d4d4d"/>
      <stop offset=".04" stop-color="#585858"/>
      <stop offset=".29" stop-color="#939393"/>
      <stop offset=".52" stop-color="#c1c1c1"/>
      <stop offset=".72" stop-color="#e3e3e3"/>
      <stop offset=".89" stop-color="#f7f7f7"/>
      <stop offset="1" stop-color="#fff"/>
    </linearGradient>
    <mask id="mask" x="0" y="0" width="190.06" height="49.75" maskUnits="userSpaceOnUse">
      <g class="cls-2">
        <g class="cls-3">
          <path class="cls-4" d="M189.71,46.68c-5.56-7.68-20.79-27.3-32.94-29.89-15.15-3.22-18.1,17.6-42.82-7.5-21.87-22.21-51.07-.07-69.55,19.15-10.28,6.38-13.14-3-21.69-1.18C14.42,29.02,4.03,42.42.24,47.65c-.67.92.14,2.09,1.43,2.09h185.94c1.9,0,3.08-1.72,2.1-3.07Z"/>
        </g>
      </g>
    </mask>
    <linearGradient id="_新規グラデーションスウォッチ_07" data-name="新規グラデーションスウォッチ 07" x1="95.03" y1="49.75" x2="95.03" y2="0" gradientUnits="userSpaceOnUse">
      <stop offset=".34" stop-color="#dae0f5"/>
      <stop offset=".62" stop-color="#e2e7f6"/>
      <stop offset="1" stop-color="#f6f6fb"/>
    </linearGradient>
  </defs>
  <g id="cloud">
    <g class="cls-1">
      <path id="cloud-04" class="cls-5" d="M189.71,46.68c-5.56-7.68-20.79-27.3-32.94-29.89-15.15-3.22-18.1,17.6-42.82-7.5-21.87-22.21-51.07-.07-69.55,19.15-10.28,6.38-13.14-3-21.69-1.18C14.42,29.02,4.03,42.42.24,47.65c-.67.92.14,2.09,1.43,2.09h185.94c1.9,0,3.08-1.72,2.1-3.07Z"/>
    </g>
  </g>
</svg>