<svg xmlns="http://www.w3.org/2000/svg" data-name="レイヤー_2" viewBox="0 0 190.06 49.75"><defs><linearGradient id="c" x1="95.03" x2="95.03" y1="49.75" y2="0" gradientUnits="userSpaceOnUse"><stop offset="0" stop-color="#4d4d4d"/><stop offset=".04" stop-color="#585858"/><stop offset=".29" stop-color="#939393"/><stop offset=".52" stop-color="#c1c1c1"/><stop offset=".72" stop-color="#e3e3e3"/><stop offset=".89" stop-color="#f7f7f7"/><stop offset="1" stop-color="#fff"/></linearGradient><linearGradient id="e" x1="95.03" x2="95.03" y1="49.75" y2="0" data-name="名称未設定グラデーション 21" gradientUnits="userSpaceOnUse"><stop offset=".1" stop-color="#dae0f5"/><stop offset=".17" stop-color="#e0e5f6"/><stop offset=".41" stop-color="#f1f3fb"/><stop offset=".68" stop-color="#fbfcfe"/><stop offset="1" stop-color="#fff"/></linearGradient><mask id="b" width="190.06" height="32766" x="0" y="-9506.27" maskUnits="userSpaceOnUse"/><mask id="d" width="190" height="49.75" x="0" y="0" maskUnits="userSpaceOnUse"><g style="filter:url(#a)"><g style="mask:url(#b)"><path d="M189.71 46.68c-5.56-7.68-20.79-27.3-32.94-29.89-15.15-3.22-18.1 17.6-42.82-7.5-21.87-22.21-51.07-.07-69.55 19.15-10.28 6.38-13.14-3-21.69-1.18C14.42 29.02 4.03 42.42.24 47.65c-.67.92.14 2.09 1.43 2.09h185.94c1.9 0 3.08-1.72 2.1-3.07Z" style="fill:url(#c);mix-blend-mode:multiply"/></g></g></mask><filter id="a" width="190.06" height="49.75" x="0" y="0" color-interpolation-filters="sRGB" filterUnits="userSpaceOnUse"><feFlood flood-color="#fff" result="bg"/><feBlend in="SourceGraphic" in2="bg"/></filter></defs><g style="mask:url(#d)"><path d="M189.71 46.68c-5.56-7.68-20.79-27.3-32.94-29.89-15.15-3.22-18.1 17.6-42.82-7.5-21.87-22.21-51.07-.07-69.55 19.15-10.28 6.38-13.14-3-21.69-1.18C14.42 29.02 4.03 42.42.24 47.65c-.67.92.14 2.09 1.43 2.09h185.94c1.9 0 3.08-1.72 2.1-3.07Z" style="fill:url(#e)"/></g></svg>