<?xml version="1.0" encoding="UTF-8"?>
<svg id="_レイヤー_2" data-name="レイヤー_2" xmlns="http://www.w3.org/2000/svg" xmlns:xlink="http://www.w3.org/1999/xlink" viewBox="0 0 302.88 75.69">
  <defs>
    <style>
      .cls-1 {
        mask: url(#mask);
      }

      .cls-2 {
        filter: url(#luminosity-noclip);
      }

      .cls-3 {
        mask: url(#mask-1);
      }

      .cls-4 {
        fill: url(#linear-gradient);
        mix-blend-mode: multiply;
      }

      .cls-5 {
        fill: url(#_新規グラデーションスウォッチ_07);
      }
    </style>
    <filter id="luminosity-noclip" x="0" y="0" width="302.88" height="75.69" color-interpolation-filters="sRGB" filterUnits="userSpaceOnUse">
      <feFlood flood-color="#fff" result="bg"/>
      <feBlend in="SourceGraphic" in2="bg"/>
    </filter>
    <filter id="luminosity-noclip-2" x="0" y="-9667.83" width="302.88" height="32766" color-interpolation-filters="sRGB" filterUnits="userSpaceOnUse">
      <feFlood flood-color="#fff" result="bg"/>
      <feBlend in="SourceGraphic" in2="bg"/>
    </filter>
    <mask id="mask-1" x="0" y="-9667.83" width="302.88" height="32766" maskUnits="userSpaceOnUse"/>
    <linearGradient id="linear-gradient" x1="3442.2" y1="75.69" x2="3442.2" y2="0" gradientTransform="translate(3593.64) rotate(-180) scale(1 -1)" gradientUnits="userSpaceOnUse">
      <stop offset="0" stop-color="#4d4d4d"/>
      <stop offset=".04" stop-color="#585858"/>
      <stop offset=".29" stop-color="#939393"/>
      <stop offset=".52" stop-color="#c1c1c1"/>
      <stop offset=".72" stop-color="#e3e3e3"/>
      <stop offset=".89" stop-color="#f7f7f7"/>
      <stop offset="1" stop-color="#fff"/>
    </linearGradient>
    <mask id="mask" x="0" y="0" width="302.88" height="75.69" maskUnits="userSpaceOnUse">
      <g class="cls-2">
        <g class="cls-3">
          <path class="cls-4" d="M.44,71.03c6.9-11.68,25.81-41.54,40.89-45.47,18.82-4.9,22.48,26.78,53.17-11.42,24.47-30.45,56.32-6.12,79.17,20.4,5.92,6.88,14.96,7.79,21.56,1.91,13.89-12.36,30.07-19.05,43.16-2.76,20.94,26.06,23.44,4.45,36.28,7.79,10.29,2.68,23.2,23.06,27.9,31.03.83,1.4-.17,3.18-1.78,3.18H3.04c-2.36,0-3.82-2.61-2.61-4.66Z"/>
        </g>
      </g>
    </mask>
    <linearGradient id="_新規グラデーションスウォッチ_07" data-name="新規グラデーションスウォッチ 07" x1="3442.2" y1="75.69" x2="3442.2" y2="0" gradientTransform="translate(3593.64) rotate(-180) scale(1 -1)" gradientUnits="userSpaceOnUse">
      <stop offset=".34" stop-color="#dae0f5"/>
      <stop offset=".62" stop-color="#e2e7f6"/>
      <stop offset="1" stop-color="#f6f6fb"/>
    </linearGradient>
  </defs>
  <g id="cloud">
    <g class="cls-1">
      <path id="cloud-01" class="cls-5" d="M.44,71.03c6.9-11.68,25.81-41.54,40.89-45.47,18.82-4.9,22.48,26.78,53.17-11.42,24.47-30.45,56.32-6.12,79.17,20.4,5.92,6.88,14.96,7.79,21.56,1.91,13.89-12.36,30.07-19.05,43.16-2.76,20.94,26.06,23.44,4.45,36.28,7.79,10.29,2.68,23.2,23.06,27.9,31.03.83,1.4-.17,3.18-1.78,3.18H3.04c-2.36,0-3.82-2.61-2.61-4.66Z"/>
    </g>
  </g>
</svg>