<?xml version="1.0" encoding="UTF-8"?>
<svg id="_レイヤー_2" data-name="レイヤー_2" xmlns="http://www.w3.org/2000/svg" xmlns:xlink="http://www.w3.org/1999/xlink" viewBox="0 0 203.59 53.29">
  <defs>
    <style>
      .cls-1 {
        mask: url(#mask);
      }

      .cls-2 {
        filter: url(#luminosity-noclip);
      }

      .cls-3 {
        mask: url(#mask-1);
      }

      .cls-4 {
        fill: url(#linear-gradient);
        mix-blend-mode: multiply;
      }

      .cls-5 {
        fill: url(#_名称未設定グラデーション_21);
      }
    </style>
    <filter id="luminosity-noclip" x="0" y="0" width="203.59" height="53.29" color-interpolation-filters="sRGB" filterUnits="userSpaceOnUse">
      <feFlood flood-color="#fff" result="bg"/>
      <feBlend in="SourceGraphic" in2="bg"/>
    </filter>
    <filter id="luminosity-noclip-2" x="0" y="-9287.14" width="203.59" height="32766" color-interpolation-filters="sRGB" filterUnits="userSpaceOnUse">
      <feFlood flood-color="#fff" result="bg"/>
      <feBlend in="SourceGraphic" in2="bg"/>
    </filter>
    <mask id="mask-1" x="0" y="-9287.14" width="203.59" height="32766" maskUnits="userSpaceOnUse"/>
    <linearGradient id="linear-gradient" x1="-254.32" y1="53.29" x2="-254.32" y2="0" gradientTransform="translate(-152.52) rotate(-180) scale(1 -1)" gradientUnits="userSpaceOnUse">
      <stop offset="0" stop-color="#4d4d4d"/>
      <stop offset=".04" stop-color="#585858"/>
      <stop offset=".29" stop-color="#939393"/>
      <stop offset=".52" stop-color="#c1c1c1"/>
      <stop offset=".72" stop-color="#e3e3e3"/>
      <stop offset=".89" stop-color="#f7f7f7"/>
      <stop offset="1" stop-color="#fff"/>
    </linearGradient>
    <mask id="mask" x="0" y="0" width="203.59" height="53.29" maskUnits="userSpaceOnUse">
      <g class="cls-2">
        <g class="cls-3">
          <path class="cls-4" d="M.38,50c5.95-8.22,22.26-29.24,35.28-32.01,16.23-3.45,19.39,18.85,45.87-8.04,23.43-23.79,54.7-.08,74.5,20.52,11.01,6.84,14.08-3.22,23.24-1.27,8.88,1.89,20.01,16.23,24.07,21.84.71.99-.15,2.24-1.53,2.24H2.63c-2.03,0-3.3-1.84-2.25-3.28Z"/>
        </g>
      </g>
    </mask>
    <linearGradient id="_名称未設定グラデーション_21" data-name="名称未設定グラデーション 21" x1="-254.32" y1="53.29" x2="-254.32" y2="0" gradientTransform="translate(-152.52) rotate(-180) scale(1 -1)" gradientUnits="userSpaceOnUse">
      <stop offset=".1" stop-color="#dae0f5"/>
      <stop offset=".17" stop-color="#e0e5f6"/>
      <stop offset=".41" stop-color="#f1f3fb"/>
      <stop offset=".68" stop-color="#fbfcfe"/>
      <stop offset="1" stop-color="#fff"/>
    </linearGradient>
  </defs>
  <g id="cloud">
    <g class="cls-1">
      <path id="cloud-white-06" class="cls-5" d="M.38,50c5.95-8.22,22.26-29.24,35.28-32.01,16.23-3.45,19.39,18.85,45.87-8.04,23.43-23.79,54.7-.08,74.5,20.52,11.01,6.84,14.08-3.22,23.24-1.27,8.88,1.89,20.01,16.23,24.07,21.84.71.99-.15,2.24-1.53,2.24H2.63c-2.03,0-3.3-1.84-2.25-3.28Z"/>
    </g>
  </g>
</svg>