<?xml version="1.0" encoding="UTF-8"?>
<svg id="_レイヤー_2" data-name="レイヤー_2" xmlns="http://www.w3.org/2000/svg" xmlns:xlink="http://www.w3.org/1999/xlink" viewBox="0 0 109.51 28.66">
  <defs>
    <style>
      .cls-1 {
        mask: url(#mask);
      }

      .cls-2 {
        filter: url(#luminosity-noclip);
      }

      .cls-3 {
        mask: url(#mask-1);
      }

      .cls-4 {
        fill: url(#linear-gradient);
        mix-blend-mode: multiply;
      }

      .cls-5 {
        fill: url(#_新規グラデーションスウォッチ_07);
      }
    </style>
    <filter id="luminosity-noclip" x="0" y="0" width="109.51" height="28.66" color-interpolation-filters="sRGB" filterUnits="userSpaceOnUse">
      <feFlood flood-color="#fff" result="bg"/>
      <feBlend in="SourceGraphic" in2="bg"/>
    </filter>
    <filter id="luminosity-noclip-2" x="0" y="-9445.92" width="109.51" height="32766" color-interpolation-filters="sRGB" filterUnits="userSpaceOnUse">
      <feFlood flood-color="#fff" result="bg"/>
      <feBlend in="SourceGraphic" in2="bg"/>
    </filter>
    <mask id="mask-1" x="0" y="-9445.92" width="109.51" height="32766" maskUnits="userSpaceOnUse"/>
    <linearGradient id="linear-gradient" x1="54.75" y1="28.66" x2="54.75" y2="0" gradientUnits="userSpaceOnUse">
      <stop offset="0" stop-color="#4d4d4d"/>
      <stop offset=".04" stop-color="#585858"/>
      <stop offset=".29" stop-color="#939393"/>
      <stop offset=".52" stop-color="#c1c1c1"/>
      <stop offset=".72" stop-color="#e3e3e3"/>
      <stop offset=".89" stop-color="#f7f7f7"/>
      <stop offset="1" stop-color="#fff"/>
    </linearGradient>
    <mask id="mask" x="0" y="0" width="109.51" height="28.66" maskUnits="userSpaceOnUse">
      <g class="cls-2">
        <g class="cls-3">
          <path class="cls-4" d="M109.31,26.9c-3.2-4.42-11.98-15.73-18.98-17.22-8.73-1.86-10.43,10.14-24.67-4.32-12.6-12.8-29.42-.04-40.07,11.04-5.92,3.68-7.57-1.73-12.5-.68C8.31,16.72,2.32,24.44.14,27.46c-.38.53.08,1.21.83,1.21h107.13c1.09,0,1.77-.99,1.21-1.77Z"/>
        </g>
      </g>
    </mask>
    <linearGradient id="_新規グラデーションスウォッチ_07" data-name="新規グラデーションスウォッチ 07" x1="54.75" y1="28.66" x2="54.75" y2="0" gradientUnits="userSpaceOnUse">
      <stop offset=".34" stop-color="#dae0f5"/>
      <stop offset=".62" stop-color="#e2e7f6"/>
      <stop offset="1" stop-color="#f6f6fb"/>
    </linearGradient>
  </defs>
  <g id="cloud">
    <g class="cls-1">
      <path id="cloud-05" class="cls-5" d="M109.31,26.9c-3.2-4.42-11.98-15.73-18.98-17.22-8.73-1.86-10.43,10.14-24.67-4.32-12.6-12.8-29.42-.04-40.07,11.04-5.92,3.68-7.57-1.73-12.5-.68C8.31,16.72,2.32,24.44.14,27.46c-.38.53.08,1.21.83,1.21h107.13c1.09,0,1.77-.99,1.21-1.77Z"/>
    </g>
  </g>
</svg>