<?xml version="1.0" encoding="UTF-8"?>
<svg id="webdesign" xmlns="http://www.w3.org/2000/svg" xmlns:xlink="http://www.w3.org/1999/xlink" viewBox="0 0 1280 960">
  <defs>
    <style>
      .cls-1 {
        fill: none;
      }

      .cls-2 {
        fill: #3c4358;
      }

      .cls-3 {
        fill: #dfdfdf;
      }

      .cls-4 {
        fill: #888988;
      }

      .cls-5, .cls-6, .cls-7, .cls-8, .cls-9, .cls-10, .cls-11 {
        isolation: isolate;
      }

      .cls-5, .cls-9 {
        opacity: .1;
      }

      .cls-6, .cls-7, .cls-8, .cls-12 {
        opacity: .05;
      }

      .cls-13 {
        fill: #545456;
      }

      .cls-14 {
        fill: #f29600;
      }

      .cls-15 {
        fill: #bdbdbd;
      }

      .cls-16 {
        fill: #ffd3d4;
      }

      .cls-17 {
        fill: #f7f7fc;
      }

      .cls-18 {
        fill: #4a4c56;
      }

      .cls-19 {
        fill: #c4d2e3;
      }

      .cls-20 {
        fill: #fcc;
      }

      .cls-21 {
        fill: #ffd0d2;
      }

      .cls-22 {
        fill: url(#_新規グラデーションスウォッチ_コピー_2-2);
      }

      .cls-23 {
        fill: #ced7e3;
      }

      .cls-24 {
        fill: #bdc1e4;
      }

      .cls-25 {
        fill: #4f5056;
      }

      .cls-26 {
        fill: #e7e7ee;
      }

      .cls-27 {
        fill: url(#_新規グラデーションスウォッチ_コピー_2);
      }

      .cls-28 {
        fill: #4d4d4d;
      }

      .cls-29, .cls-7 {
        fill: #040000;
      }

      .cls-30 {
        fill: #eca913;
      }

      .cls-8, .cls-9 {
        fill: #1a1a1a;
      }

      .cls-31, .cls-10, .cls-11 {
        fill: #fff;
      }

      .cls-32 {
        fill: #dde;
      }

      .cls-33 {
        fill: #ffc9ca;
      }

      .cls-34 {
        fill: #3e5f94;
      }

      .cls-35 {
        fill: #5468a1;
      }

      .cls-36 {
        fill: #ede6eb;
      }

      .cls-37 {
        fill: #d0d4f6;
      }

      .cls-38 {
        opacity: .4;
      }

      .cls-39 {
        fill: #697a94;
      }

      .cls-40 {
        fill: #eff6fa;
      }

      .cls-41 {
        fill: #dbebf4;
      }

      .cls-42 {
        fill: #ffd6d6;
      }

      .cls-43 {
        fill: #ced3f8;
      }

      .cls-44 {
        fill: #ffcfd0;
      }

      .cls-45 {
        fill: #3b435a;
      }

      .cls-46 {
        fill: #eee;
      }

      .cls-47 {
        fill: #b9cce3;
      }

      .cls-48 {
        fill: #cfcfcf;
      }

      .cls-10 {
        opacity: .3;
      }

      .cls-11 {
        opacity: .2;
      }
    </style>
    <linearGradient id="_新規グラデーションスウォッチ_コピー_2" data-name="新規グラデーションスウォッチ コピー 2" x1="541.64" y1="737.77" x2="766.37" y2="737.77" gradientUnits="userSpaceOnUse">
      <stop offset=".39" stop-color="#4141aa"/>
      <stop offset=".41" stop-color="#4646b1"/>
      <stop offset=".43" stop-color="#5454c4"/>
      <stop offset=".46" stop-color="#6a6ae2"/>
    </linearGradient>
    <linearGradient id="_新規グラデーションスウォッチ_コピー_2-2" data-name="新規グラデーションスウォッチ コピー 2" x1="364.56" y1="404.9" x2="961.41" y2="404.9" xlink:href="#_新規グラデーションスウォッチ_コピー_2"/>
  </defs>
  <g id="_2" data-name=" 2">
    <g>
      <path class="cls-21" d="M359.91,227.39c0-6.2.86-14.64,5.1-14.76,4.24-.12.18,14.18-1.64,14.76-1.81.58-3.47,0-3.47,0Z"/>
      <g>
        <polygon class="cls-15" points="766.07 786.38 766.32 773.36 541.72 682.28 541.72 693.07 766.07 786.38"/>
        <path class="cls-27" d="M697.6,712.6c57.18,33.01,84.02,71.04,59.94,84.94-24.08,13.9-89.95-1.59-147.13-34.61-57.18-33.01-84.02-71.04-59.94-84.94,24.08-13.9,89.95,1.59,147.13,34.61Z"/>
        <path class="cls-17" d="M697.6,704.21c57.18,33.01,84.02,71.04,59.94,84.94-24.08,13.9-89.95-1.59-147.13-34.61s-84.02-71.04-59.94-84.94c24.08-13.9,89.95,1.59,147.13,34.61Z"/>
        <path class="cls-6" d="M892.05,889.89l-545.61-315.01c-10.04-5.8-8.78-15.93,2.81-22.62l8.92-5.15c11.6-6.7,29.14-7.42,39.19-1.62l545.6,315.01c10.04,5.8,8.78,15.93-2.81,22.62l-8.92,5.15c-11.6,6.7-29.14,7.42-39.19,1.62h0Z"/>
        <polygon class="cls-24" points="679.44 750.35 628.58 720.98 628.58 540.61 679.44 569.98 679.44 750.35"/>
        <polygon class="cls-37" points="690.33 744.06 679.44 750.35 679.44 569.98 690.33 563.68 690.33 744.06"/>
        <path class="cls-22" d="M930.86,786.01L398.32,460.9c-10.03-5.79-18.16-21.33-18.16-34.71l-15.6-386.87c0-13.38,23.73-20.47,33.76-14.68l544.93,314.61c10.03,5.79,18.16,21.33,18.16,34.71v387.81c0,13.38-20.52,30.02-30.55,24.23h0Z"/>
        <g>
          <path class="cls-28" d="M926.47,347.65l-172.56-99.63L381.54,33.04c-10.03-5.79-18.16-1.1-18.16,10.49v369.13l390.53,225.47,190.72,110.11v-369.13c0-11.58-8.13-25.67-18.16-31.46h0Z"/>
          <path class="cls-24" d="M363.38,400.39v37.44c0,11.58,8.13,25.67,18.16,31.46l544.92,314.61c10.03,5.79,18.16,1.1,18.16-10.49v-39.05L363.38,400.39Z"/>
          <path class="cls-31" d="M926.47,360.24l-158.03-91.24L381.54,45.62c-4-2.31-7.26-.43-7.26,4.19v356.55l394.16,227.57,165.3,95.43v-356.55c0-4.63-3.26-10.27-7.27-12.58h0Z"/>
          <path class="cls-3" d="M824.38,452.37l-107.46-62.04c-5-2.89-9.08-9.95-9.08-15.73s4.08-8.13,9.08-5.24l107.46,62.04c5,2.89,9.08,9.95,9.08,15.73s-4.08,8.13-9.08,5.24Z"/>
          <path class="cls-3" d="M871.49,518l-159.15-91.88c-2.02-1.17-3.62-3.93-3.62-6.27s1.6-3.26,3.62-2.09l159.15,91.88c2.02,1.17,3.62,3.93,3.62,6.27s-1.6,3.26-3.62,2.09Z"/>
          <path class="cls-3" d="M871.49,350.37L436.51,99.24c-2.02-1.17-3.62-3.93-3.62-6.27s1.6-3.26,3.62-2.09l434.98,251.14c2.02,1.17,3.62,3.93,3.62,6.27s-1.6,3.26-3.62,2.09h0Z"/>
          <path class="cls-3" d="M871.49,369.71L436.51,118.57c-2.02-1.17-3.62-3.93-3.62-6.27s1.6-3.26,3.62-2.09l434.98,251.14c2.02,1.17,3.62,3.93,3.62,6.27s-1.6,3.26-3.62,2.09Z"/>
          <path class="cls-3" d="M871.49,538.77l-159.15-91.88c-2.02-1.17-3.62-3.93-3.62-6.27s1.6-3.26,3.62-2.09l159.15,91.88c2.02,1.17,3.62,3.93,3.62,6.27s-1.6,3.26-3.62,2.09Z"/>
          <path class="cls-3" d="M871.49,559.58l-159.15-91.88c-2.02-1.17-3.62-3.93-3.62-6.27s1.6-3.26,3.62-2.09l159.15,91.88c2.02,1.17,3.62,3.93,3.62,6.27s-1.6,3.26-3.62,2.09h0Z"/>
          <path class="cls-3" d="M871.49,580.35l-159.15-91.88c-2.02-1.17-3.62-3.93-3.62-6.27s1.6-3.26,3.62-2.09l159.15,91.88c2.02,1.17,3.62,3.93,3.62,6.27s-1.6,3.26-3.62,2.09h0Z"/>
        </g>
      </g>
      <path class="cls-16" d="M436.26,262.99c.64-1.27,6.97-5.37,2.83-10.3-2.53-3.02-6.78,7.83-6.78,7.83l3.95,2.47Z"/>
      <g>
        <g>
          <polygon class="cls-47" points="326.52 648.32 329.21 647.55 324.08 673.57 321.39 674.35 326.52 648.32"/>
          <polygon class="cls-47" points="335.35 603.61 338.03 602.84 329.9 644.03 327.22 644.81 335.35 603.61"/>
          <polygon class="cls-47" points="344.17 558.91 346.86 558.13 338.73 599.33 336.04 600.1 344.17 558.91"/>
          <polygon class="cls-47" points="352.99 514.2 355.68 513.43 347.55 554.62 344.86 555.39 352.99 514.2"/>
          <polygon class="cls-47" points="361.81 469.5 364.5 468.73 356.37 509.92 353.68 510.69 361.81 469.5"/>
          <polygon class="cls-47" points="370.63 424.79 373.32 424.02 365.19 465.21 362.51 465.99 370.63 424.79"/>
          <polygon class="cls-47" points="379.46 380.09 382.15 379.32 374.02 420.51 371.33 421.28 379.46 380.09"/>
          <polygon class="cls-47" points="388.28 335.39 390.97 334.61 382.84 375.81 380.15 376.58 388.28 335.39"/>
          <polygon class="cls-47" points="394.11 305.85 396.8 305.07 391.66 331.1 388.97 331.87 394.11 305.85"/>
        </g>
        <polygon class="cls-23" points="391.31 304.23 394 303.46 396.8 305.07 394.11 305.85 391.31 304.23"/>
        <g>
          <polygon class="cls-23" points="327.22 644.81 329.9 644.03 379.5 672.67 376.82 673.44 327.22 644.81"/>
          <polygon class="cls-23" points="336.04 600.1 338.73 599.33 388.33 627.96 385.64 628.74 336.04 600.1"/>
          <polygon class="cls-23" points="344.86 555.39 347.55 554.62 397.15 583.26 394.46 584.03 344.86 555.39"/>
          <polygon class="cls-23" points="353.68 510.69 356.37 509.92 405.97 538.56 403.28 539.33 353.68 510.69"/>
          <polygon class="cls-23" points="362.51 465.99 365.19 465.21 414.79 493.85 412.11 494.62 362.51 465.99"/>
          <polygon class="cls-23" points="371.33 421.28 374.02 420.51 423.62 449.14 420.93 449.92 371.33 421.28"/>
          <polygon class="cls-23" points="380.15 376.58 382.84 375.81 432.44 404.44 429.75 405.21 380.15 376.58"/>
          <polygon class="cls-23" points="388.97 331.87 391.66 331.1 441.26 359.74 438.57 360.51 388.97 331.87"/>
        </g>
        <path class="cls-19" d="M443.71,334.48l2.8,1.62-72.72,368.5-2.8-1.62,5.14-26.03-49.6-28.64-5.14,26.03-2.8-1.62,72.72-368.5,2.8,1.62-5.14,26.03,49.6,28.64,5.14-26.03h0ZM420.93,449.92l8.13-41.19-49.6-28.64-8.13,41.19,49.6,28.64M429.75,405.21l8.13-41.19-49.6-28.64-8.13,41.19,49.6,28.64M385.64,628.74l8.13-41.19-49.6-28.64-8.13,41.19,49.6,28.64M403.28,539.33l8.13-41.19-49.6-28.64-8.13,41.19,49.6,28.64M412.11,494.62l8.13-41.19-49.6-28.64-8.13,41.19,49.6,28.64M376.82,673.44l8.13-41.19-49.6-28.64-8.13,41.19,49.6,28.64M394.46,584.03l8.13-41.19-49.6-28.64-8.13,41.19,49.6,28.64"/>
        <polygon class="cls-47" points="446.51 336.1 449.19 335.32 376.47 703.83 373.78 704.6 446.51 336.1"/>
        <polygon class="cls-23" points="443.71 334.48 446.4 333.71 449.19 335.32 446.51 336.1 443.71 334.48"/>
      </g>
      <g>
        <path class="cls-16" d="M746.6,577.9c-1.18,1.99-1.88,5.83.84,8.36,2.83,2.63,7.61-1.29,8.4-2.33,5.37-7.08,3.31-9.7,1.2-12.05-2.1-2.34-7.98,1.88-10.45,6.03h0Z"/>
        <polygon class="cls-31" points="803.93 599.94 810.78 611.32 803.9 611.25 803.93 599.94"/>
        <path class="cls-30" d="M805.26,593.22c6.69,5.57,12.1,17.83,12.07,27.37-.03,9.54-5.48,12.76-12.17,7.18l-77.77-64.75c-6.7-5.57-12.1-17.83-12.08-27.37.03-9.54,5.48-12.76,12.17-7.18l77.77,64.75h0ZM803.9,615.07l6.89.07-6.86-11.38-.03,11.31"/>
      </g>
      <g>
        <path class="cls-8" d="M694.07,841.6c7.06-4.08,24.24-.77,38.36,7.38,14.12,8.15,19.85,18.07,12.79,22.15-7.06,4.08-24.24.77-38.36-7.38-14.12-8.15-19.85-18.07-12.79-22.15Z"/>
        <g>
          <g>
            <path class="cls-16" d="M691.17,590.23c1.2,6.23,30.05,35.49,34.41,31.94,4.36-3.55-9.16-18.8-18.73-33.16-9.81-14.72-16.89-5.02-15.68,1.21h0Z"/>
            <path class="cls-16" d="M724.06,622.3c6.66,2.06,28.75-37.78,25.61-40.01-2.82-2-23.9,23.26-27.41,31.65-3.51,8.39,1.8,8.36,1.8,8.36h0Z"/>
          </g>
          <g>
            <path class="cls-36" d="M734.09,599.56c-.73-2.69-2.02-5.53-4.25-8.15-4.88-5.74-12.87-9.22-24.7-10.87-2-.28-8.83-1.08-12.97,2.79-5.57,5.22-2.8,16.17-2.18,26.59.66,10.87,5.31,12.7,2.45,37-2.03,17.24,18.33,22.92,27.2,23.19,8.87.27,5.51-5.57,10.22-5.47,4.7.1,5.23-9.43,4.28-13.93-.17-.82-.32-1.76-.41-2.84-.07-.78,0-1.65.07-2.59.1-1.31.2-2.78-.05-4.43-2-13.38-2.57-15.28,2.42-28.46.16-.41.3-.83.44-1.25,1.24-3.77-1.69-8.51-2.51-11.56h0Z"/>
            <path class="cls-5" d="M720.17,619.41c.69,7.78,9.14,21.39,13.62,25.86.1-1.31.2-2.78-.05-4.43-2-13.38-2.57-15.28,2.42-28.46.16-.41.3-.83.44-1.25-6.4-1.68-17.48-3.61-16.43,8.28h0Z"/>
          </g>
          <path class="cls-2" d="M690.48,687.17s-5.8-20.09.64-39.72c.65-1.99.21-8.02,1.4-8.01.62,0,11.4,10.75,26.1,10.43,8.38-.18,14.84-4.3,15.16-3.99.32.32.78,7.48.78,7.48,2.77.74,2.73,34.97,2.73,34.97l-46.81-1.17h0Z"/>
          <g>
            <path class="cls-33" d="M704.76,574.62c-.7,3.18-2.5,6.6-.06,7.71,2.44,1.11,9.83,1.82,10-.28.13-1.65.72-8.43,0-9.09-.72-.67-9.94,1.67-9.94,1.67h0Z"/>
            <path class="cls-2" d="M728.33,572.02c-.14.92-1.36,1.19-4.06.74,0,0,5.48,3.2,5.24-.54l-1.18-.2h0Z"/>
            <path class="cls-16" d="M697.96,557.27c-1.12,6.78,1.45,18.28,8.33,20.5,8.62,2.78,19.57-.55,21.28-9.45,3.41-17.75-2.48-21.1-11.29-23.2-8.82-2.1-16.84,3.2-18.31,12.14Z"/>
            <path class="cls-2" d="M722.26,560.51c.48-1.08,4.93-1.59,6.63-4.27,1.7-2.69-1.56-13.37-9.77-15.74-15.66-4.52-23.01,4.63-25.11,10.34-2.1,5.71-2.13,11.95,3.71,18.41,5.06,5.6,8.29,7.46,14.1,6.67,3.45-.47,8.03-6.82,7.06-6.33-3.28,1.64-4.05-6.89-2.65-8.85.85-1.19,4.78,1.53,4.78,1.53,0,0,.77-.65,1.26-1.75Z"/>
            <path class="cls-2" d="M692.32,574.34c-3.01-11.46,6.06-16.54,11.63-13.96,5.58,2.58-.02,15.71-3.58,16.97-3.56,1.26-7.19.27-8.05-3.02h0Z"/>
            <path class="cls-2" d="M727.9,567.57c-5.14-10.34,1.38-12.93-.93-12.05-2.31.89-5.92,3.47-5.92,3.47-.11,2.42,3.8,7.18,4.85,8.53,1.63,2.08,2.55,3.6,2.41,4.5l1.18.2c-.06-1-.52-2.48-1.6-4.65h0Z"/>
          </g>
          <path class="cls-36" d="M693.49,631.83c.02.76-1.26,3.79-1.28,4.71-.02.91-.25,3.13.54,4.03.17.19,6.82,5.97,8.87,5.93.94-.02,19.82,6.65,20.9,2.58.5-1.89-28.46-16.18-28.56-16.65-.15-.72-.48-.6-.48-.6h0Z"/>
          <g>
            <g>
              <path class="cls-2" d="M697.77,847.26c.16,1.23,1.79,3.25,1.79,4.84s-.49,4,.07,4.24c.32.13,1.19-.04,1.52-.5s-.87-4.99,1.09-6.61c1.96-1.62-4.47-1.96-4.47-1.96h0Z"/>
              <path class="cls-2" d="M698.74,837.61s-3.33,5.1-1.84,9.07c1.49,3.98,5.08,4.5,7.08,3.42,2.01-1.09,7.28,2.04,13.23.25,3.29-.99,10.07-5.94,7.52-8.32-.96-.89-7.5-.3-12.02,1.77-2.44,1.11-5.77-1.75-8.66-3.58s-5.32-2.61-5.32-2.61h0Z"/>
              <path class="cls-42" d="M697.25,816.39s3.69,15.26.63,22.79c-.44,1.08,2.32.08,6.15,2.48,1.11.7,2.14,3.48,5.51,3.62,5.1.21,9.2.41,6.34-1.13-.79-.43-8.67-2.64-9.64-5.13-2.03-5.15,4.4-23.18,4.4-23.18l-13.39.54Z"/>
            </g>
            <path class="cls-2" d="M716.05,745.2s-2.29,39.75-1.98,77.25c.02,2.13-8.09,4.58-10.37,4.68-2.8.13-10.19-2.41-9.97-6.36,1.25-22.65-1.77-47.59-2.28-78.81-.25-15.28,24.61,3.24,24.61,3.24h0Z"/>
            <path class="cls-2" d="M690.4,669.37c.02,64.53,1.42,77.73,1.92,93.68.1,3.32,9.47,7.6,12.28,6.62,17.48-6.13,12.23-63.11,14.94-86.02,2.66-22.55-29.14-28.45-29.14-14.28Z"/>
          </g>
          <path class="cls-9" d="M710.91,796.1l.48-116.39c-1.43,0-2.63,3.67-3.44,6.4-2.59-2.11-6.42-15.01-6.42-15.01-.17,4.72,2.63,15.34,3.96,17.21-3.51,21.04-.49,82.2,5.43,107.8h0Z"/>
          <g>
            <g>
              <path class="cls-2" d="M715.92,858.23c.16,1.23,1.79,3.24,1.8,4.84,0,1.59-.48,4.01.08,4.24.32.13,1.19-.04,1.52-.51.33-.46-.88-4.99,1.07-6.62,1.95-1.63-4.47-1.95-4.47-1.95h0Z"/>
              <path class="cls-2" d="M716.87,848.58s-3.31,5.1-1.81,9.08c1.5,3.97,5.09,4.49,7.09,3.4,2-1.09,7.28,2.03,13.23.22,3.29-1,10.05-5.97,7.5-8.33-.96-.89-7.5-.28-12.01,1.8-2.43,1.12-5.78-1.74-8.67-3.55-2.89-1.82-5.32-2.6-5.32-2.6h0Z"/>
              <path class="cls-42" d="M715.33,827.36s3.73,15.25.69,22.79c-.44,1.08,2.32.08,6.16,2.47,1.12.7,2.15,3.47,5.52,3.6,5.1.19,9.2.39,6.34-1.15-.79-.42-8.67-2.62-9.66-5.1-2.04-5.14,4.35-23.19,4.35-23.19l-13.39.58Z"/>
            </g>
            <g>
              <path class="cls-2" d="M735.42,757.73s-2.01,39.73-1.6,77.23c.02,2.13-8.08,4.6-10.36,4.71-2.8.13-10.2-2.39-9.99-6.33,1.19-22.65-8.63-64.65.53-73.21,11.16-10.44,21.42-2.39,21.42-2.39h0Z"/>
              <path class="cls-2" d="M707.54,674.22c.77,43.95,1.28,81.25,2.73,97.29.34,3.83,25-10.35,25.16-13.79.67-14.48,1.74-42.92,1.68-66.25-.09-37.44-29.82-31.43-29.57-17.26h0Z"/>
            </g>
          </g>
          <g>
            <g>
              <path class="cls-16" d="M730.55,597.07c6.37,1.68,44.71,27.98,39.14,31.53-5.61,3.57-24.62-5.74-39.1-16.53-14.85-11.06-6.41-16.68-.04-15h0Z"/>
              <path class="cls-16" d="M767.44,628.86c5.26,2.68,31.63-32.46,29.36-34.81-2.04-2.11-27.14,20.39-31.52,27.2-4.38,6.81,2.16,7.62,2.16,7.62Z"/>
              <path class="cls-16" d="M791.6,595.19c-1.33,1.43-2.48,3.49.11,5.27,4.05,2.79,10.15-2.25,10.74-3.18,3.9-6.07.32-7.44-1.62-9.28-2.85-2.7-6.46,4.21-9.23,7.18h0Z"/>
            </g>
            <path class="cls-36" d="M720.47,611.87c1.13,2.31,9.08,4.62,13.71,6.48,6.02,2.42,13.39-13.42,13.39-13.42,0,0-6.11-3.78-9.08-7.39-2.47-3-10.79-8.89-12.72-9.88-1.93-.99-8.76,17.17-5.3,24.21Z"/>
          </g>
          <path class="cls-20" d="M702.49,580.36c-.35.08-.93.41-.79.91.14.5,2.79,3.02,6.22,3.29,2.41.19,9.64,1.55,10.14-.62.33-1.42-13.36-4.12-15.57-3.58h0Z"/>
        </g>
      </g>
      <path class="cls-16" d="M746,579.64s.72-9.75,3.57-7.15c1.11,1.01.22,9.07-.85,9.8-1.08.74-2.72-2.65-2.72-2.65Z"/>
      <path class="cls-16" d="M790.13,597.11c-.1-1.53-.94-7.93,1.25-8.01s2.1,6.07,2.01,7.39c-.09,1.31-3.15,2.28-3.26.62Z"/>
      <g>
        <g>
          <path class="cls-34" d="M543.47,258.07c-.41,0-.74-.33-.74-.74V53.78c0-.41.33-.74.74-.74s.74.33.74.74v203.55c0,.41-.33.74-.74.74Z"/>
          <path class="cls-34" d="M727.91,364.56c-.41,0-.74-.33-.74-.74v-203.55c0-.41.33-.74.74-.74s.74.33.74.74v203.55c0,.41-.33.74-.74.74h0Z"/>
        </g>
        <g>
          <polygon class="cls-43" points="487.07 202.66 487.07 377.5 784.31 549.11 784.31 374.27 487.07 202.66"/>
          <g>
            <path class="cls-31" d="M625.27,365.76c3.23,1.86,5.84.35,5.84-3.37s-2.62-8.26-5.84-10.12c-3.23-1.86-5.84-.35-5.84,3.37s2.62,8.26,5.84,10.12Z"/>
            <path class="cls-31" d="M644.71,373.57c-.54-1.24-1.44-2.33-2.41-2.89-.97-.56-1.87-.51-2.4.11l-9.29,10.96-5.13-9.67c-.59-1.12-1.47-2.04-2.37-2.48-.9-.45-1.71-.36-2.2.22l-8.6,10.17,46.76,27-14.36-33.42h0Z"/>
          </g>
        </g>
      </g>
      <g>
        <polygon class="cls-30" points="415.06 198.77 387.84 183.05 390.24 147.05 417.46 159.04 415.06 198.77"/>
        <polygon class="cls-30" points="450.55 217.4 423.33 201.68 415.06 159.51 442.28 175.23 450.55 217.4"/>
        <polygon class="cls-30" points="471.05 231.1 443.84 215.38 448.24 176.81 475.46 192.53 471.05 231.1"/>
      </g>
      <g>
        <g>
          <path class="cls-4" d="M438.21,250.89c.29,0,.56-.16.7-.44l6.75-14.03c.14-.3.08-.65-.15-.88l-14.65-14.45,2.48-5.53,6.64,3.37c.38.19.85.04,1.04-.34.19-.38.04-.85-.34-1.04l-7.36-3.73c-.19-.1-.41-.11-.61-.04-.2.07-.36.22-.45.41l-3.03,6.76c-.13.29-.07.64.16.87l14.64,14.44-6.51,13.53c-.19.38-.02.85.36,1.03.11.05.22.08.33.08h0Z"/>
          <path class="cls-39" d="M466.78,229.01c-2.27,1.31-4.1,4.49-4.1,7.09,0,2.61,1.85,3.66,4.12,2.35,2.27-1.31,4.1-4.48,4.09-7.09,0-2.61-1.85-3.66-4.12-2.35Z"/>
          <path class="cls-30" d="M435.47,220.1c0-.07,0-.13,0-.2,0-.03,0-.06,0-.09,0-.01,0-.03,0-.04,0-.02,0-.05,0-.07,0-.07.01-.13.02-.2,0-.07.02-.14.03-.21,0,0,0,0,0,0,0,0,0,0,0,0,.01-.07.02-.13.03-.2.01-.07.03-.14.04-.21,0-.03.01-.05.02-.08,0-.01,0-.03.01-.04,0-.03.01-.06.02-.1.02-.07.04-.15.06-.22.01-.05.03-.11.05-.16,0,0,0-.02,0-.03,0,0,0-.02,0-.03.02-.07.04-.14.07-.21.02-.07.05-.14.07-.21,0-.01,0-.03.01-.04,0-.01,0-.02.01-.03.02-.04.03-.09.05-.13.03-.07.05-.13.08-.2.02-.05.04-.09.06-.14,0,0,0-.02.01-.03,0,0,0-.02.01-.03.03-.07.06-.13.09-.2.03-.07.07-.14.1-.22,0-.01.01-.02.02-.03,0-.01.01-.03.02-.04.03-.06.06-.12.09-.17.04-.07.08-.14.12-.21.02-.04.04-.07.06-.11,0-.01.02-.03.02-.04.04-.06.08-.12.11-.18.05-.09.11-.18.17-.26,0-.01.02-.03.03-.04.08-.13.17-.25.26-.37.06-.08.12-.16.18-.24.05-.06.1-.13.15-.19,0,0,0,0,0,0,0,0,0,0,0,0,.05-.06.11-.12.16-.19.05-.06.11-.12.16-.18,0,0,.02-.02.03-.03,0,0,.02-.02.03-.03.04-.04.07-.08.11-.12.06-.06.11-.12.17-.17.02-.02.04-.03.05-.05.01-.01.03-.03.04-.04.03-.03.06-.05.08-.08.06-.05.12-.11.18-.16.03-.02.05-.04.08-.07.01-.01.03-.02.04-.03.02-.02.04-.03.06-.05.06-.05.12-.09.18-.14.04-.03.09-.06.13-.09,0,0,.02-.01.02-.02,0,0,.01-.01.02-.02.06-.04.12-.08.17-.12.06-.04.12-.07.17-.11.01,0,.03-.02.04-.02.04-.03.09-.05.13-.07.06-.03.11-.06.17-.09.04-.02.07-.03.11-.05,0,0,.02,0,.03-.01.01,0,.02-.01.03-.02.06-.02.11-.05.16-.07.06-.02.11-.04.17-.06,0,0,.02,0,.03,0,0,0,.02,0,.03,0,.04-.01.07-.03.11-.04.06-.02.11-.03.17-.05.03,0,.05-.01.08-.02.01,0,.02,0,.04,0,.02,0,.04,0,.05-.01.06-.01.12-.02.18-.03.04,0,.07,0,.11-.01.01,0,.03,0,.04,0,.01,0,.02,0,.04,0,.07,0,.13,0,.19,0,.03,0,.06,0,.08,0,.02,0,.04,0,.06,0,.02,0,.04,0,.07,0,.08,0,.16.02.24.03,0,0,0,0,0,0,.02,0,.03,0,.05.01.08.02.16.04.23.06,0,0,.01,0,.02,0,.11.04.22.09.31.15l27.21,15.81c-.1-.06-.21-.11-.31-.15-.08-.03-.16-.05-.25-.07-.02,0-.03-.01-.05-.01-.1-.02-.2-.03-.31-.04-.02,0-.04,0-.06,0-.1,0-.21,0-.31,0-.01,0-.03,0-.04,0-.11.01-.22.03-.34.05-.01,0-.02,0-.04,0-.12.03-.24.06-.36.1,0,0-.02,0-.03,0-.13.04-.26.1-.39.16,0,0-.02,0-.03.01-.13.06-.27.13-.41.21-.14.08-.28.17-.41.26,0,0-.02.01-.02.02-.13.09-.25.18-.37.28-.01.01-.03.02-.04.03-.12.1-.24.2-.35.31-.01.01-.03.03-.04.04-.12.11-.23.22-.34.34,0,0-.02.02-.03.03-.12.13-.23.26-.35.39,0,0,0,0,0,0-.22.27-.43.55-.62.84-.06.09-.11.17-.16.26-.05.07-.09.15-.14.22-.02.04-.04.07-.06.11-.07.13-.14.25-.21.38,0,.01-.01.03-.02.04-.08.16-.15.32-.22.48,0,0,0,.02-.01.03-.07.16-.13.31-.19.47,0,.01,0,.02-.01.03-.06.16-.11.33-.16.49,0,0,0,.02,0,.03-.05.16-.09.31-.13.47,0,.01,0,.03-.01.04-.04.16-.07.32-.09.48,0,0,0,0,0,0-.03.16-.04.32-.06.48,0,.01,0,.03,0,.04-.01.16-.02.32-.02.48,0,.16,0,.31.02.45,0,.01,0,.03,0,.04.01.13.03.26.06.38,0,.02,0,.03,0,.05.02.12.05.23.09.34,0,.02.01.04.02.06.03.1.07.2.11.29,0,.01,0,.02.01.03.05.11.1.21.16.3,0,.01.02.02.03.04.05.07.1.14.16.21.02.02.04.05.06.07.05.05.1.1.15.15.02.02.04.04.07.06.08.06.15.12.24.17l-27.21-15.81c-.08-.05-.16-.1-.24-.17-.02-.02-.04-.04-.07-.06-.05-.05-.1-.1-.15-.15-.02-.02-.04-.05-.06-.07-.06-.07-.11-.14-.16-.21,0-.01-.02-.02-.03-.04,0,0,0,0,0,0-.06-.09-.11-.18-.15-.28,0,0,0,0,0-.01,0-.01,0-.02-.01-.03-.03-.06-.06-.13-.08-.19-.01-.03-.02-.07-.03-.1,0-.02-.01-.04-.02-.06,0-.02-.01-.04-.02-.05-.02-.07-.04-.14-.05-.21,0-.03-.01-.05-.02-.08,0-.02,0-.03,0-.05,0-.02-.01-.05-.01-.07-.01-.06-.02-.13-.03-.2,0-.04,0-.07-.01-.11,0-.01,0-.03,0-.04,0-.02,0-.03,0-.05,0-.06,0-.13-.01-.19,0-.07,0-.13,0-.2,0,0,0,0,0-.01,0-.06,0-.12,0-.19h0Z"/>
          <path class="cls-11" d="M435.47,220.1c0-.07,0-.13,0-.2,0-.03,0-.06,0-.09,0-.01,0-.03,0-.04,0-.02,0-.05,0-.07,0-.07.01-.13.02-.2,0-.07.02-.14.03-.21,0,0,0,0,0,0,0,0,0,0,0,0,.01-.07.02-.13.03-.2.01-.07.03-.14.04-.21,0-.03.01-.05.02-.08,0-.01,0-.03.01-.04,0-.03.01-.06.02-.1.02-.07.04-.15.06-.22.01-.05.03-.11.05-.16,0,0,0-.02,0-.03,0,0,0-.02,0-.03.02-.07.04-.14.07-.21.02-.07.05-.14.07-.21,0-.01,0-.03.01-.04,0-.01,0-.02.01-.03.02-.04.03-.09.05-.13.03-.07.05-.13.08-.2.02-.05.04-.09.06-.14,0,0,0-.02.01-.03,0,0,0-.02.01-.03.03-.07.06-.13.09-.2.03-.07.07-.14.1-.22,0-.01.01-.02.02-.03,0-.01.01-.03.02-.04.03-.06.06-.12.09-.17.04-.07.08-.14.12-.21.02-.04.04-.07.06-.11,0-.01.02-.03.02-.04.04-.06.08-.12.11-.18.05-.09.11-.18.17-.26,0-.01.02-.03.03-.04.08-.13.17-.25.26-.37.06-.08.12-.16.18-.24.05-.06.1-.13.15-.19,0,0,0,0,0,0,0,0,0,0,0,0,.05-.06.11-.12.16-.19.05-.06.11-.12.16-.18,0,0,.02-.02.03-.03,0,0,.02-.02.03-.03.04-.04.07-.08.11-.12.06-.06.11-.12.17-.17.02-.02.04-.03.05-.05.01-.01.03-.03.04-.04.03-.03.06-.05.08-.08.06-.05.12-.11.18-.16.03-.02.05-.04.08-.07.01-.01.03-.02.04-.03.02-.02.04-.03.06-.05.06-.05.12-.09.18-.14.04-.03.09-.06.13-.09,0,0,.02-.01.02-.02,0,0,.01-.01.02-.02.06-.04.12-.08.17-.12.06-.04.12-.07.17-.11.01,0,.03-.02.04-.02.04-.03.09-.05.13-.07.06-.03.11-.06.17-.09.04-.02.07-.03.11-.05,0,0,.02,0,.03-.01.01,0,.02-.01.03-.02.06-.02.11-.05.16-.07.06-.02.11-.04.17-.06,0,0,.02,0,.03,0,0,0,.02,0,.03,0,.04-.01.07-.03.11-.04.06-.02.11-.03.17-.05.03,0,.05-.01.08-.02.01,0,.02,0,.04,0,.02,0,.04,0,.05-.01.06-.01.12-.02.18-.03.04,0,.07,0,.11-.01.01,0,.03,0,.04,0,.01,0,.02,0,.04,0,.07,0,.13,0,.19,0,.03,0,.06,0,.08,0,.02,0,.04,0,.06,0,.02,0,.04,0,.07,0,.08,0,.16.02.24.03,0,0,0,0,0,0,.02,0,.03,0,.05.01.08.02.16.04.23.06,0,0,.01,0,.02,0,.11.04.22.09.31.15l27.21,15.81c-.1-.06-.21-.11-.31-.15-.08-.03-.16-.05-.25-.07-.02,0-.03-.01-.05-.01-.1-.02-.2-.03-.31-.04-.02,0-.04,0-.06,0-.1,0-.21,0-.31,0-.01,0-.03,0-.04,0-.11.01-.22.03-.34.05-.01,0-.02,0-.04,0-.12.03-.24.06-.36.1,0,0-.02,0-.03,0-.13.04-.26.1-.39.16,0,0-.02,0-.03.01-.13.06-.27.13-.41.21-.14.08-.28.17-.41.26,0,0-.02.01-.02.02-.13.09-.25.18-.37.28-.01.01-.03.02-.04.03-.12.1-.24.2-.35.31-.01.01-.03.03-.04.04-.12.11-.23.22-.34.34,0,0-.02.02-.03.03-.12.13-.23.26-.35.39,0,0,0,0,0,0-.22.27-.43.55-.62.84-.06.09-.11.17-.16.26-.05.07-.09.15-.14.22-.02.04-.04.07-.06.11-.07.13-.14.25-.21.38,0,.01-.01.03-.02.04-.08.16-.15.32-.22.48,0,0,0,.02-.01.03-.07.16-.13.31-.19.47,0,.01,0,.02-.01.03-.06.16-.11.33-.16.49,0,0,0,.02,0,.03-.05.16-.09.31-.13.47,0,.01,0,.03-.01.04-.04.16-.07.32-.09.48,0,0,0,0,0,0-.03.16-.04.32-.06.48,0,.01,0,.03,0,.04-.01.16-.02.32-.02.48,0,.16,0,.31.02.45,0,.01,0,.03,0,.04.01.13.03.26.06.38,0,.02,0,.03,0,.05.02.12.05.23.09.34,0,.02.01.04.02.06.03.1.07.2.11.29,0,.01,0,.02.01.03.05.11.1.21.16.3,0,.01.02.02.03.04.05.07.1.14.16.21.02.02.04.05.06.07.05.05.1.1.15.15.02.02.04.04.07.06.08.06.15.12.24.17l-27.21-15.81c-.08-.05-.16-.1-.24-.17-.02-.02-.04-.04-.07-.06-.05-.05-.1-.1-.15-.15-.02-.02-.04-.05-.06-.07-.06-.07-.11-.14-.16-.21,0-.01-.02-.02-.03-.04,0,0,0,0,0,0-.06-.09-.11-.18-.15-.28,0,0,0,0,0-.01,0-.01,0-.02-.01-.03-.03-.06-.06-.13-.08-.19-.01-.03-.02-.07-.03-.1,0-.02-.01-.04-.02-.06,0-.02-.01-.04-.02-.05-.02-.07-.04-.14-.05-.21,0-.03-.01-.05-.02-.08,0-.02,0-.03,0-.05,0-.02-.01-.05-.01-.07-.01-.06-.02-.13-.03-.2,0-.04,0-.07-.01-.11,0-.01,0-.03,0-.04,0-.02,0-.03,0-.05,0-.06,0-.13-.01-.19,0-.07,0-.13,0-.2,0,0,0,0,0-.01,0-.06,0-.12,0-.19h0Z"/>
          <g>
            <polygon class="cls-1" points="438.56 243.84 438.56 243.85 438.59 243.86 438.56 243.84 438.56 243.84"/>
            <polygon class="cls-1" points="438.47 243.77 438.47 243.77 438.46 243.76 438.47 243.77"/>
            <polygon class="cls-1" points="438.4 243.7 438.41 243.7 438.41 243.71 438.4 243.69 438.4 243.7"/>
            <polygon class="cls-1" points="438.37 243.65 438.37 243.65 438.38 243.66 438.37 243.65 438.37 243.65"/>
            <path class="cls-1" d="M439.02,244.15s.01,0,.02.01c0,0,0,0,0,0-.02-.01-.04-.02-.06-.03.01,0,.02.01.03.02h0Z"/>
            <path class="cls-1" d="M438.83,244.03h.02s.01.02.02.02c-.02-.01-.04-.02-.06-.04,0,0,.01,0,.02.01h0Z"/>
            <polygon class="cls-1" points="438.68 243.93 438.7 243.94 438.72 243.96 438.67 243.92 438.68 243.93"/>
            <path class="cls-34" d="M442.99,245.86c.04-.07-.25-.31-.86-.67-1-.58-2.46-1.26-3.25-1.51-.33-.1-.49-.12-.5-.06,0,0,0,0,0,0l-13.73,28.32c.87,1.15,3.12,2.33,4.54,2.4l13.81-28.48s0,0,0,0h0ZM438.37,243.65s0,0,0,0c0,0,0,0,0,0,0,0,0,0,0,.01,0,0,0,0,0,0ZM438.41,243.7s0,0,0,0c0,0,0,0,0,0,0,0,0,.01.01.02,0,0,0,0,0,0h0ZM438.47,243.77s0,0,0,0c0,0,0,0,.01.01h0s0,0,0,0ZM438.56,243.85s0,0,0,0c0,0,0,0,0,0,0,0,.02.01.03.02,0,0-.02-.01-.02-.02h0ZM438.7,243.94s0,0-.01,0c0,0,0,0-.01,0,.01.01.03.02.05.03,0,0-.02-.01-.02-.02h0ZM438.85,244.05h-.02s-.01-.02-.02-.03c.02.01.04.02.06.04,0,0-.01,0-.02,0h0ZM439.04,244.16s-.01,0-.02-.01c-.01,0-.02-.01-.03-.02.02.01.04.02.06.03,0,0,0,0,0,0h0ZM442.67,245.84h.04s-.04,0-.04,0ZM442.84,245.87s0,0,.01,0c0,0,0,0-.01,0ZM442.93,245.88s0,0,.01,0c0,0,0,0-.01,0Z"/>
          </g>
        </g>
        <path class="cls-16" d="M434.2,260.81c1.26.52,5.23-5.25,5.94-5.88.71-.64.3,4.9-.15,6.79-.46,1.89-2.17,2.89-3.72,3.65s-1.33,1.46-3.83,1.08c-2.49-.37,1.77-5.64,1.77-5.64h0Z"/>
        <g>
          <path class="cls-21" d="M341.28,276.79s16.61-56.32,21.26-53.54c4.64,2.79-7.6,51.25-11.13,54.4-3.53,3.16-10.13-.86-10.13-.86Z"/>
          <path class="cls-21" d="M361.73,225.68s3.8-6.47,6.61-6.06c2.81.41-4.55,9.34-6.2,9.26-1.65-.08-.41-3.2-.41-3.2h0Z"/>
          <path class="cls-35" d="M344.25,337.44s-14.78-45.53-8.45-55.91c8.12-13.32,11.51-8.53,17.83-4.01,1.91,1.37-2.49,55.02-9.38,59.93Z"/>
          <path class="cls-5" d="M340.39,299.72c4.17,1.06,1.1,34.63-.32,34.83"/>
          <g>
            <path class="cls-6" d="M401.92,578.62c-8.33,4.81-28.58.91-45.24-8.71-16.66-9.62-23.41-21.31-15.08-26.12,8.33-4.81,28.58-.91,45.24,8.71,16.66,9.62,23.41,21.31,15.08,26.12Z"/>
            <g>
              <path class="cls-18" d="M388.15,560.73s0,.02-.01.02l-5.32.46,3.71,1.37c-6.73,11.12-12.74,2.24-13.54,2.49-.82.26-3.1,6.31-1.24,11.28.4,1.08.36,1.21,1.04,1.87.04.38.11.8.26,1.15.43,1.03,3.48,2.67,6.42,2.67s8.46-4.85,8.46-4.85v-1.1c2.6-1.71,5.2-3.28,6.36-3.34,2.28-.13,13.46-7.68,13.46-12.03s-14.67-4.56-19.59,0h0Z"/>
              <path class="cls-42" d="M387.03,562.52l-3.97-1.29c.01-.53.03-1.06.05-1.58.15-3.71,1.73-9.62-1.7-9.7-3.43-.08-7.96-2.15-8.22,8.44,0,0-.15,6.61,0,7.56s1.69,2.89,7.31,2.89c1.34,0,3.08-.77,3.08-.77,0,0,3.83-1.42,5.2-3.97l-1.75-1.6h0Z"/>
            </g>
            <g>
              <path class="cls-18" d="M363.63,545.14s0,.02-.01.02l-5.32.46,3.71,1.37c-6.73,11.12-12.74,2.24-13.54,2.49-.82.26-3.1,6.31-1.24,11.28.4,1.08.36,1.21,1.04,1.87.04.38.11.8.26,1.15.43,1.03,3.48,2.67,6.42,2.67s8.46-4.85,8.46-4.85v-1.1c2.6-1.71,5.2-3.28,6.36-3.34,2.28-.13,13.46-7.68,13.46-12.03s-14.67-4.56-19.59,0Z"/>
              <path class="cls-42" d="M362.5,546.93l-3.97-1.29c.01-.53.03-1.06.05-1.58.15-3.71,1.73-9.62-1.7-9.7-3.43-.08-7.96-2.15-8.22,8.44,0,0-.15,6.61,0,7.56s1.69,2.89,7.31,2.89c1.34,0,3.08-.77,3.08-.77,0,0,3.83-1.42,5.2-3.97l-1.75-1.6h0Z"/>
            </g>
            <path class="cls-45" d="M345.15,365.92c-7.57,7.58-6.5,19.2-3.39,30.11,3.11,10.91,33.63-18.51,33.63-18.51l-30.25-11.6Z"/>
            <path class="cls-45" d="M367.96,450.9s-3.04,50.98-2.72,88.49c.02,2.13-8.1,9.02-10.39,9.12-2.8.13-10.21-2.41-9.99-6.36,1.25-22.65-3.08-73.89-3.66-93.52-.99-33.75,26.76,2.27,26.76,2.27h0Z"/>
            <path class="cls-45" d="M340.82,377.74c-.25,52.67-3.63,96.91,13.68,97.94,22.23,1.32,13.72-64.41,16.05-87.41,3.16-31.3-29.65-24.71-29.72-10.53h0Z"/>
            <path class="cls-9" d="M366.03,498.91l-8.62-89.47c-1.89-1.38-4.03-4.85-6.24-8.92,0,0,3.43,10.76,5.5,11.9,0,0-.11.71-.19,1.3-1.93,16.11,4.66,57.27,9.55,85.18h0Z"/>
            <path class="cls-45" d="M392.12,465.14s-3.04,53.02-2.72,90.52c.02,2.13-8.1,6.98-10.39,7.09-2.8.13-10.21-2.41-9.99-6.36,1.25-22.65-4.45-66.48-4.01-86.11.34-15.28,27.12-5.14,27.12-5.14Z"/>
            <path class="cls-45" d="M361.79,390.45c-.25,52.67-.44,98.45,16.86,99.47,22.23,1.32,10.54-65.95,12.86-88.94,3.16-31.3-29.65-24.71-29.72-10.53h0Z"/>
          </g>
          <g>
            <path class="cls-35" d="M392.6,361.86c-.7-7.37-2.58-17.35-5.2-26.56-3.28-11.53,2.85-24.16,1.71-36.65-.02-.2-.03-.41-.06-.61-1.41-12.69-16.22-15.68-16.22-15.68l-19.2-4.84s-11.23.04-13.16,7.05c-1.93,7.02-1.96,28.24-1.12,37.02.84,8.78.83,49.01-1.23,63.28-.72,5.02,29.45,14.2,37.27,13.59,7.82-.61,18.35-6.41,20.47-9.64.88-1.35-2.77-21.71-3.27-26.96h0Z"/>
            <path class="cls-5" d="M388.47,301.73c-7.07,3.33-14.74,9.45-14.3,20.29.57,14.15,9.21,33.39,18.19,43.15-.7-7.37-1.82-19.64-4.34-26.57-3.88-10.67.72-24.23.45-36.87Z"/>
          </g>
          <g>
            <path class="cls-20" d="M364.18,284.21c3.37,0,8.17-.76,10.18-1.26-.03-.2-.05-.42-.06-.66-.14-3.44,4.44-13.88-.61-17.13-5.06-3.25-13.93-3.38-14.68,2.56-.66,5.25-3.1,10.92-3.44,11.54,1.39,1.74,4.46,4.94,8.62,4.95h0Z"/>
            <path class="cls-44" d="M384.23,244.22c.95,1.37-.44,7.16.28,10.12,2.28,9.34,1.83,21.94-13.94,22.44-15.41.48-16.1-7.2-16.59-17.04-.49-9.84-4.52-14.35,5.76-20.04,10.27-5.69,20.52-1.21,24.49,4.52h0Z"/>
            <path class="cls-2" d="M386.77,245.36c.59-10.77-15.64-15.04-23.51-14.15-3.17.36-10.82,2.6-11.94,7.07-13.04,11.83,1.78,34.66,10.99,35.89,3.98.53,8.41-.21,10.64-2.61.31-.34,1.7-2.21,1.24-2.15-1.52.21-4.07-1.36-3.79-6.72.44-8.57,3.92-4.39,4.74-2.88.83,1.51,1.19,4.51,1.19,4.51l1.05,1.7,1.31-4.91c2.61-3.2,3.94-5.55,4.76-8.72,1.07-3.18,2.8-4.12,3.33-7.04h0Z"/>
          </g>
          <path class="cls-20" d="M356.23,278.37c-.46.18-1.43.49-1.26,1.19.17.7,4.3,4.7,7.9,5.05,3.6.35,11.62-.3,12.17-1.04.84-1.12-18.14-5.46-18.82-5.2h0Z"/>
          <path class="cls-16" d="M422.91,320.44c5.51-1.17,14.51-56.92,8.28-57.99-3.89-.67-15.12,36.39-14.56,47.22.56,10.83,6.28,10.78,6.28,10.78h0Z"/>
          <path class="cls-16" d="M388.28,313.34c-2.09,6.25,25.44,8.43,33.63,7.5,5.58-.63-2.47-14.15-21.1-14.43-18.62-.28-10.44.69-12.53,6.93h0Z"/>
          <path class="cls-35" d="M379.76,285.06c-.24-.66,14.38,7.66,17.26,12.85,2.49,4.5,16.9-.53,17.71,12.93.38,6.33,1.53,9.68,1.2,13.43,0,0,2.53,7.03-5.95,12.22,0,0-34.38-3.39-36.06-23.16,0,0,6.23-27.19,5.83-28.28h0Z"/>
          <path class="cls-16" d="M428.14,265.32c-1.07-1.55-.98-4.73.29-6.54,1.26-1.81,1.09-4.56,3.41-5.67,3.4-1.62-.81,4.25,1.06,6.38s3.09,1.99.89,5.59c-2.2,3.6-5.65.24-5.65.24h0Z"/>
        </g>
      </g>
      <g>
        <path class="cls-32" d="M470.07,694.54c.14,0,.27-.05.38-.15.22-.21.22-.56.01-.77l-23.28-24c-.21-.22-.56-.22-.77-.01-.22.21-.22.56-.01.77l23.28,24c.11.11.25.17.39.17h0Z"/>
        <g>
          <polygon class="cls-7" points="434.92 675.6 463.1 691.87 424.08 714.39 395.91 698.12 434.92 675.6"/>
          <g>
            <g>
              <polygon class="cls-18" points="404.96 688.01 396.37 683.05 435.15 660.66 462.09 676.22 452.5 681.75 434.15 671.16 404.96 688.01"/>
              <polygon class="cls-26" points="404.96 688.01 434.15 671.16 452.5 681.75 423.31 698.6 404.96 688.01"/>
            </g>
            <path class="cls-13" d="M392.55,683.05l30.77,17.76,42.6-24.59-30.77-17.76-42.6,24.59h0ZM404.96,688.01l-8.59-4.96,38.77-22.39,26.94,15.55-9.59,5.54-29.19,16.85-18.35-10.59h0Z"/>
            <polygon class="cls-25" points="392.55 683.05 398.29 697.03 424.24 712.01 423.31 700.81 392.55 683.05"/>
            <polygon class="cls-18" points="465.91 676.22 460.17 691.27 424.24 712.01 423.31 700.81 465.91 676.22"/>
          </g>
        </g>
        <path class="cls-32" d="M429.01,718.25c.14,0,.27-.05.38-.15.22-.21.22-.56.01-.77l-23.28-24c-.21-.22-.56-.22-.77-.01-.22.21-.22.56-.01.77l23.28,24c.11.11.25.17.39.17h0Z"/>
        <path class="cls-32" d="M429.01,718.25c.09,0,.19-.02.27-.07l41.06-23.71c.26-.15.35-.49.2-.75-.15-.26-.49-.35-.75-.2l-41.06,23.71c-.26.15-.35.49-.2.75.1.18.28.27.47.27h0Z"/>
      </g>
      <g>
        <path class="cls-32" d="M446.88,760.36c.14,0,.27-.05.38-.15.22-.21.22-.56.01-.77l-23.28-24c-.21-.22-.56-.22-.77-.01-.22.21-.22.56-.01.77l23.28,24c.11.11.25.17.39.17h0Z"/>
        <g>
          <polygon class="cls-7" points="411.73 741.42 439.91 757.68 400.89 780.21 372.72 763.94 411.73 741.42"/>
          <g>
            <g>
              <polygon class="cls-18" points="381.77 753.83 373.18 748.87 411.96 726.48 438.9 742.03 429.31 747.57 410.96 736.97 381.77 753.83"/>
              <polygon class="cls-30" points="381.77 753.83 410.96 736.97 429.31 747.57 400.12 764.42 381.77 753.83"/>
            </g>
            <path class="cls-13" d="M369.36,748.87l30.77,17.76,42.6-24.59-30.77-17.76-42.6,24.59h0ZM381.77,753.83l-8.59-4.96,38.77-22.39,26.94,15.55-9.59,5.54-29.19,16.85-18.35-10.59h0Z"/>
            <polygon class="cls-25" points="369.36 748.87 375.1 762.85 401.05 777.83 400.12 766.63 369.36 748.87"/>
            <polygon class="cls-18" points="442.72 742.03 436.98 757.08 401.05 777.83 400.12 766.63 442.72 742.03"/>
          </g>
        </g>
        <path class="cls-32" d="M405.82,784.06c.14,0,.27-.05.38-.15.22-.21.22-.56.01-.77l-23.28-24c-.21-.22-.56-.22-.77-.01-.22.21-.22.56-.01.77l23.28,24c.11.11.25.17.39.17h0Z"/>
        <path class="cls-32" d="M405.82,784.06c.09,0,.19-.02.27-.07l41.06-23.71c.26-.15.35-.49.2-.75-.15-.26-.49-.35-.75-.2l-41.06,23.71c-.26.15-.35.49-.2.75.1.18.28.27.47.27h0Z"/>
      </g>
      <g>
        <g>
          <path class="cls-31" d="M533.15,810.37l-99.76,57.59c-10.42,6.02-26.18,6.67-35.2,1.46h0c-9.02-5.21-7.89-14.31,2.53-20.32l99.76-57.59c10.42-6.02,26.18-6.67,35.2-1.46h0c9.02,5.21,7.89,14.31-2.53,20.32h0Z"/>
          <path class="cls-30" d="M504.13,790.7c8.39-4.84,22.03-4.84,30.42,0,8.39,4.84,8.39,12.72,0,17.56l-104.81,60.51c-8.39,4.84-22.03,4.84-30.42,0-8.39-4.84-8.39-12.72,0-17.56l104.81-60.51M503,790.04l-104.81,60.51c-9.02,5.21-9.02,13.66,0,18.86,9.02,5.21,23.65,5.21,32.67,0l104.81-60.51c9.02-5.21,9.02-13.66,0-18.86-9.02-5.21-23.65-5.21-32.67,0h0Z"/>
        </g>
        <polygon class="cls-30" points="526.85 795.14 512.25 797.4 522.94 803.57 526.85 795.14"/>
      </g>
      <g>
        <polygon class="cls-30" points="602.7 828.74 465.21 908.12 432.54 889.26 570.03 809.88 602.7 828.74"/>
        <polygon class="cls-31" points="577.54 824.4 562.93 826.66 573.63 832.84 577.54 824.4"/>
      </g>
      <g>
        <g>
          <polygon class="cls-31" points="653.39 858.01 515.9 937.38 483.23 918.52 620.71 839.14 653.39 858.01"/>
          <path class="cls-30" d="M620.71,840.44l30.42,17.56-135.24,78.08-30.42-17.56,135.24-78.08M620.71,839.14l-137.49,79.38,32.68,18.87,137.49-79.38-32.68-18.87h0Z"/>
        </g>
        <polygon class="cls-30" points="625.11 862.13 623.52 862.07 624.23 855.97 613.67 856.39 613.56 855.47 625.94 854.99 625.11 862.13"/>
      </g>
      <g>
        <g class="cls-12">
          <path class="cls-29" d="M465.87,711.62c-7.53,4.35-7.57,11.4-.09,15.75,7.48,4.35,19.65,4.35,27.19,0,7.53-4.35,7.57-11.4.09-15.75-7.48-4.35-19.65-4.35-27.19,0h0Z"/>
        </g>
        <g>
          <g>
            <path class="cls-40" d="M497.78,681.94c0,.09-.01.18-.02.28,0,.08-.02.16-.03.24-.01.09-.03.18-.04.27-.01.08-.03.16-.05.24-.02.09-.04.18-.07.27-.02.08-.05.16-.07.24-.03.09-.06.18-.09.27-.03.08-.06.16-.09.24-.04.09-.08.19-.12.28-.03.08-.07.15-.11.23-.04.09-.09.18-.14.27-.04.07-.08.15-.12.22-.06.11-.13.22-.2.32-.04.07-.08.13-.13.2-.08.12-.17.24-.26.35-.04.06-.08.11-.12.17-.02.03-.04.05-.06.08-.1.12-.2.23-.3.35-.03.03-.06.06-.08.09-.12.13-.25.27-.38.4-.02.02-.05.05-.07.07-.1.1-.21.2-.31.29-.09.08-.17.15-.26.23-.08.07-.17.14-.25.21-.09.08-.19.15-.29.22-.09.07-.18.14-.27.2-.1.07-.2.15-.31.22-.1.07-.19.13-.29.2-.11.07-.22.14-.33.21-.14.09-.28.17-.42.26-.27.16-.56.31-.84.46-.08.04-.17.08-.25.12-.22.11-.45.22-.68.32-.08.03-.15.07-.23.1-.3.13-.6.25-.91.37-.05.02-.11.04-.17.06-.26.1-.53.19-.8.28-.11.04-.22.07-.33.11-.15.05-.3.09-.45.14-.13.04-.25.07-.38.11-.15.04-.3.08-.46.12-.13.03-.26.07-.39.1-.15.04-.31.07-.47.11-.13.03-.26.06-.39.09-.16.03-.32.06-.48.09-.12.02-.25.05-.37.07-.34.06-.69.12-1.04.17-.05,0-.1.01-.15.02-.3.04-.61.08-.91.11-.12.01-.23.02-.35.03-.2.02-.39.03-.59.05-.12,0-.25.02-.37.03-.21.01-.41.02-.62.03-.12,0-.23.01-.35.01-.18,0-.36,0-.54.01-.12,0-.25,0-.37,0-.19,0-.38,0-.57,0-.11,0-.23,0-.34,0-.17,0-.35-.01-.52-.02-.12,0-.25,0-.37-.02-.19-.01-.38-.02-.56-.04-.11,0-.22-.01-.32-.02-.22-.02-.45-.04-.67-.06-.07,0-.14-.01-.21-.02-.29-.03-.58-.07-.87-.11-.05,0-.1-.02-.14-.02-.25-.04-.5-.07-.74-.12-.1-.02-.21-.04-.31-.06-.19-.03-.38-.07-.57-.11-.1-.02-.2-.04-.29-.06-.21-.04-.41-.09-.62-.14-.11-.03-.23-.06-.34-.09-.19-.05-.37-.1-.56-.15-.1-.03-.21-.06-.31-.09-.29-.08-.58-.17-.86-.27-.05-.02-.1-.03-.16-.05-.33-.11-.65-.23-.97-.35-.13-.05-.26-.1-.39-.16-.1-.04-.2-.08-.3-.13-.14-.06-.29-.13-.43-.19-.09-.04-.19-.08-.28-.13-.15-.07-.31-.15-.46-.23-.08-.04-.15-.07-.23-.11-.22-.12-.44-.24-.66-.36-3.61-2.09-5.42-4.82-5.41-7.55l-.1,36.76c0,2.73,1.8,5.47,5.41,7.55.22.12.44.25.66.36.07.04.15.08.23.11.15.08.3.15.46.23.09.04.19.08.28.13.14.06.28.13.43.19.1.04.2.08.3.13.1.04.19.08.29.12.03.01.06.02.09.03.32.12.64.24.97.35.05.02.1.03.15.05.29.09.57.18.87.27.05.01.1.03.14.04.06.02.11.03.17.04.18.05.37.1.56.15.11.03.23.06.34.09.2.05.41.09.62.14.08.02.15.04.23.05.02,0,.04,0,.06.01.19.04.38.07.57.11.1.02.2.04.31.06.25.04.49.08.74.12.05,0,.09.02.14.02,0,0,0,0,0,0,.29.04.58.08.87.11.07,0,.14.01.21.02.22.02.45.05.67.06,0,0,.01,0,.02,0,.1,0,.2.01.3.02.19.01.38.03.57.04.12,0,.24,0,.36.02.18,0,.35.02.53.02.01,0,.03,0,.04,0,.1,0,.2,0,.3,0,.19,0,.38,0,.57,0,.13,0,.25,0,.38,0,.18,0,.36,0,.53-.01.03,0,.07,0,.1,0,.08,0,.17,0,.25-.01.2,0,.41-.02.61-.03.12,0,.25-.02.37-.03.2-.01.39-.03.59-.05.07,0,.14-.01.21-.02.05,0,.1-.01.14-.02.3-.03.61-.07.91-.11.05,0,.1-.01.15-.02.35-.05.69-.1,1.04-.17.03,0,.06,0,.1-.02.09-.02.18-.04.27-.05.16-.03.32-.06.48-.09.13-.03.26-.06.39-.08.16-.03.31-.07.47-.11.13-.03.26-.06.39-.1.15-.04.31-.08.46-.12.13-.04.25-.07.38-.11.15-.04.3-.09.45-.14.06-.02.13-.04.19-.06.05-.02.09-.03.14-.05.27-.09.53-.18.8-.28.05-.02.11-.04.17-.06.31-.12.61-.24.91-.37.08-.03.15-.07.23-.1.23-.1.46-.21.68-.32.08-.04.17-.08.25-.12.29-.15.57-.3.84-.46.08-.04.15-.09.22-.13.07-.04.13-.09.2-.13.11-.07.22-.14.33-.21.1-.07.2-.13.29-.2.1-.07.21-.14.31-.22.09-.07.18-.14.27-.2.1-.07.19-.15.29-.22.09-.07.17-.14.25-.21.09-.08.18-.15.26-.23.04-.03.07-.06.11-.1.07-.07.14-.13.21-.2.02-.02.05-.05.07-.07.13-.13.26-.26.38-.4.03-.03.06-.06.08-.09.1-.12.2-.23.3-.35.02-.03.04-.05.06-.08,0-.01.02-.02.03-.04.03-.04.06-.09.1-.13.09-.12.18-.24.26-.35.04-.07.09-.13.13-.2.07-.11.14-.22.2-.32.02-.03.04-.06.05-.09.02-.04.04-.09.07-.13.05-.09.1-.18.14-.27.04-.08.07-.15.11-.23.04-.09.08-.18.12-.28.02-.04.04-.08.05-.12.01-.04.02-.07.04-.11.03-.09.06-.18.09-.27.02-.08.05-.16.07-.24.02-.09.05-.18.07-.27.01-.05.03-.1.04-.14,0-.03,0-.07.02-.1.02-.09.03-.18.04-.27.01-.08.02-.16.03-.24,0-.09.01-.18.02-.28,0-.05,0-.11.01-.16,0-.05,0-.11,0-.16l.1-36.76c0,.11,0,.22-.01.32h0Z"/>
            <path class="cls-46" d="M492.39,674.06c7.18,4.14,7.22,10.86.08,15s-18.73,4.14-25.9,0-7.22-10.86-.08-15c7.13-4.14,18.73-4.14,25.9,0h0Z"/>
            <g class="cls-38">
              <path class="cls-31" d="M492.39,674.06c7.18,4.14,7.22,10.86.08,15s-18.73,4.14-25.9,0-7.22-10.86-.08-15c7.13-4.14,18.73-4.14,25.9,0h0Z"/>
            </g>
            <path class="cls-7" d="M467.08,682.67c6.79-3.95,17.88-3.95,24.71,0,1.57.91,2.78,1.95,3.63,3.06,2.87-3.73,1.66-8.26-3.63-11.32-6.83-3.95-17.92-3.95-24.71,0-5.23,3.04-6.4,7.54-3.55,11.26.84-1.09,2.02-2.1,3.55-2.99h0Z"/>
            <path class="cls-14" d="M467.16,688.72c6.84,3.95,17.92,3.95,24.71,0,1.53-.89,2.71-1.91,3.55-2.99-.85-1.11-2.06-2.15-3.63-3.06-6.83-3.95-17.92-3.95-24.71,0-1.53.89-2.71,1.91-3.55,2.99.85,1.11,2.06,2.15,3.63,3.06Z"/>
            <path class="cls-30" d="M473.5,720.44s0-.01.01-.02c.01-.03.02-.06.03-.1,0,0,0,0,0,0,0-.02,0-.04,0-.05,0-.02,0-.04,0-.06,0,0,0,0,0,0v-22.46s0-.03,0-.04c0-.02,0-.04,0-.07,0-.02-.01-.04-.02-.06,0-.02,0-.03-.01-.05,0-.02-.02-.04-.03-.06,0-.01-.01-.03-.02-.04-.01-.02-.02-.03-.04-.05-.01-.01-.02-.03-.03-.04-.01-.01-.03-.02-.04-.04-.01-.01-.03-.02-.04-.03-.02-.01-.03-.02-.05-.03-.01,0-.03-.02-.04-.02-.02-.01-.05-.02-.07-.02-.01,0-.02,0-.03-.01-2.45-.53-4.64-1.35-6.51-2.42-.74-.43-1.41-.89-2.01-1.38,0,0-.01,0-.02-.01-.02-.01-.04-.02-.05-.04-.01,0-.03-.02-.04-.02-.02,0-.04-.02-.06-.02-.02,0-.03-.01-.05-.02-.02,0-.03,0-.05-.01-.02,0-.04,0-.06,0,0,0-.02,0-.02,0,0,0-.02,0-.03,0-.02,0-.04,0-.06,0-.02,0-.03,0-.05,0-.02,0-.04.01-.06.02-.01,0-.03.01-.04.02-.02,0-.04.02-.05.03-.01,0-.03.02-.04.03-.02.01-.03.02-.05.04-.01.01-.02.02-.04.04,0,0-.02.01-.02.02,0,0,0,.02-.02.02-.01.01-.02.03-.03.04-.01.02-.02.03-.03.05,0,.01-.01.03-.02.04,0,.02-.01.04-.02.06,0,.01,0,.03,0,.04,0,.02,0,.05,0,.07,0,0,0,.01,0,.02v22.46s0,.02,0,.02c0,.02,0,.04,0,.06,0,.02,0,.03,0,.05,0,.02.01.04.02.06,0,.02.01.03.02.05,0,.02.02.03.03.05,0,.01.02.03.03.04.01.02.02.03.04.04.01.01.03.03.04.04,0,0,.01.01.02.02.64.53,1.37,1.02,2.16,1.48,1.97,1.14,4.27,1.99,6.83,2.55,0,0,0,0,0,0,.03,0,.07.01.1.01,0,0,0,0,.01,0,.04,0,.07,0,.11-.01.01,0,.02,0,.03,0,.02,0,.04-.01.07-.02.01,0,.02-.01.04-.02.02,0,.04-.02.05-.03.01,0,.02-.01.03-.02.02-.01.03-.03.05-.04,0,0,.02-.02.03-.03.02-.02.03-.03.04-.05,0,0,.01-.02.02-.03.01-.02.03-.05.04-.07h0ZM464.8,716.02v-21.05c.39.27.8.54,1.24.79,1.85,1.07,4,1.89,6.39,2.44v21.3c-2.18-.53-4.14-1.29-5.83-2.26-.66-.38-1.26-.79-1.8-1.21Z"/>
          </g>
          <g>
            <path class="cls-41" d="M460.21,682.06c0,.1.01.19.02.29,0,.08.02.17.03.25.01.1.03.19.05.29.02.08.03.17.05.25.02.09.04.19.07.28.02.08.05.17.07.25.03.09.06.19.09.28.03.08.06.17.09.25.04.1.08.19.12.29.04.08.07.16.11.24.05.1.1.19.15.29.04.08.08.16.13.23.07.11.14.23.21.34.04.07.09.14.13.21.09.12.18.25.27.37.04.06.08.12.13.17.02.03.04.05.07.08.1.12.2.25.31.37.03.03.06.07.09.1.13.14.26.28.4.42.03.02.05.05.08.07.11.1.22.2.33.31.09.08.18.16.28.24.09.07.18.15.27.22.1.08.2.16.3.23.09.07.19.14.29.21.11.08.21.15.32.23.1.07.2.14.31.21.11.07.23.15.35.22.15.09.29.18.45.27.29.17.58.33.88.48.09.04.17.09.26.13.23.12.47.23.71.34.08.04.16.07.24.11.31.14.63.27.96.39.06.02.12.04.17.06.27.1.55.2.83.29.12.04.23.08.35.11.16.05.31.1.47.14.13.04.27.08.4.11.16.04.32.09.48.13.13.03.27.07.4.1.16.04.33.08.49.11.14.03.27.06.41.09.17.03.33.07.5.1.13.02.26.05.39.07.36.06.72.12,1.09.17.05,0,.1.01.15.02.32.04.64.08.96.11.12.01.24.02.37.04.21.02.41.04.62.05.13,0,.26.02.39.03.22.01.43.02.65.03.12,0,.24.01.37.02.19,0,.37,0,.56.01.13,0,.26,0,.39,0,.2,0,.4,0,.6,0,.12,0,.24,0,.36,0,.18,0,.37-.01.55-.02.13,0,.26,0,.39-.02.2-.01.39-.03.59-.04.11,0,.23-.01.34-.02.23-.02.47-.04.7-.07.08,0,.15-.01.23-.02.31-.03.61-.07.92-.12.04,0,.09-.01.13-.02.27-.04.53-.08.8-.13.11-.02.21-.04.32-.06.2-.04.4-.07.6-.11.1-.02.2-.04.31-.07.22-.05.43-.09.65-.15.12-.03.24-.06.36-.09.2-.05.39-.1.58-.15.11-.03.22-.06.33-.09.31-.09.61-.18.91-.28.05-.02.11-.03.16-.05.34-.12.68-.24,1.02-.37.14-.05.27-.11.4-.16.11-.04.21-.09.32-.13.15-.06.3-.13.45-.2.1-.04.2-.09.29-.13.16-.08.32-.16.48-.24.08-.04.16-.08.24-.12.23-.12.47-.25.69-.38,3.79-2.19,5.68-5.06,5.67-7.93v2.3c.01,2.87-1.88,5.74-5.67,7.93-.23.13-.46.26-.69.38-.08.04-.16.08-.24.12-.16.08-.32.16-.48.24-.1.05-.19.09-.29.13-.15.07-.3.14-.45.2-.11.05-.21.09-.32.13-.1.04-.2.09-.31.13-.03.01-.07.02-.1.04-.33.13-.67.25-1.02.37-.05.02-.11.03-.16.05-.3.1-.6.19-.91.28-.05.01-.1.03-.15.05-.06.02-.12.03-.18.05-.19.05-.39.1-.58.15-.12.03-.24.06-.36.09-.21.05-.43.1-.65.15-.08.02-.16.04-.24.05-.02,0-.04,0-.07.01-.2.04-.4.08-.6.11-.11.02-.21.04-.32.06-.26.05-.52.09-.79.12-.05,0-.09.01-.13.02,0,0,0,0,0,0-.3.04-.61.08-.92.12-.08,0-.15.01-.23.02-.23.02-.47.05-.7.07,0,0-.01,0-.02,0-.11,0-.22.01-.32.02-.2.01-.39.03-.59.04-.13,0-.26.01-.39.02-.18,0-.37.02-.55.02-.02,0-.03,0-.05,0-.1,0-.21,0-.31,0-.2,0-.4,0-.6,0-.13,0-.26,0-.39,0-.19,0-.37,0-.56-.01-.03,0-.07,0-.1,0-.09,0-.17,0-.26-.01-.22,0-.43-.02-.65-.03-.13,0-.26-.02-.39-.03-.21-.02-.41-.03-.62-.05-.07,0-.15-.01-.22-.02-.05,0-.1-.01-.15-.02-.32-.03-.64-.07-.96-.11-.05,0-.1-.01-.15-.02-.36-.05-.73-.11-1.09-.17-.03,0-.07-.01-.1-.02-.1-.02-.19-.04-.29-.06-.17-.03-.34-.06-.5-.1-.14-.03-.27-.06-.41-.09-.16-.04-.33-.07-.49-.11-.14-.03-.27-.07-.4-.1-.16-.04-.32-.08-.48-.13-.13-.04-.27-.08-.4-.11-.16-.05-.31-.09-.47-.14-.07-.02-.14-.04-.21-.06-.05-.02-.1-.03-.14-.05-.28-.09-.56-.19-.83-.29-.06-.02-.12-.04-.17-.06-.32-.12-.64-.25-.96-.39-.08-.04-.16-.07-.24-.11-.24-.11-.48-.22-.71-.34-.09-.04-.18-.09-.26-.13-.3-.15-.6-.31-.88-.48-.08-.05-.16-.09-.23-.14-.07-.04-.14-.09-.21-.13-.12-.07-.24-.15-.35-.22-.1-.07-.21-.14-.31-.21-.11-.08-.22-.15-.32-.23-.1-.07-.19-.14-.29-.21-.1-.08-.2-.16-.3-.23-.09-.07-.18-.15-.27-.22-.09-.08-.19-.16-.28-.24-.04-.03-.08-.07-.11-.1-.07-.07-.14-.14-.22-.21-.03-.02-.05-.05-.08-.07-.14-.14-.27-.28-.4-.42-.03-.03-.06-.07-.09-.1-.11-.12-.21-.24-.31-.37-.02-.03-.04-.05-.07-.08,0-.01-.02-.02-.03-.04-.04-.05-.07-.09-.1-.14-.09-.12-.19-.25-.27-.37-.05-.07-.09-.14-.13-.21-.07-.11-.14-.23-.21-.34-.02-.03-.04-.06-.06-.09-.03-.05-.05-.09-.07-.14-.05-.1-.1-.19-.15-.29-.04-.08-.08-.16-.11-.24-.04-.1-.08-.19-.12-.29-.02-.04-.04-.09-.05-.13-.01-.04-.03-.08-.04-.12-.03-.09-.06-.19-.09-.28-.03-.08-.05-.17-.07-.25-.03-.09-.05-.19-.07-.28-.01-.05-.03-.1-.04-.15,0-.03,0-.07-.02-.1-.02-.1-.03-.19-.05-.29-.01-.08-.02-.17-.03-.25,0-.1-.02-.19-.02-.29,0-.06-.01-.11-.01-.17,0-.06,0-.11,0-.17v-2.3c0,.11,0,.23,0,.34h0Z"/>
            <path class="cls-40" d="M465.87,673.79c-7.53,4.35-7.57,11.4-.09,15.75,7.48,4.35,19.65,4.35,27.19,0,7.53-4.35,7.57-11.4.09-15.75-7.48-4.35-19.65-4.35-27.19,0h0Z"/>
          </g>
        </g>
      </g>
      <g>
        <g class="cls-12">
          <path class="cls-29" d="M530.8,725.2c7.53,4.35,7.57,11.4.09,15.75-7.48,4.35-19.65,4.35-27.19,0-7.53-4.35-7.57-11.4-.09-15.75,7.48-4.35,19.65-4.35,27.19,0h0Z"/>
        </g>
        <g>
          <g>
            <path class="cls-40" d="M498.9,695.52c0,.09.01.18.02.28,0,.08.02.16.03.24.01.09.03.18.04.27.01.08.03.16.05.24.02.09.04.18.07.27.02.08.05.16.07.24.03.09.06.18.09.27.03.08.06.16.09.24.04.09.08.19.12.28.03.08.07.15.11.23.04.09.09.18.14.27.04.07.08.15.12.22.06.11.13.22.2.32.04.07.08.13.13.2.08.12.17.24.26.35.04.06.08.11.12.17.02.03.04.05.06.08.1.12.2.23.3.35.03.03.06.06.08.09.12.13.25.27.38.4.02.02.05.05.07.07.1.1.21.2.31.29.09.08.17.15.26.23.08.07.17.14.25.21.09.08.19.15.29.22.09.07.18.14.27.2.1.07.2.15.31.22.1.07.19.13.29.2.11.07.22.14.33.21.14.09.28.17.42.26.27.16.56.31.84.46.08.04.17.08.25.12.22.11.45.22.68.32.08.03.15.07.23.1.3.13.6.25.91.37.05.02.11.04.17.06.26.1.53.19.8.28.11.04.22.07.33.11.15.05.3.09.45.14.13.04.25.07.38.11.15.04.3.08.46.12.13.03.26.07.39.1.15.04.31.07.47.11.13.03.26.06.39.09.16.03.32.06.48.09.12.02.25.05.37.07.34.06.69.12,1.04.17.05,0,.1.01.15.02.3.04.61.08.91.11.12.01.23.02.35.03.2.02.39.03.59.05.12,0,.25.02.37.03.21.01.41.02.62.03.12,0,.23.01.35.01.18,0,.36,0,.54.01.12,0,.25,0,.37,0,.19,0,.38,0,.57,0,.11,0,.23,0,.34,0,.17,0,.35-.01.52-.02.12,0,.25,0,.37-.02.19-.01.38-.02.56-.04.11,0,.22-.01.32-.02.22-.02.45-.04.67-.06.07,0,.14-.01.21-.02.29-.03.58-.07.87-.11.05,0,.1-.02.14-.02.25-.04.5-.07.74-.12.1-.02.21-.04.31-.06.19-.03.38-.07.57-.11.1-.02.2-.04.29-.06.21-.04.41-.09.62-.14.11-.03.23-.06.34-.09.19-.05.37-.1.56-.15.1-.03.21-.06.31-.09.29-.08.58-.17.86-.27.05-.02.1-.03.16-.05.33-.11.65-.23.97-.35.13-.05.26-.1.39-.16.1-.04.2-.08.3-.13.14-.06.29-.13.43-.19.09-.04.19-.08.28-.13.15-.07.31-.15.46-.23.08-.04.15-.07.23-.11.22-.12.44-.24.66-.36,3.61-2.09,5.42-4.82,5.41-7.55l.1,36.76c0,2.73-1.8,5.47-5.41,7.55-.22.12-.44.25-.66.36-.07.04-.15.08-.23.11-.15.08-.3.15-.46.23-.09.04-.19.08-.28.13-.14.06-.28.13-.43.19-.1.04-.2.08-.3.13-.1.04-.19.08-.29.12-.03.01-.06.02-.09.03-.32.12-.64.24-.97.35-.05.02-.1.03-.15.05-.29.09-.57.18-.87.27-.05.01-.1.03-.14.04-.06.02-.11.03-.17.04-.18.05-.37.1-.56.15-.11.03-.23.06-.34.08-.2.05-.41.09-.62.14-.08.02-.15.04-.23.05-.02,0-.04,0-.06.01-.19.04-.38.07-.57.11-.1.02-.2.04-.31.06-.25.04-.49.08-.74.12-.05,0-.09.02-.14.02,0,0,0,0,0,0-.29.04-.58.08-.87.11-.07,0-.14.01-.21.02-.22.02-.45.05-.67.06,0,0-.01,0-.02,0-.1,0-.2.01-.3.02-.19.01-.38.03-.57.04-.12,0-.24,0-.36.02-.18,0-.35.02-.53.02-.01,0-.03,0-.04,0-.1,0-.2,0-.3,0-.19,0-.38,0-.57,0-.13,0-.25,0-.38,0-.18,0-.36,0-.53-.01-.03,0-.07,0-.1,0-.08,0-.17,0-.25-.01-.2,0-.41-.02-.61-.03-.12,0-.25-.02-.37-.03-.2-.01-.39-.03-.59-.05-.07,0-.14-.01-.21-.02-.05,0-.1-.01-.14-.02-.3-.03-.61-.07-.91-.11-.05,0-.1-.01-.15-.02-.35-.05-.69-.1-1.04-.17-.03,0-.06,0-.1-.02-.09-.02-.18-.04-.27-.05-.16-.03-.32-.06-.48-.09-.13-.03-.26-.06-.39-.09-.16-.03-.31-.07-.47-.11-.13-.03-.26-.06-.39-.1-.15-.04-.31-.08-.46-.12-.13-.04-.25-.07-.38-.11-.15-.04-.3-.09-.45-.14-.06-.02-.13-.04-.19-.06-.05-.02-.09-.03-.14-.05-.27-.09-.53-.18-.8-.28-.05-.02-.11-.04-.17-.06-.31-.12-.61-.24-.91-.37-.08-.03-.15-.07-.23-.1-.23-.1-.46-.21-.68-.32-.08-.04-.17-.08-.25-.12-.29-.15-.57-.3-.84-.46-.08-.04-.15-.09-.22-.13-.07-.04-.13-.09-.2-.13-.11-.07-.22-.14-.33-.21-.1-.07-.2-.13-.29-.2-.1-.07-.21-.14-.31-.22-.09-.07-.18-.14-.27-.2-.1-.07-.19-.15-.29-.22-.09-.07-.17-.14-.25-.21-.09-.08-.18-.15-.26-.23-.04-.03-.07-.06-.11-.1-.07-.07-.14-.13-.21-.2-.02-.02-.05-.05-.07-.07-.13-.13-.26-.26-.38-.4-.03-.03-.06-.06-.08-.09-.1-.12-.2-.23-.3-.35-.02-.03-.04-.05-.06-.08,0-.01-.02-.02-.03-.04-.03-.04-.06-.09-.1-.13-.09-.12-.18-.24-.26-.35-.04-.07-.09-.13-.13-.2-.07-.11-.14-.22-.2-.32-.02-.03-.04-.06-.05-.09-.02-.04-.04-.09-.07-.13-.05-.09-.1-.18-.14-.27-.04-.08-.07-.15-.11-.23-.04-.09-.08-.18-.12-.28-.02-.04-.04-.08-.05-.12-.01-.04-.02-.07-.04-.11-.03-.09-.06-.18-.09-.27-.02-.08-.05-.16-.07-.24-.02-.09-.05-.18-.07-.27-.01-.05-.03-.1-.04-.14,0-.03,0-.07-.02-.1-.02-.09-.03-.18-.04-.27-.01-.08-.02-.16-.03-.24,0-.09-.01-.18-.02-.28,0-.05,0-.11-.01-.16,0-.05,0-.11,0-.16l-.1-36.76c0,.11,0,.22.01.32h0Z"/>
            <path class="cls-46" d="M504.29,687.64c-7.18,4.14-7.22,10.86-.08,15,7.13,4.14,18.73,4.14,25.9,0s7.22-10.86.08-15c-7.13-4.14-18.73-4.14-25.9,0h0Z"/>
            <g class="cls-38">
              <path class="cls-31" d="M504.29,687.64c-7.18,4.14-7.22,10.86-.08,15,7.13,4.14,18.73,4.14,25.9,0s7.22-10.86.08-15c-7.13-4.14-18.73-4.14-25.9,0h0Z"/>
            </g>
            <path class="cls-7" d="M529.6,696.25c-6.79-3.95-17.88-3.95-24.71,0-1.57.91-2.78,1.95-3.63,3.06-2.87-3.73-1.66-8.26,3.63-11.32,6.83-3.95,17.92-3.95,24.71,0,5.23,3.04,6.4,7.54,3.55,11.26-.84-1.09-2.02-2.1-3.55-2.99h0Z"/>
            <path class="cls-14" d="M529.51,702.3c-6.84,3.95-17.92,3.95-24.71,0-1.53-.89-2.71-1.91-3.55-2.99.85-1.11,2.06-2.15,3.63-3.06,6.83-3.95,17.92-3.95,24.71,0,1.53.89,2.71,1.91,3.55,2.99-.85,1.11-2.06,2.15-3.63,3.06h0Z"/>
            <path class="cls-48" d="M523.22,734.09s.01.02.02.03c.01.02.03.04.04.05,0,0,.02.02.03.03.02.01.03.03.05.04.01,0,.02.02.03.02.02.01.04.02.05.03.01,0,.02.01.04.02.02,0,.04.01.07.02.01,0,.02,0,.03,0,.03,0,.07.01.11.01,0,0,0,0,.01,0,.04,0,.07,0,.1-.01,0,0,0,0,0,0,2.57-.56,4.87-1.41,6.83-2.55.79-.46,1.52-.95,2.16-1.48,0,0,.01-.01.02-.02.01-.01.03-.03.04-.04.01-.01.02-.03.04-.04.01-.01.02-.03.03-.04.01-.02.02-.03.03-.05,0-.02.01-.03.02-.05,0-.02.01-.04.02-.06,0-.02,0-.03,0-.05,0-.02,0-.04,0-.06,0,0,0-.02,0-.02v-22.46s0-.01,0-.02c0-.02,0-.05,0-.07,0-.01,0-.03,0-.04,0-.02-.01-.04-.02-.06,0-.01-.01-.03-.02-.04,0-.02-.02-.04-.03-.05,0-.02-.02-.03-.03-.04,0,0,0-.02-.02-.02,0,0-.01-.01-.02-.02-.01-.01-.02-.02-.04-.04-.02-.01-.03-.03-.05-.04-.01,0-.03-.02-.04-.03-.02-.01-.04-.02-.05-.03-.01,0-.03-.01-.04-.02-.02,0-.04-.01-.06-.02-.02,0-.03,0-.05,0-.02,0-.04,0-.06,0,0,0-.02,0-.03,0,0,0-.02,0-.02,0-.02,0-.04,0-.06,0-.02,0-.04,0-.05.01-.02,0-.03,0-.05.02-.02,0-.04.01-.06.02-.01,0-.03.01-.04.02-.02.01-.04.02-.05.04,0,0-.01,0-.02.01-.6.49-1.27.95-2.01,1.38-1.86,1.08-4.05,1.89-6.51,2.42-.01,0-.02,0-.03.01-.02,0-.05.01-.07.02-.02,0-.03.02-.04.02-.02,0-.04.02-.05.03-.01.01-.03.02-.04.03-.01.01-.03.02-.04.04-.01.01-.02.03-.03.04-.01.02-.03.03-.04.05,0,.01-.01.03-.02.04-.01.02-.02.04-.03.06,0,.02,0,.03-.01.05,0,.02-.01.04-.02.06,0,.02,0,.04,0,.07,0,.01,0,.03,0,.04v22.46s0,0,0,0c0,.02,0,.04,0,.06,0,.02,0,.04,0,.05,0,0,0,0,0,0,0,.03.02.07.03.1,0,0,0,.01.01.02.01.02.02.05.04.07h0ZM530.08,730.81c-1.69.98-3.65,1.73-5.83,2.26v-21.3c2.39-.56,4.54-1.37,6.39-2.44.43-.25.85-.52,1.24-.79v21.05c-.54.43-1.15.84-1.8,1.21Z"/>
          </g>
          <g>
            <path class="cls-41" d="M536.46,695.64c0,.1-.01.19-.02.29,0,.08-.02.17-.03.25-.01.1-.03.19-.05.29-.02.08-.03.17-.05.25-.02.09-.04.19-.07.28-.02.08-.05.17-.07.25-.03.09-.06.19-.09.28-.03.08-.06.17-.09.25-.04.1-.08.19-.12.29-.04.08-.07.16-.11.24-.05.1-.1.19-.15.29-.04.08-.08.16-.13.23-.07.11-.14.23-.21.34-.04.07-.09.14-.13.21-.09.12-.18.25-.27.37-.04.06-.08.12-.13.17-.02.03-.04.05-.07.08-.1.12-.2.25-.31.37-.03.03-.06.07-.09.1-.13.14-.26.28-.4.42-.03.02-.05.05-.08.07-.11.1-.22.2-.33.31-.09.08-.18.16-.28.24-.09.07-.18.15-.27.22-.1.08-.2.16-.3.23-.09.07-.19.14-.29.21-.11.08-.21.15-.32.23-.1.07-.2.14-.31.21-.11.07-.23.15-.35.22-.15.09-.29.18-.45.27-.29.17-.58.33-.88.48-.09.04-.17.09-.26.13-.23.12-.47.23-.71.34-.08.04-.16.07-.24.11-.31.14-.63.27-.96.39-.06.02-.12.04-.17.06-.27.1-.55.2-.83.29-.12.04-.23.08-.35.11-.16.05-.31.1-.47.14-.13.04-.27.08-.4.11-.16.04-.32.09-.48.13-.13.03-.27.07-.4.1-.16.04-.33.08-.49.11-.14.03-.27.06-.41.09-.17.03-.33.07-.5.1-.13.02-.26.05-.39.07-.36.06-.72.12-1.09.17-.05,0-.1.01-.15.02-.32.04-.64.08-.96.11-.12.01-.24.02-.37.04-.21.02-.41.04-.62.05-.13,0-.26.02-.39.03-.22.01-.43.02-.65.03-.12,0-.24.01-.37.02-.19,0-.37,0-.56.01-.13,0-.26,0-.39,0-.2,0-.4,0-.6,0-.12,0-.24,0-.36,0-.18,0-.37-.01-.55-.02-.13,0-.26,0-.39-.02-.2-.01-.39-.03-.59-.04-.11,0-.23-.01-.34-.02-.23-.02-.47-.04-.7-.07-.08,0-.15-.01-.23-.02-.31-.03-.61-.07-.92-.12-.04,0-.09-.01-.13-.02-.27-.04-.53-.08-.8-.13-.11-.02-.21-.04-.32-.06-.2-.04-.4-.07-.6-.11-.1-.02-.2-.04-.31-.07-.22-.05-.43-.09-.65-.15-.12-.03-.24-.06-.36-.09-.2-.05-.39-.1-.58-.15-.11-.03-.22-.06-.33-.09-.31-.09-.61-.18-.91-.28-.05-.02-.11-.03-.16-.05-.34-.12-.68-.24-1.02-.37-.14-.05-.27-.11-.4-.16-.11-.04-.21-.09-.32-.13-.15-.06-.3-.13-.45-.2-.1-.04-.2-.09-.29-.13-.16-.08-.32-.16-.48-.24-.08-.04-.16-.08-.24-.12-.23-.12-.47-.25-.69-.38-3.79-2.19-5.68-5.06-5.67-7.93v2.3c-.01,2.87,1.88,5.74,5.67,7.93.23.13.46.26.69.38.08.04.16.08.24.12.16.08.32.16.48.24.1.05.19.09.29.13.15.07.3.14.45.2.11.05.21.09.32.13.1.04.2.09.31.13.03.01.07.02.1.04.33.13.67.25,1.02.37.05.02.11.03.16.05.3.1.6.19.91.28.05.01.1.03.15.05.06.02.12.03.18.05.19.05.39.1.58.15.12.03.24.06.36.09.21.05.43.1.65.15.08.02.16.04.24.05.02,0,.04,0,.07.01.2.04.4.08.6.11.11.02.21.04.32.06.26.05.52.09.79.12.05,0,.09.01.13.02,0,0,0,0,0,0,.3.04.61.08.92.12.08,0,.15.01.23.02.23.02.47.05.7.07,0,0,.01,0,.02,0,.11,0,.22.01.32.02.2.01.39.03.59.04.13,0,.26.01.39.02.18,0,.37.02.55.02.02,0,.03,0,.05,0,.1,0,.21,0,.31,0,.2,0,.4,0,.6,0,.13,0,.26,0,.39,0,.19,0,.37,0,.56-.01.03,0,.07,0,.1,0,.09,0,.17,0,.26-.01.22,0,.43-.02.65-.03.13,0,.26-.02.39-.03.21-.02.41-.03.62-.05.07,0,.15-.01.22-.02.05,0,.1-.01.15-.02.32-.03.64-.07.96-.11.05,0,.1-.01.15-.02.36-.05.73-.11,1.09-.17.03,0,.07-.01.1-.02.1-.02.19-.04.29-.06.17-.03.34-.06.5-.1.14-.03.27-.06.41-.09.16-.04.33-.07.49-.11.14-.03.27-.07.4-.1.16-.04.32-.08.48-.13.13-.04.27-.08.4-.11.16-.05.31-.09.47-.14.07-.02.14-.04.21-.06.05-.02.1-.03.14-.05.28-.09.56-.19.83-.29.06-.02.12-.04.17-.06.32-.12.64-.25.96-.39.08-.04.16-.07.24-.11.24-.11.48-.22.71-.34.09-.04.18-.09.26-.13.3-.15.6-.31.88-.48.08-.05.16-.09.23-.14.07-.04.14-.09.21-.13.12-.07.24-.15.35-.22.1-.07.21-.14.31-.21.11-.08.22-.15.32-.23.1-.07.19-.14.29-.21.1-.08.2-.16.3-.23.09-.07.18-.15.27-.22.09-.08.19-.16.28-.24.04-.03.08-.07.11-.1.07-.07.14-.14.22-.21.03-.02.05-.05.08-.07.14-.14.27-.28.4-.42.03-.03.06-.07.09-.1.11-.12.21-.24.31-.37.02-.03.04-.05.07-.08,0-.01.02-.02.03-.04.04-.05.07-.09.1-.14.09-.12.19-.25.27-.37.05-.07.09-.14.13-.21.07-.11.14-.23.21-.34.02-.03.04-.06.06-.09.03-.05.05-.09.07-.14.05-.1.1-.19.15-.29.04-.08.08-.16.11-.24.04-.1.08-.19.12-.29.02-.04.04-.09.05-.13.01-.04.03-.08.04-.12.03-.09.06-.19.09-.28.03-.08.05-.17.07-.25.03-.09.05-.19.07-.28.01-.05.03-.1.04-.15,0-.03,0-.07.02-.1.02-.1.03-.19.05-.29.01-.08.02-.17.03-.25,0-.1.02-.19.02-.29,0-.06.01-.11.01-.17,0-.06,0-.11,0-.17v-2.3c0,.11,0,.23,0,.34h0Z"/>
            <path class="cls-40" d="M530.8,687.37c7.53,4.35,7.57,11.4.09,15.75-7.48,4.35-19.65,4.35-27.19,0-7.53-4.35-7.57-11.4-.09-15.75,7.48-4.35,19.65-4.35,27.19,0h0Z"/>
          </g>
        </g>
      </g>
      <g>
        <g class="cls-12">
          <path class="cls-29" d="M484.24,738.39c-7.53,4.35-7.57,11.4-.09,15.75,7.48,4.35,19.65,4.35,27.19,0,7.53-4.35,7.57-11.4.09-15.75-7.48-4.35-19.65-4.35-27.19,0h0Z"/>
        </g>
        <g>
          <g>
            <path class="cls-40" d="M516.15,708.71c0,.09-.01.18-.02.28,0,.08-.02.16-.03.24-.01.09-.03.18-.04.27-.01.08-.03.16-.05.24-.02.09-.04.18-.07.27-.02.08-.05.16-.07.24-.03.09-.06.18-.09.27-.03.08-.06.16-.09.24-.04.09-.08.19-.12.28-.03.08-.07.15-.11.23-.04.09-.09.18-.14.27-.04.07-.08.15-.12.22-.06.11-.13.22-.2.32-.04.07-.08.13-.13.2-.08.12-.17.24-.26.35-.04.06-.08.11-.12.17-.02.03-.04.05-.06.08-.1.12-.2.23-.3.35-.03.03-.06.06-.08.09-.12.13-.25.27-.38.4-.02.02-.05.05-.07.07-.1.1-.21.2-.31.29-.09.08-.17.15-.26.23-.08.07-.17.14-.25.21-.09.08-.19.15-.29.22-.09.07-.18.14-.27.2-.1.07-.2.15-.31.22-.1.07-.19.13-.29.2-.11.07-.22.14-.33.21-.14.09-.28.17-.42.26-.27.16-.56.31-.84.46-.08.04-.17.08-.25.12-.22.11-.45.22-.68.32-.08.03-.15.07-.23.1-.3.13-.6.25-.91.37-.05.02-.11.04-.17.06-.26.1-.53.19-.8.28-.11.04-.22.07-.33.11-.15.05-.3.09-.45.14-.13.04-.25.07-.38.11-.15.04-.3.08-.46.12-.13.03-.26.07-.39.1-.15.04-.31.07-.47.11-.13.03-.26.06-.39.09-.16.03-.32.06-.48.09-.12.02-.25.05-.37.07-.34.06-.69.12-1.04.17-.05,0-.1.01-.15.02-.3.04-.61.08-.91.11-.12.01-.23.02-.35.03-.2.02-.39.03-.59.05-.12,0-.25.02-.37.03-.21.01-.41.02-.62.03-.12,0-.23.01-.35.01-.18,0-.36,0-.54.01-.12,0-.25,0-.37,0-.19,0-.38,0-.57,0-.11,0-.23,0-.34,0-.17,0-.35-.01-.52-.02-.12,0-.25,0-.37-.02-.19-.01-.38-.02-.56-.04-.11,0-.22-.01-.32-.02-.22-.02-.45-.04-.67-.06-.07,0-.14-.01-.21-.02-.29-.03-.58-.07-.87-.11-.05,0-.1-.02-.14-.02-.25-.04-.5-.07-.74-.12-.1-.02-.21-.04-.31-.06-.19-.03-.38-.07-.57-.11-.1-.02-.2-.04-.29-.06-.21-.04-.41-.09-.62-.14-.11-.03-.23-.06-.34-.09-.19-.05-.37-.1-.56-.15-.1-.03-.21-.06-.31-.09-.29-.08-.58-.17-.86-.27-.05-.02-.1-.03-.16-.05-.33-.11-.65-.23-.97-.35-.13-.05-.26-.1-.39-.16-.1-.04-.2-.08-.3-.13-.14-.06-.29-.13-.43-.19-.09-.04-.19-.08-.28-.13-.15-.07-.31-.15-.46-.23-.08-.04-.15-.07-.23-.11-.22-.12-.44-.24-.66-.36-3.61-2.09-5.42-4.82-5.41-7.55l-.1,36.76c0,2.73,1.8,5.47,5.41,7.55.22.12.44.25.66.36.07.04.15.08.23.11.15.08.3.15.46.23.09.04.19.08.28.13.14.06.28.13.43.19.1.04.2.08.3.13.1.04.19.08.29.12.03.01.06.02.09.03.32.12.64.24.97.35.05.02.1.03.15.05.29.09.57.18.87.27.05.01.1.03.14.04.06.02.11.03.17.04.18.05.37.1.56.15.11.03.23.06.34.09.2.05.41.09.62.14.08.02.15.04.23.05.02,0,.04,0,.06.01.19.04.38.07.57.11.1.02.2.04.31.06.25.04.49.08.74.12.05,0,.09.02.14.02,0,0,0,0,0,0,.29.04.58.08.87.11.07,0,.14.01.21.02.22.02.45.05.67.06,0,0,.01,0,.02,0,.1,0,.2.01.3.02.19.01.38.03.57.04.12,0,.24,0,.36.02.18,0,.35.02.53.02.01,0,.03,0,.04,0,.1,0,.2,0,.3,0,.19,0,.38,0,.57,0,.13,0,.25,0,.38,0,.18,0,.36,0,.53-.01.03,0,.07,0,.1,0,.08,0,.17,0,.25-.01.2,0,.41-.02.61-.03.12,0,.25-.02.37-.03.2-.01.39-.03.59-.05.07,0,.14-.01.21-.02.05,0,.1-.01.14-.02.3-.03.61-.07.91-.11.05,0,.1-.01.15-.02.35-.05.69-.1,1.04-.17.03,0,.06,0,.1-.02.09-.02.18-.04.27-.05.16-.03.32-.06.48-.09.13-.03.26-.06.39-.09.16-.03.31-.07.47-.11.13-.03.26-.06.39-.1.15-.04.31-.08.46-.12.13-.04.25-.07.38-.11.15-.04.3-.09.45-.14.06-.02.13-.04.19-.06.05-.02.09-.03.14-.05.27-.09.53-.18.8-.28.05-.02.11-.04.17-.06.31-.12.61-.24.91-.37.08-.03.15-.07.23-.1.23-.1.46-.21.68-.32.08-.04.17-.08.25-.12.29-.15.57-.3.84-.46.08-.04.15-.09.22-.13.07-.04.13-.09.2-.13.11-.07.22-.14.33-.21.1-.07.2-.13.29-.2.1-.07.21-.14.31-.22.09-.07.18-.14.27-.2.1-.07.19-.15.29-.22.09-.07.17-.14.25-.21.09-.08.18-.15.26-.23.04-.03.07-.06.11-.1.07-.07.14-.13.21-.2.02-.02.05-.05.07-.07.13-.13.26-.26.38-.4.03-.03.06-.06.08-.09.1-.12.2-.23.3-.35.02-.03.04-.05.06-.08,0-.01.02-.02.03-.04.03-.04.06-.09.1-.13.09-.12.18-.24.26-.35.04-.07.09-.13.13-.2.07-.11.14-.22.2-.32.02-.03.04-.06.05-.09.02-.04.04-.09.07-.13.05-.09.1-.18.14-.27.04-.08.07-.15.11-.23.04-.09.08-.18.12-.28.02-.04.04-.08.05-.12.01-.04.02-.07.04-.11.03-.09.06-.18.09-.27.02-.08.05-.16.07-.24.02-.09.05-.18.07-.27.01-.05.03-.1.04-.14,0-.03,0-.07.02-.1.02-.09.03-.18.04-.27.01-.08.02-.16.03-.24,0-.09.01-.18.02-.28,0-.05,0-.11.01-.16,0-.05,0-.11,0-.16l.1-36.76c0,.11,0,.22-.01.32h0Z"/>
            <path class="cls-46" d="M510.76,700.83c7.18,4.14,7.22,10.86.08,15-7.13,4.14-18.73,4.14-25.9,0s-7.22-10.86-.08-15c7.13-4.14,18.73-4.14,25.9,0h0Z"/>
            <g class="cls-38">
              <path class="cls-31" d="M510.76,700.83c7.18,4.14,7.22,10.86.08,15-7.13,4.14-18.73,4.14-25.9,0s-7.22-10.86-.08-15c7.13-4.14,18.73-4.14,25.9,0h0Z"/>
            </g>
            <path class="cls-7" d="M485.45,709.44c6.79-3.95,17.88-3.95,24.71,0,1.57.91,2.78,1.95,3.63,3.06,2.87-3.73,1.66-8.26-3.63-11.32-6.83-3.95-17.92-3.95-24.71,0-5.23,3.04-6.4,7.54-3.55,11.26.84-1.09,2.02-2.1,3.55-2.99h0Z"/>
            <path class="cls-14" d="M485.53,715.49c6.84,3.95,17.92,3.95,24.71,0,1.53-.89,2.71-1.91,3.55-2.99-.85-1.11-2.06-2.15-3.63-3.06-6.83-3.95-17.92-3.95-24.71,0-1.53.89-2.71,1.91-3.55,2.99.85,1.11,2.06,2.15,3.63,3.06h0Z"/>
            <path class="cls-30" d="M491.87,747.21s0-.01.01-.02c.01-.03.02-.06.03-.1,0,0,0,0,0,0,0-.02,0-.04,0-.05,0-.02,0-.04,0-.06,0,0,0,0,0,0v-22.46s0-.03,0-.04c0-.02,0-.04,0-.07,0-.02-.01-.04-.02-.06,0-.02,0-.03-.01-.05,0-.02-.02-.04-.03-.06,0-.01-.01-.03-.02-.04-.01-.02-.02-.03-.04-.05-.01-.01-.02-.03-.03-.04-.01-.01-.03-.02-.04-.04-.01-.01-.03-.02-.04-.03-.02-.01-.03-.02-.05-.03-.01,0-.03-.02-.04-.02-.02-.01-.05-.02-.07-.02-.01,0-.02,0-.03-.01-2.45-.53-4.64-1.35-6.51-2.42-.74-.43-1.41-.89-2.01-1.38,0,0-.01,0-.02-.01-.02-.01-.04-.02-.05-.04-.01,0-.03-.02-.04-.02-.02,0-.04-.02-.06-.02-.02,0-.03-.01-.05-.02-.02,0-.03,0-.05-.01-.02,0-.04,0-.06,0,0,0-.02,0-.02,0,0,0-.02,0-.03,0-.02,0-.04,0-.06,0-.02,0-.03,0-.05,0-.02,0-.04.01-.06.02-.01,0-.03.01-.04.02-.02,0-.04.02-.05.03-.01,0-.03.02-.04.03-.02.01-.03.02-.05.04-.01.01-.02.02-.04.04,0,0-.02.01-.02.02,0,0,0,.02-.02.02-.01.01-.02.03-.03.04-.01.02-.02.03-.03.05,0,.01-.01.03-.02.04,0,.02-.01.04-.02.06,0,.01,0,.03,0,.04,0,.02,0,.05,0,.07,0,0,0,.01,0,.02v22.46s0,.02,0,.02c0,.02,0,.04,0,.06,0,.02,0,.03,0,.05,0,.02.01.04.02.06,0,.02.01.03.02.05,0,.02.02.03.03.05,0,.01.02.03.03.04.01.02.02.03.04.04.01.01.03.03.04.04,0,0,.01.01.02.02.64.53,1.37,1.02,2.16,1.48,1.97,1.14,4.27,1.99,6.83,2.55,0,0,0,0,0,0,.03,0,.07.01.1.01,0,0,0,0,.01,0,.04,0,.07,0,.11-.01.01,0,.02,0,.03,0,.02,0,.04-.01.07-.02.01,0,.02-.01.04-.02.02,0,.04-.02.05-.03.01,0,.02-.01.03-.02.02-.01.03-.03.05-.04,0,0,.02-.02.03-.03.02-.02.03-.03.04-.05,0,0,.01-.02.02-.03.01-.02.03-.05.04-.07h0ZM483.16,742.79v-21.05c.39.27.8.54,1.24.79,1.85,1.07,4,1.89,6.39,2.44v21.3c-2.18-.53-4.14-1.29-5.83-2.26-.66-.38-1.26-.79-1.8-1.21Z"/>
            <path class="cls-10" d="M491.87,747.21s0-.01.01-.02c.01-.03.02-.06.03-.1,0,0,0,0,0,0,0-.02,0-.04,0-.05,0-.02,0-.04,0-.06,0,0,0,0,0,0v-22.46s0-.03,0-.04c0-.02,0-.04,0-.07,0-.02-.01-.04-.02-.06,0-.02,0-.03-.01-.05,0-.02-.02-.04-.03-.06,0-.01-.01-.03-.02-.04-.01-.02-.02-.03-.04-.05-.01-.01-.02-.03-.03-.04-.01-.01-.03-.02-.04-.04-.01-.01-.03-.02-.04-.03-.02-.01-.03-.02-.05-.03-.01,0-.03-.02-.04-.02-.02-.01-.05-.02-.07-.02-.01,0-.02,0-.03-.01-2.45-.53-4.64-1.35-6.51-2.42-.74-.43-1.41-.89-2.01-1.38,0,0-.01,0-.02-.01-.02-.01-.04-.02-.05-.04-.01,0-.03-.02-.04-.02-.02,0-.04-.02-.06-.02-.02,0-.03-.01-.05-.02-.02,0-.03,0-.05-.01-.02,0-.04,0-.06,0,0,0-.02,0-.02,0,0,0-.02,0-.03,0-.02,0-.04,0-.06,0-.02,0-.03,0-.05,0-.02,0-.04.01-.06.02-.01,0-.03.01-.04.02-.02,0-.04.02-.05.03-.01,0-.03.02-.04.03-.02.01-.03.02-.05.04-.01.01-.02.02-.04.04,0,0-.02.01-.02.02,0,0,0,.02-.02.02-.01.01-.02.03-.03.04-.01.02-.02.03-.03.05,0,.01-.01.03-.02.04,0,.02-.01.04-.02.06,0,.01,0,.03,0,.04,0,.02,0,.05,0,.07,0,0,0,.01,0,.02v22.46s0,.02,0,.02c0,.02,0,.04,0,.06,0,.02,0,.03,0,.05,0,.02.01.04.02.06,0,.02.01.03.02.05,0,.02.02.03.03.05,0,.01.02.03.03.04.01.02.02.03.04.04.01.01.03.03.04.04,0,0,.01.01.02.02.64.53,1.37,1.02,2.16,1.48,1.97,1.14,4.27,1.99,6.83,2.55,0,0,0,0,0,0,.03,0,.07.01.1.01,0,0,0,0,.01,0,.04,0,.07,0,.11-.01.01,0,.02,0,.03,0,.02,0,.04-.01.07-.02.01,0,.02-.01.04-.02.02,0,.04-.02.05-.03.01,0,.02-.01.03-.02.02-.01.03-.03.05-.04,0,0,.02-.02.03-.03.02-.02.03-.03.04-.05,0,0,.01-.02.02-.03.01-.02.03-.05.04-.07h0ZM483.16,742.79v-21.05c.39.27.8.54,1.24.79,1.85,1.07,4,1.89,6.39,2.44v21.3c-2.18-.53-4.14-1.29-5.83-2.26-.66-.38-1.26-.79-1.8-1.21Z"/>
          </g>
          <g>
            <path class="cls-41" d="M478.58,708.83c0,.1.01.19.02.29,0,.08.02.17.03.25.01.1.03.19.05.29.02.08.03.17.05.25.02.09.04.19.07.28.02.08.05.17.07.25.03.09.06.19.09.28.03.08.06.17.09.25.04.1.08.19.12.29.04.08.07.16.11.24.05.1.1.19.15.29.04.08.08.16.13.23.07.11.14.23.21.34.04.07.09.14.13.21.09.12.18.25.27.37.04.06.08.12.13.17.02.03.04.05.07.08.1.12.2.25.31.37.03.03.06.07.09.1.13.14.26.28.4.42.03.02.05.05.08.07.11.1.22.2.33.31.09.08.18.16.28.24.09.07.18.15.27.22.1.08.2.16.3.23.09.07.19.14.29.21.11.08.21.15.32.23.1.07.2.14.31.21.11.07.23.15.35.22.15.09.29.18.45.27.29.17.58.33.88.48.09.04.17.09.26.13.23.12.47.23.71.34.08.04.16.07.24.11.31.14.63.27.96.39.06.02.12.04.17.06.27.1.55.2.83.29.12.04.23.08.35.11.16.05.31.1.47.14.13.04.27.08.4.11.16.04.32.09.48.13.13.03.27.07.4.1.16.04.33.08.49.11.14.03.27.06.41.09.17.03.33.07.5.1.13.02.26.05.39.07.36.06.72.12,1.09.17.05,0,.1.01.15.02.32.04.64.08.96.11.12.01.24.02.37.04.21.02.41.04.62.05.13,0,.26.02.39.03.22.01.43.02.65.03.12,0,.24.01.37.02.19,0,.37,0,.56.01.13,0,.26,0,.39,0,.2,0,.4,0,.6,0,.12,0,.24,0,.36,0,.18,0,.37-.01.55-.02.13,0,.26,0,.39-.02.2-.01.39-.03.59-.04.11,0,.23-.01.34-.02.23-.02.47-.04.7-.07.08,0,.15-.01.23-.02.31-.03.61-.07.92-.12.04,0,.09-.01.13-.02.27-.04.53-.08.8-.13.11-.02.21-.04.32-.06.2-.04.4-.07.6-.11.1-.02.2-.04.31-.07.22-.05.43-.09.65-.15.12-.03.24-.06.36-.09.2-.05.39-.1.58-.15.11-.03.22-.06.33-.09.31-.09.61-.18.91-.28.05-.02.11-.03.16-.05.34-.12.68-.24,1.02-.37.14-.05.27-.11.4-.16.11-.04.21-.09.32-.13.15-.06.3-.13.45-.2.1-.04.2-.09.29-.13.16-.08.32-.16.48-.24.08-.04.16-.08.24-.12.23-.12.47-.25.69-.38,3.79-2.19,5.68-5.06,5.67-7.93v2.3c.01,2.87-1.88,5.74-5.67,7.93-.23.13-.46.26-.69.38-.08.04-.16.08-.24.12-.16.08-.32.16-.48.24-.1.05-.19.09-.29.13-.15.07-.3.14-.45.2-.11.05-.21.09-.32.13-.1.04-.2.09-.31.13-.03.01-.07.02-.1.04-.33.13-.67.25-1.02.37-.05.02-.11.03-.16.05-.3.1-.6.19-.91.28-.05.01-.1.03-.15.05-.06.02-.12.03-.18.05-.19.05-.39.1-.58.15-.12.03-.24.06-.36.09-.21.05-.43.1-.65.15-.08.02-.16.04-.24.05-.02,0-.04,0-.07.01-.2.04-.4.08-.6.11-.11.02-.21.04-.32.06-.26.05-.52.09-.79.12-.05,0-.09.01-.13.02,0,0,0,0,0,0-.3.04-.61.08-.92.12-.08,0-.15.01-.23.02-.23.02-.47.05-.7.07,0,0-.01,0-.02,0-.11,0-.22.01-.32.02-.2.01-.39.03-.59.04-.13,0-.26.01-.39.02-.18,0-.37.02-.55.02-.02,0-.03,0-.05,0-.1,0-.21,0-.31,0-.2,0-.4,0-.6,0-.13,0-.26,0-.39,0-.19,0-.37,0-.56-.01-.03,0-.07,0-.1,0-.09,0-.17,0-.26-.01-.22,0-.43-.02-.65-.03-.13,0-.26-.02-.39-.03-.21-.02-.41-.03-.62-.05-.07,0-.15-.01-.22-.02-.05,0-.1-.01-.15-.02-.32-.03-.64-.07-.96-.11-.05,0-.1-.01-.15-.02-.36-.05-.73-.11-1.09-.17-.03,0-.07-.01-.1-.02-.1-.02-.19-.04-.29-.06-.17-.03-.34-.06-.5-.1-.14-.03-.27-.06-.41-.09-.16-.04-.33-.07-.49-.11-.14-.03-.27-.07-.4-.1-.16-.04-.32-.08-.48-.13-.13-.04-.27-.08-.4-.11-.16-.05-.31-.09-.47-.14-.07-.02-.14-.04-.21-.06-.05-.02-.1-.03-.14-.05-.28-.09-.56-.19-.83-.29-.06-.02-.12-.04-.17-.06-.32-.12-.64-.25-.96-.39-.08-.04-.16-.07-.24-.11-.24-.11-.48-.22-.71-.34-.09-.04-.18-.09-.26-.13-.3-.15-.6-.31-.88-.48-.08-.05-.16-.09-.23-.14-.07-.04-.14-.09-.21-.13-.12-.07-.24-.15-.35-.22-.1-.07-.21-.14-.31-.21-.11-.08-.22-.15-.32-.23-.1-.07-.19-.14-.29-.21-.1-.08-.2-.16-.3-.23-.09-.07-.18-.15-.27-.22-.09-.08-.19-.16-.28-.24-.04-.03-.08-.07-.11-.1-.07-.07-.14-.14-.22-.21-.03-.02-.05-.05-.08-.07-.14-.14-.27-.28-.4-.42-.03-.03-.06-.07-.09-.1-.11-.12-.21-.24-.31-.37-.02-.03-.04-.05-.07-.08,0-.01-.02-.02-.03-.04-.04-.05-.07-.09-.1-.14-.09-.12-.19-.25-.27-.37-.05-.07-.09-.14-.13-.21-.07-.11-.14-.23-.21-.34-.02-.03-.04-.06-.06-.09-.03-.05-.05-.09-.07-.14-.05-.1-.1-.19-.15-.29-.04-.08-.08-.16-.11-.24-.04-.1-.08-.19-.12-.29-.02-.04-.04-.09-.05-.13-.01-.04-.03-.08-.04-.12-.03-.09-.06-.19-.09-.28-.03-.08-.05-.17-.07-.25-.03-.09-.05-.19-.07-.28-.01-.05-.03-.1-.04-.15,0-.03,0-.07-.02-.1-.02-.1-.03-.19-.05-.29-.01-.08-.02-.17-.03-.25,0-.1-.02-.19-.02-.29,0-.06-.01-.11-.01-.17,0-.06,0-.11,0-.17v-2.3c0,.11,0,.23,0,.34h0Z"/>
            <path class="cls-40" d="M484.24,700.56c-7.53,4.35-7.57,11.4-.09,15.75,7.48,4.35,19.65,4.35,27.19,0,7.53-4.35,7.57-11.4.09-15.75-7.48-4.35-19.65-4.35-27.19,0h0Z"/>
          </g>
        </g>
      </g>
    </g>
  </g>
</svg>