<svg xmlns="http://www.w3.org/2000/svg" id="_レイヤー_2" data-name="レイヤー_2" viewBox="0 0 131.17 280.06"><defs><style>.cls-1{fill:#b2b2f9}</style></defs><g id="clipgroup"><g id="clip-rectangle01"><circle cx="129.4" cy="278.29" r="1.77" class="cls-1"/><path d="M106.35 278.29c0-.98.79-1.77 1.77-1.77s1.77.79 1.77 1.77-.79 1.77-1.77 1.77-1.77-.79-1.77-1.77Z" class="cls-1"/><circle cx="86.85" cy="278.29" r="1.77" class="cls-1" transform="rotate(-22.5 86.849 278.3)"/><circle cx="65.58" cy="278.29" r="1.77" class="cls-1"/><path d="M42.54 278.29c0-.98.79-1.77 1.77-1.77s1.77.79 1.77 1.77-.79 1.77-1.77 1.77-1.77-.79-1.77-1.77Z" class="cls-1"/><circle cx="23.04" cy="278.29" r="1.77" class="cls-1" transform="rotate(-80.78 23.053 278.295)"/><circle cx="1.77" cy="278.29" r="1.77" class="cls-1"/><circle cx="129.4" cy="257.02" r="1.77" class="cls-1"/><path d="M106.35 257.02c0-.98.79-1.77 1.77-1.77s1.77.79 1.77 1.77-.79 1.77-1.77 1.77-1.77-.79-1.77-1.77Z" class="cls-1"/><circle cx="86.85" cy="257.02" r="1.77" class="cls-1"/><circle cx="65.58" cy="257.02" r="1.77" class="cls-1"/><circle cx="44.31" cy="257.02" r="1.77" class="cls-1" transform="rotate(-76.72 44.31 257.014)"/><circle cx="23.04" cy="257.02" r="1.77" class="cls-1" transform="rotate(-22.5 23.038 257.01)"/><circle cx="1.77" cy="257.02" r="1.77" class="cls-1"/><circle cx="129.4" cy="235.75" r="1.77" class="cls-1" transform="rotate(-22.5 129.387 235.754)"/><circle cx="108.13" cy="235.75" r="1.77" class="cls-1"/><circle cx="86.85" cy="235.75" r="1.77" class="cls-1"/><circle cx="65.58" cy="235.75" r="1.77" class="cls-1" transform="rotate(-80.78 65.587 235.754)"/><path d="M42.54 235.75c0-.98.79-1.77 1.77-1.77s1.77.79 1.77 1.77-.79 1.77-1.77 1.77-1.77-.79-1.77-1.77Z" class="cls-1"/><circle cx="23.04" cy="235.75" r="1.77" class="cls-1"/><circle cx="1.77" cy="235.75" r="1.77" class="cls-1" transform="rotate(-80.78 1.778 235.76)"/><circle cx="129.4" cy="214.48" r="1.77" class="cls-1"/><circle cx="108.13" cy="214.48" r="1.77" class="cls-1"/><circle cx="86.85" cy="214.48" r="1.77" class="cls-1" transform="rotate(-22.5 86.842 214.487)"/><circle cx="65.58" cy="214.48" r="1.77" class="cls-1"/><circle cx="44.31" cy="214.48" r="1.77" class="cls-1"/><circle cx="23.04" cy="214.48" r="1.77" class="cls-1" transform="rotate(-80.78 23.048 214.486)"/><path d="M0 214.48c0-.98.79-1.77 1.77-1.77s1.77.79 1.77 1.77-.79 1.77-1.77 1.77S0 215.46 0 214.48ZM127.62 193.21c0-.98.79-1.77 1.77-1.77s1.77.79 1.77 1.77-.79 1.77-1.77 1.77-1.77-.79-1.77-1.77ZM106.35 193.21c0-.98.79-1.77 1.77-1.77s1.77.79 1.77 1.77-.79 1.77-1.77 1.77-1.77-.79-1.77-1.77Z" class="cls-1"/><circle cx="86.85" cy="193.21" r="1.77" class="cls-1"/><circle cx="65.58" cy="193.21" r="1.77" class="cls-1"/><circle cx="44.31" cy="193.21" r="1.77" class="cls-1"/><circle cx="23.04" cy="193.21" r="1.77" class="cls-1" transform="rotate(-22.5 23.057 193.202)"/><circle cx="1.77" cy="193.21" r="1.77" class="cls-1"/><circle cx="129.4" cy="171.94" r="1.77" class="cls-1" transform="rotate(-22.5 129.406 171.945)"/><path d="M106.35 171.94c0-.98.79-1.77 1.77-1.77s1.77.79 1.77 1.77-.79 1.77-1.77 1.77-1.77-.79-1.77-1.77Z" class="cls-1"/><circle cx="86.85" cy="171.94" r="1.77" class="cls-1"/><circle cx="65.58" cy="171.94" r="1.77" class="cls-1" transform="rotate(-22.5 65.597 171.926)"/><path d="M42.54 171.94c0-.98.79-1.77 1.77-1.77s1.77.79 1.77 1.77-.79 1.77-1.77 1.77-1.77-.79-1.77-1.77Z" class="cls-1"/><circle cx="23.04" cy="171.94" r="1.77" class="cls-1"/><circle cx="1.77" cy="171.94" r="1.77" class="cls-1" transform="rotate(-80.78 1.778 171.945)"/><circle cx="129.4" cy="150.67" r="1.77" class="cls-1"/><circle cx="108.13" cy="150.67" r="1.77" class="cls-1"/><path d="M85.08 150.67c0-.98.79-1.77 1.77-1.77s1.77.79 1.77 1.77-.79 1.77-1.77 1.77-1.77-.79-1.77-1.77Z" class="cls-1"/><circle cx="65.58" cy="150.67" r="1.77" class="cls-1"/><circle cx="44.31" cy="150.67" r="1.77" class="cls-1"/><circle cx="23.04" cy="150.67" r="1.77" class="cls-1" transform="rotate(-76.72 23.04 150.666)"/><circle cx="1.77" cy="150.67" r="1.77" class="cls-1" transform="rotate(-76.72 1.772 150.664)"/><path d="M127.62 129.4c0-.98.79-1.77 1.77-1.77s1.77.79 1.77 1.77-.79 1.77-1.77 1.77-1.77-.79-1.77-1.77ZM106.35 129.4c0-.98.79-1.77 1.77-1.77s1.77.79 1.77 1.77-.79 1.77-1.77 1.77-1.77-.79-1.77-1.77Z" class="cls-1"/><circle cx="86.85" cy="129.4" r="1.77" class="cls-1"/><circle cx="65.58" cy="129.4" r="1.77" class="cls-1"/><circle cx="44.31" cy="129.4" r="1.77" class="cls-1"/><path d="M21.27 129.4c0-.98.79-1.77 1.77-1.77s1.77.79 1.77 1.77-.79 1.77-1.77 1.77-1.77-.79-1.77-1.77Z" class="cls-1"/><circle cx="1.77" cy="129.4" r="1.77" class="cls-1"/><circle cx="129.4" cy="108.13" r="1.77" class="cls-1" transform="rotate(-22.5 129.4 108.131)"/><circle cx="108.13" cy="108.13" r="1.77" class="cls-1"/><circle cx="86.85" cy="108.13" r="1.77" class="cls-1"/><circle cx="65.58" cy="108.13" r="1.77" class="cls-1" transform="rotate(-22.5 65.586 108.137)"/><path d="M42.54 108.13c0-.98.79-1.77 1.77-1.77s1.77.79 1.77 1.77-.79 1.77-1.77 1.77-1.77-.79-1.77-1.77Z" class="cls-1"/><circle cx="23.04" cy="108.13" r="1.77" class="cls-1"/><circle cx="1.77" cy="108.13" r="1.77" class="cls-1" transform="rotate(-80.78 1.778 108.13)"/><circle cx="129.4" cy="86.85" r="1.77" class="cls-1"/><circle cx="108.13" cy="86.85" r="1.77" class="cls-1"/><path d="M85.08 86.85c0-.98.79-1.77 1.77-1.77s1.77.79 1.77 1.77-.79 1.77-1.77 1.77-1.77-.79-1.77-1.77Z" class="cls-1"/><circle cx="65.58" cy="86.85" r="1.77" class="cls-1"/><circle cx="44.31" cy="86.85" r="1.77" class="cls-1"/><circle cx="23.04" cy="86.85" r="1.77" class="cls-1" transform="rotate(-76.72 23.044 86.853)"/><circle cx="1.77" cy="86.85" r="1.77" class="cls-1" transform="rotate(-76.72 1.766 86.853)"/><path d="M127.62 65.58c0-.98.79-1.77 1.77-1.77s1.77.79 1.77 1.77-.79 1.77-1.77 1.77-1.77-.79-1.77-1.77Z" class="cls-1"/><circle cx="108.13" cy="65.58" r="1.77" class="cls-1" transform="rotate(-76.72 108.12 65.587)"/><circle cx="86.85" cy="65.58" r="1.77" class="cls-1"/><circle cx="65.58" cy="65.58" r="1.77" class="cls-1"/><circle cx="44.31" cy="65.58" r="1.77" class="cls-1"/><path d="M21.27 65.58c0-.98.79-1.77 1.77-1.77s1.77.79 1.77 1.77-.79 1.77-1.77 1.77-1.77-.79-1.77-1.77Z" class="cls-1"/><circle cx="1.77" cy="65.58" r="1.77" class="cls-1"/><circle cx="129.4" cy="44.31" r="1.77" class="cls-1" transform="rotate(-22.5 129.393 44.317)"/><circle cx="108.13" cy="44.31" r="1.77" class="cls-1"/><circle cx="86.85" cy="44.31" r="1.77" class="cls-1"/><circle cx="65.58" cy="44.31" r="1.77" class="cls-1" transform="rotate(-22.5 65.58 44.324)"/><circle cx="44.31" cy="44.31" r="1.77" class="cls-1"/><circle cx="23.04" cy="44.31" r="1.77" class="cls-1"/><circle cx="1.77" cy="44.31" r="1.77" class="cls-1" transform="rotate(-80.78 1.778 44.316)"/><circle cx="129.4" cy="23.04" r="1.77" class="cls-1"/><circle cx="108.13" cy="23.04" r="1.77" class="cls-1"/><path d="M85.08 23.04c0-.98.79-1.77 1.77-1.77s1.77.79 1.77 1.77-.79 1.77-1.77 1.77-1.77-.79-1.77-1.77Z" class="cls-1"/><circle cx="65.58" cy="23.04" r="1.77" class="cls-1"/><circle cx="44.31" cy="23.04" r="1.77" class="cls-1"/><circle cx="23.04" cy="23.04" r="1.77" class="cls-1" transform="rotate(-76.72 23.044 23.047)"/><circle cx="1.77" cy="23.04" r="1.77" class="cls-1" transform="rotate(-76.72 1.77 23.04)"/><path d="M127.62 1.77c0-.98.8-1.77 1.78-1.77s1.77.79 1.77 1.77-.79 1.77-1.77 1.77-1.77-.79-1.77-1.77Z" class="cls-1"/><circle cx="108.13" cy="1.77" r="1.77" class="cls-1" transform="rotate(-76.72 108.124 1.775)"/><circle cx="86.85" cy="1.77" r="1.77" class="cls-1"/><circle cx="65.58" cy="1.77" r="1.77" class="cls-1"/><circle cx="44.31" cy="1.77" r="1.77" class="cls-1"/><path d="M21.27 1.77c0-.98.79-1.77 1.77-1.77s1.77.79 1.77 1.77-.79 1.77-1.77 1.77-1.77-.79-1.77-1.77Z" class="cls-1"/><circle cx="1.77" cy="1.77" r="1.77" class="cls-1"/></g></g></svg>