<svg xmlns="http://www.w3.org/2000/svg" id="_レイヤー_2" data-name="レイヤー_2" viewBox="0 0 298.39 139.75"><defs><style>.cls-1{fill:#b2b2f9}</style></defs><g id="clipgroup"><g id="clip-rectangle02"><path d="M1.89 135.97c1.04 0 1.89.85 1.89 1.89s-.85 1.89-1.89 1.89S0 138.9 0 137.86s.85-1.89 1.89-1.89Z" class="cls-1"/><circle cx="1.89" cy="115.2" r="1.89" class="cls-1"/><path d="M1.89 90.65c1.04 0 1.89.85 1.89 1.89s-.85 1.89-1.89 1.89S0 93.58 0 92.54s.85-1.89 1.89-1.89ZM1.89 67.99c1.04 0 1.89.85 1.89 1.89s-.85 1.89-1.89 1.89S0 70.92 0 69.88s.85-1.89 1.89-1.89Z" class="cls-1"/><circle cx="1.89" cy="47.21" r="1.89" class="cls-1"/><circle cx="1.89" cy="24.55" r="1.89" class="cls-1" transform="rotate(-76.72 1.889 24.551)"/><path d="M1.89 0c1.04 0 1.89.85 1.89 1.89s-.85 1.89-1.89 1.89S0 2.93 0 1.89.85 0 1.89 0Z" class="cls-1"/><circle cx="24.55" cy="137.86" r="1.89" class="cls-1"/><circle cx="24.55" cy="115.2" r="1.89" class="cls-1" transform="rotate(-22.5 24.538 115.207)"/><circle cx="24.55" cy="92.54" r="1.89" class="cls-1"/><circle cx="24.55" cy="69.88" r="1.89" class="cls-1"/><circle cx="24.55" cy="47.21" r="1.89" class="cls-1" transform="rotate(-80.78 24.548 47.214)"/><circle cx="24.55" cy="24.55" r="1.89" class="cls-1" transform="rotate(-22.5 24.539 24.558)"/><circle cx="24.55" cy="1.89" r="1.89" class="cls-1"/><circle cx="47.21" cy="137.86" r="1.89" class="cls-1" transform="rotate(-22.5 47.21 137.852)"/><circle cx="47.21" cy="115.2" r="1.89" class="cls-1"/><circle cx="47.21" cy="92.54" r="1.89" class="cls-1"/><circle cx="47.21" cy="69.88" r="1.89" class="cls-1" transform="rotate(-80.78 47.22 69.877)"/><path d="M47.21 45.32c1.04 0 1.89.85 1.89 1.89s-.85 1.89-1.89 1.89-1.89-.85-1.89-1.89.85-1.89 1.89-1.89Z" class="cls-1"/><circle cx="47.21" cy="24.55" r="1.89" class="cls-1"/><circle cx="47.21" cy="1.89" r="1.89" class="cls-1" transform="rotate(-80.78 47.217 1.886)"/><circle cx="69.88" cy="137.86" r="1.89" class="cls-1"/><circle cx="69.88" cy="115.2" r="1.89" class="cls-1"/><path d="M69.88 90.65c1.04 0 1.89.85 1.89 1.89s-.85 1.89-1.89 1.89-1.89-.85-1.89-1.89.85-1.89 1.89-1.89Z" class="cls-1"/><circle cx="69.88" cy="69.88" r="1.89" class="cls-1"/><circle cx="69.88" cy="47.21" r="1.89" class="cls-1"/><circle cx="69.88" cy="24.55" r="1.89" class="cls-1" transform="rotate(-67.5 69.872 24.552)"/><circle cx="69.88" cy="1.89" r="1.89" class="cls-1" transform="rotate(-22.5 69.867 1.877)"/><circle cx="92.54" cy="137.86" r="1.89" class="cls-1"/><circle cx="92.54" cy="115.2" r="1.89" class="cls-1" transform="rotate(-22.5 92.534 115.196)"/><circle cx="92.54" cy="92.54" r="1.89" class="cls-1"/><circle cx="92.54" cy="69.88" r="1.89" class="cls-1"/><circle cx="92.54" cy="47.21" r="1.89" class="cls-1" transform="rotate(-80.78 92.539 47.211)"/><circle cx="92.54" cy="24.55" r="1.89" class="cls-1" transform="rotate(-22.5 92.535 24.547)"/><circle cx="92.54" cy="1.89" r="1.89" class="cls-1"/><path d="M115.2 135.97c1.04 0 1.89.85 1.89 1.89s-.85 1.89-1.89 1.89-1.89-.85-1.89-1.89.85-1.89 1.89-1.89Z" class="cls-1"/><circle cx="115.2" cy="115.2" r="1.89" class="cls-1"/><circle cx="115.2" cy="92.54" r="1.89" class="cls-1"/><path d="M115.2 67.99c1.04 0 1.89.85 1.89 1.89s-.85 1.89-1.89 1.89-1.89-.85-1.89-1.89.85-1.89 1.89-1.89ZM115.2 45.32c1.04 0 1.89.85 1.89 1.89s-.85 1.89-1.89 1.89-1.89-.85-1.89-1.89.85-1.89 1.89-1.89Z" class="cls-1"/><circle cx="115.2" cy="24.55" r="1.89" class="cls-1"/><path d="M115.2 0c1.04 0 1.89.85 1.89 1.89s-.85 1.89-1.89 1.89-1.89-.85-1.89-1.89S114.16 0 115.2 0Z" class="cls-1"/><circle cx="137.86" cy="137.86" r="1.89" class="cls-1"/><circle cx="137.86" cy="115.2" r="1.89" class="cls-1"/><path d="M137.86 90.65c1.04 0 1.89.85 1.89 1.89s-.85 1.89-1.89 1.89-1.89-.85-1.89-1.89.85-1.89 1.89-1.89Z" class="cls-1"/><circle cx="137.86" cy="69.88" r="1.89" class="cls-1"/><circle cx="137.86" cy="47.21" r="1.89" class="cls-1"/><circle cx="137.86" cy="24.55" r="1.89" class="cls-1"/><circle cx="137.86" cy="1.89" r="1.89" class="cls-1" transform="rotate(-22.5 137.858 1.891)"/><circle cx="160.53" cy="137.86" r="1.89" class="cls-1"/><circle cx="160.53" cy="115.2" r="1.89" class="cls-1" transform="rotate(-22.5 160.525 115.21)"/><circle cx="160.53" cy="92.54" r="1.89" class="cls-1"/><circle cx="160.53" cy="69.88" r="1.89" class="cls-1"/><circle cx="160.53" cy="47.21" r="1.89" class="cls-1" transform="rotate(-80.78 160.53 47.208)"/><circle cx="160.53" cy="24.55" r="1.89" class="cls-1"/><circle cx="160.53" cy="1.89" r="1.89" class="cls-1"/><circle cx="183.19" cy="137.86" r="1.89" class="cls-1"/><circle cx="183.19" cy="115.2" r="1.89" class="cls-1"/><circle cx="183.19" cy="92.54" r="1.89" class="cls-1"/><circle cx="183.19" cy="69.88" r="1.89" class="cls-1" transform="rotate(-76.72 183.18 69.88)"/><path d="M183.19 45.32c1.04 0 1.89.85 1.89 1.89s-.85 1.89-1.89 1.89-1.89-.85-1.89-1.89.85-1.89 1.89-1.89Z" class="cls-1"/><circle cx="183.19" cy="24.55" r="1.89" class="cls-1"/><circle cx="183.19" cy="1.89" r="1.89" class="cls-1" transform="rotate(-76.72 183.18 1.893)"/><circle cx="205.85" cy="137.86" r="1.89" class="cls-1"/><circle cx="205.85" cy="115.2" r="1.89" class="cls-1"/><path d="M205.85 90.65c1.04 0 1.89.85 1.89 1.89s-.85 1.89-1.89 1.89-1.89-.85-1.89-1.89.85-1.89 1.89-1.89Z" class="cls-1"/><circle cx="205.85" cy="69.88" r="1.89" class="cls-1"/><circle cx="205.85" cy="47.21" r="1.89" class="cls-1"/><circle cx="205.85" cy="24.55" r="1.89" class="cls-1"/><circle cx="205.85" cy="1.89" r="1.89" class="cls-1" transform="rotate(-22.5 205.854 1.88)"/><circle cx="228.51" cy="137.86" r="1.89" class="cls-1"/><circle cx="228.51" cy="115.2" r="1.89" class="cls-1" transform="rotate(-22.5 228.52 115.2)"/><circle cx="228.51" cy="92.54" r="1.89" class="cls-1"/><circle cx="228.51" cy="69.88" r="1.89" class="cls-1"/><circle cx="228.51" cy="47.21" r="1.89" class="cls-1" transform="rotate(-80.78 228.52 47.205)"/><circle cx="228.51" cy="24.55" r="1.89" class="cls-1"/><circle cx="228.51" cy="1.89" r="1.89" class="cls-1"/><circle cx="251.18" cy="137.86" r="1.89" class="cls-1"/><circle cx="251.18" cy="115.2" r="1.89" class="cls-1"/><circle cx="251.18" cy="92.54" r="1.89" class="cls-1"/><circle cx="251.18" cy="69.88" r="1.89" class="cls-1" transform="rotate(-76.72 251.168 69.88)"/><path d="M251.18 45.32c1.04 0 1.89.85 1.89 1.89s-.85 1.89-1.89 1.89-1.89-.85-1.89-1.89.85-1.89 1.89-1.89Z" class="cls-1"/><circle cx="251.18" cy="24.55" r="1.89" class="cls-1"/><circle cx="251.18" cy="1.89" r="1.89" class="cls-1" transform="rotate(-76.72 251.168 1.893)"/><circle cx="273.84" cy="137.86" r="1.89" class="cls-1"/><circle cx="273.84" cy="115.2" r="1.89" class="cls-1"/><path d="M273.84 90.65c1.04 0 1.89.85 1.89 1.89s-.85 1.89-1.89 1.89-1.89-.85-1.89-1.89.85-1.89 1.89-1.89Z" class="cls-1"/><circle cx="273.84" cy="69.88" r="1.89" class="cls-1"/><circle cx="273.84" cy="47.21" r="1.89" class="cls-1"/><circle cx="273.84" cy="24.55" r="1.89" class="cls-1"/><circle cx="273.84" cy="1.89" r="1.89" class="cls-1" transform="rotate(-22.5 273.845 1.895)"/><path d="M296.5 135.97c1.04 0 1.89.85 1.89 1.89s-.85 1.89-1.89 1.89-1.89-.85-1.89-1.89.85-1.89 1.89-1.89Z" class="cls-1"/><circle cx="296.5" cy="115.2" r="1.89" class="cls-1" transform="rotate(-22.5 296.486 115.21)"/><circle cx="296.5" cy="92.54" r="1.89" class="cls-1"/><circle cx="296.5" cy="69.88" r="1.89" class="cls-1"/><circle cx="296.5" cy="47.21" r="1.89" class="cls-1" transform="rotate(-80.78 296.506 47.208)"/><path d="M296.5 22.66c1.04 0 1.89.85 1.89 1.89s-.85 1.89-1.89 1.89-1.89-.85-1.89-1.89.85-1.89 1.89-1.89Z" class="cls-1"/><circle cx="296.5" cy="1.89" r="1.89" class="cls-1"/></g></g></svg>