<?xml version="1.0" encoding="UTF-8"?>
<svg id="_レイヤー_2" data-name="レイヤー_2" xmlns="http://www.w3.org/2000/svg" viewBox="0 0 298.39 139.75">
  <defs>
    <style>
      .cls-1 {
        fill: #fff;
      }
    </style>
  </defs>
  <g id="clipgroup">
    <g id="embellishments-wh-rectangle02">
      <path class="cls-1" d="M1.89,135.97c1.04,0,1.89.85,1.89,1.89s-.85,1.89-1.89,1.89c-1.04,0-1.89-.85-1.89-1.89s.85-1.89,1.89-1.89Z"/>
      <circle class="cls-1" cx="1.89" cy="115.2" r="1.89"/>
      <path class="cls-1" d="M1.89,90.65c1.04,0,1.89.85,1.89,1.89s-.85,1.89-1.89,1.89-1.89-.85-1.89-1.89.85-1.89,1.89-1.89Z"/>
      <path class="cls-1" d="M1.89,67.99c1.04,0,1.89.85,1.89,1.89s-.85,1.89-1.89,1.89c-1.04,0-1.89-.85-1.89-1.89,0-1.04.85-1.89,1.89-1.89Z"/>
      <circle class="cls-1" cx="1.89" cy="47.21" r="1.89"/>
      <circle class="cls-1" cx="1.89" cy="24.55" r="1.89" transform="translate(-22.44 20.75) rotate(-76.72)"/>
      <path class="cls-1" d="M1.89,0c1.04,0,1.89.85,1.89,1.89s-.85,1.89-1.89,1.89C.85,3.78,0,2.93,0,1.89S.85,0,1.89,0Z"/>
      <circle class="cls-1" cx="24.55" cy="137.86" r="1.89"/>
      <circle class="cls-1" cx="24.55" cy="115.2" r="1.89" transform="translate(-42.22 18.16) rotate(-22.5)"/>
      <circle class="cls-1" cx="24.55" cy="92.54" r="1.89"/>
      <circle class="cls-1" cx="24.55" cy="69.88" r="1.89"/>
      <circle class="cls-1" cx="24.55" cy="47.21" r="1.89" transform="translate(-25.99 63.88) rotate(-80.78)"/>
      <circle class="cls-1" cx="24.55" cy="24.55" r="1.89" transform="translate(-7.53 11.26) rotate(-22.5)"/>
      <circle class="cls-1" cx="24.55" cy="1.89" r="1.89"/>
      <circle class="cls-1" cx="47.21" cy="137.86" r="1.89" transform="translate(-49.16 28.56) rotate(-22.5)"/>
      <circle class="cls-1" cx="47.21" cy="115.2" r="1.89"/>
      <circle class="cls-1" cx="47.21" cy="92.54" r="1.89"/>
      <circle class="cls-1" cx="47.21" cy="69.88" r="1.89" transform="translate(-29.32 105.29) rotate(-80.78)"/>
      <path class="cls-1" d="M47.21,45.32c1.04,0,1.89.85,1.89,1.89s-.85,1.89-1.89,1.89-1.89-.85-1.89-1.89c0-1.04.85-1.89,1.89-1.89Z"/>
      <circle class="cls-1" cx="47.21" cy="24.55" r="1.89"/>
      <circle class="cls-1" cx="47.21" cy="1.89" r="1.89" transform="translate(37.79 48.19) rotate(-80.78)"/>
      <circle class="cls-1" cx="69.88" cy="137.86" r="1.89"/>
      <circle class="cls-1" cx="69.88" cy="115.2" r="1.89"/>
      <path class="cls-1" d="M69.88,90.65c1.04,0,1.89.85,1.89,1.89s-.85,1.89-1.89,1.89-1.89-.85-1.89-1.89.85-1.89,1.89-1.89Z"/>
      <circle class="cls-1" cx="69.88" cy="69.88" r="1.89"/>
      <circle class="cls-1" cx="69.88" cy="47.21" r="1.89"/>
      <circle class="cls-1" cx="69.88" cy="24.55" r="1.89" transform="translate(20.45 79.71) rotate(-67.5)"/>
      <circle class="cls-1" cx="69.88" cy="1.89" r="1.89" transform="translate(4.6 26.88) rotate(-22.5)"/>
      <circle class="cls-1" cx="92.54" cy="137.86" r="1.89"/>
      <circle class="cls-1" cx="92.54" cy="115.2" r="1.89" transform="translate(-37.04 44.18) rotate(-22.5)"/>
      <circle class="cls-1" cx="92.54" cy="92.54" r="1.89"/>
      <circle class="cls-1" cx="92.54" cy="69.88" r="1.89"/>
      <circle class="cls-1" cx="92.54" cy="47.21" r="1.89" transform="translate(31.11 130.99) rotate(-80.78)"/>
      <circle class="cls-1" cx="92.54" cy="24.55" r="1.89" transform="translate(-2.35 37.28) rotate(-22.5)"/>
      <circle class="cls-1" cx="92.54" cy="1.89" r="1.89"/>
      <path class="cls-1" d="M115.2,135.97c1.04,0,1.89.85,1.89,1.89s-.85,1.89-1.89,1.89-1.89-.85-1.89-1.89.85-1.89,1.89-1.89Z"/>
      <circle class="cls-1" cx="115.2" cy="115.2" r="1.89"/>
      <circle class="cls-1" cx="115.2" cy="92.54" r="1.89"/>
      <path class="cls-1" d="M115.2,67.99c1.04,0,1.89.85,1.89,1.89s-.85,1.89-1.89,1.89-1.89-.85-1.89-1.89.85-1.89,1.89-1.89Z"/>
      <path class="cls-1" d="M115.2,45.32c1.04,0,1.89.85,1.89,1.89s-.85,1.89-1.89,1.89-1.89-.85-1.89-1.89c0-1.04.85-1.89,1.89-1.89Z"/>
      <circle class="cls-1" cx="115.2" cy="24.55" r="1.89"/>
      <path class="cls-1" d="M115.2,0c1.04,0,1.89.85,1.89,1.89s-.85,1.89-1.89,1.89-1.89-.85-1.89-1.89S114.16,0,115.2,0Z"/>
      <circle class="cls-1" cx="137.86" cy="137.86" r="1.89"/>
      <circle class="cls-1" cx="137.86" cy="115.2" r="1.89"/>
      <path class="cls-1" d="M137.86,90.65c1.04,0,1.89.85,1.89,1.89s-.85,1.89-1.89,1.89-1.89-.85-1.89-1.89.85-1.89,1.89-1.89Z"/>
      <circle class="cls-1" cx="137.86" cy="69.88" r="1.89"/>
      <circle class="cls-1" cx="137.86" cy="47.21" r="1.89"/>
      <circle class="cls-1" cx="137.86" cy="24.55" r="1.89"/>
      <circle class="cls-1" cx="137.86" cy="1.89" r="1.89" transform="translate(9.77 52.9) rotate(-22.5)"/>
      <circle class="cls-1" cx="160.53" cy="137.86" r="1.89"/>
      <circle class="cls-1" cx="160.53" cy="115.2" r="1.89" transform="translate(-31.87 70.2) rotate(-22.5)"/>
      <circle class="cls-1" cx="160.53" cy="92.54" r="1.89"/>
      <circle class="cls-1" cx="160.53" cy="69.88" r="1.89"/>
      <circle class="cls-1" cx="160.53" cy="47.21" r="1.89" transform="translate(88.21 198.1) rotate(-80.78)"/>
      <circle class="cls-1" cx="160.53" cy="24.55" r="1.89"/>
      <circle class="cls-1" cx="160.53" cy="1.89" r="1.89"/>
      <circle class="cls-1" cx="183.19" cy="137.86" r="1.89"/>
      <circle class="cls-1" cx="183.19" cy="115.2" r="1.89"/>
      <circle class="cls-1" cx="183.19" cy="92.54" r="1.89"/>
      <circle class="cls-1" cx="183.19" cy="69.88" r="1.89" transform="translate(73.09 232.11) rotate(-76.72)"/>
      <path class="cls-1" d="M183.19,45.32c1.04,0,1.89.85,1.89,1.89s-.85,1.89-1.89,1.89-1.89-.85-1.89-1.89c0-1.04.85-1.89,1.89-1.89Z"/>
      <circle class="cls-1" cx="183.19" cy="24.55" r="1.89"/>
      <circle class="cls-1" cx="183.19" cy="1.89" r="1.89" transform="translate(139.26 179.74) rotate(-76.72)"/>
      <circle class="cls-1" cx="205.85" cy="137.86" r="1.89"/>
      <circle class="cls-1" cx="205.85" cy="115.2" r="1.89"/>
      <path class="cls-1" d="M205.85,90.65c1.04,0,1.89.85,1.89,1.89s-.85,1.89-1.89,1.89-1.89-.85-1.89-1.89.85-1.89,1.89-1.89Z"/>
      <circle class="cls-1" cx="205.85" cy="69.88" r="1.89"/>
      <circle class="cls-1" cx="205.85" cy="47.21" r="1.89"/>
      <circle class="cls-1" cx="205.85" cy="24.55" r="1.89"/>
      <circle class="cls-1" cx="205.85" cy="1.89" r="1.89" transform="translate(14.95 78.92) rotate(-22.5)"/>
      <circle class="cls-1" cx="228.51" cy="137.86" r="1.89"/>
      <circle class="cls-1" cx="228.51" cy="115.2" r="1.89" transform="translate(-26.69 96.22) rotate(-22.5)"/>
      <circle class="cls-1" cx="228.51" cy="92.54" r="1.89"/>
      <circle class="cls-1" cx="228.51" cy="69.88" r="1.89"/>
      <circle class="cls-1" cx="228.51" cy="47.21" r="1.89" transform="translate(145.31 265.21) rotate(-80.78)"/>
      <circle class="cls-1" cx="228.51" cy="24.55" r="1.89"/>
      <circle class="cls-1" cx="228.51" cy="1.89" r="1.89"/>
      <circle class="cls-1" cx="251.18" cy="137.86" r="1.89"/>
      <circle class="cls-1" cx="251.18" cy="115.2" r="1.89"/>
      <circle class="cls-1" cx="251.18" cy="92.54" r="1.89"/>
      <circle class="cls-1" cx="251.18" cy="69.88" r="1.89" transform="translate(125.46 298.28) rotate(-76.72)"/>
      <path class="cls-1" d="M251.18,45.32c1.04,0,1.89.85,1.89,1.89s-.85,1.89-1.89,1.89-1.89-.85-1.89-1.89c0-1.04.85-1.89,1.89-1.89Z"/>
      <circle class="cls-1" cx="251.18" cy="24.55" r="1.89"/>
      <circle class="cls-1" cx="251.18" cy="1.89" r="1.89" transform="translate(191.63 245.91) rotate(-76.72)"/>
      <circle class="cls-1" cx="273.84" cy="137.86" r="1.89"/>
      <circle class="cls-1" cx="273.84" cy="115.2" r="1.89"/>
      <path class="cls-1" d="M273.84,90.65c1.04,0,1.89.85,1.89,1.89s-.85,1.89-1.89,1.89-1.89-.85-1.89-1.89.85-1.89,1.89-1.89Z"/>
      <circle class="cls-1" cx="273.84" cy="69.88" r="1.89"/>
      <circle class="cls-1" cx="273.84" cy="47.21" r="1.89"/>
      <circle class="cls-1" cx="273.84" cy="24.55" r="1.89"/>
      <circle class="cls-1" cx="273.84" cy="1.89" r="1.89" transform="translate(20.12 104.94) rotate(-22.5)"/>
      <path class="cls-1" d="M296.5,135.97c1.04,0,1.89.85,1.89,1.89,0,1.04-.85,1.89-1.89,1.89s-1.89-.85-1.89-1.89.85-1.89,1.89-1.89Z"/>
      <circle class="cls-1" cx="296.5" cy="115.2" r="1.89" transform="translate(-21.52 122.23) rotate(-22.5)"/>
      <circle class="cls-1" cx="296.5" cy="92.54" r="1.89"/>
      <circle class="cls-1" cx="296.5" cy="69.88" r="1.89"/>
      <circle class="cls-1" cx="296.5" cy="47.21" r="1.89" transform="translate(202.4 332.32) rotate(-80.78)"/>
      <path class="cls-1" d="M296.5,22.66c1.04,0,1.89.85,1.89,1.89s-.85,1.89-1.89,1.89-1.89-.85-1.89-1.89c0-1.04.85-1.89,1.89-1.89Z"/>
      <circle class="cls-1" cx="296.5" cy="1.89" r="1.89"/>
    </g>
  </g>
</svg>