<svg xmlns="http://www.w3.org/2000/svg" id="_レイヤー_2" data-name="レイヤー_2" viewBox="0 0 227.82 227.82"><defs><clipPath id="clippath"><circle cx="113.91" cy="113.91" r="113.91" style="fill:none"/></clipPath><style>.cls-2{fill:#c5c5fa}</style></defs><g id="clipgroup"><g id="clip-circle" style="clip-path:url(#clippath)"><circle cx="5.86" cy="222.11" r="1.39" class="cls-2"/><circle cx="5.86" cy="205.48" r="1.39" class="cls-2" transform="rotate(-80.82 5.855 205.482)"/><circle cx="5.86" cy="188.86" r="1.39" class="cls-2"/><circle cx="5.86" cy="172.24" r="1.39" class="cls-2"/><circle cx="5.86" cy="155.61" r="1.39" class="cls-2"/><circle cx="5.86" cy="138.99" r="1.39" class="cls-2" transform="rotate(-80.82 5.857 138.993)"/><circle cx="5.86" cy="122.37" r="1.39" class="cls-2"/><circle cx="22.48" cy="222.11" r="1.39" class="cls-2"/><circle cx="22.48" cy="205.48" r="1.39" class="cls-2"/><circle cx="22.48" cy="188.86" r="1.39" class="cls-2"/><circle cx="22.48" cy="172.24" r="1.39" class="cls-2"/><circle cx="22.48" cy="155.61" r="1.39" class="cls-2"/><circle cx="22.48" cy="138.99" r="1.39" class="cls-2"/><circle cx="22.48" cy="122.37" r="1.39" class="cls-2"/><circle cx="39.1" cy="222.11" r="1.39" class="cls-2"/><circle cx="39.1" cy="205.48" r="1.39" class="cls-2"/><circle cx="39.1" cy="188.86" r="1.39" class="cls-2"/><circle cx="39.1" cy="172.24" r="1.39" class="cls-2"/><path d="M39.1 154.23c.77 0 1.39.62 1.39 1.39s-.62 1.39-1.39 1.39-1.39-.62-1.39-1.39c0-.77.62-1.39 1.39-1.39Z" class="cls-2"/><circle cx="39.1" cy="138.99" r="1.39" class="cls-2"/><path d="M39.1 120.98c.77 0 1.39.62 1.39 1.39s-.62 1.39-1.39 1.39-1.39-.62-1.39-1.39c0-.77.62-1.39 1.39-1.39Z" class="cls-2"/><circle cx="55.73" cy="222.11" r="1.39" class="cls-2"/><circle cx="55.73" cy="205.48" r="1.39" class="cls-2"/><circle cx="55.73" cy="188.86" r="1.39" class="cls-2"/><circle cx="55.73" cy="172.24" r="1.39" class="cls-2"/><circle cx="55.73" cy="155.61" r="1.39" class="cls-2"/><circle cx="55.73" cy="138.99" r="1.39" class="cls-2"/><circle cx="55.73" cy="122.37" r="1.39" class="cls-2"/><circle cx="72.35" cy="222.11" r="1.39" class="cls-2" transform="rotate(-80.78 72.359 222.115)"/><circle cx="72.35" cy="205.48" r="1.39" class="cls-2"/><circle cx="72.35" cy="188.86" r="1.39" class="cls-2"/><circle cx="72.35" cy="172.24" r="1.39" class="cls-2"/><circle cx="72.35" cy="155.61" r="1.39" class="cls-2" transform="rotate(-20.57 72.37 155.639)"/><circle cx="72.35" cy="138.99" r="1.39" class="cls-2"/><circle cx="72.35" cy="122.37" r="1.39" class="cls-2" transform="rotate(-80.78 72.357 122.364)"/><path d="M88.98 220.72c.77 0 1.39.62 1.39 1.39s-.62 1.39-1.39 1.39-1.39-.62-1.39-1.39.62-1.39 1.39-1.39Z" class="cls-2"/><circle cx="88.98" cy="205.48" r="1.39" class="cls-2"/><circle cx="88.98" cy="188.86" r="1.39" class="cls-2"/><circle cx="88.98" cy="172.24" r="1.39" class="cls-2"/><circle cx="88.98" cy="155.61" r="1.39" class="cls-2"/><circle cx="88.98" cy="138.99" r="1.39" class="cls-2"/><circle cx="88.98" cy="122.37" r="1.39" class="cls-2"/><circle cx="105.6" cy="222.11" r="1.39" class="cls-2"/><circle cx="105.6" cy="205.48" r="1.39" class="cls-2"/><circle cx="105.6" cy="188.86" r="1.39" class="cls-2"/><circle cx="105.6" cy="172.24" r="1.39" class="cls-2"/><path d="M105.6 154.23c.77 0 1.39.62 1.39 1.39s-.62 1.39-1.39 1.39-1.39-.62-1.39-1.39.62-1.39 1.39-1.39Z" class="cls-2"/><circle cx="105.6" cy="138.99" r="1.39" class="cls-2"/><circle cx="105.6" cy="122.37" r="1.39" class="cls-2"/><path d="M122.22 220.72c.77 0 1.39.62 1.39 1.39s-.62 1.39-1.39 1.39-1.39-.62-1.39-1.39.62-1.39 1.39-1.39Z" class="cls-2"/><circle cx="122.22" cy="205.48" r="1.39" class="cls-2"/><circle cx="122.22" cy="188.86" r="1.39" class="cls-2"/><circle cx="122.22" cy="172.24" r="1.39" class="cls-2"/><circle cx="122.22" cy="155.61" r="1.39" class="cls-2"/><circle cx="122.22" cy="138.99" r="1.39" class="cls-2"/><circle cx="122.22" cy="122.37" r="1.39" class="cls-2"/><circle cx="138.85" cy="222.11" r="1.39" class="cls-2"/><circle cx="138.85" cy="205.48" r="1.39" class="cls-2" transform="rotate(-80.78 138.855 205.482)"/><circle cx="138.85" cy="188.86" r="1.39" class="cls-2"/><circle cx="138.85" cy="172.24" r="1.39" class="cls-2"/><path d="M138.85 154.23c.77 0 1.39.62 1.39 1.39s-.62 1.39-1.39 1.39-1.39-.62-1.39-1.39.62-1.39 1.39-1.39Z" class="cls-2"/><circle cx="138.85" cy="138.99" r="1.39" class="cls-2" transform="rotate(-80.78 138.853 138.99)"/><circle cx="138.85" cy="122.37" r="1.39" class="cls-2"/><path d="M155.47 220.72c.77 0 1.39.62 1.39 1.39s-.62 1.39-1.39 1.39-1.39-.62-1.39-1.39.62-1.39 1.39-1.39ZM155.47 204.1c.77 0 1.39.62 1.39 1.39 0 .77-.62 1.39-1.39 1.39s-1.39-.62-1.39-1.39.62-1.39 1.39-1.39Z" class="cls-2"/><circle cx="155.47" cy="188.86" r="1.39" class="cls-2"/><circle cx="155.47" cy="172.24" r="1.39" class="cls-2"/><circle cx="155.47" cy="155.61" r="1.39" class="cls-2"/><circle cx="155.47" cy="138.99" r="1.39" class="cls-2"/><circle cx="155.47" cy="122.37" r="1.39" class="cls-2"/><circle cx="172.09" cy="222.11" r="1.39" class="cls-2"/><circle cx="172.09" cy="205.48" r="1.39" class="cls-2"/><circle cx="172.09" cy="188.86" r="1.39" class="cls-2"/><circle cx="172.09" cy="172.24" r="1.39" class="cls-2"/><path d="M172.09 154.23c.77 0 1.39.62 1.39 1.39s-.62 1.39-1.39 1.39-1.39-.62-1.39-1.39.62-1.39 1.39-1.39Z" class="cls-2"/><circle cx="172.09" cy="138.99" r="1.39" class="cls-2"/><circle cx="172.09" cy="122.37" r="1.39" class="cls-2"/><path d="M188.72 220.72c.77 0 1.39.62 1.39 1.39s-.62 1.39-1.39 1.39-1.39-.62-1.39-1.39.62-1.39 1.39-1.39Z" class="cls-2"/><circle cx="188.72" cy="205.48" r="1.39" class="cls-2"/><circle cx="188.72" cy="188.86" r="1.39" class="cls-2"/><circle cx="188.72" cy="172.24" r="1.39" class="cls-2"/><circle cx="188.72" cy="155.61" r="1.39" class="cls-2"/><circle cx="188.72" cy="138.99" r="1.39" class="cls-2"/><circle cx="188.72" cy="122.37" r="1.39" class="cls-2"/><circle cx="205.34" cy="222.11" r="1.39" class="cls-2" transform="rotate(-80.78 205.352 222.109)"/><circle cx="205.34" cy="205.48" r="1.39" class="cls-2"/><circle cx="205.34" cy="188.86" r="1.39" class="cls-2"/><circle cx="205.34" cy="172.24" r="1.39" class="cls-2"/><path d="M205.34 154.23c.77 0 1.39.62 1.39 1.39s-.62 1.39-1.39 1.39-1.39-.62-1.39-1.39.62-1.39 1.39-1.39Z" class="cls-2"/><circle cx="205.34" cy="138.99" r="1.39" class="cls-2"/><circle cx="205.34" cy="122.37" r="1.39" class="cls-2" transform="rotate(-80.78 205.345 122.364)"/><path d="M221.96 220.72c.77 0 1.39.62 1.39 1.39 0 .77-.62 1.39-1.39 1.39s-1.39-.62-1.39-1.39.62-1.39 1.39-1.39Z" class="cls-2"/><circle cx="221.96" cy="205.48" r="1.39" class="cls-2"/><path d="M221.96 187.47c.77 0 1.39.62 1.39 1.39 0 .77-.62 1.39-1.39 1.39s-1.39-.62-1.39-1.39.62-1.39 1.39-1.39Z" class="cls-2"/><circle cx="221.96" cy="172.24" r="1.39" class="cls-2"/><path d="M221.96 154.23c.77 0 1.39.62 1.39 1.39 0 .77-.62 1.39-1.39 1.39s-1.39-.62-1.39-1.39.62-1.39 1.39-1.39Z" class="cls-2"/><circle cx="221.96" cy="138.99" r="1.39" class="cls-2"/><circle cx="221.96" cy="122.37" r="1.39" class="cls-2"/><circle cx="5.86" cy="105.46" r="1.39" class="cls-2"/><circle cx="5.86" cy="88.83" r="1.39" class="cls-2"/><path d="M5.86 70.82c.77 0 1.39.62 1.39 1.39s-.62 1.39-1.39 1.39-1.39-.62-1.39-1.39.62-1.39 1.39-1.39Z" class="cls-2"/><circle cx="5.86" cy="55.59" r="1.39" class="cls-2" transform="rotate(-82.34 5.858 55.583)"/><circle cx="5.86" cy="38.96" r="1.39" class="cls-2"/><circle cx="5.86" cy="22.34" r="1.39" class="cls-2" transform="rotate(-80.82 5.859 22.34)"/><circle cx="5.86" cy="5.71" r="1.39" class="cls-2"/><circle cx="22.48" cy="105.46" r="1.39" class="cls-2"/><circle cx="22.48" cy="88.83" r="1.39" class="cls-2"/><circle cx="22.48" cy="72.21" r="1.39" class="cls-2"/><circle cx="22.48" cy="55.59" r="1.39" class="cls-2"/><circle cx="22.48" cy="38.96" r="1.39" class="cls-2" transform="rotate(-88.53 22.475 38.962)"/><circle cx="22.48" cy="22.34" r="1.39" class="cls-2"/><path d="M22.48 4.33c.77 0 1.39.62 1.39 1.39s-.62 1.39-1.39 1.39-1.39-.62-1.39-1.39.62-1.39 1.39-1.39Z" class="cls-2"/><circle cx="39.1" cy="105.46" r="1.39" class="cls-2"/><circle cx="39.1" cy="88.83" r="1.39" class="cls-2"/><path d="M39.1 70.82c.77 0 1.39.62 1.39 1.39s-.62 1.39-1.39 1.39-1.39-.62-1.39-1.39.62-1.39 1.39-1.39Z" class="cls-2"/><circle cx="39.1" cy="55.59" r="1.39" class="cls-2"/><path d="M39.1 37.58c.77 0 1.39.62 1.39 1.39s-.62 1.39-1.39 1.39-1.39-.62-1.39-1.39c0-.77.62-1.39 1.39-1.39Z" class="cls-2"/><circle cx="39.1" cy="22.34" r="1.39" class="cls-2"/><path d="M39.1 4.33c.77 0 1.39.62 1.39 1.39s-.62 1.39-1.39 1.39-1.39-.62-1.39-1.39c0-.77.62-1.39 1.39-1.39Z" class="cls-2"/><circle cx="55.73" cy="105.46" r="1.39" class="cls-2"/><circle cx="55.73" cy="88.83" r="1.39" class="cls-2"/><circle cx="55.73" cy="72.21" r="1.39" class="cls-2"/><circle cx="55.73" cy="55.59" r="1.39" class="cls-2"/><circle cx="55.73" cy="38.96" r="1.39" class="cls-2"/><circle cx="55.73" cy="22.34" r="1.39" class="cls-2"/><path d="M55.73 4.33c.77 0 1.39.62 1.39 1.39s-.62 1.39-1.39 1.39-1.39-.62-1.39-1.39.62-1.39 1.39-1.39Z" class="cls-2"/><circle cx="72.35" cy="105.46" r="1.39" class="cls-2"/><circle cx="72.35" cy="88.83" r="1.39" class="cls-2"/><path d="M72.35 70.82c.77 0 1.39.62 1.39 1.39s-.62 1.39-1.39 1.39-1.39-.62-1.39-1.39.62-1.39 1.39-1.39Z" class="cls-2"/><circle cx="72.35" cy="55.59" r="1.39" class="cls-2"/><circle cx="72.35" cy="38.96" r="1.39" class="cls-2" transform="rotate(-80.78 72.354 38.964)"/><circle cx="72.35" cy="22.34" r="1.39" class="cls-2"/><circle cx="72.35" cy="5.71" r="1.39" class="cls-2" transform="rotate(-80.78 72.355 5.716)"/><circle cx="88.98" cy="105.46" r="1.39" class="cls-2"/><circle cx="88.98" cy="88.83" r="1.39" class="cls-2"/><circle cx="88.98" cy="72.21" r="1.39" class="cls-2"/><circle cx="88.98" cy="55.59" r="1.39" class="cls-2"/><circle cx="88.98" cy="38.96" r="1.39" class="cls-2"/><circle cx="88.98" cy="22.34" r="1.39" class="cls-2"/><circle cx="88.98" cy="5.71" r="1.39" class="cls-2"/><circle cx="105.6" cy="105.46" r="1.39" class="cls-2"/><circle cx="105.6" cy="88.83" r="1.39" class="cls-2"/><path d="M105.6 70.82c.77 0 1.39.62 1.39 1.39s-.62 1.39-1.39 1.39-1.39-.62-1.39-1.39.62-1.39 1.39-1.39Z" class="cls-2"/><circle cx="105.6" cy="55.59" r="1.39" class="cls-2"/><circle cx="105.6" cy="38.96" r="1.39" class="cls-2"/><circle cx="105.6" cy="22.34" r="1.39" class="cls-2"/><circle cx="105.6" cy="5.71" r="1.39" class="cls-2"/><circle cx="122.22" cy="105.46" r="1.39" class="cls-2"/><circle cx="122.22" cy="88.83" r="1.39" class="cls-2"/><circle cx="122.22" cy="72.21" r="1.39" class="cls-2"/><circle cx="122.22" cy="55.59" r="1.39" class="cls-2"/><circle cx="122.22" cy="38.96" r="1.39" class="cls-2"/><circle cx="122.22" cy="22.34" r="1.39" class="cls-2"/><circle cx="122.22" cy="5.71" r="1.39" class="cls-2"/><circle cx="138.85" cy="105.46" r="1.39" class="cls-2"/><circle cx="138.85" cy="88.83" r="1.39" class="cls-2"/><circle cx="138.85" cy="72.21" r="1.39" class="cls-2"/><circle cx="138.85" cy="55.59" r="1.39" class="cls-2" transform="rotate(-80.78 138.85 55.58)"/><circle cx="138.85" cy="38.96" r="1.39" class="cls-2"/><circle cx="138.85" cy="22.34" r="1.39" class="cls-2" transform="rotate(-80.78 138.85 22.332)"/><circle cx="138.85" cy="5.71" r="1.39" class="cls-2"/><circle cx="155.47" cy="105.46" r="1.39" class="cls-2"/><path d="M155.47 87.45c.77 0 1.39.62 1.39 1.39 0 .77-.62 1.39-1.39 1.39s-1.39-.62-1.39-1.39.62-1.39 1.39-1.39Z" class="cls-2"/><circle cx="155.47" cy="72.21" r="1.39" class="cls-2"/><circle cx="155.47" cy="55.59" r="1.39" class="cls-2"/><circle cx="155.47" cy="38.96" r="1.39" class="cls-2"/><circle cx="155.47" cy="22.34" r="1.39" class="cls-2"/><circle cx="155.47" cy="5.71" r="1.39" class="cls-2"/><circle cx="172.09" cy="105.46" r="1.39" class="cls-2"/><circle cx="172.09" cy="88.83" r="1.39" class="cls-2"/><circle cx="172.09" cy="72.21" r="1.39" class="cls-2"/><circle cx="172.09" cy="55.59" r="1.39" class="cls-2"/><circle cx="172.09" cy="38.96" r="1.39" class="cls-2"/><circle cx="172.09" cy="22.34" r="1.39" class="cls-2"/><circle cx="172.09" cy="5.71" r="1.39" class="cls-2"/><circle cx="188.72" cy="105.46" r="1.39" class="cls-2"/><circle cx="188.72" cy="88.83" r="1.39" class="cls-2"/><circle cx="188.72" cy="72.21" r="1.39" class="cls-2"/><circle cx="188.72" cy="55.59" r="1.39" class="cls-2"/><circle cx="188.72" cy="38.96" r="1.39" class="cls-2"/><circle cx="188.72" cy="22.34" r="1.39" class="cls-2"/><circle cx="188.72" cy="5.71" r="1.39" class="cls-2"/><circle cx="205.34" cy="105.46" r="1.39" class="cls-2"/><circle cx="205.34" cy="88.83" r="1.39" class="cls-2"/><circle cx="205.34" cy="72.21" r="1.39" class="cls-2"/><circle cx="205.34" cy="55.59" r="1.39" class="cls-2"/><circle cx="205.34" cy="38.96" r="1.39" class="cls-2" transform="rotate(-80.78 205.347 38.958)"/><circle cx="205.34" cy="22.34" r="1.39" class="cls-2"/><circle cx="205.34" cy="5.71" r="1.39" class="cls-2" transform="rotate(-80.78 205.348 5.71)"/><path d="M221.96 104.07c.77 0 1.39.62 1.39 1.39 0 .77-.62 1.39-1.39 1.39s-1.39-.62-1.39-1.39.62-1.39 1.39-1.39Z" class="cls-2"/><circle cx="221.96" cy="88.83" r="1.39" class="cls-2"/><path d="M221.96 70.82c.77 0 1.39.62 1.39 1.39 0 .77-.62 1.39-1.39 1.39s-1.39-.62-1.39-1.39.62-1.39 1.39-1.39Z" class="cls-2"/><circle cx="221.96" cy="55.59" r="1.39" class="cls-2"/><circle cx="221.96" cy="38.96" r="1.39" class="cls-2"/><circle cx="221.96" cy="22.34" r="1.39" class="cls-2"/><circle cx="221.96" cy="5.71" r="1.39" class="cls-2"/></g></g></svg>