<?xml version="1.0" encoding="UTF-8"?>
<svg id="_レイヤー_2" data-name="レイヤー_2" xmlns="http://www.w3.org/2000/svg" viewBox="0 0 131.17 280.06">
  <defs>
    <style>
      .cls-1 {
        fill: #fff;
      }
    </style>
  </defs>
  <g id="clipgroup">
    <g id="embellishments-wh-rectangle01">
      <circle class="cls-1" cx="129.4" cy="278.29" r="1.77"/>
      <path class="cls-1" d="M106.35,278.29c0-.98.79-1.77,1.77-1.77s1.77.79,1.77,1.77c0,.98-.79,1.77-1.77,1.77s-1.77-.79-1.77-1.77Z"/>
      <circle class="cls-1" cx="86.85" cy="278.29" r="1.77" transform="translate(-99.89 54.42) rotate(-22.5)"/>
      <circle class="cls-1" cx="65.58" cy="278.29" r="1.77"/>
      <path class="cls-1" d="M42.54,278.29c0-.98.79-1.77,1.77-1.77s1.77.79,1.77,1.77c0,.98-.79,1.77-1.77,1.77s-1.77-.79-1.77-1.77Z"/>
      <circle class="cls-1" cx="23.04" cy="278.29" r="1.77" transform="translate(-255.34 256.46) rotate(-80.78)"/>
      <circle class="cls-1" cx="1.77" cy="278.29" r="1.77"/>
      <circle class="cls-1" cx="129.4" cy="257.02" r="1.77"/>
      <path class="cls-1" d="M106.35,257.02c0-.98.79-1.77,1.77-1.77s1.77.79,1.77,1.77-.79,1.77-1.77,1.77-1.77-.79-1.77-1.77Z"/>
      <circle class="cls-1" cx="86.85" cy="257.02" r="1.77"/>
      <circle class="cls-1" cx="65.58" cy="257.02" r="1.77"/>
      <circle class="cls-1" cx="44.31" cy="257.02" r="1.77" transform="translate(-216.01 241.1) rotate(-76.72)"/>
      <circle class="cls-1" cx="23.04" cy="257.02" r="1.77" transform="translate(-96.6 28.38) rotate(-22.5)"/>
      <circle class="cls-1" cx="1.77" cy="257.02" r="1.77"/>
      <circle class="cls-1" cx="129.4" cy="235.75" r="1.77" transform="translate(-80.37 67.46) rotate(-22.5)"/>
      <circle class="cls-1" cx="108.13" cy="235.75" r="1.77"/>
      <circle class="cls-1" cx="86.85" cy="235.75" r="1.77"/>
      <circle class="cls-1" cx="65.58" cy="235.75" r="1.77" transform="translate(-177.63 262.72) rotate(-80.78)"/>
      <path class="cls-1" d="M42.54,235.75c0-.98.79-1.77,1.77-1.77s1.77.79,1.77,1.77-.79,1.77-1.77,1.77c-.98,0-1.77-.79-1.77-1.77Z"/>
      <circle class="cls-1" cx="23.04" cy="235.75" r="1.77"/>
      <circle class="cls-1" cx="1.77" cy="235.75" r="1.77" transform="translate(-231.22 199.74) rotate(-80.78)"/>
      <circle class="cls-1" cx="129.4" cy="214.48" r="1.77"/>
      <circle class="cls-1" cx="108.13" cy="214.48" r="1.77"/>
      <circle class="cls-1" cx="86.85" cy="214.48" r="1.77" transform="translate(-75.47 49.56) rotate(-22.5)"/>
      <circle class="cls-1" cx="65.58" cy="214.48" r="1.77"/>
      <circle class="cls-1" cx="44.31" cy="214.48" r="1.77"/>
      <circle class="cls-1" cx="23.04" cy="214.48" r="1.77" transform="translate(-192.36 202.87) rotate(-80.78)"/>
      <path class="cls-1" d="M0,214.48c0-.98.79-1.77,1.77-1.77s1.77.79,1.77,1.77-.79,1.77-1.77,1.77S0,215.46,0,214.48Z"/>
      <path class="cls-1" d="M127.62,193.21c0-.98.79-1.77,1.77-1.77.98,0,1.77.79,1.77,1.77s-.79,1.77-1.77,1.77-1.77-.79-1.77-1.77Z"/>
      <path class="cls-1" d="M106.35,193.21c0-.98.79-1.77,1.77-1.77s1.77.79,1.77,1.77-.79,1.77-1.77,1.77-1.77-.79-1.77-1.77Z"/>
      <circle class="cls-1" cx="86.85" cy="193.21" r="1.77"/>
      <circle class="cls-1" cx="65.58" cy="193.21" r="1.77"/>
      <circle class="cls-1" cx="44.31" cy="193.21" r="1.77"/>
      <circle class="cls-1" cx="23.04" cy="193.21" r="1.77" transform="translate(-72.18 23.53) rotate(-22.5)"/>
      <circle class="cls-1" cx="1.77" cy="193.21" r="1.77"/>
      <circle class="cls-1" cx="129.4" cy="171.94" r="1.77" transform="translate(-55.95 62.61) rotate(-22.5)"/>
      <path class="cls-1" d="M106.35,171.94c0-.98.79-1.77,1.77-1.77s1.77.79,1.77,1.77-.79,1.77-1.77,1.77-1.77-.79-1.77-1.77Z"/>
      <circle class="cls-1" cx="86.85" cy="171.94" r="1.77"/>
      <circle class="cls-1" cx="65.58" cy="171.94" r="1.77" transform="translate(-60.8 38.19) rotate(-22.5)"/>
      <path class="cls-1" d="M42.54,171.94c0-.98.79-1.77,1.77-1.77s1.77.79,1.77,1.77-.79,1.77-1.77,1.77c-.98,0-1.77-.79-1.77-1.77Z"/>
      <circle class="cls-1" cx="23.04" cy="171.94" r="1.77"/>
      <circle class="cls-1" cx="1.77" cy="171.94" r="1.77" transform="translate(-168.23 146.15) rotate(-80.78)"/>
      <circle class="cls-1" cx="129.4" cy="150.67" r="1.77"/>
      <circle class="cls-1" cx="108.13" cy="150.67" r="1.77"/>
      <path class="cls-1" d="M85.08,150.67c0-.98.79-1.77,1.77-1.77s1.77.79,1.77,1.77-.79,1.77-1.77,1.77-1.77-.79-1.77-1.77Z"/>
      <circle class="cls-1" cx="65.58" cy="150.67" r="1.77"/>
      <circle class="cls-1" cx="44.31" cy="150.67" r="1.77"/>
      <circle class="cls-1" cx="23.04" cy="150.67" r="1.77" transform="translate(-128.89 138.48) rotate(-76.72)"/>
      <circle class="cls-1" cx="1.77" cy="150.67" r="1.77" transform="translate(-145.27 117.78) rotate(-76.72)"/>
      <path class="cls-1" d="M127.62,129.4c0-.98.79-1.77,1.77-1.77.98,0,1.77.79,1.77,1.77s-.79,1.77-1.77,1.77-1.77-.79-1.77-1.77Z"/>
      <path class="cls-1" d="M106.35,129.4c0-.98.79-1.77,1.77-1.77s1.77.79,1.77,1.77-.79,1.77-1.77,1.77-1.77-.79-1.77-1.77Z"/>
      <circle class="cls-1" cx="86.85" cy="129.4" r="1.77"/>
      <circle class="cls-1" cx="65.58" cy="129.4" r="1.77"/>
      <circle class="cls-1" cx="44.31" cy="129.4" r="1.77"/>
      <path class="cls-1" d="M21.27,129.4c0-.98.79-1.77,1.77-1.77s1.77.79,1.77,1.77-.79,1.77-1.77,1.77c-.98,0-1.77-.79-1.77-1.77Z"/>
      <circle class="cls-1" cx="1.77" cy="129.4" r="1.77"/>
      <circle class="cls-1" cx="129.4" cy="108.13" r="1.77" transform="translate(-31.53 57.75) rotate(-22.5)"/>
      <circle class="cls-1" cx="108.13" cy="108.13" r="1.77"/>
      <circle class="cls-1" cx="86.85" cy="108.13" r="1.77"/>
      <circle class="cls-1" cx="65.58" cy="108.13" r="1.77" transform="translate(-36.39 33.33) rotate(-22.5)"/>
      <path class="cls-1" d="M42.54,108.13c0-.98.79-1.77,1.77-1.77s1.77.79,1.77,1.77-.79,1.77-1.77,1.77c-.98,0-1.77-.79-1.77-1.77Z"/>
      <circle class="cls-1" cx="23.04" cy="108.13" r="1.77"/>
      <circle class="cls-1" cx="1.77" cy="108.13" r="1.77" transform="translate(-105.24 92.56) rotate(-80.78)"/>
      <circle class="cls-1" cx="129.4" cy="86.85" r="1.77"/>
      <circle class="cls-1" cx="108.13" cy="86.85" r="1.77"/>
      <path class="cls-1" d="M85.08,86.85c0-.98.79-1.77,1.77-1.77s1.77.79,1.77,1.77-.79,1.77-1.77,1.77-1.77-.79-1.77-1.77Z"/>
      <circle class="cls-1" cx="65.58" cy="86.85" r="1.77"/>
      <circle class="cls-1" cx="44.31" cy="86.85" r="1.77"/>
      <circle class="cls-1" cx="23.04" cy="86.85" r="1.77" transform="translate(-66.78 89.33) rotate(-76.72)"/>
      <circle class="cls-1" cx="1.77" cy="86.85" r="1.77" transform="translate(-83.17 68.62) rotate(-76.72)"/>
      <path class="cls-1" d="M127.62,65.58c0-.98.79-1.77,1.77-1.77.98,0,1.77.79,1.77,1.77s-.79,1.77-1.77,1.77-1.77-.79-1.77-1.77Z"/>
      <circle class="cls-1" cx="108.13" cy="65.58" r="1.77" transform="translate(19.45 155.75) rotate(-76.72)"/>
      <circle class="cls-1" cx="86.85" cy="65.58" r="1.77"/>
      <circle class="cls-1" cx="65.58" cy="65.58" r="1.77"/>
      <circle class="cls-1" cx="44.31" cy="65.58" r="1.77"/>
      <path class="cls-1" d="M21.27,65.58c0-.98.79-1.77,1.77-1.77s1.77.79,1.77,1.77-.79,1.77-1.77,1.77c-.98,0-1.77-.79-1.77-1.77Z"/>
      <circle class="cls-1" cx="1.77" cy="65.58" r="1.77"/>
      <circle class="cls-1" cx="129.4" cy="44.31" r="1.77" transform="translate(-7.11 52.89) rotate(-22.5)"/>
      <circle class="cls-1" cx="108.13" cy="44.31" r="1.77"/>
      <circle class="cls-1" cx="86.85" cy="44.31" r="1.77"/>
      <circle class="cls-1" cx="65.58" cy="44.31" r="1.77" transform="translate(-11.97 28.47) rotate(-22.5)"/>
      <circle class="cls-1" cx="44.31" cy="44.31" r="1.77"/>
      <circle class="cls-1" cx="23.04" cy="44.31" r="1.77"/>
      <circle class="cls-1" cx="1.77" cy="44.31" r="1.77" transform="translate(-42.25 38.97) rotate(-80.78)"/>
      <circle class="cls-1" cx="129.4" cy="23.04" r="1.77"/>
      <circle class="cls-1" cx="108.13" cy="23.04" r="1.77"/>
      <path class="cls-1" d="M85.08,23.04c0-.98.79-1.77,1.77-1.77s1.77.79,1.77,1.77-.79,1.77-1.77,1.77-1.77-.79-1.77-1.77Z"/>
      <circle class="cls-1" cx="65.58" cy="23.04" r="1.77"/>
      <circle class="cls-1" cx="44.31" cy="23.04" r="1.77"/>
      <circle class="cls-1" cx="23.04" cy="23.04" r="1.77" transform="translate(-4.68 40.18) rotate(-76.72)"/>
      <circle class="cls-1" cx="1.77" cy="23.04" r="1.77" transform="translate(-21.06 19.47) rotate(-76.72)"/>
      <path class="cls-1" d="M127.62,1.77C127.62.79,128.42,0,129.4,0c.98,0,1.77.79,1.77,1.77s-.79,1.77-1.77,1.77-1.77-.79-1.77-1.77Z"/>
      <circle class="cls-1" cx="108.13" cy="1.77" r="1.77" transform="translate(81.56 106.6) rotate(-76.72)"/>
      <circle class="cls-1" cx="86.85" cy="1.77" r="1.77"/>
      <circle class="cls-1" cx="65.58" cy="1.77" r="1.77"/>
      <circle class="cls-1" cx="44.31" cy="1.77" r="1.77"/>
      <path class="cls-1" d="M21.27,1.77c0-.98.79-1.77,1.77-1.77s1.77.79,1.77,1.77-.79,1.77-1.77,1.77c-.98,0-1.77-.79-1.77-1.77Z"/>
      <circle class="cls-1" cx="1.77" cy="1.77" r="1.77"/>
    </g>
  </g>
</svg>