<?xml version="1.0" encoding="UTF-8"?>
<svg id="frontend" xmlns="http://www.w3.org/2000/svg" viewBox="0 0 960 960">
  <defs>
    <style>
      .cls-1 {
        stroke-width: 14px;
      }

      .cls-1, .cls-2, .cls-3 {
        fill: none;
        stroke: #333;
        stroke-linecap: round;
        stroke-linejoin: round;
      }

      .cls-2 {
        stroke-width: 20px;
      }

      .cls-3 {
        stroke-width: 16px;
      }

      .cls-4 {
        fill: #333;
      }
    </style>
  </defs>
  <g id="Layer_1">
    <g id="dev">
      <g id="_レイヤー_7" data-name="レイヤー_7">
        <path class="cls-1" d="M369.09,519.69l62.6,62.6c2.53,2.53,2.53,6.63,0,9.16l-62.6,62.6"/>
        <path class="cls-1" d="M291.26,519.69l-62.6,62.6c-2.53,2.53-2.53,6.63,0,9.16l62.6,62.6"/>
        <line class="cls-1" x1="342.15" y1="538.29" x2="316.2" y2="637.78"/>
        <g>
          <path class="cls-4" d="M797.48,679.91h-183.68c-4.62,0-8.66-3.49-8.96-8.1-.33-5.05,3.68-9.26,8.66-9.26h166.3c4.97,0,9-4.03,9-9v-391.38c0-2.39-.95-4.68-2.64-6.36l-99.04-99.04c-1.69-1.69-3.98-2.64-6.36-2.64h-256.11c-4.97,0-9,4.03-9,9v81.28c0,4.62-3.49,8.66-8.1,8.96-5.05.33-9.26-3.68-9.26-8.66v-99.25c0-4.79,3.89-8.68,8.68-8.68h281.11c2.3,0,4.51.91,6.14,2.54l109.4,109.4c1.63,1.63,2.54,3.83,2.54,6.14v416.38c0,4.79-3.89,8.68-8.68,8.68Z"/>
          <path class="cls-4" d="M797.27,263.53h-108.88c-4.97,0-9-4.03-9-9v-108.86c0-2.8,1.24-5.52,3.5-7.18,3.57-2.62,8.34-2.14,11.31.83l109.4,109.4c2.97,2.97,3.45,7.74.84,11.3-1.65,2.26-4.37,3.51-7.17,3.51ZM696.74,246.17h79.77l-79.77-79.77v79.77Z"/>
        </g>
        <path class="cls-3" d="M517.55,300.9H249.92c-2.34,0-4.59.91-6.27,2.54l-107.07,103.84c-1.75,1.7-2.73,409.62-2.73,409.62,0,4.97,4.03,9,9,9h374.71c4.97,0,9-4.03,9-9v-507c0-4.97-4.03-9-9-9Z"/>
        <path class="cls-2" d="M252.12,305.94l-.09,101.59c0,4.97-4.03,8.99-9,8.99h-104.25"/>
      </g>
    </g>
  </g>
</svg>