<?xml version="1.0" encoding="UTF-8"?>
<svg xmlns="http://www.w3.org/2000/svg" viewBox="0 0 240 64">
  <defs>
    <style>
      .cls-1 {
        fill: #fff;
      }
    </style>
  </defs>
  <g id="_見出し" data-name="見出し">
    <g>
      <path class="cls-1" d="M55,4.01v22.4h-3.42l-12.35-15.17v15.17h-4.13V4.01h3.42l12.35,15.17V4.01h4.13Z"/>
      <path class="cls-1" d="M73.65,16.4v10.02h-3.78v-2.08c-.96,1.47-2.82,2.3-5.38,2.3-3.9,0-6.37-2.14-6.37-5.12s1.92-5.09,7.1-5.09h4.42v-.26c0-2.34-1.41-3.71-4.26-3.71-1.92,0-3.9.64-5.18,1.7l-1.57-2.91c1.82-1.41,4.48-2.11,7.23-2.11,4.93,0,7.78,2.34,7.78,7.26ZM69.65,21.07v-1.98h-4.13c-2.72,0-3.46,1.02-3.46,2.27,0,1.44,1.22,2.37,3.26,2.37s3.65-.9,4.32-2.66Z"/>
      <path class="cls-1" d="M94.32,16.62v9.79h-4v-9.28c0-3.04-1.5-4.51-4.06-4.51-2.85,0-4.77,1.73-4.77,5.15v8.64h-4V9.33h3.81v2.21c1.31-1.57,3.39-2.4,5.89-2.4,4.1,0,7.14,2.34,7.14,7.49Z"/>
      <path class="cls-1" d="M112.44,16.4v10.02h-3.78v-2.08c-.96,1.47-2.82,2.3-5.38,2.3-3.9,0-6.37-2.14-6.37-5.12s1.92-5.09,7.1-5.09h4.42v-.26c0-2.34-1.41-3.71-4.26-3.71-1.92,0-3.9.64-5.18,1.7l-1.57-2.91c1.82-1.41,4.48-2.11,7.23-2.11,4.93,0,7.78,2.34,7.78,7.26ZM108.44,21.07v-1.98h-4.13c-2.72,0-3.46,1.02-3.46,2.27,0,1.44,1.22,2.37,3.26,2.37s3.65-.9,4.32-2.66Z"/>
      <path class="cls-1" d="M144.85,16.62v9.79h-4v-9.28c0-3.04-1.41-4.51-3.84-4.51-2.62,0-4.45,1.73-4.45,5.12v8.67h-4v-9.28c0-3.04-1.41-4.51-3.84-4.51-2.66,0-4.45,1.73-4.45,5.12v8.67h-4V9.33h3.81v2.18c1.28-1.54,3.26-2.37,5.6-2.37,2.5,0,4.58.93,5.76,2.85,1.38-1.76,3.68-2.85,6.4-2.85,4.13,0,7.01,2.34,7.01,7.49Z"/>
      <path class="cls-1" d="M164.69,19.15h-13.41c.48,2.5,2.56,4.1,5.54,4.1,1.92,0,3.42-.61,4.64-1.86l2.14,2.46c-1.54,1.82-3.94,2.78-6.88,2.78-5.73,0-9.44-3.68-9.44-8.77s3.74-8.74,8.83-8.74,8.64,3.49,8.64,8.83c0,.32-.03.8-.06,1.18ZM151.25,16.49h9.7c-.32-2.46-2.21-4.16-4.83-4.16s-4.48,1.66-4.86,4.16Z"/>
      <path class="cls-1" d="M177.81,4.01h4.16v18.88h11.71v3.52h-15.87V4.01Z"/>
      <path class="cls-1" d="M210.9,16.4v10.02h-3.78v-2.08c-.96,1.47-2.82,2.3-5.38,2.3-3.9,0-6.37-2.14-6.37-5.12s1.92-5.09,7.1-5.09h4.42v-.26c0-2.34-1.41-3.71-4.26-3.71-1.92,0-3.9.64-5.18,1.7l-1.57-2.91c1.82-1.41,4.48-2.11,7.23-2.11,4.93,0,7.78,2.34,7.78,7.26ZM206.9,21.07v-1.98h-4.13c-2.72,0-3.46,1.02-3.46,2.27,0,1.44,1.22,2.37,3.26,2.37s3.65-.9,4.32-2.66Z"/>
      <path class="cls-1" d="M232.88,17.87c0,5.31-3.68,8.77-8.67,8.77-2.33,0-4.32-.8-5.66-2.43v2.21h-3.81V2.67h4v8.74c1.38-1.54,3.3-2.27,5.47-2.27,4.99,0,8.67,3.42,8.67,8.74ZM228.82,17.87c0-3.26-2.18-5.34-5.06-5.34s-5.09,2.08-5.09,5.34,2.21,5.34,5.09,5.34,5.06-2.08,5.06-5.34Z"/>
    </g>
  </g>
  <g id="_キャプション" data-name="キャプション">
    <g>
      <path class="cls-1" d="M41.87,43.37c0,1.82-1.32,2.93-3.5,2.93h-2.07v2.54h-1.2v-8.4h3.27c2.18,0,3.5,1.1,3.5,2.93ZM40.67,43.37c0-1.2-.8-1.88-2.34-1.88h-2.04v3.77h2.04c1.54,0,2.34-.68,2.34-1.88Z"/>
      <path class="cls-1" d="M42.64,45.66c0-1.9,1.4-3.24,3.31-3.24s3.3,1.34,3.3,3.24-1.39,3.25-3.3,3.25-3.31-1.35-3.31-3.25ZM48.09,45.66c0-1.36-.91-2.23-2.14-2.23s-2.15.88-2.15,2.23.92,2.24,2.15,2.24,2.14-.89,2.14-2.24Z"/>
      <path class="cls-1" d="M54.15,42.42v1.12c-.1-.01-.18-.01-.26-.01-1.24,0-2,.76-2,2.15v3.17h-1.15v-6.36h1.1v1.07c.41-.74,1.2-1.13,2.32-1.13Z"/>
      <path class="cls-1" d="M59.58,48.47c-.35.3-.88.44-1.39.44-1.28,0-2.01-.71-2.01-1.99v-3.49h-1.08v-.95h1.08v-1.39h1.15v1.39h1.82v.95h-1.82v3.44c0,.68.36,1.07,1,1.07.34,0,.66-.11.9-.3l.36.83Z"/>
      <path class="cls-1" d="M62.39,41.93v.55h1.85v.95h-1.82v5.41h-1.15v-5.41h-1.08v-.95h1.08v-.56c0-1.23.74-2.05,2.1-2.05.49,0,.97.12,1.29.37l-.35.88c-.24-.18-.55-.3-.89-.3-.68,0-1.03.38-1.03,1.12Z"/>
      <path class="cls-1" d="M64.62,45.66c0-1.9,1.4-3.24,3.31-3.24s3.3,1.34,3.3,3.24-1.39,3.25-3.3,3.25-3.31-1.35-3.31-3.25ZM70.07,45.66c0-1.36-.91-2.23-2.14-2.23s-2.15.88-2.15,2.23.92,2.24,2.15,2.24,2.14-.89,2.14-2.24Z"/>
      <path class="cls-1" d="M72.71,39.94h1.15v8.9h-1.15v-8.9Z"/>
      <path class="cls-1" d="M75.98,40.52c0-.42.34-.76.78-.76s.78.32.78.73c0,.43-.32.77-.78.77s-.78-.32-.78-.74ZM76.18,42.48h1.15v6.36h-1.15v-6.36Z"/>
      <path class="cls-1" d="M78.82,45.66c0-1.9,1.4-3.24,3.31-3.24s3.3,1.34,3.3,3.24-1.39,3.25-3.3,3.25-3.31-1.35-3.31-3.25ZM84.27,45.66c0-1.36-.91-2.23-2.14-2.23s-2.15.88-2.15,2.23.92,2.24,2.15,2.24,2.14-.89,2.14-2.24Z"/>
      <path class="cls-1" d="M88.95,45.66c0-1.9,1.4-3.24,3.31-3.24s3.3,1.34,3.3,3.24-1.39,3.25-3.3,3.25-3.31-1.35-3.31-3.25ZM94.39,45.66c0-1.36-.91-2.23-2.13-2.23s-2.15.88-2.15,2.23.92,2.24,2.15,2.24,2.13-.89,2.13-2.24Z"/>
      <path class="cls-1" d="M98.57,41.93v.55h1.85v.95h-1.82v5.41h-1.15v-5.41h-1.08v-.95h1.08v-.56c0-1.23.74-2.05,2.1-2.05.49,0,.97.12,1.29.37l-.35.88c-.24-.18-.55-.3-.89-.3-.68,0-1.03.38-1.03,1.12Z"/>
      <path class="cls-1" d="M106.82,41.49h-2.88v-1.04h6.94v1.04h-2.88v7.35h-1.19v-7.35Z"/>
      <path class="cls-1" d="M110.6,45.66c0-1.9,1.4-3.24,3.31-3.24s3.3,1.34,3.3,3.24-1.39,3.25-3.3,3.25-3.31-1.35-3.31-3.25ZM116.04,45.66c0-1.36-.91-2.23-2.14-2.23s-2.15.88-2.15,2.23.92,2.24,2.15,2.24,2.14-.89,2.14-2.24Z"/>
      <path class="cls-1" d="M118.12,48.17l.48-.91c.54.38,1.4.66,2.23.66,1.07,0,1.51-.32,1.51-.86,0-1.43-4.02-.19-4.02-2.72,0-1.14,1.02-1.91,2.65-1.91.83,0,1.76.22,2.31.58l-.49.91c-.58-.37-1.21-.5-1.83-.5-1.01,0-1.5.37-1.5.88,0,1.5,4.03.28,4.03,2.75,0,1.15-1.06,1.88-2.75,1.88-1.05,0-2.1-.32-2.63-.74Z"/>
      <path class="cls-1" d="M131.09,45.18v3.66h-1.15v-3.53c0-1.25-.62-1.86-1.71-1.86-1.22,0-2.01.73-2.01,2.11v3.27h-1.15v-8.9h1.15v3.44c.48-.61,1.27-.96,2.24-.96,1.55,0,2.64.89,2.64,2.76Z"/>
      <path class="cls-1" d="M132.9,40.52c0-.42.34-.76.78-.76s.78.32.78.73c0,.43-.32.77-.78.77s-.78-.32-.78-.74ZM133.11,42.48h1.15v6.36h-1.15v-6.36Z"/>
      <path class="cls-1" d="M142.44,42.48l-3.08,6.99c-.56,1.34-1.29,1.76-2.27,1.76-.61,0-1.24-.2-1.63-.59l.49-.86c.31.3.71.47,1.14.47.55,0,.9-.25,1.21-.98l.2-.44-2.81-6.34h1.2l2.22,5.08,2.19-5.08h1.13Z"/>
      <path class="cls-1" d="M149.81,42.48v6.36h-1.09v-.96c-.47.66-1.26,1.03-2.16,1.03-1.64,0-2.73-.9-2.73-2.77v-3.66h1.15v3.53c0,1.25.62,1.87,1.71,1.87,1.2,0,1.97-.74,1.97-2.11v-3.29h1.15Z"/>
      <path class="cls-1" d="M154.12,45.88l-1.32,1.22v1.74h-1.15v-8.9h1.15v5.71l3.47-3.17h1.39l-2.67,2.63,2.94,3.73h-1.42l-2.39-2.96Z"/>
      <path class="cls-1" d="M158.96,40.52c0-.42.34-.76.78-.76s.78.32.78.73c0,.43-.32.77-.78.77s-.78-.32-.78-.74ZM159.16,42.48h1.15v6.36h-1.15v-6.36Z"/>
      <path class="cls-1" d="M168.88,45.11l-1.54,1.56v2.17h-1.2v-8.4h1.2v4.69l4.56-4.69h1.37l-3.59,3.78,3.81,4.62h-1.4l-3.21-3.73Z"/>
      <path class="cls-1" d="M180.17,42.48v6.36h-1.09v-.96c-.47.66-1.26,1.03-2.16,1.03-1.64,0-2.73-.9-2.73-2.77v-3.66h1.15v3.53c0,1.25.62,1.87,1.71,1.87,1.2,0,1.97-.74,1.97-2.11v-3.29h1.15Z"/>
      <path class="cls-1" d="M185.66,42.42v1.12c-.1-.01-.18-.01-.26-.01-1.24,0-2,.76-2,2.15v3.17h-1.15v-6.36h1.1v1.07c.41-.74,1.2-1.13,2.32-1.13Z"/>
      <path class="cls-1" d="M192.32,45v3.84h-1.09v-.84c-.38.58-1.09.91-2.09.91-1.44,0-2.35-.77-2.35-1.87,0-1.02.66-1.86,2.55-1.86h1.82v-.23c0-.97-.56-1.54-1.7-1.54-.76,0-1.52.26-2.01.68l-.48-.86c.66-.53,1.61-.82,2.63-.82,1.74,0,2.72.84,2.72,2.58ZM191.17,46.9v-.89h-1.78c-1.14,0-1.46.44-1.46.98,0,.64.53,1.03,1.4,1.03s1.55-.4,1.83-1.13Z"/>
      <path class="cls-1" d="M193.54,48.17l.48-.91c.54.38,1.4.66,2.23.66,1.07,0,1.51-.32,1.51-.86,0-1.43-4.02-.19-4.02-2.72,0-1.14,1.02-1.91,2.65-1.91.83,0,1.76.22,2.31.58l-.49.91c-.58-.37-1.21-.5-1.83-.5-1.01,0-1.5.37-1.5.88,0,1.5,4.03.28,4.03,2.75,0,1.15-1.06,1.88-2.75,1.88-1.05,0-2.1-.32-2.63-.74Z"/>
      <path class="cls-1" d="M206.51,45.18v3.66h-1.15v-3.53c0-1.25-.62-1.86-1.71-1.86-1.22,0-2.01.73-2.01,2.11v3.27h-1.15v-8.9h1.15v3.44c.48-.61,1.27-.96,2.24-.96,1.55,0,2.64.89,2.64,2.76Z"/>
      <path class="cls-1" d="M208.32,40.52c0-.42.34-.76.78-.76s.78.32.78.73c0,.43-.32.77-.78.77s-.78-.32-.78-.74ZM208.53,42.48h1.15v6.36h-1.15v-6.36Z"/>
      <path class="cls-1" d="M222.31,45.18v3.66h-1.15v-3.53c0-1.25-.6-1.86-1.64-1.86-1.15,0-1.91.73-1.91,2.11v3.27h-1.15v-3.53c0-1.25-.6-1.86-1.64-1.86-1.15,0-1.91.73-1.91,2.11v3.27h-1.15v-6.36h1.1v.95c.46-.65,1.24-1.01,2.2-1.01s1.79.38,2.21,1.18c.48-.72,1.37-1.18,2.45-1.18,1.55,0,2.6.89,2.6,2.76Z"/>
      <path class="cls-1" d="M229.11,45v3.84h-1.09v-.84c-.38.58-1.09.91-2.09.91-1.44,0-2.35-.77-2.35-1.87,0-1.02.66-1.86,2.55-1.86h1.82v-.23c0-.97-.56-1.54-1.7-1.54-.76,0-1.52.26-2.01.68l-.48-.86c.66-.53,1.61-.82,2.63-.82,1.74,0,2.72.84,2.72,2.58ZM227.96,46.9v-.89h-1.78c-1.14,0-1.46.44-1.46.98,0,.64.53,1.03,1.4,1.03s1.55-.4,1.83-1.13Z"/>
    </g>
  </g>
  <g id="_ロゴマーク" data-name="ロゴマーク">
    <path class="cls-1" d="M27.51,3H4v23.43c7.82-7.82,15.66-15.64,23.51-23.43Z"/>
    <path class="cls-1" d="M5.26,28h23.74V4.34c-7.93,7.87-15.84,15.76-23.74,23.66Z"/>
    <rect class="cls-1" x="4" y="45.25" width="25" height=".5"/>
  </g>
</svg>