<?xml version="1.0" encoding="UTF-8"?>
<svg id="structure" xmlns="http://www.w3.org/2000/svg" viewBox="0 0 1280 960">
  <defs>
    <style>
      .cls-1 {
        fill: #3c4358;
      }

      .cls-2, .cls-3, .cls-4, .cls-5, .cls-6 {
        isolation: isolate;
      }

      .cls-2, .cls-5 {
        opacity: .1;
      }

      .cls-3, .cls-4, .cls-6 {
        opacity: .05;
      }

      .cls-7 {
        fill: #ffd3d4;
      }

      .cls-8 {
        fill: #4a4c56;
      }

      .cls-9 {
        fill: #ffd0d2;
      }

      .cls-10 {
        fill: #ced7e3;
      }

      .cls-11 {
        fill: #bdc1e4;
      }

      .cls-12 {
        fill: #c6c6c6;
      }

      .cls-13 {
        fill: #ffb0b0;
      }

      .cls-14 {
        fill: #eca913;
      }

      .cls-4, .cls-5 {
        fill: #1a1a1a;
      }

      .cls-15, .cls-6 {
        fill: #fff;
      }

      .cls-16 {
        fill: #988f84;
      }

      .cls-17 {
        fill: #666;
      }

      .cls-18 {
        fill: #ffc9ca;
      }

      .cls-19 {
        fill: #5468a1;
      }

      .cls-20 {
        fill: #ede6eb;
      }

      .cls-21 {
        fill: #697a94;
      }

      .cls-22 {
        fill: #bfbfbf;
      }

      .cls-23 {
        fill: #ffd6d6;
      }

      .cls-24 {
        fill: #ced3f8;
      }

      .cls-25 {
        fill: #ccccd5;
      }

      .cls-26 {
        fill: #3b435a;
      }

      .cls-27 {
        fill: #cfcfcf;
      }

      .cls-28 {
        fill: #ffc5c8;
      }
    </style>
  </defs>
  <g id="_2" data-name=" 2">
    <g>
      <path class="cls-24" d="M704.5,316.44l-180.15,104.01,373.66,215.73,180.15-104.01-373.66-215.73h0ZM805.97,458.17c3.28-1.89,8.59-1.89,11.87,0,3.28,1.89,3.28,4.96,0,6.85-3.28,1.89-8.59,1.89-11.87,0-3.28-1.89-3.28-4.96,0-6.85ZM821.2,495.86l-47.48-27.41,22.04-2.64c1.26-.15,2.58.05,3.55.53.98.49,1.5,1.21,1.42,1.95l-.69,6.41,23.78-2.84c1.36-.16,2.78.08,3.76.65.98.57,1.41,1.38,1.13,2.17l-7.51,21.17h0Z"/>
      <path class="cls-27" d="M440.64,505.28l-97.63,56.37,97.63,56.37,97.63-56.37-97.63-56.37ZM445.6,546.45c3.31,1.91,3.31,5.01,0,6.92-3.31,1.91-8.67,1.91-11.98,0-3.31-1.91-3.31-5.01,0-6.92,3.31-1.91,8.67-1.91,11.98,0h0ZM401.05,556.83l22.25-2.67c1.28-.15,2.6.05,3.58.54.98.49,1.52,1.22,1.43,1.97l-.7,6.47,24.01-2.87c1.38-.16,2.8.08,3.8.66.99.57,1.42,1.4,1.14,2.19l-7.58,21.38-47.93-27.67h0Z"/>
      <path class="cls-22" d="M97.89,665.22c-1.19-.69-1.19-1.81,0-2.5,3.94-2.28,5.86-3.44,7.77-4.6,1.95-1.19,3.9-2.37,7.89-4.67,4.14-2.39,6.6-3.41,8.97-4.39,2.27-.95,4.41-1.84,8.2-4.02,3.98-2.3,6.01-3.42,8.06-4.55,2-1.11,4.02-2.22,7.96-4.5,3.92-2.26,5.79-3.43,7.67-4.6,1.92-1.2,3.84-2.39,7.83-4.7,3.66-2.11,4.96-3.43,6.33-4.82,1.51-1.53,3.07-3.12,7.32-5.58,4.09-2.36,6.42-3.41,8.69-4.43,2.21-.99,4.29-1.93,8.1-4.13,4.09-2.36,6.45-3.4,8.74-4.41,2.22-.97,4.32-1.9,8.12-4.09,3.77-2.18,5.29-3.41,6.9-4.73,1.68-1.37,3.43-2.8,7.57-5.19,3.8-2.19,5.39-3.4,7.07-4.68,1.73-1.32,3.53-2.68,7.61-5.04,4.26-2.46,7.04-3.35,9.73-4.2,2.42-.77,4.7-1.5,8.35-3.61,3.78-2.18,5.34-3.41,6.97-4.72,1.71-1.36,3.47-2.75,7.6-5.14,3.94-2.28,5.9-3.42,7.85-4.57,1.96-1.15,3.92-2.3,7.88-4.59,3.92-2.26,5.82-3.43,7.73-4.59,1.93-1.18,3.87-2.37,7.85-4.67,4.02-2.32,6.15-3.4,8.28-4.49,2.06-1.04,4.13-2.1,8-4.34,3.9-2.25,5.75-3.44,7.6-4.61,1.9-1.22,3.81-2.43,7.81-4.74,3.92-2.27,5.87-3.42,7.8-4.57,1.95-1.16,3.91-2.32,7.87-4.61,4.2-2.42,6.83-3.36,9.36-4.27,2.34-.84,4.57-1.64,8.25-3.77,3.74-2.16,5.2-3.41,6.76-4.74,1.64-1.41,3.34-2.87,7.49-5.26,3.87-2.23,5.65-3.44,7.43-4.64,1.87-1.25,3.72-2.51,7.76-4.84,4.13-2.38,6.6-3.38,8.98-4.35,2.28-.92,4.41-1.79,8.17-3.96,3.82-2.21,5.46-3.4,7.21-4.66,1.78-1.28,3.61-2.61,7.67-4.96l15.77-9.1c3.86-2.23,5.62-3.43,7.38-4.64,1.85-1.26,3.7-2.53,7.75-4.86,4.11-2.37,6.53-3.39,8.86-4.38,2.24-.94,4.36-1.84,8.14-4.02,4.1-2.37,6.5-3.38,8.83-4.38,2.24-.94,4.36-1.84,8.14-4.02,3.6-2.08,4.82-3.41,6.1-4.82,1.39-1.5,2.94-3.21,7.21-5.67,4.03-2.32,6.21-3.39,8.4-4.45,2.08-1.02,4.17-2.03,8.02-4.25,3.99-2.3,6.1-3.39,8.2-4.48,2.04-1.06,4.09-2.11,7.97-4.36,3.97-2.29,6-3.41,8.03-4.53,2.01-1.1,4.01-2.21,7.92-4.47,3.75-2.16,5.24-3.41,6.8-4.74,1.66-1.4,3.37-2.84,7.52-5.23,4.3-2.48,7.31-3.36,9.97-4.14,2.48-.72,4.81-1.4,8.41-3.48,3.7-2.14,5.11-3.42,6.59-4.76,1.6-1.45,3.25-2.95,7.43-5.36,3.85-2.22,5.55-3.4,7.34-4.65s3.66-2.54,7.7-4.88c4.3-2.48,7.32-3.36,10-4.13,2.47-.71,4.81-1.39,8.41-3.47,3.78-2.18,5.35-3.4,7-4.7,1.73-1.34,3.5-2.72,7.61-5.1,3.89-2.25,5.74-3.42,7.6-4.6,1.9-1.21,3.81-2.41,7.81-4.72,3.85-2.22,5.62-3.43,7.38-4.63,1.84-1.26,3.69-2.52,7.72-4.85,3.87-2.23,5.67-3.43,7.46-4.62,1.88-1.24,3.74-2.48,7.76-4.8,1.19-.69,3.14-.69,4.33,0,1.19.69,1.19,1.81,0,2.5-3.87,2.23-5.67,3.43-7.46,4.62-1.88,1.24-3.74,2.48-7.76,4.8-3.85,2.22-5.62,3.43-7.38,4.63-1.84,1.26-3.69,2.52-7.72,4.85-3.9,2.25-5.75,3.43-7.6,4.6-1.9,1.21-3.81,2.41-7.8,4.72-3.79,2.19-5.36,3.41-7.01,4.7-1.73,1.34-3.5,2.72-7.6,5.09-4.3,2.48-7.32,3.36-10,4.13-2.47.71-4.81,1.39-8.41,3.47-3.84,2.22-5.54,3.39-7.32,4.64-1.81,1.26-3.68,2.55-7.72,4.89-3.7,2.14-5.1,3.41-6.58,4.76-1.6,1.45-3.25,2.95-7.43,5.37-4.3,2.48-7.31,3.36-9.97,4.14-2.48.72-4.81,1.4-8.41,3.48-3.75,2.16-5.23,3.41-6.79,4.73-1.66,1.4-3.37,2.84-7.53,5.23-3.97,2.29-6.01,3.41-8.03,4.53-2.01,1.1-4.01,2.21-7.92,4.47-4,2.31-6.11,3.4-8.21,4.49-2.04,1.06-4.09,2.11-7.96,4.35-4.03,2.33-6.22,3.39-8.41,4.45-2.08,1.02-4.17,2.03-8.01,4.24-3.61,2.09-4.83,3.41-6.11,4.82-1.45,1.58-2.93,3.21-7.2,5.67-4.11,2.37-6.51,3.39-8.84,4.38-2.24.94-4.36,1.84-8.13,4.02-4.12,2.38-6.54,3.39-8.87,4.38-2.24.94-4.36,1.84-8.14,4.01-3.86,2.23-5.62,3.43-7.38,4.64-1.85,1.26-3.7,2.53-7.75,4.86l-15.77,9.1c-3.82,2.21-5.46,3.4-7.21,4.66-1.78,1.28-3.61,2.61-7.67,4.96-4.13,2.38-6.6,3.38-8.98,4.35-2.28.92-4.41,1.79-8.17,3.96-3.87,2.23-5.65,3.44-7.43,4.64-1.87,1.25-3.72,2.51-7.76,4.84-3.74,2.16-5.19,3.41-6.75,4.74-1.64,1.41-3.34,2.87-7.5,5.27-4.19,2.42-6.82,3.36-9.35,4.27-2.34.84-4.57,1.64-8.26,3.77-3.93,2.27-5.88,3.42-7.81,4.58-1.95,1.16-3.91,2.32-7.87,4.61-3.89,2.25-5.74,3.43-7.6,4.61-1.9,1.22-3.81,2.43-7.81,4.75-4.02,2.32-6.15,3.4-8.28,4.49-2.06,1.04-4.13,2.1-8,4.34-3.92,2.27-5.83,3.43-7.74,4.59-1.93,1.18-3.86,2.36-7.84,4.66-3.94,2.28-5.9,3.42-7.85,4.57-1.96,1.15-3.92,2.3-7.88,4.59-3.78,2.18-5.34,3.41-6.97,4.72-1.71,1.36-3.47,2.75-7.6,5.14-4.25,2.46-7.03,3.34-9.72,4.2-2.42.77-4.71,1.5-8.36,3.61-3.79,2.19-5.38,3.4-7.06,4.67-1.73,1.32-3.54,2.69-7.62,5.04-3.77,2.18-5.29,3.42-6.91,4.73-1.68,1.37-3.43,2.8-7.56,5.19-4.09,2.36-6.44,3.4-8.73,4.4-2.23.98-4.32,1.9-8.13,4.1-4.09,2.36-6.41,3.41-8.67,4.42-2.22,1-4.3,1.93-8.12,4.14-3.66,2.11-4.96,3.43-6.33,4.82-1.51,1.53-3.07,3.12-7.32,5.58-3.91,2.26-5.79,3.43-7.66,4.6-1.92,1.2-3.84,2.39-7.84,4.7-3.98,2.3-6.02,3.43-8.07,4.55-2,1.11-4.02,2.22-7.95,4.49-4.14,2.39-6.59,3.4-8.96,4.39-2.27.95-4.41,1.84-8.21,4.03-3.94,2.28-5.86,3.44-7.77,4.6-1.95,1.19-3.9,2.37-7.89,4.67-1.19.69-3.14.69-4.33,0h0Z"/>
      <path class="cls-22" d="M475.94,883.49c-1.19-.69-1.19-1.81,0-2.5,3.8-2.19,5.6-3.34,7.42-4.49,1.85-1.18,3.71-2.36,7.61-4.61,3.79-2.19,5.57-3.34,7.36-4.5,1.85-1.2,3.7-2.39,7.61-4.65,3.82-2.21,5.68-3.34,7.52-4.49,1.89-1.16,3.76-2.32,7.66-4.57,3.76-2.17,5.39-3.33,7.12-4.55,1.75-1.25,3.56-2.52,7.54-4.82,4.1-2.37,6.66-3.3,9.13-4.19,2.29-.83,4.45-1.61,8.06-3.7,3.78-2.18,5.56-3.34,7.33-4.51,1.84-1.21,3.66-2.41,7.59-4.67,3.7-2.13,5.22-3.33,6.82-4.59,1.68-1.31,3.42-2.68,7.43-5,4.1-2.37,6.66-3.3,9.12-4.2,2.29-.83,4.45-1.62,8.07-3.71,3.72-2.15,5.3-3.33,6.97-4.57,1.72-1.28,3.48-2.61,7.49-4.92,3.88-2.24,5.85-3.34,7.82-4.44,1.95-1.09,3.9-2.18,7.74-4.4,3.9-2.25,5.93-3.34,7.95-4.42,1.98-1.05,3.96-2.12,7.77-4.32,3.92-2.27,6.01-3.34,8.09-4.4,2.01-1.04,4.02-2.07,7.82-4.26,3.64-2.1,5.03-3.34,6.5-4.64,1.6-1.4,3.23-2.85,7.32-5.21,3.98-2.3,6.21-3.34,8.36-4.35,2.14-1,4.14-1.94,7.9-4.11,3.98-2.3,6.22-3.34,8.37-4.35,2.14-.99,4.16-1.93,7.91-4.1,3.8-2.19,5.59-3.35,7.38-4.52,1.85-1.21,3.7-2.4,7.64-4.67l15.45-8.92c3.77-2.18,5.51-3.35,7.26-4.52,1.82-1.23,3.64-2.45,7.57-4.72,4-2.31,6.28-3.34,8.48-4.34,2.15-.98,4.18-1.89,7.92-4.05,3.8-2.19,5.6-3.35,7.39-4.51,1.86-1.19,3.7-2.38,7.63-4.65,3.73-2.15,5.3-3.34,6.96-4.59,1.71-1.29,3.48-2.62,7.49-4.94,4.04-2.33,6.43-3.33,8.72-4.29,2.21-.92,4.3-1.8,7.99-3.93,3.86-2.23,5.76-3.34,7.66-4.47,1.92-1.13,3.84-2.27,7.71-4.5,3.84-2.22,5.69-3.36,7.55-4.51,1.89-1.17,3.78-2.34,7.69-4.59,3.92-2.27,5.97-3.35,8.02-4.43,2-1.06,3.99-2.12,7.83-4.34,3.87-2.23,5.76-3.36,7.65-4.5,1.92-1.15,3.82-2.3,7.72-4.55,1.19-.69,3.14-.69,4.33,0,1.19.69,1.19,1.81,0,2.5-3.86,2.23-5.75,3.36-7.64,4.5-1.92,1.15-3.82,2.3-7.73,4.55-3.93,2.27-5.98,3.35-8.03,4.44-2,1.06-3.99,2.12-7.82,4.33-3.84,2.22-5.68,3.36-7.54,4.5-1.89,1.17-3.78,2.34-7.7,4.6-3.86,2.23-5.76,3.34-7.66,4.47-1.92,1.13-3.84,2.27-7.71,4.5-4.04,2.33-6.43,3.33-8.72,4.29-2.21.92-4.3,1.8-7.99,3.93-3.72,2.15-5.29,3.33-6.95,4.58-1.71,1.29-3.48,2.63-7.49,4.94-3.8,2.19-5.6,3.35-7.39,4.51-1.86,1.19-3.71,2.39-7.63,4.65-3.99,2.3-6.27,3.34-8.47,4.34-2.15.98-4.19,1.9-7.92,4.06-3.77,2.18-5.51,3.34-7.25,4.52-1.82,1.23-3.64,2.45-7.58,4.73l-15.45,8.92c-3.81,2.2-5.6,3.36-7.39,4.52-1.85,1.21-3.7,2.4-7.63,4.67-3.98,2.3-6.22,3.34-8.38,4.35-2.14.99-4.15,1.93-7.9,4.09-3.98,2.3-6.21,3.34-8.36,4.35-2.14,1-4.14,1.94-7.9,4.11-3.64,2.1-5.03,3.34-6.5,4.64-1.6,1.4-3.23,2.85-7.32,5.21-3.92,2.27-6,3.34-8.09,4.4-2.01,1.04-4.02,2.07-7.82,4.26-3.9,2.25-5.92,3.33-7.93,4.41-1.99,1.06-3.97,2.12-7.79,4.33-3.87,2.24-5.84,3.34-7.81,4.43-1.95,1.09-3.9,2.18-7.75,4.4-3.72,2.15-5.3,3.33-6.97,4.57-1.72,1.28-3.48,2.61-7.49,4.92-4.1,2.37-6.66,3.3-9.12,4.2-2.29.83-4.45,1.62-8.07,3.71-3.7,2.13-5.22,3.33-6.82,4.59-1.68,1.31-3.42,2.68-7.43,5-3.78,2.18-5.56,3.34-7.33,4.51-1.84,1.21-3.66,2.41-7.59,4.67-4.1,2.37-6.66,3.3-9.13,4.19-2.29.83-4.45,1.61-8.06,3.7-3.75,2.16-5.39,3.33-7.12,4.55-1.75,1.25-3.56,2.52-7.54,4.82-3.82,2.21-5.68,3.35-7.53,4.49-1.89,1.16-3.76,2.32-7.65,4.57-3.79,2.19-5.57,3.34-7.36,4.5-1.85,1.2-3.7,2.39-7.61,4.65-3.8,2.19-5.6,3.34-7.42,4.49-1.85,1.18-3.71,2.36-7.61,4.61-1.19.69-3.14.69-4.33,0h0Z"/>
      <g>
        <path class="cls-3" d="M1020.96,622.41c20.6,11.89,70.7,2.25,111.9-21.54,41.2-23.79,57.9-52.71,37.3-64.6-20.6-11.89-70.7-2.25-111.9,21.54-41.2,23.79-57.9,52.71-37.3,64.6Z"/>
        <g>
          <g>
            <path class="cls-16" d="M1172.37,525.25s-3.71.62-4.35.05,1.75-2.98,1.75-2.98l1.81.95.79,1.98h0Z"/>
            <path class="cls-8" d="M1180.41,507.36c-.9-6.18-3.11-12.12-9.07-15.68-9.95-5.96-19.62,2.06-24.36,7.73-4.74,5.67-4.02,12.84-16.8,29.13-3.23,4.12-22.22,21.89-12.19,27.8,7.21,4.25,22.98-1.99,35.97-10.5,11.09-7.27,13.69-21.97,16.88-22.39.5.04.57,1.75,1.53,1.81,2.12.12,11.31-10.68,10.59-13.2-.63-2.22-.8-2.99-2.55-4.69h0Z"/>
          </g>
          <path class="cls-23" d="M1146.42,461.52c11.15,7.86,14.33,25.62,21.73,30.31,9.44,5.99-3.09,19.57-6.99,20.31-.92.17-.34-2.77-.61-4.8-.3-2.3-14.8-2.55-16.38-.22-.91,1.33,2.51-4.23,4.71-6.96.89-1.11,1.92-2.65,2.12-3.25,1.22-3.71-19.73-22.36-22.19-24.9-2.46-2.54,12.8-13.89,17.62-10.49h0Z"/>
          <path class="cls-26" d="M1027.84,294.12c45.19,79.21,43.78,135.33,74.56,125.97,30.78-9.36-13.81-131.16-37.71-160.01-23.91-28.85-36.85,34.04-36.85,34.04Z"/>
          <path class="cls-26" d="M1071.1,389.38c-10.13,28.14,65.43,110.28,77.95,102.39,14.78-9.32,15.85-14.23,15.04-25.21-1.23-16.73-42-86.59-65.12-84.52-31.95,2.86-27.87,7.34-27.87,7.34h0Z"/>
        </g>
        <path class="cls-26" d="M1091.06,285.63c-54.32,82.74-83.65,163.23-62.83,186.41,6.42,7.15,29.9,15.78,37.34,1.67,29.99-56.85,39.37-101.06,51.72-120.64,30.14-47.75-12.25-88.74-26.24-67.44h0Z"/>
        <g>
          <path class="cls-16" d="M1050.99,649.56s-3.67-.8-4.06-1.57,2.73-2.12,2.73-2.12l1.33,1.56v2.13Z"/>
          <path class="cls-8" d="M1065.1,635.93c1.46-6.07,1.6-12.41-2.61-17.93-7.03-9.23-18.99-5.36-25.49-1.86-6.51,3.5-8.5,10.44-26.41,20.82-4.53,2.62-27.63,14.23-20.51,23.43,5.13,6.62,20.96,4.54,36.17,1.45,13-2.64,20.86-15.33,23.98-14.54.45.22-.12,1.84.75,2.25,1.93.9,14.46-5.73,14.73-8.33.24-2.29.37-3.07-.63-5.3h0Z"/>
        </g>
        <path class="cls-23" d="M1055.47,577.3c7.44,11.43-1.13,32.56,4,39.67,6.55,9.07-10.13,17.03-14.02,16.27-.91-.18.71-2.7,1.22-4.68.57-2.25-12.8-7.86-15.13-6.28-1.34.9,3.9-3,6.96-4.72,1.24-.7,2.76-1.75,3.17-2.23,2.51-2.99-5.09-31.54-6.44-34.81-1.35-3.27,17.04-8.15,20.25-3.21h0Z"/>
        <path class="cls-26" d="M1033.01,411.1c-16.02,2.52-20.33,158.92-7.97,197.78,1.28,4.02,35.88,10.01,40.72-5.04,3.03-9.41.12-44.26.12-53.87,0-24.98,23.33-147.69-32.86-138.86h0Z"/>
        <g>
          <path class="cls-9" d="M979.75,265.04c-.31-5.85-2.07-17.12-9.62-15.32-7.55,1.8-25.32,12.33-13.79,24.81,11.35,12.29,24.26,6.44,23.42-9.49h0Z"/>
          <path class="cls-9" d="M1008.5,209.11c-9.73-1.46-40.56,56.56-39.99,63.92.11,1.43,4.08,4.49,7.04,2.73,14.28-8.48,37.49-45.24,39.34-55.22,2.23-12.06-6.39-11.43-6.39-11.43Z"/>
        </g>
        <path class="cls-9" d="M1022.23,128.27c-7.97,10.74-29.95,90.82-13.55,94.19,11.18,2.3,26.09-37.01,35.37-72.49,9.51-36.39-13.85-32.45-21.82-21.7h0Z"/>
        <path class="cls-19" d="M1033.43,223.74s-51.33-28.43-36.06-47.85c5.33-6.78,10.55-71.24,52.26-74.29,4.77-.35-2.21,112.17-16.2,122.13h0Z"/>
        <path class="cls-6" d="M1032.77,265.29c0,3.46.55,8.36-1.84,7.75-3.44-.87-12.45-4.94-12.24-7.04.2-2.1.4-9.35,1.06-8.34.76,1.16,11.54,7.92,13.03,7.63h0Z"/>
        <g>
          <polygon class="cls-25" points="1041.97 119.76 1041.97 119.76 1042.53 116.63 1041.97 119.76"/>
          <path class="cls-19" d="M1021.45,148.63c-.54-14.36,7.39-43.48,31.22-48.11,29.83.62,31.49,4.23,42.26,8.81,10.77,4.58,22.21,23.05,23.23,34.55.58,6.59,1,15.58.97,19.86-.1,17.22-3.9,21.99-1.59,64.7.37,6.79,5.13,26.41,9.23,43.91,3.12,13.31,8.02,36.73,8.12,40.98-6.59,3.73-10.28,8.96-17.81,13.14-7.93,4.4-18.05-10.3-27.86-11.37-25.31-2.76-35.86,13.53-56.86-.79-10.68-7.28-10.57-8.39-8.62-17.78,1.34-6.47-1.45-17.63-.81-27.03.67-9.79-1.2-24.9-.1-35.91,4.92-49.22-.84-70.6-1.38-84.96h0Z"/>
          <path class="cls-2" d="M1094.98,219.78c1.05-36.28,13.91-50.48,24.16-56.03-.1,17.22-3.9,21.99-1.59,64.7.37,6.79,5.13,26.41,9.23,43.91-15.31-4.86-32.8-17.96-31.8-52.57Z"/>
          <path class="cls-28" d="M1050.4,104.88c2.11-2.39,4.53-2.46,4.53-2.46,0,0,.05-9.36.09-10.11l27.24-2.43s.58,15.36,2.62,16.75c3.88,2.64,10.67,1.45,8.67,7.45-2,6-26.05,15.42-37.05,11.42-11-4-8.21-18.23-6.11-20.62Z"/>
          <g>
            <path class="cls-7" d="M1024.85,44.29c-5.75,10,3.52,31.22,3.52,31.22,0,0,1.15,26.64,26.01,31.46,19.76,3.83,33.27-18.38,33.27-18.38,0,0,18.5-54.85-15.64-62.17-34.14-7.31-41.41,7.86-47.15,17.86h0Z"/>
            <path class="cls-1" d="M1041.41,19.15c22.91-10,39.19-1.45,41.16,4.9,6.91,1.82,13.92,8.4,15.63,20,3.3,22.35-10.55,44.55-10.55,44.55,0,0-4.92-5.78-1.43-5.68,4.41.12,6.95-17.16,1.63-21.86-5.32-4.71-8.13,14.45-8.13,14.45l-2.76,5.47-3.01-11.97s-3.1-.77-9.29-7.84c-5.52-6.31-23.57-11.04-28.07-9.16-4.78,2-12.76,9.03-12.45,10.24l.87,3.88s-3.69-4.3-5.31-9.89c-1.65-5.69-5.28-25.3,21.7-37.07h0Z"/>
          </g>
        </g>
        <g>
          <g>
            <path class="cls-9" d="M1111.56,168.88c-3.02,13.03-46.6,85.17-59.79,74.86-8.99-7.03,5.14-50.68,26.16-80.73,21.56-30.81,36.66-7.16,33.63,5.87h0Z"/>
            <path class="cls-9" d="M1073.28,232.81c2.72,13.97-91.07,63.16-96.85,49.38-2.72-6.47,61.45-48.45,79.83-54.36,18.37-5.91,17.02,4.98,17.02,4.98h0Z"/>
          </g>
          <path class="cls-19" d="M1109.47,122.94c1.03-.99,18.41,29.1,13.5,47.08-2.75,10.07-5.68,41.9-30.07,54.4-11.46,5.88-13.9,12.85-21.14,15.28,0,0-32.88.85-33.51-30.5,0,0,22.22-63.49,26.29-71.59,0,0,43.24-13.04,44.94-14.67h0Z"/>
        </g>
        <g>
          <path class="cls-17" d="M887.65,649.49c-1.14.37-2.78.03-3.67-.77s-.69-1.75.44-2.12c1.14-.37,2.78-.03,3.67.77s.69,1.75-.44,2.12Z"/>
          <path class="cls-13" d="M884.4,633.23c2.8-.92,6.85-.08,9.05,1.89.42.38.75.77.97,1.16l10.43-22.15-22.52-4.7.7,24.48c.37-.27.82-.5,1.36-.68h0Z"/>
          <path class="cls-17" d="M883.31,638.46c-.05-.04-.09-.09-.14-.14l.26,9.18,5.2,1.08,3.91-8.31c-.06.02-.12.05-.18.07-2.8.92-6.85.08-9.05-1.89h0Z"/>
          <path class="cls-13" d="M893.45,635.12c-2.2-1.97-6.25-2.81-9.05-1.89-.54.18-.99.41-1.36.68l.13,4.41s.09.09.14.14c2.2,1.97,6.25,2.81,9.05,1.89.06-.02.12-.05.18-.07l1.88-3.99c-.23-.39-.55-.79-.97-1.16h0Z"/>
          <path class="cls-10" d="M1000.2,157.36l-.08-.02c.47-1.72-.19-3.69-2.21-5.49-3.87-3.46-10.99-4.94-15.92-3.32-2.58.85-3.97,2.39-4.23,4.15l-.08-.02-95.34,456.77.11.02c-.52,1.74.11,3.74,2.17,5.58,3.87,3.46,11,4.94,15.92,3.32,2.62-.86,4-2.45,4.22-4.25l.11.02,95.34-456.77h0Z"/>
        </g>
        <path class="cls-9" d="M954.34,256.9c2.57-4.72,6.84-7.7,10.24-.76,3.4,6.94,1.15,18.3-5.09,18.38s-7.41-4.01-7.52-6.51c-.11-2.5,2.38-11.1,2.38-11.1h0Z"/>
        <path class="cls-9" d="M982.62,252.72c-7.06,0-19.01,5.88-11.25,8.53,7.76,2.65,12.37.35,12.37-2.5,0-2.84-1.12-6.03-1.12-6.03h0Z"/>
        <path class="cls-9" d="M977.04,275c-3.7,2.9-13.91,8.67-16.81,7.47-2.9-1.2-5.7,11.29-4.3,14.29,1.4,3,16.39,6.7,22.08-.6s4.62-20.36,4.52-21.66c-.1-1.3-5.5.5-5.5.5Z"/>
      </g>
      <path class="cls-27" d="M714.85,618.77l-172.98-99.87c-4.79-2.76-4.79-7.24,0-10,4.79-2.76,12.53-2.76,17.32,0l172.98,99.87c4.79,2.76,4.79,7.24,0,10-4.79,2.76-12.53,2.76-17.32,0h0Z"/>
      <g>
        <polygon class="cls-15" points="802.47 945.43 599.2 925.48 623.94 841.46 827.21 861.41 802.47 945.43"/>
        <path class="cls-12" d="M820.15,864.31l-22.69,77.05-191.2-18.77,22.69-77.05,191.2,18.77M827.21,861.41l-203.27-19.95-24.74,84.02,203.27,19.95,24.74-84.02h0Z"/>
      </g>
      <g>
        <g>
          <polygon class="cls-15" points="721.26 704.13 527.82 592.45 559.72 574.02 753.16 685.71 721.26 704.13"/>
          <path class="cls-12" d="M744.5,685.71l-23.25,13.42-184.78-106.68,23.25-13.42,184.78,106.69M753.16,685.71l-193.44-111.69-31.91,18.42,193.44,111.69,31.91-18.42h0Z"/>
        </g>
        <g>
          <polygon class="cls-15" points="655.53 742.08 462.09 630.39 519.76 597.09 713.21 708.78 655.53 742.08"/>
          <path class="cls-12" d="M704.55,708.78l-49.01,28.3-184.78-106.69,49.01-28.3,184.78,106.69M713.21,708.78l-193.44-111.69-57.67,33.3,193.44,111.69,57.67-33.3h0Z"/>
        </g>
      </g>
      <path class="cls-19" d="M515.88,227.71l-46.29,75.1,130.08,26.73,46.29-75.1-130.08-26.73ZM550.96,263.68c4.41.91,6.71,3.7,5.14,6.25-1.57,2.55-6.41,3.87-10.82,2.97-4.41-.91-6.71-3.7-5.14-6.25,1.57-2.55,6.41-3.87,10.82-2.97h0ZM518.44,284.09l18.12-7.92c1.04-.45,2.38-.6,3.64-.4,1.26.2,2.28.73,2.76,1.43l4.18,6.02,19.55-8.54c1.12-.49,2.59-.62,3.92-.35,1.32.27,2.32.91,2.66,1.7l9.04,21.19-63.86-13.12h0Z"/>
      <g>
        <g>
          <polygon class="cls-15" points="446.35 722.89 252.9 611.21 284.81 592.79 478.25 704.47 446.35 722.89"/>
          <path class="cls-12" d="M469.59,704.47l-23.25,13.42-184.78-106.68,23.25-13.42,184.78,106.68M478.25,704.47l-193.44-111.69-31.91,18.42,193.44,111.69,31.91-18.42h0Z"/>
        </g>
        <g>
          <polygon class="cls-15" points="380.62 760.84 187.18 649.16 244.85 615.86 438.3 727.54 380.62 760.84"/>
          <path class="cls-12" d="M429.63,727.54l-49.01,28.3-184.78-106.68,49.01-28.3,184.78,106.69M438.29,727.54l-193.44-111.69-57.67,33.3,193.44,111.69,57.67-33.3h0Z"/>
        </g>
      </g>
      <g>
        <g>
          <g>
            <path class="cls-7" d="M438.6,475.33c6.11,11.36-1.78,94.44-13.19,94.45-11.41,0-9.7-41.35-13.06-76.23-3.44-35.77,20.14-29.57,26.25-18.22h0Z"/>
            <path class="cls-20" d="M421.16,457.88c5.2,1.51,20.66,11.04,22.06,19.87,1.27,8-.07,7.32-1.11,8.03-.92.63-17.17,17.84-20.95,18.25-3.79.41,0-46.15,0-46.15h0Z"/>
          </g>
          <path class="cls-4" d="M299.73,735.13c14.34-8.28,49.22-1.57,77.91,14.99,28.69,16.56,40.31,36.7,25.97,44.98-14.34,8.28-49.22,1.57-77.91-14.99-28.69-16.56-40.31-36.7-25.97-44.98Z"/>
          <g>
            <path class="cls-20" d="M324.77,490.84c4.03-7.87,16.17-23.91,19.92-29.98,2.98-4.82,11.02-9.79,19.87-11.15,15.13-2.32,19.1-4.43,43.09-.81,4.07.61,20.55,6.91,26.37,16.83,7.84,13.38-4.8,22.59-10.83,42.91-6.02,20.32-37.38,14.14-42.15,47.67-4.97,34.9-48.92,34.06-66.34,29.46-17.42-4.6-7.52-14.03-16.74-16.55-9.22-2.52-4.74-21.39-.29-29.6.82-1.5,1.64-3.25,2.45-5.3,1.39-3.53,8.07-8.34,9.32-14.06,2.7-12.35,13.5-25.84,15.34-29.43h0s0,0,0,0Z"/>
            <path class="cls-3" d="M359.06,482.52c-5.67,35.4-32.87,48.3-58.94,51.81,1.39-3.53,8.07-8.34,9.32-14.06,2.7-12.35,13.15-25.29,15.34-29.43,4.13-7.82,16.17-23.91,19.92-29.98,9.25,5.72,15.84,12.48,14.37,21.66h0Z"/>
          </g>
          <g>
            <g>
              <path class="cls-1" d="M338.25,720.5c.91,4.63,8.12,19.59,2.25,20.21-5.87.62-20.17-8.43-25.31-19.36-4.1-8.7,6.52-32.53,6.52-32.53,0,0-6.7,8.63-8.55,8.38-1.85-.25-1.19-2.77-.38-3.66.81-.89,8.93-9.38,9.48-10.86.55-1.48,4.57-5.42,7.01-5.46,2.44-.04,5.92-.32,9.9,3.4,3.98,3.72-2.96,29.44-.92,39.87h0Z"/>
              <path class="cls-7" d="M368.63,656.97c-12.67,3.32-25.63,17.69-37.61,20.09-3.97.79-9.07,17.9-9.32,25.23-.16,4.77,1.56,18.86,10.43,19.21,5.67.23,10.72-27.44,10.03-33.27-.44-3.72,34.01-14.88,37.08-16.33,3.07-1.45-5.14-16.36-10.61-14.93h0Z"/>
            </g>
            <path class="cls-1" d="M466.77,606.84s-45.81,20.67-116.93,47.95c-4.03,1.55-2.64,18.69-1.14,23.09,1.84,5.38,12.13,17.47,19.43,14.12,41.88-19.19,114.32-5.98,123.65-29.68,11.37-28.88-25.01-55.48-25.01-55.48h0Z"/>
            <path class="cls-1" d="M368.59,576.54c87.91,27.4,111.29,19.09,124.14,57.9,7.47,22.54-12.17,41.66-19.58,38.6-27.22-11.24-49.61-30.2-90.63-53.91-55.21-31.92-41.41-51.15-13.93-42.59h0Z"/>
            <path class="cls-5" d="M366.6,588.98c-.15-8.21,58.09,31.43,74.48,43.52,21.48,15.85,29.52,33.07-.72,45.51-30.24,12.43-50.74,9.7-22.89-2.94,27.85-12.63,28.27-5.64,24.52-18.83-3.75-13.19-75.17-55.23-75.39-67.26h0Z"/>
          </g>
          <g>
            <g>
              <path class="cls-1" d="M390.55,797.79c3.98,2.54,19.79,7.63,16.19,12.3-3.6,4.68-20.01,8.8-31.47,4.99-9.13-3.03-19.07-27.15-19.07-27.15,0,0,1.63,10.8.17,11.97-1.46,1.16-2.82-1.05-2.91-2.25-.09-1.2-.63-12.93-1.33-14.35-.69-1.42-.77-7.05.88-8.84,1.65-1.79,3.85-4.51,9.29-4.82s19.28,22.44,28.25,28.16h0Z"/>
              <path class="cls-7" d="M365.49,731.98c-6.33,11.46-4.86,30.76-11.38,41.09-2.16,3.42,6.71,18.91,11.84,24.14,3.35,3.41,14.73,11.88,21.11,5.7,4.08-3.95-12.48-26.68-17.18-30.2-3-2.25,12.68-34.89,13.74-38.11,1.06-3.22-15.39-7.56-18.13-2.61h0Z"/>
            </g>
            <path class="cls-1" d="M405.34,626.5s-25.11,47.26-54.39,117.59c-1.66,3.99,11.71,14.8,15.94,16.74,5.17,2.38,21.02,3.26,23.63-4.33,14.98-43.57,65.41-81.55,54.68-104.65-13.08-28.15-39.85-25.34-39.85-25.34h0Z"/>
            <path class="cls-1" d="M344.44,577.33c75.88,47.02,65.84,30.23,94.99,64.03,15.51,17.98-1.21,49.99-16.32,49.77-10.35-.15-10.75-.5-23.25-9.49-23.09-16.6-61.05-30.62-87.66-46-55.21-31.92,7.78-73.47,32.24-58.31h0Z"/>
          </g>
          <path class="cls-1" d="M372.96,589.55s13.1-10.8,8.64-20.28c-1.81-3.84,3.08-15.99.73-16.51-1.24-.27-27.31,16.33-56.34,9.27-16.54-4.02-30.86-14.59-31.63-14.09-.77.49-2.44,13.41-2.44,13.41-18.46,44.16,13.08,69.66,13.08,69.66l67.96-41.46h0Z"/>
          <path class="cls-20" d="M380.1,551.92c-.82,1.31-1.06.74-1.96,2.36-.91,1.62-4.67,4.63-6.98,5.39-.49.16-11.63,4.56-16.39,3.9-1.89-.27-16.29-1.95-15.89-2.57,2.13-3.34,38.77-9.17,39.43-9.91,1-1.1,1.8.83,1.8.83h0Z"/>
          <g>
            <path class="cls-18" d="M419.39,445.04c.21,6.62,2.35,14.43-2.94,15.74-5.29,1.31-15.8-3.87-19.18-7.25-3.38-3.38,1.2-14.46,2.9-15.52,1.69-1.06,19.22,7.03,19.22,7.03h0Z"/>
            <path class="cls-1" d="M454.2,422.19c-1.61,2.93-5.17,5.94-6.54,7.67-7.87,9.94-12.64,35.23-12.84,38.47-.32,5.13-28.52-26.86-22.1-44.08,1.72-4.62,10-27.74,25.98-41.08,0,0,17.11,36.1,15.5,39.02Z"/>
            <path class="cls-20" d="M421.77,456.43s-.96-2.37-1.47-2.31c-.51.07-.98,3.03-3.51,3.29-2.53.26-20.64-8.73-21.31-8.41-.67.32-8.12,5.84-6.9,6.72,1.22.88,19.21,9.64,28.03,8.32,8.82-1.32,5.16-7.61,5.16-7.61h0Z"/>
            <path class="cls-3" d="M421.77,456.43s-.96-2.37-1.47-2.31c-.51.07-.98,3.03-3.51,3.29-2.53.26-20.64-8.73-21.31-8.41-.67.32-8.12,5.84-6.9,6.72,1.22.88,19.21,9.64,28.03,8.32,8.82-1.32,5.16-7.61,5.16-7.61h0Z"/>
            <path class="cls-7" d="M450.94,430.06c-6.2,17.33-19.56,31.86-36.89,25.66-17.33-6.2-29.63-29.14-23.43-46.47,6.2-17.33,25.27-26.35,42.6-20.15,17.33,6.2,23.91,23.63,17.71,40.96h0Z"/>
            <path class="cls-1" d="M451.91,439.06s-23.48-2.06-36.1-8.71c-12.62-6.65-22.53,30.42-22.85,35.55-.32,5.13-25.6-26.13-26.12-33.87-.52-7.74,28.17-68.07,60.92-57.64,47.03,14.97,24.16,64.67,24.16,64.67h0Z"/>
          </g>
          <path class="cls-7" d="M419.06,559.22c-5.64,12.78,55.5,67.93,60.24,62.19,4.24-5.14-33.19-54.78-45.85-63.79-12.66-9-14.39,1.6-14.39,1.6Z"/>
          <g>
            <g>
              <path class="cls-7" d="M334.36,484.11c-4.23,12.69,16.75,102.25,28.03,100.5,11.28-1.75,3.02-49.08.8-85.68-2.28-37.54-24.6-27.5-28.83-14.81Z"/>
              <path class="cls-7" d="M355.98,571.61c-8.46,11.44,57.82,87.42,64.27,82.97,5.78-3.99-32.71-66.9-46.76-80.14-14.04-13.24-17.51-2.83-17.51-2.83h0Z"/>
              <path class="cls-7" d="M428.91,647.67c-2.77-3.76-9.34-8.06-16.18-4.99-7.1,3.19-3.57,15.15-2.25,17.43,8.95,15.53,15.43,13.75,21.44,11.68,6-2.07,2.77-16.3-3-24.13h0Z"/>
            </g>
            <path class="cls-20" d="M365,496.43c-2.13,4.77-23.46-15.34-28.27-14.33-3.82.8-3.39,7.1-3.39,7.1,0,0-4.79-5.85-1.88-14.05,2.64-7.44,19.72-20.74,23.55-22.91,3.83-2.17,16.48,29.64,9.99,44.19h0Z"/>
          </g>
          <path class="cls-7" d="M471.8,622.49c-1.48-6.51,5.68-7.67,9.56-6.78,3.88.89,15.88,9.15,16.47,17.28.59,8.13-11.65,11.36-17.24,5.88-5.58-5.48-7.75-11.8-8.79-16.38h0Z"/>
        </g>
        <path class="cls-14" d="M492.46,616.28l74.76,92.32-84.62,51.06-74.76-92.32,84.62-51.06h0ZM455.63,673.48l36.7,45.33,8.06-25.59c.3-.94.03-2.07-.73-3.01-.78-.96-1.92-1.57-3.05-1.66l-19.85-1.42,1.14-8.08c.12-.86-.18-1.82-.82-2.6-.06-.07-.12-.14-.18-.21-.76-.84-1.83-1.38-2.88-1.44l-18.4-1.32M492.9,669.7c-2.54-3.13-6.91-4.27-9.79-2.53-2.86,1.73-3.14,5.67-.6,8.8,2.53,3.12,6.91,4.26,9.77,2.53,2.87-1.73,3.14-5.67.61-8.8"/>
        <path class="cls-23" d="M418.7,656.87c6.99,6.53,13.85,8.57,16.43,5.37,2.58-3.2-6.86-10.83-10.54-12.53-3.68-1.71-11.29,2.12-5.88,7.17h0Z"/>
        <path class="cls-23" d="M473.87,624.88c4.26,8.56,9.97,12.87,13.51,10.78,3.53-2.09-2.64-12.55-5.49-15.43-2.85-2.89-11.32-1.97-8.02,4.65h0Z"/>
      </g>
      <g>
        <polygon class="cls-3" points="791.95 725.98 762.64 761.83 1121.41 864.7 1150.72 828.85 791.95 725.98"/>
        <g>
          <g>
            <path class="cls-21" d="M782.83,755.03c.31-.37.05-.8-.55-.98-.62-.18-1.37-.03-1.67.34l-6.02,7.2v2.01s2.23.64,2.23.64v-2.01s6.01-7.2,6.01-7.2h0Z"/>
            <path class="cls-21" d="M785.66,759.9c-.62-.18-1.36-.04-1.66.33l-2.74,3.28v2.01s2.25.64,2.25.64v-2.01s2.73-3.28,2.73-3.28c.31-.37.04-.79-.58-.97Z"/>
            <path class="cls-21" d="M792.33,761.82c-.6-.17-1.34-.03-1.64.33l-2.74,3.28v2.01s2.23.64,2.23.64v-2.01s2.73-3.28,2.73-3.28c.31-.37.04-.79-.58-.97h0Z"/>
            <path class="cls-21" d="M799.02,763.74c-.62-.18-1.36-.04-1.66.33l-2.74,3.28v2.01s2.23.64,2.23.64v-2.01s2.73-3.28,2.73-3.28c.31-.37.04-.79-.56-.96h0Z"/>
            <path class="cls-21" d="M805.7,765.65c-.62-.18-1.36-.04-1.66.33l-2.74,3.28v2.01s2.25.64,2.25.64v-2.01s2.73-3.28,2.73-3.28c.31-.37.04-.79-.58-.97h0Z"/>
            <path class="cls-21" d="M816.23,764.61c.31-.37.05-.8-.57-.98-.6-.17-1.35-.02-1.65.34l-6.02,7.2v2.01s2.23.64,2.23.64v-2.01s6.01-7.2,6.01-7.2h0Z"/>
            <path class="cls-21" d="M819.06,769.48c-.62-.18-1.36-.04-1.66.33l-2.74,3.28v2.01s2.23.64,2.23.64v-2.01s2.73-3.28,2.73-3.28c.31-.37.04-.79-.56-.96h0Z"/>
            <path class="cls-21" d="M825.73,771.39c-.62-.18-1.36-.04-1.66.33l-2.74,3.28v2.01s2.25.64,2.25.64v-2.01s2.73-3.28,2.73-3.28c.31-.37.04-.79-.58-.97h0Z"/>
            <path class="cls-21" d="M832.4,773.31c-.6-.17-1.34-.03-1.64.33l-2.74,3.28v2.01s2.23.64,2.23.64v-2.01s2.73-3.28,2.73-3.28c.31-.37.04-.79-.58-.97h0Z"/>
            <path class="cls-21" d="M839.09,775.23c-.62-.18-1.36-.04-1.66.33l-2.74,3.28v2.01s2.23.64,2.23.64v-2.01s2.73-3.28,2.73-3.28c.31-.37.04-.79-.56-.96Z"/>
            <path class="cls-21" d="M849.63,774.18c.31-.37.05-.8-.57-.98-.62-.18-1.37-.03-1.67.34l-6.02,7.2v2.01s2.25.64,2.25.64v-2.01s6.01-7.2,6.01-7.2h0Z"/>
            <path class="cls-21" d="M852.44,779.05c-.6-.17-1.34-.03-1.64.33l-2.74,3.28v2.01s2.23.64,2.23.64v-2.01s2.73-3.28,2.73-3.28c.31-.37.04-.79-.58-.97h0Z"/>
            <path class="cls-21" d="M859.13,780.97c-.62-.18-1.36-.04-1.66.33l-2.74,3.28v2.01s2.23.64,2.23.64v-2.01s2.73-3.28,2.73-3.28c.31-.37.04-.79-.56-.96h0Z"/>
            <path class="cls-21" d="M865.8,782.88c-.62-.18-1.36-.04-1.66.33l-2.74,3.28v2.01s2.25.64,2.25.64v-2.01s2.73-3.28,2.73-3.28c.31-.37.04-.79-.58-.97Z"/>
            <path class="cls-21" d="M872.47,784.8c-.6-.17-1.34-.03-1.64.33l-2.74,3.28v2.01s2.23.64,2.23.64v-2.01s2.73-3.28,2.73-3.28c.31-.37.04-.79-.58-.97h0Z"/>
            <path class="cls-21" d="M883,783.75c.31-.37.05-.8-.55-.98-.62-.18-1.37-.03-1.67.34l-6.02,7.2v2.01s2.23.64,2.23.64v-2.01s6.01-7.2,6.01-7.2h0Z"/>
            <path class="cls-21" d="M885.84,788.63c-.62-.18-1.36-.04-1.66.33l-2.74,3.28v2.01s2.25.64,2.25.64v-2.01s2.73-3.28,2.73-3.28c.31-.37.04-.79-.58-.97h0Z"/>
            <path class="cls-21" d="M892.51,790.54c-.6-.17-1.34-.03-1.64.33l-2.74,3.28v2.01s2.23.64,2.23.64v-2.01s2.73-3.28,2.73-3.28c.31-.37.04-.79-.58-.97h0Z"/>
            <path class="cls-21" d="M899.2,792.46c-.62-.18-1.36-.04-1.66.33l-2.74,3.28v2.01s2.23.64,2.23.64v-2.01s2.73-3.28,2.73-3.28c.31-.37.04-.79-.56-.96h0Z"/>
            <path class="cls-21" d="M905.87,794.37c-.62-.18-1.36-.04-1.66.33l-2.74,3.28v2.01s2.25.64,2.25.64v-2.01s2.73-3.28,2.73-3.28c.31-.37.04-.79-.58-.97h0Z"/>
            <path class="cls-21" d="M916.4,793.33c.31-.37.05-.8-.57-.98-.6-.17-1.35-.02-1.65.34l-6.02,7.2v2.01s2.23.64,2.23.64v-2.01s6.01-7.2,6.01-7.2h0Z"/>
            <path class="cls-21" d="M919.23,798.21c-.62-.18-1.36-.04-1.66.33l-2.74,3.28v2.01s2.23.64,2.23.64v-2.01s2.73-3.28,2.73-3.28c.31-.37.04-.79-.56-.96h0Z"/>
            <path class="cls-21" d="M925.91,800.12c-.62-.18-1.36-.04-1.66.33l-2.74,3.28v2.01s2.25.64,2.25.64v-2.01s2.73-3.28,2.73-3.28c.31-.37.04-.79-.58-.97Z"/>
            <path class="cls-21" d="M932.58,802.03c-.6-.17-1.34-.03-1.64.33l-2.74,3.28v2.01s2.23.64,2.23.64v-2.01s2.73-3.28,2.73-3.28c.31-.37.04-.79-.58-.97h0Z"/>
            <path class="cls-21" d="M939.27,803.95c-.62-.18-1.36-.04-1.66.33l-2.74,3.28v2.01s2.23.64,2.23.64v-2.01s2.73-3.28,2.73-3.28c.31-.37.04-.79-.56-.96h0Z"/>
            <path class="cls-21" d="M949.8,802.91c.31-.37.05-.8-.57-.98-.62-.18-1.37-.03-1.67.34l-6.02,7.2v2.01s2.25.64,2.25.64v-2.01s6.01-7.2,6.01-7.2h0Z"/>
            <path class="cls-21" d="M952.61,807.78c-.6-.17-1.34-.03-1.64.33l-2.74,3.28v2.01s2.23.64,2.23.64v-2.01s2.73-3.28,2.73-3.28c.31-.37.04-.79-.58-.97h0Z"/>
            <path class="cls-21" d="M959.3,809.7c-.62-.18-1.36-.04-1.66.33l-2.74,3.28v2.01s2.23.64,2.23.64v-2.01s2.73-3.28,2.73-3.28c.31-.37.04-.79-.56-.96h0Z"/>
            <path class="cls-21" d="M965.98,811.61c-.62-.18-1.36-.04-1.66.33l-2.74,3.28v2.01s2.25.64,2.25.64v-2.01s2.73-3.28,2.73-3.28c.31-.37.04-.79-.58-.97h0Z"/>
            <path class="cls-21" d="M972.65,813.52c-.6-.17-1.34-.03-1.64.33l-2.74,3.28v2.01s2.23.64,2.23.64v-2.01s2.73-3.28,2.73-3.28c.31-.37.04-.79-.58-.97h0Z"/>
            <path class="cls-21" d="M983.18,812.48c.31-.37.05-.8-.55-.98-.62-.18-1.37-.03-1.67.34l-6.02,7.2v2.01s2.23.64,2.23.64v-2.01s6.01-7.2,6.01-7.2h0Z"/>
            <path class="cls-21" d="M986.01,817.35c-.62-.18-1.36-.04-1.66.33l-2.74,3.28v2.01s2.25.64,2.25.64v-2.01s2.73-3.28,2.73-3.28c.31-.37.04-.79-.58-.97h0Z"/>
            <path class="cls-21" d="M992.68,819.27c-.6-.17-1.34-.03-1.64.33l-2.74,3.28v2.01s2.23.64,2.23.64v-2.01s2.73-3.28,2.73-3.28c.31-.37.04-.79-.58-.97h0Z"/>
            <path class="cls-21" d="M999.37,821.19c-.62-.18-1.36-.04-1.66.33l-2.74,3.28v2.01s2.23.64,2.23.64v-2.01s2.73-3.28,2.73-3.28c.31-.37.04-.79-.56-.96h0Z"/>
            <path class="cls-21" d="M1006.05,823.1c-.62-.18-1.36-.04-1.66.33l-2.74,3.28v2.01s2.25.64,2.25.64v-2.01s2.73-3.28,2.73-3.28c.31-.37.04-.79-.58-.97Z"/>
            <path class="cls-21" d="M1016.58,822.06c.31-.37.05-.8-.57-.98-.6-.17-1.35-.02-1.65.34l-6.02,7.2v2.01s2.23.64,2.23.64v-2.01s6.01-7.2,6.01-7.2h0Z"/>
            <path class="cls-21" d="M1019.41,826.93c-.62-.18-1.36-.04-1.66.33l-2.74,3.28v2.01s2.23.64,2.23.64v-2.01s2.73-3.28,2.73-3.28c.31-.37.04-.79-.56-.96h0Z"/>
            <path class="cls-21" d="M1026.08,828.84c-.62-.18-1.36-.04-1.66.33l-2.74,3.28v2.01s2.25.64,2.25.64v-2.01s2.73-3.28,2.73-3.28c.31-.37.04-.79-.58-.97h0Z"/>
            <path class="cls-21" d="M1032.75,830.76c-.6-.17-1.34-.03-1.64.33l-2.74,3.28v2.01s2.23.64,2.23.64v-2.01s2.73-3.28,2.73-3.28c.31-.37.04-.79-.58-.97h0Z"/>
            <path class="cls-21" d="M1039.45,832.68c-.62-.18-1.36-.04-1.66.33l-2.74,3.28v2.01s2.23.64,2.23.64v-2.01s2.73-3.28,2.73-3.28c.31-.37.04-.79-.56-.96h0Z"/>
            <path class="cls-21" d="M1049.98,831.63c.31-.37.05-.8-.57-.98-.62-.18-1.37-.03-1.67.34l-6.02,7.2v2.01s2.25.64,2.25.64v-2.01s6.01-7.2,6.01-7.2h0Z"/>
            <path class="cls-21" d="M1052.79,836.5c-.6-.17-1.34-.03-1.64.33l-2.74,3.28v2.01s2.23.64,2.23.64v-2.01s2.73-3.28,2.73-3.28c.31-.37.04-.79-.58-.97h0Z"/>
            <path class="cls-21" d="M1059.48,838.42c-.62-.18-1.36-.04-1.66.33l-2.74,3.28v2.01s2.23.64,2.23.64v-2.01s2.73-3.28,2.73-3.28c.31-.37.04-.79-.56-.96h0Z"/>
            <path class="cls-21" d="M1066.15,840.33c-.62-.18-1.36-.04-1.66.33l-2.74,3.28v2.01s2.25.64,2.25.64v-2.01s2.73-3.28,2.73-3.28c.31-.37.04-.79-.58-.97h0Z"/>
            <path class="cls-21" d="M1072.82,842.25c-.6-.17-1.34-.03-1.64.33l-2.74,3.28v2.01s2.23.64,2.23.64v-2.01s2.73-3.28,2.73-3.28c.31-.37.04-.79-.58-.97Z"/>
            <path class="cls-21" d="M1083.36,841.2c.31-.37.05-.8-.55-.98-.62-.18-1.37-.03-1.67.34l-6.02,7.2v2.01s2.23.64,2.23.64v-2.01s6.01-7.2,6.01-7.2h0Z"/>
            <path class="cls-21" d="M1086.19,846.08c-.62-.18-1.36-.04-1.66.33l-2.74,3.28v2.01s2.25.64,2.25.64v-2.01s2.73-3.28,2.73-3.28c.31-.37.04-.79-.58-.97h0Z"/>
            <path class="cls-21" d="M1092.86,847.99c-.6-.17-1.34-.03-1.64.33l-2.74,3.28v2.01s2.23.64,2.23.64v-2.01s2.73-3.28,2.73-3.28c.31-.37.04-.79-.58-.97h0Z"/>
            <path class="cls-21" d="M1099.55,849.91c-.62-.18-1.36-.04-1.66.33l-2.74,3.28v2.01s2.23.64,2.23.64v-2.01s2.73-3.28,2.73-3.28c.31-.37.04-.79-.56-.96h0Z"/>
            <path class="cls-21" d="M1106.22,851.82c-.62-.18-1.36-.04-1.66.33l-2.74,3.28v2.01s2.25.64,2.25.64v-2.01s2.73-3.28,2.73-3.28c.31-.37.04-.79-.58-.97h0Z"/>
            <path class="cls-21" d="M1116.18,849.8c-.6-.17-1.35-.02-1.65.34l-6.02,7.2v2.01s2.23.64,2.23.64v-2.01s6.01-7.2,6.01-7.2c.31-.37.05-.8-.57-.98h0Z"/>
          </g>
          <path class="cls-11" d="M1149.21,828.8v-2.01s0,0,0,0l-356.18-102.13-17.51,20.97-10.94,13.1v2.01s10.02,2.87,10.02,2.87v-2.01s6.01-7.2,6.01-7.2c.31-.37,1.05-.52,1.67-.34.6.17.86.61.55.98l-6.02,7.2v2.01s4.45,1.28,4.45,1.28v-2.01s2.73-3.28,2.73-3.28c.31-.37,1.04-.5,1.66-.33.62.18.89.6.58.97l-2.74,3.28v2.01s4.45,1.28,4.45,1.28v-2.01s2.73-3.28,2.73-3.28c.31-.37,1.04-.5,1.64-.33.62.18.89.6.58.97l-2.74,3.28v2.01s4.45,1.28,4.45,1.28v-2.01s2.73-3.28,2.73-3.28c.31-.37,1.04-.5,1.66-.33.6.17.87.6.56.96l-2.74,3.28v2.01s4.45,1.28,4.45,1.28v-2.01s2.73-3.28,2.73-3.28c.31-.37,1.04-.5,1.66-.33.62.18.89.6.58.97l-2.74,3.28v2.01s4.45,1.28,4.45,1.28v-2.01s6.01-7.2,6.01-7.2c.31-.37,1.05-.52,1.65-.34.62.18.88.62.57.98l-6.02,7.2v2.01s4.45,1.28,4.45,1.28v-2.01s2.73-3.28,2.73-3.28c.31-.37,1.04-.5,1.66-.33.6.17.87.6.56.96l-2.74,3.28v2.01s4.45,1.28,4.45,1.28v-2.01s2.73-3.28,2.73-3.28c.31-.37,1.04-.5,1.66-.33.62.18.89.6.58.97l-2.74,3.28v2.01s4.45,1.28,4.45,1.28v-2.01s2.73-3.28,2.73-3.28c.31-.37,1.04-.5,1.64-.33.62.18.89.6.58.97l-2.74,3.28v2.01s4.45,1.28,4.45,1.28v-2.01s2.73-3.28,2.73-3.28c.31-.37,1.04-.5,1.66-.33.6.17.87.6.56.96l-2.74,3.28v2.01s4.45,1.28,4.45,1.28v-2.01s6.01-7.2,6.01-7.2c.31-.37,1.05-.52,1.67-.34.62.18.88.62.57.98l-6.02,7.2v2.01s4.45,1.28,4.45,1.28v-2.01s2.73-3.28,2.73-3.28c.31-.37,1.04-.5,1.64-.33.62.18.89.6.58.97l-2.74,3.28v2.01s4.45,1.28,4.45,1.28v-2.01s2.73-3.28,2.73-3.28c.31-.37,1.04-.5,1.66-.33.6.17.87.6.56.96l-2.74,3.28v2.01s4.45,1.28,4.45,1.28v-2.01s2.73-3.28,2.73-3.28c.31-.37,1.04-.5,1.66-.33.62.18.89.6.58.97l-2.74,3.28v2.01s4.45,1.28,4.45,1.28v-2.01s2.73-3.28,2.73-3.28c.31-.37,1.04-.5,1.64-.33.62.18.89.6.58.97l-2.74,3.28v2.01s4.45,1.28,4.45,1.28v-2.01s6.01-7.2,6.01-7.2c.31-.37,1.05-.52,1.67-.34.6.17.86.61.55.98l-6.02,7.2v2.01s4.45,1.28,4.45,1.28v-2.01s2.73-3.28,2.73-3.28c.31-.37,1.04-.5,1.66-.33.62.18.89.6.58.97l-2.74,3.28v2.01s4.45,1.28,4.45,1.28v-2.01s2.73-3.28,2.73-3.28c.31-.37,1.04-.5,1.64-.33.62.18.89.6.58.97l-2.74,3.28v2.01s4.45,1.28,4.45,1.28v-2.01s2.73-3.28,2.73-3.28c.31-.37,1.04-.5,1.66-.33.6.17.87.6.56.96l-2.74,3.28v2.01s4.45,1.28,4.45,1.28v-2.01s2.73-3.28,2.73-3.28c.31-.37,1.04-.5,1.66-.33.62.18.89.6.58.97l-2.74,3.28v2.01s4.45,1.28,4.45,1.28v-2.01s6.01-7.2,6.01-7.2c.31-.37,1.05-.52,1.65-.34.62.18.88.62.57.98l-6.02,7.2v2.01s4.45,1.28,4.45,1.28v-2.01s2.73-3.28,2.73-3.28c.31-.37,1.04-.5,1.66-.33.6.17.87.6.56.96l-2.74,3.28v2.01s4.45,1.28,4.45,1.28v-2.01s2.73-3.28,2.73-3.28c.31-.37,1.04-.5,1.66-.33.62.18.89.6.58.97l-2.74,3.28v2.01s4.45,1.28,4.45,1.28v-2.01s2.73-3.28,2.73-3.28c.31-.37,1.04-.5,1.64-.33.62.18.89.6.58.97l-2.74,3.28v2.01s4.45,1.28,4.45,1.28v-2.01s2.73-3.28,2.73-3.28c.31-.37,1.04-.5,1.66-.33.6.17.87.6.56.96l-2.74,3.28v2.01s4.45,1.28,4.45,1.28v-2.01s6.01-7.2,6.01-7.2c.31-.37,1.05-.52,1.67-.34.62.18.88.62.57.98l-6.02,7.2v2.01s4.45,1.28,4.45,1.28v-2.01s2.73-3.28,2.73-3.28c.31-.37,1.04-.5,1.64-.33.62.18.89.6.58.97l-2.74,3.28v2.01s4.45,1.28,4.45,1.28v-2.01s2.73-3.28,2.73-3.28c.31-.37,1.04-.5,1.66-.33.6.17.87.6.56.96l-2.74,3.28v2.01s4.45,1.28,4.45,1.28v-2.01s2.73-3.28,2.73-3.28c.31-.37,1.04-.5,1.66-.33.62.18.89.6.58.97l-2.74,3.28v2.01s4.45,1.28,4.45,1.28v-2.01s2.73-3.28,2.73-3.28c.31-.37,1.04-.5,1.64-.33.62.18.89.6.58.97l-2.74,3.28v2.01s4.45,1.28,4.45,1.28v-2.01s6.01-7.2,6.01-7.2c.31-.37,1.05-.52,1.67-.34.6.17.86.61.55.98l-6.02,7.2v2.01s4.45,1.28,4.45,1.28v-2.01s2.73-3.28,2.73-3.28c.31-.37,1.04-.5,1.66-.33.62.18.89.6.58.97l-2.74,3.28v2.01s4.45,1.28,4.45,1.28v-2.01s2.73-3.28,2.73-3.28c.31-.37,1.04-.5,1.64-.33.62.18.89.6.58.97l-2.74,3.28v2.01s4.45,1.28,4.45,1.28v-2.01s2.73-3.28,2.73-3.28c.31-.37,1.04-.5,1.66-.33.6.17.87.6.56.96l-2.74,3.28v2.01s4.45,1.28,4.45,1.28v-2.01s2.73-3.28,2.73-3.28c.31-.37,1.04-.5,1.66-.33.62.18.89.6.58.97l-2.74,3.28v2.01s4.45,1.28,4.45,1.28v-2.01s6.01-7.2,6.01-7.2c.31-.37,1.05-.52,1.65-.34.62.18.88.62.57.98l-6.02,7.2v2.01s4.45,1.28,4.45,1.28v-2.01s2.73-3.28,2.73-3.28c.31-.37,1.04-.5,1.66-.33.6.17.87.6.56.96l-2.74,3.28v2.01s4.45,1.28,4.45,1.28v-2.01s2.73-3.28,2.73-3.28c.31-.37,1.04-.5,1.66-.33s.89.6.58.97l-2.74,3.28v2.01s4.45,1.28,4.45,1.28v-2.01s2.73-3.28,2.73-3.28c.31-.37,1.04-.5,1.64-.33.62.18.89.6.58.97l-2.74,3.28v2.01s4.45,1.28,4.45,1.28v-2.01s2.73-3.28,2.73-3.28c.31-.37,1.04-.5,1.66-.33.6.17.87.6.56.96l-2.74,3.28v2.01s4.45,1.28,4.45,1.28v-2.01s6.01-7.2,6.01-7.2c.31-.37,1.05-.52,1.67-.34.62.18.88.62.57.98l-6.02,7.2v2.01s4.45,1.28,4.45,1.28v-2.01s2.73-3.28,2.73-3.28c.31-.37,1.04-.5,1.64-.33.62.18.89.6.58.97l-2.74,3.28v2.01s4.45,1.28,4.45,1.28v-2.01s2.73-3.28,2.73-3.28c.31-.37,1.04-.5,1.66-.33.6.17.87.6.56.96l-2.74,3.28v2.01s4.45,1.28,4.45,1.28v-2.01s2.73-3.28,2.73-3.28c.31-.37,1.04-.5,1.66-.33.62.18.89.6.58.97l-2.74,3.28v2.01s4.45,1.28,4.45,1.28v-2.01s2.73-3.28,2.73-3.28c.31-.37,1.04-.5,1.64-.33.62.18.89.6.58.97l-2.74,3.28v2.01s4.45,1.28,4.45,1.28v-2.01s6.01-7.2,6.01-7.2c.31-.37,1.05-.52,1.67-.34.6.17.86.61.55.98l-6.02,7.2v2.01s4.45,1.28,4.45,1.28v-2.01s2.73-3.28,2.73-3.28c.31-.37,1.04-.5,1.66-.33.62.18.89.6.58.97l-2.74,3.28v2.01s4.45,1.28,4.45,1.28v-2.01s2.73-3.28,2.73-3.28c.31-.37,1.04-.5,1.64-.33.62.18.89.6.58.97l-2.74,3.28v2.01s4.45,1.28,4.45,1.28v-2.01s2.73-3.28,2.73-3.28c.31-.37,1.04-.5,1.66-.33.6.17.87.6.56.96l-2.74,3.28v2.01s4.45,1.28,4.45,1.28v-2.01s2.73-3.28,2.73-3.28c.31-.37,1.04-.5,1.66-.33.62.18.89.6.58.97l-2.74,3.28v2.01s4.45,1.28,4.45,1.28v-2.01s6.01-7.2,6.01-7.2c.31-.37,1.05-.52,1.65-.34.62.18.88.62.57.98l-6.02,7.2v2.01s10.02,2.87,10.02,2.87h0s10.94-13.1,10.94-13.1l17.51-20.97h0Z"/>
          <polygon class="cls-3" points="1149.21 826.79 1131.7 847.76 1120.75 860.86 1120.76 862.87 1131.7 849.76 1149.21 828.8 1149.21 826.79"/>
          <polygon class="cls-2" points="764.57 758.72 1120.75 860.86 1120.76 862.87 764.58 760.73 764.57 758.72"/>
        </g>
      </g>
    </g>
  </g>
</svg>