<?xml version="1.0" encoding="UTF-8"?>
<svg id="Layer_1" data-name="Layer 1" xmlns="http://www.w3.org/2000/svg" xmlns:xlink="http://www.w3.org/1999/xlink" viewBox="0 0 1280 960">
  <defs>
    <style>
      .cls-1 {
        fill: url(#_名称未設定グラデーション_18);
      }
    </style>
    <linearGradient id="_名称未設定グラデーション_18" data-name="名称未設定グラデーション 18" x1="306.68" y1="692.93" x2="972.62" y2="26.99" gradientUnits="userSpaceOnUse">
      <stop offset="0" stop-color="#142452"/>
      <stop offset=".53" stop-color="#0096c8"/>
      <stop offset="1" stop-color="#f5cc42"/>
    </linearGradient>
  </defs>
  <path class="cls-1" d="M659.61,243.15v-6.65c0-4.95,4.25-9.71,10.07-9.71s10.23,4.6,10.23,10.35v6.01h-20.31ZM677.51,237.16c0-4.52-3.47-7.66-7.96-7.66s-7.53,3.46-7.53,7.88v3.22h15.5v-3.43ZM670.59,216.43c-2.3,0-2.81,2.29-2.81,4.15,0,1.3.32,2.53.96,3.83l-2,1.04c-.88-2.1-1.07-3.75-1.07-5,0-3.33,1.42-6.41,4.73-6.41h9.51v2.23h-1.5c1.28,1.22,1.82,2.58,1.82,4.42,0,3.38-1.9,6.04-5,6.04-2.54,0-4.78-2.16-4.78-6.01,0-1.46.43-3.01,1.58-4.28h-1.44ZM672.56,220.26c0,2.93,1.42,3.91,2.78,3.91s2.78-.98,2.78-3.91-1.42-3.91-2.78-3.91-2.78.98-2.78,3.91ZM671.82,203.39c-2.08,0-3.9.85-3.9,3.22,0,2.24,1.52,3.59,4.17,3.59h7.83v2.4h-13.92v-2.4h1.63v-.05c-1.26-.72-1.95-2.26-1.95-3.81,0-2.69,1.47-5.35,5.24-5.35h9v2.4h-8.1ZM665.99,191.04v-3.14l6.44,6.41,7.48-6.55v3.35l-6.76,5.77h6.76v2.4h-20.31v-2.4h12.45l-6.07-5.85ZM659.61,183.42v-8.92h13.71c4.54,0,6.92,3.09,6.92,7.72,0,.67-.03,1.14-.05,1.49h-2.35v-.88c0-3.97-1.2-5.77-5.08-5.77h-10.74v6.36h-2.41ZM677.21,159.6c2.08,1.86,3.02,3.83,3.02,6.25,0,4.92-3.58,7.56-7.3,7.56-3.95,0-7.27-2.82-7.27-7.16s3.29-7.26,8.2-7.26v11.87c2.38-.37,4.11-2.29,4.11-4.98,0-1.7-.8-3.22-2.24-4.44l1.47-1.84ZM671.9,161.7c-2.3.24-3.98,2.1-3.98,4.58,0,2.93,2.08,4.34,3.98,4.58v-9.15ZM319.05,684.36h5.89c4.38,0,8.59,3.73,8.59,8.84s-4.07,8.98-9.16,8.98h-5.32v-17.82ZM324.34,700.08c4,0,6.78-3.05,6.78-6.99s-3.06-6.61-6.97-6.61h-2.85v13.6h3.04ZM342.59,695.08c0-1.83-.75-3.42-2.85-3.42-1.98,0-3.18,1.34-3.18,3.66v6.87h-2.12v-17.82h2.12v7.03h.05c.64-1.1,2-1.71,3.37-1.71,2.38,0,4.73,1.29,4.73,4.6v7.9h-2.12v-7.1ZM354.31,694c0-2.02-2.02-2.46-3.67-2.46-1.15,0-2.24.28-3.39.84l-.92-1.76c1.86-.77,3.32-.94,4.43-.94,2.94,0,5.67,1.24,5.67,4.15v8.35h-1.98v-1.31c-1.08,1.13-2.28,1.59-3.91,1.59-2.99,0-5.34-1.66-5.34-4.38,0-2.23,1.91-4.2,5.32-4.2,1.29,0,2.66.38,3.79,1.38v-1.27ZM350.92,695.74c-2.59,0-3.46,1.24-3.46,2.44s.87,2.44,3.46,2.44,3.46-1.24,3.46-2.44-.87-2.44-3.46-2.44ZM365.85,695.08c0-1.83-.75-3.42-2.85-3.42-1.98,0-3.18,1.34-3.18,3.66v6.87h-2.12v-12.22h2.12v1.43h.05c.64-1.1,2-1.71,3.37-1.71,2.38,0,4.73,1.29,4.73,4.6v7.9h-2.12v-7.1ZM373,702l-5.11-12.03h2.4l3.93,9.43,3.98-9.43h2.26l-7.53,17.38h-2.21l2.28-5.35ZM389.2,694c0-2.02-2.02-2.46-3.67-2.46-1.15,0-2.24.28-3.39.84l-.92-1.76c1.86-.77,3.32-.94,4.43-.94,2.94,0,5.67,1.24,5.67,4.15v8.35h-1.98v-1.31c-1.08,1.13-2.28,1.59-3.91,1.59-2.99,0-5.34-1.66-5.34-4.38,0-2.23,1.91-4.2,5.32-4.2,1.3,0,2.66.38,3.79,1.38v-1.27ZM385.81,695.74c-2.59,0-3.46,1.24-3.46,2.44s.87,2.44,3.46,2.44,3.46-1.24,3.46-2.44-.87-2.44-3.46-2.44ZM401.6,689.97h2.4l-5.3,12.22h-1.98l-5.3-12.22h2.4l3.88,9.4,3.89-9.4ZM412.31,699.47c0,.98.05,1.95.16,2.72h-1.86l-.16-1.43h-.07c-.64.89-1.86,1.69-3.48,1.69-2.31,0-3.48-1.62-3.48-3.26,0-2.74,2.45-4.24,6.85-4.22v-.23c0-.91-.26-2.63-2.59-2.6-1.08,0-2.19.3-2.99.84l-.47-1.38c.94-.59,2.33-.98,3.77-.98,3.48,0,4.33,2.37,4.33,4.62v4.24ZM410.31,696.39c-2.26-.05-4.83.35-4.83,2.56,0,1.36.89,1.97,1.93,1.97,1.51,0,2.47-.94,2.8-1.9.07-.23.09-.47.09-.66v-1.97ZM410.92,687.11v1.34h-5.3v-1.34h5.3ZM424.27,684.36h2.12v17.82h-2.12v-1.88h-.05c-.89,1.27-2.45,2.16-4.57,2.16-3.41,0-6.47-2.67-6.47-6.52,0-3.52,2.92-6.26,6.38-6.26,1.81,0,3.65.75,4.66,2.2h.05v-7.53ZM419.94,691.66c-2.87,0-4.5,2.27-4.5,4.31,0,2.81,2.19,4.53,4.43,4.53,2.43,0,4.4-1.97,4.4-4.41s-2.02-4.43-4.33-4.43ZM392.49,162.78h2.1v16.59h-2.1v-12.29h-.04l-6.73,12.46-6.73-12.46h-.04v12.29h-2.1v-16.59h2.1l6.77,12.53,6.77-12.53ZM402,167.73c3.59,0,6.18,2.75,6.18,5.96s-2.46,5.94-6.18,5.94-6.18-2.68-6.18-5.94,2.59-5.96,6.18-5.96ZM397.92,173.69c0,2.18,1.88,4.1,4.08,4.1s4.08-1.92,4.08-4.1c0-2.36-1.88-4.13-4.08-4.13s-4.08,1.77-4.08,4.13ZM417.68,170.7c-.79-.76-1.67-1.13-2.65-1.13-1.95,0-3.77,1.42-3.77,4.21,0,2.31,1.69,4.02,3.97,4.02.94,0,1.86-.52,2.54-1.16l1.16,1.44c-1.03,1.05-2.48,1.55-3.95,1.55-3.51,0-5.83-2.77-5.83-5.91s2.56-5.98,5.85-5.98c1.73,0,3.2.72,4.01,1.42l-1.34,1.55ZM427.76,172.75c0-1.7-.7-3.19-2.65-3.19-1.84,0-2.96,1.24-2.96,3.41v6.4h-1.97v-16.59h1.97v6.55h.04c.59-1.03,1.86-1.59,3.13-1.59,2.21,0,4.41,1.2,4.41,4.28v7.36h-1.97v-6.61ZM439,170.7c-.79-.76-1.67-1.13-2.65-1.13-1.95,0-3.77,1.42-3.77,4.21,0,2.31,1.69,4.02,3.97,4.02.94,0,1.86-.52,2.54-1.16l1.16,1.44c-1.03,1.05-2.48,1.55-3.95,1.55-3.51,0-5.83-2.77-5.83-5.91s2.56-5.98,5.85-5.98c1.73,0,3.2.72,4.01,1.42l-1.34,1.55ZM448.64,172.75c0-1.7-.7-3.19-2.65-3.19-1.84,0-2.96,1.24-2.96,3.41v6.4h-1.97v-16.59h1.97v6.55h.04c.59-1.03,1.86-1.59,3.13-1.59,2.21,0,4.41,1.2,4.41,4.28v7.36h-1.97v-6.61ZM459.98,171.75c0-1.88-1.88-2.29-3.42-2.29-1.07,0-2.08.26-3.16.79l-.85-1.64c1.73-.72,3.09-.87,4.12-.87,2.74,0,5.28,1.16,5.28,3.86v7.77h-1.84v-1.22c-1.01,1.05-2.13,1.48-3.64,1.48-2.78,0-4.98-1.55-4.98-4.08,0-2.07,1.78-3.91,4.95-3.91,1.21,0,2.48.35,3.53,1.29v-1.18ZM456.83,173.37c-2.41,0-3.22,1.16-3.22,2.27s.81,2.27,3.22,2.27,3.22-1.16,3.22-2.27-.81-2.27-3.22-2.27ZM470.5,168h2.59l-5.28,5.26,5.39,6.11h-2.76l-4.76-5.52v5.52h-1.97v-16.59h1.97v10.17l4.82-4.95ZM480.12,168h2.59l-5.28,5.26,5.39,6.11h-2.76l-4.76-5.52v5.52h-1.97v-16.59h1.97v10.17l4.82-4.95ZM493.66,177.16c-1.53,1.7-3.16,2.47-5.15,2.47-4.06,0-6.22-2.92-6.22-5.96,0-3.23,2.32-5.94,5.9-5.94s5.98,2.68,5.98,6.7h-9.78c.31,1.94,1.88,3.36,4.1,3.36,1.4,0,2.65-.66,3.66-1.83l1.51,1.2ZM491.93,172.82c-.2-1.88-1.73-3.25-3.77-3.25-2.41,0-3.57,1.7-3.77,3.25h7.54ZM495.43,168h1.97v1.61h.04c.99-1.77,1.93-1.88,3.59-1.88v2.07c-.28-.07-.59-.11-.9-.11-1.64,0-2.74,1.13-2.74,3.21v6.46h-1.97v-11.37ZM509.36,171.75c0-1.88-1.88-2.29-3.42-2.29-1.07,0-2.08.26-3.16.79l-.85-1.64c1.73-.72,3.09-.87,4.12-.87,2.74,0,5.28,1.16,5.28,3.86v7.77h-1.84v-1.22c-1.01,1.05-2.13,1.48-3.64,1.48-2.78,0-4.97-1.55-4.97-4.08,0-2.07,1.77-3.91,4.95-3.91,1.21,0,2.48.35,3.53,1.29v-1.18ZM506.21,173.37c-2.41,0-3.22,1.16-3.22,2.27s.81,2.27,3.22,2.27,3.22-1.16,3.22-2.27-.81-2.27-3.22-2.27ZM527.72,172.4c0-1.96-1.14-2.84-2.5-2.84-1.64,0-2.87,1.03-2.87,2.93v6.88h-1.97v-6.96c0-1.96-1.14-2.84-2.5-2.84-1.64,0-2.87,1.03-2.87,2.93v6.88h-1.97v-11.37h1.97v1.35h.04c.53-1.16,1.95-1.62,3.16-1.62s2.43.31,3.38,1.96c.7-1.44,2.21-1.96,3.73-1.96,2.45,0,4.38,1.46,4.38,4.45v7.18h-1.97v-6.96ZM972.46,109.21c-.37-2.52-1.83-4.06-4.1-4.06-3.03,0-3.85,1.99-3.85,3.44,0,1.59,1.01,2.6,3.12,3.38l2.7,1.01c3.4,1.26,4.97,3.24,4.97,5.82,0,3.44-2.75,5.93-6.85,5.93-3.87,0-6.63-2.04-6.96-6.29h2.7c.22,2.32,1.4,3.94,4.41,3.94,2.33,0,4.02-1.48,4.02-3.36,0-1.65-1.38-2.71-3.31-3.47l-2.72-1.06c-3.17-1.23-4.75-3.08-4.75-5.82,0-3.66,3.06-5.87,6.57-5.87s6.29,2.1,6.6,6.4h-2.53ZM987.08,114.64c0-2.4-2.41-2.94-4.38-2.94-1.38,0-2.67.34-4.04,1.01l-1.09-2.1c2.22-.92,3.96-1.12,5.28-1.12,3.51,0,6.77,1.48,6.77,4.95v9.96h-2.36v-1.57c-1.29,1.34-2.72,1.9-4.66,1.9-3.57,0-6.37-1.99-6.37-5.23,0-2.66,2.27-5,6.34-5,1.54,0,3.17.45,4.52,1.65v-1.51ZM983.04,116.71c-3.09,0-4.13,1.48-4.13,2.91s1.04,2.91,4.13,2.91,4.13-1.48,4.13-2.91-1.04-2.91-4.13-2.91ZM993.48,103.14v16.69c0,1.65.82,2.21,1.63,2.21h.76v2.35h-1.04c-2.33,0-3.87-1.31-3.87-4.36v-16.89h2.53ZM1006.57,114.64c0-2.4-2.41-2.94-4.38-2.94-1.38,0-2.67.34-4.04,1.01l-1.09-2.1c2.22-.92,3.96-1.12,5.28-1.12,3.51,0,6.77,1.48,6.77,4.95v9.96h-2.36v-1.57c-1.29,1.34-2.72,1.9-4.66,1.9-3.57,0-6.37-1.99-6.37-5.23,0-2.66,2.27-5,6.34-5,1.54,0,3.17.45,4.52,1.65v-1.51ZM1002.52,116.71c-3.09,0-4.13,1.48-4.13,2.91s1.04,2.91,4.13,2.91,4.13-1.48,4.13-2.91-1.04-2.91-4.13-2.91ZM1029.53,115.48c0-2.52-1.46-3.64-3.2-3.64-2.11,0-3.68,1.31-3.68,3.75v8.81h-2.53v-8.92c0-2.52-1.46-3.64-3.2-3.64-2.11,0-3.68,1.31-3.68,3.75v8.81h-2.53v-14.57h2.53v1.73h.06c.67-1.48,2.5-2.07,4.04-2.07s3.12.39,4.32,2.52c.9-1.85,2.84-2.52,4.77-2.52,3.14,0,5.62,1.87,5.62,5.7v9.2h-2.53v-8.92ZM1044.19,114.64c0-2.4-2.41-2.94-4.38-2.94-1.38,0-2.67.34-4.04,1.01l-1.09-2.1c2.22-.92,3.96-1.12,5.28-1.12,3.51,0,6.77,1.48,6.77,4.95v9.96h-2.36v-1.57c-1.29,1.34-2.72,1.9-4.66,1.9-3.57,0-6.37-1.99-6.37-5.23,0-2.66,2.27-5,6.34-5,1.54,0,3.17.45,4.52,1.65v-1.51ZM1040.14,116.71c-3.09,0-4.13,1.48-4.13,2.91s1.04,2.91,4.13,2.91,4.13-1.48,4.13-2.91-1.04-2.91-4.13-2.91ZM1049.41,106.3h2.53v3.52h2.33v2.21h-2.33v8.95c0,.78.25,1.06,1.23,1.06h1.15v2.32c-.37.03-.96.03-1.54.03-2.58,0-3.37-.89-3.37-3.13v-9.23h-2.02v-2.21h2.02v-3.52ZM641.78,800.72h1.49v11.76h-1.49v-8.71h-.03l-4.77,8.83-4.77-8.83h-.03v8.71h-1.49v-11.76h1.49l4.8,8.88,4.8-8.88ZM648.51,804.23c2.55,0,4.38,1.95,4.38,4.22s-1.74,4.21-4.38,4.21-4.38-1.9-4.38-4.21,1.83-4.22,4.38-4.22ZM645.62,808.45c0,1.55,1.34,2.91,2.89,2.91s2.89-1.36,2.89-2.91c0-1.67-1.34-2.92-2.89-2.92s-2.89,1.25-2.89,2.92ZM659.63,806.33c-.56-.54-1.18-.81-1.88-.81-1.38,0-2.67,1.01-2.67,2.99,0,1.64,1.2,2.85,2.81,2.85.67,0,1.32-.37,1.8-.82l.82,1.02c-.73.74-1.76,1.1-2.8,1.1-2.49,0-4.13-1.97-4.13-4.19s1.82-4.24,4.15-4.24c1.23,0,2.27.51,2.84,1l-.95,1.1ZM666.77,807.79c0-1.21-.5-2.26-1.88-2.26-1.3,0-2.1.88-2.1,2.41v4.53h-1.4v-11.76h1.4v4.64h.03c.42-.73,1.32-1.13,2.22-1.13,1.57,0,3.12.85,3.12,3.03v5.21h-1.4v-4.69ZM674.74,806.33c-.56-.54-1.18-.81-1.88-.81-1.38,0-2.67,1.01-2.67,2.99,0,1.64,1.2,2.85,2.81,2.85.67,0,1.32-.37,1.8-.82l.82,1.02c-.73.74-1.76,1.1-2.8,1.1-2.48,0-4.13-1.97-4.13-4.19s1.82-4.24,4.15-4.24c1.23,0,2.27.51,2.84,1l-.95,1.1ZM681.57,807.79c0-1.21-.5-2.26-1.88-2.26-1.3,0-2.1.88-2.1,2.41v4.53h-1.4v-11.76h1.4v4.64h.03c.42-.73,1.32-1.13,2.22-1.13,1.57,0,3.12.85,3.12,3.03v5.21h-1.4v-4.69ZM689.61,807.07c0-1.33-1.34-1.62-2.42-1.62-.76,0-1.47.19-2.24.56l-.61-1.16c1.23-.51,2.19-.62,2.92-.62,1.94,0,3.74.82,3.74,2.74v5.51h-1.31v-.87c-.71.74-1.51,1.05-2.58,1.05-1.97,0-3.53-1.1-3.53-2.89,0-1.47,1.26-2.77,3.51-2.77.86,0,1.76.25,2.5.91v-.84ZM687.38,808.22c-1.71,0-2.28.82-2.28,1.61s.58,1.61,2.28,1.61,2.28-.82,2.28-1.61-.57-1.61-2.28-1.61ZM697.07,804.41h1.83l-3.74,3.73,3.82,4.33h-1.96l-3.37-3.91v3.91h-1.4v-11.76h1.4v7.21l3.42-3.51ZM703.88,804.41h1.83l-3.74,3.73,3.82,4.33h-1.96l-3.37-3.91v3.91h-1.4v-11.76h1.4v7.21l3.42-3.51ZM713.48,810.91c-1.09,1.21-2.24,1.75-3.65,1.75-2.87,0-4.41-2.07-4.41-4.22,0-2.29,1.65-4.21,4.18-4.21s4.24,1.9,4.24,4.75h-6.93c.22,1.38,1.34,2.38,2.9,2.38.99,0,1.88-.46,2.59-1.3l1.07.85ZM712.25,807.83c-.14-1.33-1.23-2.31-2.67-2.31-1.71,0-2.53,1.21-2.67,2.31h5.34ZM714.73,804.41h1.4v1.15h.03c.7-1.25,1.37-1.33,2.55-1.33v1.47c-.2-.05-.42-.08-.64-.08-1.16,0-1.94.81-1.94,2.27v4.58h-1.4v-8.06ZM724.61,807.07c0-1.33-1.34-1.62-2.42-1.62-.76,0-1.47.19-2.24.56l-.61-1.16c1.23-.51,2.19-.62,2.92-.62,1.94,0,3.74.82,3.74,2.74v5.51h-1.31v-.87c-.71.74-1.51,1.05-2.58,1.05-1.97,0-3.53-1.1-3.53-2.89,0-1.47,1.26-2.77,3.51-2.77.86,0,1.76.25,2.5.91v-.84ZM722.37,808.22c-1.71,0-2.28.82-2.28,1.61s.58,1.61,2.28,1.61,2.28-.82,2.28-1.61-.57-1.61-2.28-1.61ZM737.62,807.54c0-1.39-.81-2.01-1.77-2.01-1.16,0-2.03.73-2.03,2.07v4.87h-1.4v-4.93c0-1.39-.81-2.01-1.77-2.01-1.17,0-2.03.73-2.03,2.07v4.87h-1.4v-8.06h1.4v.96h.03c.37-.82,1.38-1.14,2.24-1.14s1.72.22,2.39,1.39c.5-1.02,1.57-1.39,2.64-1.39,1.74,0,3.11,1.04,3.11,3.16v5.09h-1.4v-4.93ZM145.07,263.19v7.08h-2.11v-16.61h4.81c3.2,0,5.6,1.84,5.6,5.03,0,2.97-2.35,4.81-5.07,4.96l6.49,6.62h-2.96l-6.76-7.08ZM145.07,261.9c.28.02.59.02,1.84.02,3.23,0,4.35-1.4,4.35-3.21,0-1.94-1.34-3.21-3.53-3.21h-2.65v6.4ZM162.99,262.64c0-1.88-1.89-2.29-3.42-2.29-1.08,0-2.09.26-3.16.79l-.86-1.64c1.73-.72,3.09-.88,4.12-.88,2.74,0,5.29,1.16,5.29,3.87v7.78h-1.85v-1.22c-1.01,1.05-2.13,1.49-3.64,1.49-2.79,0-4.98-1.55-4.98-4.09,0-2.08,1.78-3.91,4.96-3.91,1.21,0,2.48.35,3.53,1.29v-1.18ZM159.83,264.26c-2.41,0-3.23,1.16-3.23,2.27s.81,2.27,3.23,2.27,3.23-1.16,3.23-2.27-.81-2.27-3.23-2.27ZM167.7,253.9c.77,0,1.38.61,1.38,1.38s-.61,1.38-1.38,1.38-1.38-.61-1.38-1.38.61-1.38,1.38-1.38ZM166.71,258.88h1.98v11.39h-1.98v-11.39ZM170.66,253.66h1.98v7.02h.04c.94-1.36,2.66-2.06,4.35-2.06,3.23,0,5.95,2.56,5.95,5.84,0,3.58-2.85,6.07-6.04,6.07-1.97,0-3.42-.83-4.26-2.01h-.04v1.75h-1.98v-16.61ZM176.67,260.46c-2.15,0-4.04,1.84-4.04,4.13s1.84,4.11,4.1,4.11c2.09,0,4.13-1.6,4.13-4.22,0-1.9-1.51-4.02-4.19-4.02ZM191.8,263.65c0-1.7-.7-3.19-2.65-3.19-1.84,0-2.96,1.25-2.96,3.41v6.4h-1.97v-16.61h1.97v6.55h.05c.59-1.02,1.86-1.6,3.14-1.6,2.22,0,4.41,1.2,4.41,4.29v7.37h-1.98v-6.62ZM214.81,253.66h2.11v16.61h-2.11v-12.3h-.04l-6.74,12.48-6.74-12.48h-.04v12.3h-2.11v-16.61h2.11l6.78,12.54,6.78-12.54ZM226.45,262.64c0-1.88-1.89-2.29-3.42-2.29-1.08,0-2.09.26-3.16.79l-.86-1.64c1.73-.72,3.09-.88,4.12-.88,2.74,0,5.29,1.16,5.29,3.87v7.78h-1.85v-1.22c-1.01,1.05-2.13,1.49-3.64,1.49-2.79,0-4.98-1.55-4.98-4.09,0-2.08,1.78-3.91,4.96-3.91,1.21,0,2.48.35,3.53,1.29v-1.18ZM223.29,264.26c-2.41,0-3.23,1.16-3.23,2.27s.81,2.27,3.23,2.27,3.23-1.16,3.23-2.27-.81-2.27-3.23-2.27ZM231.16,253.9c.77,0,1.38.61,1.38,1.38s-.61,1.38-1.38,1.38-1.38-.61-1.38-1.38.61-1.38,1.38-1.38ZM230.17,258.88h1.98v11.39h-1.98v-11.39ZM234.91,256.13h1.98v2.75h1.82v1.72h-1.82v7c0,.61.2.83.97.83h.9v1.81c-.28.02-.75.02-1.21.02-2.02,0-2.63-.7-2.63-2.45v-7.21h-1.58v-1.72h1.58v-2.75ZM247.63,263.65c0-1.7-.7-3.19-2.65-3.19-1.84,0-2.96,1.25-2.96,3.41v6.4h-1.97v-16.61h1.97v6.55h.05c.59-1.02,1.86-1.6,3.14-1.6,2.22,0,4.41,1.2,4.41,4.29v7.37h-1.98v-6.62ZM265.31,266.4h-7.77l-1.51,3.87h-2.31l6.78-16.61h1.84l6.78,16.61h-2.31l-1.51-3.87ZM261.43,256.41l-3.16,8.15h6.32l-3.16-8.15ZM279.02,258.88h1.98v9.81c0,4.2-2.02,6.38-6.45,6.38-2.02,0-3.8-.74-5.33-2.45l1.58-1.25c1.21,1.51,2.61,1.97,3.8,1.97,3.07,0,4.43-1.53,4.43-4.06v-.81h-.04c-1.08,1.29-2.19,1.92-4.41,1.92-3.84,0-5.88-3.28-5.88-5.92,0-3.3,2.72-5.86,5.95-5.86,1.69,0,3.4.7,4.35,2.06h.04v-1.79ZM274.98,260.46c-2.68,0-4.19,2.12-4.19,4.02,0,2.62,2.06,4.2,4.13,4.2,2.26,0,4.1-1.81,4.1-4.09s-1.89-4.13-4.04-4.13ZM290.22,262.64c0-1.88-1.89-2.29-3.42-2.29-1.08,0-2.09.26-3.16.79l-.86-1.64c1.73-.72,3.09-.88,4.12-.88,2.74,0,5.29,1.16,5.29,3.87v7.78h-1.85v-1.22c-1.01,1.05-2.13,1.49-3.64,1.49-2.79,0-4.98-1.55-4.98-4.09,0-2.08,1.78-3.91,4.96-3.91,1.21,0,2.48.35,3.53,1.29v-1.18ZM287.06,264.26c-2.41,0-3.23,1.16-3.23,2.27s.81,2.27,3.23,2.27,3.23-1.16,3.23-2.27-.81-2.27-3.23-2.27ZM293.86,256.13h1.98v2.75h1.82v1.72h-1.82v7c0,.61.2.83.97.83h.9v1.81c-.28.02-.75.02-1.21.02-2.02,0-2.63-.7-2.63-2.45v-7.21h-1.58v-1.72h1.58v-2.75ZM757.73,554.53v-12.44c8.9,0,14.05,6.1,14.05,13.02,0,8.38-6.65,13.09-12.78,13.09s-12.78-4.71-12.78-13.09c0-2.89.85-5.78,3.36-8.7l2.35,1.98c-1.86,1.98-2.77,4.55-2.77,6.72,0,5.16,4.14,9.77,9.85,9.77s9.85-4.74,9.85-9.77c0-4.45-3-8.57-8.18-9.61v9.03h-2.93ZM754.4,540.75v-2.92h2.41v-.06c-2.64-1.46-2.8-2.86-2.8-5.33h3.1c-.1.42-.16.88-.16,1.33,0,2.44,1.69,4.06,4.79,4.06h9.65v2.92h-16.99ZM760.01,520.74c-2.8,0-3.42,2.79-3.42,5.07,0,1.59.39,3.09,1.17,4.68l-2.45,1.27c-1.08-2.57-1.3-4.58-1.3-6.11,0-4.06,1.73-7.83,5.77-7.83h11.61v2.73h-1.83c1.56,1.49,2.22,3.15,2.22,5.39,0,4.12-2.31,7.37-6.1,7.37-3.1,0-5.84-2.63-5.84-7.34,0-1.79.52-3.67,1.92-5.23h-1.76ZM762.42,525.42c0,3.57,1.73,4.77,3.39,4.77s3.39-1.2,3.39-4.77-1.73-4.77-3.39-4.77-3.39,1.2-3.39,4.77ZM756.98,508.79v7.92h-2.58v-12.76l14.41,8.77v-8.35h2.58v13.25l-14.41-8.83ZM746.97,501.97c0-1.14.91-2.05,2.05-2.05s2.05.91,2.05,2.05-.91,2.05-2.05,2.05-2.05-.91-2.05-2.05ZM754.4,503.43v-2.92h16.99v2.92h-16.99ZM768.1,482.35c2.54,2.27,3.68,4.68,3.68,7.63,0,6.01-4.37,9.22-8.9,9.22-4.83,0-8.87-3.44-8.87-8.74s4.01-8.87,10.01-8.87v14.48c2.9-.45,5.02-2.79,5.02-6.07,0-2.08-.98-3.93-2.74-5.42l1.79-2.24ZM761.61,484.92c-2.8.29-4.86,2.57-4.86,5.59,0,3.57,2.54,5.29,4.86,5.59v-11.17ZM496.57,835.06h6.9c0,4.9-3.39,7.74-7.23,7.74-4.65,0-7.26-3.66-7.26-7.04s2.61-7.04,7.26-7.04c1.6,0,3.21.47,4.83,1.85l-1.1,1.29c-1.1-1.02-2.52-1.53-3.73-1.53-2.87,0-5.43,2.28-5.43,5.42s2.63,5.42,5.43,5.42c2.47,0,4.76-1.65,5.34-4.51h-5.01v-1.62ZM504.22,833.22h1.62v1.33h.04c.81-1.45,1.59-1.54,2.96-1.54v1.71c-.23-.05-.49-.09-.74-.09-1.35,0-2.25.93-2.25,2.64v5.31h-1.62v-9.35ZM515.32,836.31c0-1.54-1.55-1.88-2.81-1.88-.88,0-1.71.21-2.6.65l-.7-1.35c1.42-.59,2.54-.72,3.39-.72,2.25,0,4.34.95,4.34,3.18v6.39h-1.51v-1.01c-.83.86-1.75,1.22-2.99,1.22-2.29,0-4.09-1.27-4.09-3.36,0-1.71,1.46-3.21,4.07-3.21.99,0,2.04.29,2.9,1.06v-.97ZM512.73,837.64c-1.98,0-2.65.95-2.65,1.87s.67,1.87,2.65,1.87,2.65-.95,2.65-1.87-.67-1.87-2.65-1.87ZM521.96,834.64h-4.4v-1.42h7.08l-4.87,7.94h4.63v1.42h-7.35l4.9-7.94ZM525.74,829.13c.63,0,1.14.5,1.14,1.13s-.5,1.13-1.14,1.13-1.14-.5-1.14-1.13.5-1.13,1.14-1.13ZM524.93,833.22h1.62v9.35h-1.62v-9.35ZM536.63,840.76c-1.26,1.4-2.6,2.03-4.24,2.03-3.33,0-5.12-2.41-5.12-4.9,0-2.66,1.91-4.88,4.85-4.88s4.92,2.21,4.92,5.51h-8.04c.25,1.6,1.55,2.76,3.37,2.76,1.15,0,2.18-.54,3.01-1.51l1.24.99ZM535.21,837.19c-.16-1.54-1.42-2.67-3.1-2.67-1.98,0-2.94,1.4-3.1,2.67h6.2ZM617.99,917.2h1.2v9.46h-1.12l-5.1-7.32h-.03v7.32h-1.2v-9.46h1.13l5.1,7.32h.03v-7.32ZM620.59,917.33c.44,0,.79.35.79.78s-.35.78-.79.78-.79-.35-.79-.78.35-.78.79-.78ZM620.03,920.17h1.13v6.48h-1.13v-6.48ZM622.03,920.17h1.13v.92h.02c.56-1.01,1.1-1.07,2.05-1.07v1.18c-.16-.04-.34-.06-.51-.06-.94,0-1.56.65-1.56,1.83v3.68h-1.13v-6.48ZM625.67,920.17h1.13v.92h.02c.56-1.01,1.1-1.07,2.05-1.07v1.18c-.16-.04-.34-.06-.51-.06-.94,0-1.56.65-1.56,1.83v3.68h-1.13v-6.48ZM629.63,917.33c.44,0,.79.35.79.78s-.35.78-.79.78-.79-.35-.79-.78.35-.78.79-.78ZM629.07,920.17h1.13v6.48h-1.13v-6.48ZM635.32,922.88c0-.97-.4-1.82-1.51-1.82-1.05,0-1.69.71-1.69,1.94v3.65h-1.12v-6.48h1.12v.76h.02c.34-.58,1.06-.91,1.79-.91,1.26,0,2.51.69,2.51,2.44v4.19h-1.12v-3.77ZM642.7,920.17h1.12v5.59c0,2.39-1.15,3.63-3.67,3.63-1.15,0-2.16-.42-3.04-1.39l.9-.71c.69.86,1.49,1.12,2.16,1.12,1.75,0,2.52-.87,2.52-2.31v-.46h-.03c-.61.73-1.25,1.1-2.51,1.1-2.19,0-3.35-1.87-3.35-3.37,0-1.88,1.55-3.34,3.39-3.34.96,0,1.94.4,2.47,1.17h.03v-1.02ZM640.4,921.07c-1.53,0-2.39,1.21-2.39,2.29,0,1.49,1.17,2.39,2.35,2.39,1.29,0,2.34-1.03,2.34-2.33s-1.07-2.35-2.3-2.35ZM644.79,920.17h1.13v.92h.02c.56-1.01,1.1-1.07,2.05-1.07v1.18c-.16-.04-.34-.06-.51-.06-.94,0-1.56.65-1.56,1.83v3.68h-1.13v-6.48ZM652.48,922.31c0-1.07-1.07-1.31-1.95-1.31-.61,0-1.19.15-1.8.45l-.49-.93c.99-.41,1.76-.5,2.35-.5,1.56,0,3.01.66,3.01,2.2v4.43h-1.05v-.7c-.58.6-1.21.85-2.07.85-1.59,0-2.84-.88-2.84-2.33,0-1.18,1.01-2.23,2.82-2.23.69,0,1.41.2,2.01.73v-.67ZM650.68,923.23c-1.37,0-1.84.66-1.84,1.29s.46,1.29,1.84,1.29,1.84-.66,1.84-1.29-.46-1.29-1.84-1.29ZM657.33,921.15h-3.05v-.98h4.91l-3.37,5.5h3.21v.98h-5.1l3.4-5.5ZM662.61,921.15h-3.05v-.98h4.91l-3.37,5.5h3.21v.98h-5.1l3.4-5.5ZM665.49,917.33c.44,0,.79.35.79.78s-.35.78-.79.78-.79-.35-.79-.78.35-.78.79-.78ZM664.92,920.17h1.13v6.96c0,1.47-.76,2.17-1.94,2.26v-1.05c.54,0,.81-.42.81-1.11v-7.07ZM671.47,922.31c0-1.07-1.07-1.31-1.95-1.31-.61,0-1.19.15-1.8.45l-.49-.93c.99-.41,1.76-.5,2.35-.5,1.56,0,3.01.66,3.01,2.2v4.43h-1.05v-.7c-.58.6-1.21.85-2.07.85-1.59,0-2.84-.88-2.84-2.33,0-1.18,1.01-2.23,2.82-2.23.69,0,1.41.2,2.01.73v-.67ZM669.67,923.23c-1.37,0-1.84.66-1.84,1.29s.46,1.29,1.84,1.29,1.84-.66,1.84-1.29-.46-1.29-1.84-1.29ZM677.47,920.17h1.47l-3.01,3,3.07,3.48h-1.57l-2.71-3.15v3.15h-1.13v-9.46h1.13v5.8l2.75-2.82ZM209.37,161.39c27.53,0,43,21.68,43,41.66s-15.47,41.66-43,41.66-43-21.68-43-41.66,15.47-41.66,43-41.66ZM209.37,235.14c16.54,0,32.12-12.96,32.12-32.09s-15.58-32.1-32.12-32.1-32.12,12.97-32.12,32.1,15.58,32.09,32.12,32.09ZM257.15,162.66h9.6v34.11h.21c4.59-6.59,12.91-9.99,21.13-9.99,15.68,0,28.92,12.44,28.92,28.37,0,17.43-13.87,29.54-29.34,29.54-9.6,0-16.65-4.04-20.7-9.78h-.21v8.5h-9.6v-80.76ZM286.38,195.72c-10.46,0-19.63,8.92-19.63,20.09s8.96,19.98,19.95,19.98c10.14,0,20.06-7.76,20.06-20.51,0-9.24-7.36-19.55-20.38-19.55ZM321.58,188.06h9.6v7.87h.21c4.8-8.61,9.39-9.14,17.5-9.14v10.1c-1.39-.32-2.88-.53-4.38-.53-8,0-13.34,5.53-13.34,15.62v31.45h-9.6v-55.37ZM357.53,163.83c3.73,0,6.72,2.98,6.72,6.69s-2.99,6.69-6.72,6.69-6.72-2.98-6.72-6.69,2.99-6.69,6.72-6.69ZM352.73,188.06h9.6v55.37h-9.6v-55.37ZM418.55,188.06h9.6v47.72c0,20.4-9.82,31.03-31.37,31.03-9.82,0-18.46-3.61-25.93-11.9l7.68-6.06c5.87,7.34,12.7,9.57,18.46,9.57,14.94,0,21.55-7.44,21.55-19.77v-3.93h-.21c-5.23,6.27-10.67,9.35-21.45,9.35-18.67,0-28.59-15.94-28.59-28.8,0-16.04,13.23-28.48,28.91-28.48,8.22,0,16.54,3.4,21.13,9.99h.21v-8.72ZM398.92,195.72c-13.02,0-20.38,10.31-20.38,19.55,0,12.75,10.03,20.4,20.06,20.4,10.99,0,19.95-8.82,19.95-19.87s-9.17-20.09-19.63-20.09ZM475.19,206.34c0-9.14-9.17-11.16-16.65-11.16-5.23,0-10.14,1.27-15.36,3.82l-4.16-7.97c8.43-3.51,15.05-4.25,20.06-4.25,13.34,0,25.71,5.63,25.71,18.81v37.83h-8.96v-5.95c-4.91,5.1-10.35,7.23-17.71,7.23-13.55,0-24.22-7.54-24.22-19.87,0-10.1,8.64-19.02,24.11-19.02,5.87,0,12.06,1.7,17.18,6.27v-5.74ZM459.83,214.2c-11.74,0-15.68,5.63-15.68,11.05s3.95,11.06,15.68,11.06,15.68-5.63,15.68-11.06-3.95-11.05-15.68-11.05ZM538.56,162.66h9.6v80.76h-9.6v-8.5h-.21c-4.05,5.74-11.1,9.78-20.7,9.78-15.47,0-29.34-12.11-29.34-29.54,0-15.94,13.23-28.37,28.92-28.37,8.22,0,16.54,3.4,21.13,9.99h.21v-34.11ZM518.93,195.72c-13.02,0-20.38,10.31-20.38,19.55,0,12.75,9.92,20.51,20.06,20.51,10.99,0,19.95-8.93,19.95-19.98s-9.18-20.09-19.63-20.09ZM584.1,186.79c17.5,0,30.09,13.39,30.09,29.01s-11.95,28.9-30.09,28.9-30.09-13.07-30.09-28.9,12.59-29.01,30.09-29.01ZM564.26,215.8c0,10.63,9.18,19.98,19.84,19.98s19.85-9.35,19.85-19.98c0-11.48-9.18-20.09-19.85-20.09s-19.84,8.6-19.84,20.09ZM373.27,43.46h-5.79l-1.13,2.88h-1.72l5.05-12.38h1.37l5.05,12.38h-1.72l-1.13-2.88ZM370.37,36.02l-2.35,6.07h4.71l-2.35-6.07ZM376.34,37.86h1.47v1.2h.03c.74-1.32,1.44-1.4,2.68-1.4v1.55c-.21-.05-.44-.08-.67-.08-1.23,0-2.04.85-2.04,2.39v4.82h-1.47v-8.48ZM381.52,34.15c.57,0,1.03.46,1.03,1.03s-.46,1.03-1.03,1.03-1.03-.46-1.03-1.03.46-1.03,1.03-1.03ZM380.79,37.86h1.47v8.48h-1.47v-8.48ZM390.55,37.86h1.47v7.31c0,3.13-1.5,4.76-4.81,4.76-1.5,0-2.83-.55-3.97-1.82l1.18-.93c.9,1.12,1.95,1.47,2.83,1.47,2.29,0,3.3-1.14,3.3-3.03v-.6h-.03c-.8.96-1.64,1.43-3.29,1.43-2.86,0-4.38-2.44-4.38-4.41,0-2.46,2.03-4.36,4.43-4.36,1.26,0,2.53.52,3.24,1.53h.03v-1.34ZM387.54,39.03c-1.99,0-3.12,1.58-3.12,3,0,1.95,1.54,3.13,3.07,3.13,1.68,0,3.06-1.35,3.06-3.05s-1.41-3.08-3.01-3.08ZM398.9,40.66c0-1.4-1.41-1.71-2.55-1.71-.8,0-1.55.2-2.35.59l-.64-1.22c1.29-.54,2.31-.65,3.07-.65,2.04,0,3.94.86,3.94,2.88v5.8h-1.37v-.91c-.75.78-1.59,1.11-2.71,1.11-2.08,0-3.71-1.16-3.71-3.05,0-1.55,1.32-2.91,3.7-2.91.9,0,1.85.26,2.63.96v-.88ZM396.55,41.87c-1.8,0-2.4.86-2.4,1.69s.6,1.69,2.4,1.69,2.4-.86,2.4-1.69-.6-1.69-2.4-1.69ZM401.61,35.81h1.47v2.05h1.36v1.29h-1.36v5.21c0,.46.15.62.72.62h.67v1.35c-.21.02-.56.02-.9.02-1.5,0-1.96-.52-1.96-1.82v-5.37h-1.18v-1.29h1.18v-2.05ZM409.25,37.66c2.68,0,4.61,2.05,4.61,4.45s-1.83,4.43-4.61,4.43-4.61-2-4.61-4.43,1.93-4.45,4.61-4.45ZM406.21,42.11c0,1.63,1.41,3.06,3.04,3.06s3.04-1.43,3.04-3.06c0-1.76-1.41-3.08-3.04-3.08s-3.04,1.32-3.04,3.08ZM409.25,35.3l-1.24,1.24h-1.21l1.57-2.15h1.77l1.57,2.15h-1.21l-1.24-1.24ZM769.18,140.35h-23.2l-4.52,11.55h-6.88l20.26-49.61h5.5l20.26,49.61h-6.88l-4.52-11.55ZM757.58,110.51l-9.44,24.35h18.88l-9.44-24.35ZM781.49,117.89h5.9v4.83h.13c2.95-5.29,5.77-5.61,10.75-5.61v6.2c-.85-.2-1.77-.33-2.69-.33-4.92,0-8.19,3.39-8.19,9.6v19.32h-5.9v-34.01ZM802.27,103.01c2.29,0,4.13,1.83,4.13,4.11s-1.83,4.11-4.13,4.11-4.13-1.83-4.13-4.11,1.83-4.11,4.13-4.11ZM799.32,117.89h5.9v34.01h-5.9v-34.01ZM838.45,117.89h5.9v29.31c0,12.53-6.03,19.06-19.27,19.06-6.03,0-11.34-2.22-15.93-7.31l4.72-3.72c3.61,4.5,7.8,5.88,11.34,5.88,9.18,0,13.24-4.57,13.24-12.14v-2.42h-.13c-3.21,3.85-6.56,5.74-13.18,5.74-11.47,0-17.57-9.79-17.57-17.69,0-9.86,8.13-17.5,17.76-17.5,5.05,0,10.16,2.09,12.98,6.14h.13v-5.35ZM826.39,122.59c-8,0-12.52,6.33-12.52,12.01,0,7.83,6.16,12.53,12.32,12.53,6.75,0,12.26-5.42,12.26-12.21s-5.64-12.34-12.06-12.34ZM871.94,129.12c0-5.61-5.64-6.85-10.23-6.85-3.21,0-6.23.78-9.44,2.35l-2.56-4.9c5.18-2.15,9.24-2.61,12.32-2.61,8.19,0,15.8,3.46,15.8,11.55v23.24h-5.51v-3.66c-3.01,3.13-6.36,4.44-10.88,4.44-8.32,0-14.88-4.63-14.88-12.21,0-6.2,5.31-11.69,14.81-11.69,3.61,0,7.41,1.04,10.55,3.85v-3.53ZM862.5,133.95c-7.21,0-9.64,3.46-9.64,6.79s2.42,6.79,9.64,6.79,9.64-3.46,9.64-6.79-2.42-6.79-9.64-6.79ZM882.81,109.67h5.9v8.23h5.44v5.16h-5.44v20.89c0,1.83.59,2.48,2.89,2.48h2.69v5.42c-.85.07-2.23.07-3.61.07-6.03,0-7.87-2.09-7.87-7.31v-21.54h-4.72v-5.16h4.72v-8.23ZM913.42,117.11c10.75,0,18.48,8.23,18.48,17.82s-7.34,17.76-18.48,17.76-18.48-8.03-18.48-17.76,7.73-17.82,18.48-17.82ZM901.23,134.93c0,6.53,5.64,12.27,12.19,12.27s12.19-5.74,12.19-12.27c0-7.05-5.64-12.34-12.19-12.34s-12.19,5.29-12.19,12.34ZM913.42,107.64l-4.98,4.96h-4.85l6.29-8.62h7.08l6.29,8.62h-4.85l-4.98-4.96ZM404.43,565.23v-8.16c0-6.07,5.21-11.92,12.36-11.92s12.56,5.65,12.56,12.7v7.38h-24.92ZM426.39,557.88c0-5.55-4.26-9.4-9.77-9.4s-9.25,4.24-9.25,9.67v3.95h19.02v-4.21ZM404.79,542.21c0-1.14.92-2.06,2.07-2.06s2.07.91,2.07,2.06-.92,2.06-2.07,2.06-2.07-.91-2.07-2.06ZM412.26,543.68v-2.94h17.08v2.94h-17.08ZM411.87,529.74c0-5.36,4.13-9.21,8.95-9.21s8.92,3.66,8.92,9.21-4.03,9.21-8.92,9.21-8.95-3.85-8.95-9.21ZM420.82,535.81c3.28,0,6.16-2.81,6.16-6.07s-2.89-6.07-6.16-6.07c-3.54,0-6.2,2.81-6.2,6.07s2.66,6.07,6.2,6.07ZM404.43,516.19h19.57c1.93,0,2.59-.95,2.59-1.89v-.88h2.75v1.21c0,2.71-1.54,4.51-5.11,4.51h-19.8v-2.94ZM416.33,501.79c-1.15,1.18-1.7,2.48-1.7,3.95,0,2.91,2.13,5.62,6.33,5.62,3.48,0,6.03-2.51,6.03-5.91,0-1.4-.79-2.78-1.74-3.79l2.16-1.73c1.57,1.54,2.33,3.69,2.33,5.88,0,5.22-4.16,8.69-8.89,8.69s-8.98-3.82-8.98-8.72c0-2.58,1.08-4.77,2.13-5.98l2.33,1.99ZM419.41,488.08c-2.56,0-4.79,1.04-4.79,3.95,0,2.74,1.87,4.41,5.11,4.41h9.61v2.94h-24.92v-2.94h9.84v-.07c-1.54-.88-2.39-2.78-2.39-4.67,0-3.3,1.8-6.56,6.43-6.56h11.05v2.94h-9.93ZM840.03,37.36c-.06.25-.12.5-.19.73,3.41.6,4.67,2.72,4.67,5,0,3.07-2.63,4.92-7.48,5.46-.08-.27-.35-.85-.52-1.16,4.01-.39,6.59-1.78,6.59-4.26v-.14c-.1-2.24-1.61-3.34-3.68-3.68-.83,2.18-2.25,4.21-3.85,5.67.14.4.31.75.5,1.04l-1.14.71c-.17-.27-.33-.6-.46-.96-1.55,1.14-2.79,1.45-3.66,1.45-1.55,0-2.34-1.14-2.34-2.57,0-2.66,2.21-4.78,5.02-5.9-.04-1-.04-2.1-.02-3.24-3.27,0-3.62,0-4.26-.04l-.04-1.27c.99.06,2.67.06,4.34.06.02-.89.06-1.97.1-2.87l1.94.13c-.02.19-.21.35-.5.39-.06.71-.1,1.6-.16,2.31,2.11-.06,5.81-.31,7.77-.81l.17,1.31c-2.05.5-5.79.69-8,.75-.04,1-.06,1.97-.04,2.87,1.36-.42,2.58-.44,2.91-.44.29,0,.54,0,.79.02.08-.31.14-.6.19-.91l1.38.35ZM834.09,44.56c-.31-1.2-.48-2.72-.56-4.51-2.11.93-3.76,2.53-3.76,4.4,0,1.14.64,1.52,1.34,1.49.91-.02,1.96-.54,2.98-1.37ZM838.06,39.14c-.31-.02-1.82-.06-3.27.46.04,1.56.17,2.89.45,3.97,1.16-1.18,2.21-2.74,2.83-4.44ZM849.45,42.41c-.37-1.04-.54-2.55-.56-3.63,0-1.81.19-3.92.66-6.37l1.94.33c-.08.25-.31.31-.56.33-.39,1.6-.66,4.05-.66,5.61,0,.42.02.77.06,1.04.39-.95,1.1-2.26,1.51-2.99.17.25.56.66.76.85-1.43,2.57-1.86,3.3-1.86,4.11,0,.15.02.31.06.48l-1.34.23ZM859.83,31.92c-.02.23-.17.33-.5.42.14,1.68.33,4.48.33,6.69-.02,3.72-1.38,7.08-7.21,9.49-.21-.31-.68-.83-.97-1.12,5.29-2.01,6.7-5.19,6.7-8.35,0-2.37-.23-5.17-.45-7.23l2.09.1ZM870.7,31.96c-.04.23-.27.33-.64.35-.21,1.08-.56,2.95-.79,4.11.87-.1,1.67-.17,2.15-.17,2.94-.04,3.95,1.91,3.95,4.8,0,1.45-.27,3.16-.66,4.32-.6,1.97-1.84,2.91-3.45,2.91-.79,0-1.84-.33-3.51-1.68.21-.35.37-.77.52-1.18,1.55,1.2,2.36,1.47,2.96,1.47,1.1,0,1.76-.69,2.15-1.93.41-1.2.62-2.97.62-3.96-.02-2.2-.74-3.51-2.67-3.49-.58,0-1.38.08-2.36.19-.97,3.94-2.11,7.31-3.97,10.42l-1.28-.62c1.88-2.99,2.94-5.98,3.85-9.65-.99.12-2.4.29-3.45.46l-.12-1.35c.95-.12,2.54-.29,3.84-.44.29-1.41.6-3.14.83-4.84l2.01.27ZM875.19,31.36c.93.71,2.03,1.87,2.6,2.7l-.76.54c-.54-.83-1.7-2.04-2.56-2.68l.72-.56ZM879.53,42.59c-.64-2.78-2.17-5.11-3.95-6.58l1.12-.75c1.92,1.6,3.58,4.01,4.22,6.81l-1.39.52ZM878.12,30.61c.95.69,2.05,1.85,2.61,2.68l-.76.56c-.54-.83-1.7-2.06-2.56-2.7l.7-.54ZM896.15,37.88s-.1.02-.16.02c-.14,0-.29-.04-.41-.12-5.75,1.68-10.96,4.21-10.94,6.79,0,1.85,2.05,2.49,5.19,2.49s5.5-.23,6.86-.44l.12,1.41c-1.78.23-4.67.35-6.93.35-3.83,0-6.62-.89-6.64-3.72-.02-2.06,2.05-3.88,5.09-5.44-.66-1.18-.89-3.41-.89-7.77l2.13.17c-.02.25-.21.41-.6.46-.02,3.38.1,5.48.64,6.52,1.82-.85,3.91-1.62,6.04-2.31l.5,1.6ZM901.28,38.13c2.91-.79,6.57-1.58,8.02-1.58,2.91,0,4.61,1.54,4.61,4.4v.15c-.04,3.51-2.81,6.08-8.37,7.56-.17-.33-.58-.85-.87-1.18,4.96-1.18,7.77-3.49,7.77-6.42,0-1.85-.89-3.18-3.2-3.18-1.55,0-4.63.69-7.01,1.52.02.15-.17.35-.37.44l-.58-1.72ZM904,31.46c2.65.23,5.71.79,7.79,1.5l-.41,1.35c-2.05-.69-5.19-1.33-7.71-1.54l.33-1.31ZM407.08,616.17h3.16l-6.8,10.02,7.09,10.39h-3.21l-5.48-8.25-5.47,8.25h-3.21l7.09-10.39-6.8-10.02h3.16l5.23,7.9,5.23-7.9ZM412.14,616.47c.94,0,1.7.75,1.7,1.69s-.76,1.69-1.7,1.69-1.7-.75-1.7-1.69.76-1.69,1.7-1.69ZM410.93,622.59h2.43v13.99h-2.43v-13.99ZM428.43,633.88c-1.89,2.09-3.88,3.03-6.34,3.03-4.99,0-7.66-3.6-7.66-7.33,0-3.98,2.86-7.31,7.25-7.31s7.36,3.3,7.36,8.25h-12.03c.38,2.39,2.32,4.14,5.04,4.14,1.73,0,3.26-.81,4.5-2.26l1.86,1.48ZM426.3,628.53c-.24-2.31-2.13-4-4.64-4-2.97,0-4.4,2.09-4.64,4h9.28ZM417.97,617.09v-.21h3.26l2.18,3.55h-1.91l-3.53-3.33ZM439.76,622.59h3.07l-5.45,6.85,5.66,7.14h-3.24l-4.02-5.21-4.18,5.21h-3.07l5.66-7.14-5.45-6.85h3.24l3.8,5.05,3.96-5.05ZM444.61,616.47c.94,0,1.7.75,1.7,1.69s-.76,1.69-1.7,1.69-1.7-.75-1.7-1.69.76-1.69,1.7-1.69ZM443.4,622.59h2.43v13.99h-2.43v-13.99ZM460.9,633.88c-1.89,2.09-3.88,3.03-6.34,3.03-4.99,0-7.66-3.6-7.66-7.33,0-3.98,2.86-7.31,7.25-7.31s7.36,3.3,7.36,8.25h-12.03c.38,2.39,2.32,4.14,5.04,4.14,1.73,0,3.26-.81,4.5-2.26l1.86,1.48ZM458.77,628.53c-.24-2.31-2.13-4-4.64-4-2.97,0-4.4,2.09-4.64,4h9.28ZM450.43,617.09v-.21h3.26l2.18,3.55h-1.92l-3.53-3.33ZM473.77,796.96h3.67l-7.91,11.67,8.26,12.1h-3.74l-6.38-9.6-6.37,9.6h-3.74l8.26-12.1-7.91-11.67h3.67l6.09,9.2,6.09-9.2ZM479.67,797.3c1.1,0,1.98.88,1.98,1.97s-.88,1.97-1.98,1.97-1.98-.88-1.98-1.97.88-1.97,1.98-1.97ZM478.26,804.43h2.83v16.29h-2.83v-16.29ZM498.64,817.57c-2.2,2.44-4.52,3.53-7.38,3.53-5.81,0-8.92-4.19-8.92-8.54,0-4.63,3.33-8.51,8.45-8.51s8.57,3.85,8.57,9.6h-14.01c.44,2.78,2.7,4.82,5.87,4.82,2.01,0,3.8-.94,5.24-2.63l2.17,1.72ZM496.16,811.34c-.28-2.69-2.48-4.66-5.4-4.66-3.45,0-5.12,2.44-5.4,4.66h10.8ZM486.46,798.02v-.25h3.8l2.54,4.13h-2.23l-4.11-3.88ZM511.83,804.43h3.58l-6.34,7.98,6.59,8.32h-3.77l-4.68-6.07-4.87,6.07h-3.58l6.6-8.32-6.34-7.98h3.77l4.43,5.88,4.62-5.88ZM517.48,797.3c1.1,0,1.98.88,1.98,1.97s-.88,1.97-1.98,1.97-1.98-.88-1.98-1.97.88-1.97,1.98-1.97ZM516.06,804.43h2.83v16.29h-2.83v-16.29ZM536.44,817.57c-2.2,2.44-4.52,3.53-7.38,3.53-5.81,0-8.92-4.19-8.92-8.54,0-4.63,3.33-8.51,8.45-8.51s8.57,3.85,8.57,9.6h-14.01c.44,2.78,2.7,4.82,5.87,4.82,2.01,0,3.8-.94,5.24-2.63l2.17,1.72ZM533.96,811.34c-.28-2.69-2.48-4.66-5.4-4.66-3.45,0-5.12,2.44-5.4,4.66h10.8ZM524.26,798.02v-.25h3.8l2.54,4.13h-2.23l-4.11-3.88ZM943.36,294.08c-.92-6.36-4.61-10.25-10.36-10.25-7.67,0-9.72,5.02-9.72,8.69,0,4.03,2.56,6.57,7.88,8.55l6.81,2.54c8.59,3.18,12.56,8.2,12.56,14.7,0,8.69-6.95,14.98-17.31,14.98-9.79,0-16.75-5.16-17.6-15.9h6.81c.57,5.87,3.55,9.97,11.14,9.97,5.89,0,10.15-3.75,10.15-8.48,0-4.17-3.48-6.85-8.37-8.76l-6.88-2.69c-8.02-3.11-11.99-7.77-11.99-14.7,0-9.26,7.74-14.84,16.61-14.84s15.9,5.3,16.68,16.19h-6.39ZM977.2,311.05c0-5.51-2.27-10.32-8.59-10.32-5.96,0-9.58,4.03-9.58,11.02v20.71h-6.39v-53.71h6.39v21.2h.14c1.92-3.32,6.03-5.16,10.15-5.16,7.17,0,14.26,3.89,14.26,13.85v23.82h-6.39v-21.41ZM1012.25,328.15h-.14c-1.92,3.32-6.03,5.16-10.15,5.16-7.17,0-14.26-3.89-14.26-13.85v-23.82h6.39v21.41c0,5.51,2.27,10.32,8.59,10.32,5.96,0,9.58-4.03,9.58-11.03v-20.71h6.39v36.82h-6.39v-4.31ZM1045.17,295.64h8.37l-17.1,17.03,17.46,19.79h-8.94l-15.4-17.88v17.88h-6.39v-53.71h6.39v32.93l15.61-16.04ZM1054.32,295.64h6.39v5.23h.14c3.19-5.73,6.24-6.08,11.64-6.08v6.71c-.92-.21-1.92-.35-2.91-.35-5.32,0-8.87,3.67-8.87,10.39v20.92h-6.39v-36.82ZM1098.03,307.8c0-6.08-6.1-7.42-11.07-7.42-3.48,0-6.74.85-10.22,2.54l-2.77-5.3c5.61-2.33,10.01-2.83,13.34-2.83,8.87,0,17.1,3.75,17.1,12.51v25.16h-5.96v-3.96c-3.26,3.39-6.88,4.8-11.78,4.8-9.01,0-16.11-5.02-16.11-13.22,0-6.71,5.75-12.65,16.04-12.65,3.9,0,8.02,1.13,11.43,4.17v-3.82ZM1087.81,313.03c-7.81,0-10.43,3.75-10.43,7.35s2.62,7.35,10.43,7.35,10.43-3.75,10.43-7.35-2.63-7.35-10.43-7.35ZM1132.79,311.05c0-5.51-2.27-10.32-8.59-10.32-5.96,0-9.58,4.03-9.58,11.02v20.71h-6.39v-36.82h6.39v4.31h.14c1.92-3.32,6.03-5.16,10.15-5.16,7.17,0,14.26,3.89,14.26,13.85v23.82h-6.39v-21.41ZM346.52,321.77c-3.19,1.64-9.88,3.28-18.32,3.28-19.56,0-34.18-12.3-34.18-35.06s14.72-36.3,36.24-36.3c8.54,0,14.1,1.85,16.47,3.08l-2.26,7.28c-3.29-1.64-8.13-2.87-13.9-2.87-16.27,0-27.08,10.36-27.08,28.5,0,17.02,9.78,27.78,26.56,27.78,5.56,0,11.12-1.13,14.72-2.87l1.75,7.18ZM390.26,274.3v49.62h-9.06v-42.55h-23.16v42.55h-9.06v-49.62h41.28ZM431.74,312.03c0,4.31.21,8.51.72,11.89h-8.13l-.72-6.25h-.31c-2.78,3.9-8.13,7.38-15.24,7.38-10.09,0-15.24-7.07-15.24-14.25,0-12,10.71-18.56,29.96-18.46v-1.02c0-4-1.13-11.48-11.32-11.38-4.74,0-9.57,1.33-13.08,3.69l-2.06-6.05c4.12-2.56,10.19-4.31,16.47-4.31,15.24,0,18.94,10.36,18.94,20.2v18.56ZM422.99,298.6c-9.88-.2-21.1,1.54-21.1,11.18,0,5.95,3.91,8.61,8.44,8.61,6.59,0,10.81-4.1,12.25-8.31.31-1.02.41-2.05.41-2.87v-8.61ZM473.63,322.18c-2.37,1.13-7.62,2.87-14.31,2.87-15.03,0-24.81-10.15-24.81-25.32s10.5-26.45,26.77-26.45c5.35,0,10.09,1.33,12.56,2.66l-2.06,6.87c-2.16-1.13-5.56-2.36-10.5-2.36-11.43,0-17.6,8.51-17.6,18.76,0,11.48,7.41,18.56,17.3,18.56,5.15,0,8.54-1.23,11.12-2.36l1.54,6.77ZM484.33,274.3v20.92c0,7.79-.21,12.82-.62,19.89l.31.1c3.09-6.05,4.73-9.54,8.13-15.28l15.55-25.63h10.6v49.62h-8.65v-21.02c0-8.1.21-12.3.62-20.4h-.21c-3.29,6.46-5.35,10.46-8.34,15.48-4.74,7.69-10.29,17.22-15.55,25.94h-10.5v-49.62h8.65ZM562.46,257.48c-2.47.92-7.1,1.74-10.4,2.26-8.03,1.23-14,3.9-17.81,9.33-3.19,4.41-4.94,11.07-5.46,16.4h.31c3.29-7.28,10.3-11.18,17.4-11.18,12.25,0,21.21,8.71,21.21,24.5s-8.44,26.35-23.06,26.35c-17.5,0-23.27-16.81-23.27-33.32,0-11.28,2.37-20.61,7.72-27.48,4.74-6.97,11.63-10.05,21.41-11.69,4.12-.72,8.96-1.54,12.35-2.66l-.41,7.48ZM544.65,280.96c-5.35,0-9.16,2.77-11.32,6.77-1.65,2.97-2.47,6.56-2.47,10.56,0,8.2,4.12,20.1,14,20.1s13.69-9.74,13.69-18.97c0-8-3.19-18.45-13.9-18.45ZM617.21,298.7c0,18.35-12.87,26.35-24.81,26.35-13.38,0-23.88-9.84-23.88-25.53,0-16.51,11.02-26.25,24.71-26.25s23.99,10.36,23.99,25.43ZM577.79,299.21c0,10.87,6.18,19.07,15.03,19.07s15.13-8.1,15.13-19.27c0-8.41-4.22-18.97-14.93-18.97s-15.24,9.84-15.24,19.17ZM324.63,640.75v28.13l2.76.09-.28,10.77h-3.19l-.28-7.56h-19.9l-.28,7.56h-3.18l-.23-10.77,2.34-.09c1.17-2.15,2.34-4.43,3.09-6.9,1.08-3.64,1.5-7.84,1.5-13.25v-7.98h17.66ZM310.76,650.03c0,5.04-.47,9.28-1.59,12.83-.65,2.19-1.69,4.29-2.58,5.97h13.96v-24.72h-9.79v5.92ZM345.18,672.18h-4.07v-9.47h-3.04c-1.73,0-2.9.47-3.75,1.31-1.73,1.35-2.34,4.1-3.23,6.3-.28.7-.61,1.31-.94,1.87h-4.4c.51-.75.98-1.59,1.4-2.57.98-2.19,1.55-5.13,3.56-6.81.7-.61,1.55-1.07,2.58-1.31v-.09c-2.95-.33-5.99-2.15-5.99-5.64,0-2.33,1.27-3.92,3-4.9,1.87-1.12,4.64-1.54,7.63-1.54,2.67,0,5.29.19,7.26.47v22.39ZM341.11,652.31c-1.03-.14-1.97-.23-3.42-.23-2.76,0-6.14.79-6.14,3.92,0,2.89,3.61,3.96,6.04,3.96h3.51v-7.65ZM352.2,649.61v9.8h.98l8.48-9.8h5.01l-9.83,10.17c3.65.42,5.85,2.85,7.63,6.9.61,1.49,1.36,3.68,2.39,5.5h-4.31c-.61-.98-1.36-2.75-2.11-4.62-1.55-3.64-3.65-5.32-7.45-5.32h-.8v9.94h-4.08v-22.58h4.08ZM368.31,649.61l4.92,13.34c.56,1.49,1.12,3.26,1.5,4.62h.09c.42-1.35.89-3.08,1.45-4.71l4.5-13.25h4.36l-6.18,16.09c-2.95,7.74-4.96,11.66-7.77,14.13-2.06,1.73-4.03,2.43-5.06,2.61l-1.03-3.4c1.03-.33,2.39-.98,3.61-2.01,1.12-.89,2.48-2.47,3.47-4.57.19-.42.33-.75.33-.98s-.09-.56-.33-1.07l-8.34-20.8h4.5ZM389.06,649.61v9.52h3.89c.7-5.97,4.59-9.98,10.02-9.98,5.95,0,9.98,4.62,9.98,11.57,0,7.32-4.5,11.99-10.21,11.99s-9.41-4.01-9.88-10.45h-3.79v9.94h-4.03v-22.58h4.03ZM408.82,660.8c0-4.2-1.92-8.58-5.95-8.58s-6.09,4.24-6.09,8.82,2.01,8.63,6.04,8.63,5.99-4.57,5.99-8.86ZM473.75,41.1h5.5l-12.61,22.34v14.81h-4.71v-14.81l-12.61-22.34h5.5l9.47,17.4,9.47-17.4ZM485.72,52.19c8.05,0,13.84,6.16,13.84,13.34s-5.5,13.29-13.84,13.29-13.84-6.01-13.84-13.29,5.79-13.34,13.84-13.34ZM476.59,65.53c0,4.89,4.22,9.19,9.13,9.19s9.13-4.3,9.13-9.19c0-5.28-4.22-9.24-9.13-9.24s-9.13,3.96-9.13,9.24ZM517.97,75.26h-.1c-1.32,2.3-4.17,3.57-7.02,3.57-4.96,0-9.86-2.69-9.86-9.58v-16.47h4.42v14.81c0,3.81,1.57,7.14,5.94,7.14,4.12,0,6.63-2.79,6.63-7.62v-14.32h4.42v25.46h-4.42v-2.98ZM337.42,44.92h-9.32v-4.4h23.36v4.4h-9.32v32.75h-4.71v-32.75ZM369.91,62.86c0-3.81-1.57-7.14-5.94-7.14-4.12,0-6.63,2.79-6.63,7.63v14.32h-4.42v-37.15h4.42v14.66h.1c1.33-2.3,4.17-3.57,7.02-3.57,4.96,0,9.86,2.69,9.86,9.58v16.47h-4.42v-14.81ZM394.35,60.61c0-4.2-4.22-5.13-7.66-5.13-2.4,0-4.66.59-7.07,1.76l-1.91-3.67c3.88-1.61,6.92-1.95,9.23-1.95,6.13,0,11.83,2.59,11.83,8.65v17.4h-4.12v-2.74c-2.26,2.35-4.76,3.32-8.15,3.32-6.23,0-11.14-3.47-11.14-9.14,0-4.64,3.98-8.75,11.09-8.75,2.7,0,5.55.78,7.9,2.88v-2.64ZM387.28,64.22c-5.4,0-7.21,2.59-7.21,5.08s1.82,5.08,7.21,5.08,7.21-2.59,7.21-5.08-1.82-5.08-7.21-5.08ZM417.41,62.86c0-3.81-1.57-7.14-5.94-7.14-4.12,0-6.63,2.79-6.63,7.63v14.32h-4.42v-25.46h4.42v2.98h.1c1.32-2.3,4.17-3.57,7.02-3.57,4.96,0,9.86,2.69,9.86,9.58v16.47h-4.42v-14.81ZM439.2,52.2h5.79l-11.83,11.78,12.07,13.69h-6.18l-10.65-12.37v12.37h-4.42v-37.15h4.42v22.78l10.8-11.1ZM879.67,283.63h27.88l-63.98,113.3v75.12h-23.9v-75.12l-63.98-113.3h27.88l48.04,88.26,48.05-88.26ZM940.42,339.91c40.83,0,70.2,31.24,70.2,67.68s-27.88,67.44-70.2,67.44-70.2-30.5-70.2-67.44,29.38-67.68,70.2-67.68ZM894.11,407.59c0,24.79,21.41,46.61,46.3,46.61s46.3-21.82,46.3-46.61c0-26.78-21.41-46.86-46.3-46.86s-46.3,20.08-46.3,46.86ZM1103.97,456.93h-.5c-6.72,11.65-21.16,18.1-35.6,18.1-25.14,0-50.04-13.64-50.04-48.6v-83.55h22.4v75.12c0,19.34,7.97,36.2,30.12,36.2,20.91,0,33.61-14.13,33.61-38.68v-72.65h22.41v129.17h-22.41v-15.12ZM188.12,303.01h-47.3v-22.31h118.5v22.31h-47.3v166.11h-23.9v-166.11ZM352.92,394.01c0-19.34-7.97-36.2-30.12-36.2-20.91,0-33.61,14.13-33.61,38.68v72.64h-22.4v-188.43h22.4v74.38h.5c6.72-11.65,21.16-18.1,35.6-18.1,25.14,0,50.04,13.64,50.04,48.6v83.55h-22.41v-75.12ZM476.89,382.6c0-21.32-21.41-26.03-38.84-26.03-12.2,0-23.65,2.98-35.85,8.92l-9.71-18.6c19.67-8.18,35.1-9.92,46.8-9.92,31.12,0,59.99,13.14,59.99,43.89v88.26h-20.91v-13.88c-11.45,11.9-24.15,16.86-41.32,16.86-31.62,0-56.51-17.6-56.51-46.36,0-23.55,20.16-44.38,56.26-44.38,13.69,0,28.13,3.97,40.08,14.63v-13.39ZM441.04,400.95c-27.38,0-36.59,13.14-36.59,25.78s9.21,25.79,36.59,25.79,36.59-13.14,36.59-25.79-9.21-25.78-36.59-25.78ZM593.89,394.01c0-19.34-7.97-36.2-30.12-36.2-20.91,0-33.61,14.13-33.61,38.68v72.64h-22.4v-129.17h22.4v15.12h.5c6.72-11.65,21.16-18.1,35.6-18.1,25.14,0,50.04,13.64,50.04,48.6v83.55h-22.41v-75.12ZM704.42,339.96h29.38l-60,59.75,61.24,69.42h-31.37l-54.02-62.73v62.73h-22.41v-188.43h22.41v115.54l54.77-56.28ZM985.33,154.3h-15.3l-2.98,7.62h-4.54l13.36-32.72h3.63l13.36,32.72h-4.54l-2.98-7.62ZM977.68,134.62l-6.22,16.06h12.45l-6.22-16.06ZM996.4,155.37c.26,2.41,2.29,3.66,4.67,3.66,3.5,0,4.45-1.89,4.45-3.23,0-1.46-.95-2.37-3.98-3.19l-3.93-1.08c-3.33-.9-4.58-3.1-4.58-5.77,0-3.7,2.81-6.8,8.04-6.8,5.75,0,7.74,3.62,7.74,6.97h-3.63c-.3-2.54-1.6-3.79-4.19-3.79s-4.06,1.46-4.06,3.23c0,1.25.69,2.2,2.51,2.71l5.27,1.51c3.54,1.03,4.71,2.97,4.71,5.86,0,4.56-4.02,6.97-8.17,6.97-5.27,0-8.34-2.8-8.47-7.06h3.63ZM1027.48,146.89c0-3.7-3.72-4.52-6.74-4.52-2.12,0-4.11.52-6.22,1.55l-1.69-3.23c3.41-1.42,6.09-1.72,8.13-1.72,5.4,0,10.42,2.28,10.42,7.62v15.33h-3.63v-2.41c-1.99,2.07-4.19,2.93-7.18,2.93-5.49,0-9.81-3.06-9.81-8.05,0-4.09,3.5-7.71,9.77-7.71,2.38,0,4.88.69,6.96,2.54v-2.33ZM1021.25,150.08c-4.75,0-6.35,2.28-6.35,4.48s1.6,4.48,6.35,4.48,6.35-2.28,6.35-4.48-1.6-4.48-6.35-4.48ZM1048.65,148.87c0-3.36-1.38-6.29-5.23-6.29-3.63,0-5.84,2.45-5.84,6.72v12.61h-3.89v-22.43h3.89v2.63h.09c1.17-2.02,3.67-3.14,6.18-3.14,4.37,0,8.69,2.37,8.69,8.44v14.51h-3.89v-13.04ZM1056.87,134.06h3.89v5.42h3.59v3.4h-3.59v13.78c0,1.21.39,1.64,1.9,1.64h1.77v3.57c-.56.04-1.47.04-2.38.04-3.98,0-5.19-1.38-5.19-4.82v-14.21h-3.11v-3.4h3.11v-5.42ZM1086.65,157.57c-3.03,3.36-6.22,4.87-10.16,4.87-8,0-12.28-5.77-12.28-11.75,0-6.37,4.58-11.71,11.63-11.71s11.8,5.3,11.8,13.22h-19.28c.6,3.83,3.72,6.63,8.08,6.63,2.77,0,5.23-1.29,7.22-3.62l2.98,2.37ZM1083.23,149c-.39-3.7-3.42-6.41-7.44-6.41-4.75,0-7.05,3.36-7.44,6.41h14.87ZM623.26,124.95h48.03c35.74,0,70.13,30.43,70.13,72.14s-33.24,73.29-74.74,73.29h-43.42V124.95ZM666.49,253.15c32.66,0,55.33-24.87,55.33-57.02s-24.98-53.96-56.87-53.96h-23.25v110.98h24.78ZM816.16,203.6c0-16.46-16.52-20.09-29.97-20.09-9.41,0-18.25,2.3-27.67,6.89l-7.49-14.35c15.18-6.32,27.09-7.65,36.12-7.65,24.02,0,46.3,10.14,46.3,33.87v68.12h-16.14v-10.72c-8.84,9.18-18.64,13.01-31.89,13.01-24.4,0-43.61-13.59-43.61-35.78,0-18.18,15.56-34.25,43.42-34.25,10.57,0,21.71,3.06,30.93,11.29v-10.33ZM788.49,217.75c-21.13,0-28.24,10.14-28.24,19.9s7.11,19.9,28.24,19.9,28.24-10.14,28.24-19.9-7.11-19.9-28.24-19.9ZM910.3,212.4c0-14.92-6.15-27.93-23.25-27.93-16.14,0-25.94,10.9-25.94,29.85v56.06h-17.29v-99.69h17.29v11.67h.38c5.19-9,16.33-13.97,27.47-13.97,19.4,0,38.62,10.52,38.62,37.5v64.48h-17.29v-57.98ZM999.45,170.69h22.67l-46.3,46.11,47.26,53.58h-24.21l-41.69-48.41v48.41h-17.29V124.95h17.29v89.17l42.27-43.43ZM1118.19,251.05c-13.45,14.92-27.67,21.62-45.15,21.62-35.54,0-54.56-25.64-54.56-52.24,0-28.32,20.37-52.05,51.68-52.05s52.45,23.53,52.45,58.74h-85.69c2.69,17.03,16.52,29.47,35.93,29.47,12.3,0,23.25-5.74,32.09-16.07l13.26,10.53ZM1103.01,212.97c-1.73-16.46-15.18-28.51-33.05-28.51-21.13,0-31.32,14.92-33.05,28.51h66.09ZM630.03,646.16h12.16c9.05,0,17.75,7.7,17.75,18.26s-8.41,18.55-18.92,18.55h-10.99v-36.82ZM640.98,678.62c8.27,0,14.01-6.3,14.01-14.44s-6.32-13.66-14.4-13.66h-5.89v28.1h6.27ZM678.87,666.07c0-4.17-4.18-5.09-7.59-5.09-2.38,0-4.62.58-7,1.74l-1.9-3.63c3.84-1.6,6.86-1.94,9.14-1.94,6.08,0,11.72,2.57,11.72,8.57v17.25h-4.09v-2.71c-2.24,2.33-4.72,3.29-8.07,3.29-6.18,0-11.04-3.44-11.04-9.06,0-4.6,3.94-8.67,10.99-8.67,2.67,0,5.5.78,7.83,2.86v-2.62ZM671.87,669.65c-5.35,0-7.15,2.57-7.15,5.04s1.8,5.04,7.15,5.04,7.15-2.57,7.15-5.04-1.8-5.04-7.15-5.04ZM702.71,668.3c0-3.78-1.56-7.07-5.89-7.07-4.09,0-6.57,2.76-6.57,7.56v14.19h-4.38v-25.24h4.38v2.95h.1c1.31-2.28,4.13-3.54,6.96-3.54,4.91,0,9.78,2.66,9.78,9.49v16.33h-4.38v-14.68ZM725.28,657.74h5.74l-11.72,11.67,11.97,13.56h-6.13l-10.56-12.26v12.26h-4.38v-36.82h4.38v22.58l10.7-11ZM755.34,678.08c-3.4,3.78-7,5.47-11.43,5.47-9,0-13.81-6.49-13.81-13.22,0-7.17,5.16-13.18,13.08-13.18s13.28,5.96,13.28,14.87h-21.69c.68,4.31,4.18,7.46,9.1,7.46,3.11,0,5.89-1.45,8.12-4.07l3.36,2.66ZM751.5,668.44c-.44-4.17-3.84-7.22-8.37-7.22-5.35,0-7.93,3.78-8.37,7.22h16.73ZM228.54,558.68h1.72v13.55h-1.72v-10.04h-.04l-5.49,10.18-5.49-10.18h-.04v10.04h-1.72v-13.55h1.72l5.53,10.23,5.53-10.23ZM240.28,570.43c-1.25,1.39-2.58,2.01-4.21,2.01-3.31,0-5.08-2.39-5.08-4.87,0-2.64,1.9-4.85,4.81-4.85s4.89,2.19,4.89,5.47h-7.98c.25,1.59,1.54,2.75,3.35,2.75,1.15,0,2.17-.53,2.99-1.5l1.24.98ZM238.86,566.88c-.16-1.53-1.41-2.66-3.08-2.66-1.97,0-2.92,1.39-3.08,2.66h6.16ZM241.37,562.94h1.61v1.32h.04c.81-1.44,1.57-1.53,2.94-1.53v1.69c-.23-.05-.48-.09-.73-.09-1.34,0-2.24.93-2.24,2.62v5.28h-1.61v-9.29ZM252.66,565.15c-.64-.62-1.36-.93-2.17-.93-1.59,0-3.08,1.16-3.08,3.44,0,1.89,1.38,3.28,3.24,3.28.77,0,1.52-.43,2.08-.94l.95,1.18c-.84.86-2.02,1.27-3.22,1.27-2.86,0-4.76-2.26-4.76-4.83s2.09-4.88,4.78-4.88c1.41,0,2.61.59,3.27,1.16l-1.09,1.27ZM254.9,558.88c.63,0,1.13.5,1.13,1.12s-.5,1.12-1.13,1.12-1.13-.5-1.13-1.12.5-1.12,1.13-1.12ZM254.09,562.94h1.61v9.29h-1.61v-9.29ZM680.69,93.69h-7.39v-3.49h18.51v3.49h-7.39v25.95h-3.73v-25.95ZM705.81,106.12c0-3.33-3.34-4.07-6.07-4.07-1.91,0-3.69.46-5.6,1.39l-1.52-2.9c3.07-1.28,5.48-1.55,7.31-1.55,4.86,0,9.37,2.05,9.37,6.85v13.79h-3.27v-2.17c-1.79,1.86-3.77,2.63-6.46,2.63-4.94,0-8.83-2.75-8.83-7.24,0-3.68,3.15-6.93,8.79-6.93,2.14,0,4.39.62,6.26,2.29v-2.09ZM700.21,108.99c-4.28,0-5.72,2.05-5.72,4.03s1.44,4.03,5.72,4.03,5.72-2.05,5.72-4.03-1.44-4.03-5.72-4.03ZM725.6,104.26c-1.4-1.36-2.96-2.01-4.71-2.01-3.46,0-6.69,2.52-6.69,7.47,0,4.11,2.99,7.13,7.04,7.13,1.67,0,3.31-.93,4.51-2.05l2.06,2.56c-1.83,1.86-4.39,2.75-7,2.75-6.22,0-10.34-4.92-10.34-10.5s4.55-10.61,10.38-10.61c3.07,0,5.68,1.28,7.12,2.52l-2.37,2.75ZM740.76,99.46h4.59l-9.37,9.33,9.57,10.84h-4.9l-8.44-9.8v9.8h-3.5v-29.43h3.5v18.05l8.56-8.79ZM661.44,300.59h10.01c7.45,0,14.62,6.34,14.62,15.04s-6.93,15.28-15.58,15.28h-9.05v-30.32ZM670.45,327.32c6.81,0,11.54-5.19,11.54-11.89s-5.21-11.25-11.86-11.25h-4.85v23.14h5.17ZM689.67,301.03c1.4,0,2.52,1.12,2.52,2.51s-1.12,2.51-2.52,2.51-2.52-1.12-2.52-2.51,1.12-2.51,2.52-2.51ZM687.87,310.13h3.6v20.78h-3.6v-20.78ZM704.97,309.65c6.57,0,11.29,5.03,11.29,10.89s-4.49,10.85-11.29,10.85-11.29-4.91-11.29-10.85,4.73-10.89,11.29-10.89ZM697.52,320.54c0,3.99,3.44,7.5,7.45,7.5s7.45-3.51,7.45-7.5c0-4.31-3.44-7.54-7.45-7.54s-7.45,3.23-7.45,7.54ZM721.59,300.59v23.81c0,2.35,1.16,3.15,2.32,3.15h1.08v3.35h-1.48c-3.32,0-5.53-1.88-5.53-6.22v-24.09h3.6ZM739.25,315.07c-1.44-1.4-3.04-2.07-4.85-2.07-3.56,0-6.89,2.59-6.89,7.7,0,4.23,3.08,7.34,7.25,7.34,1.72,0,3.4-.96,4.65-2.11l2.12,2.63c-1.88,1.91-4.53,2.83-7.21,2.83-6.41,0-10.65-5.07-10.65-10.81s4.69-10.93,10.69-10.93c3.16,0,5.85,1.32,7.33,2.59l-2.44,2.83ZM756.07,318.82c0-3.11-1.28-5.82-4.85-5.82-3.36,0-5.41,2.27-5.41,6.22v11.69h-3.6v-30.32h3.6v11.97h.08c1.08-1.87,3.4-2.91,5.73-2.91,4.04,0,8.05,2.19,8.05,7.82v13.44h-3.6v-12.09ZM549.64,639.55v-7.97c0-5.93,5.09-11.63,12.06-11.63s12.25,5.51,12.25,12.4v7.2h-24.32ZM571.07,632.38c0-5.42-4.16-9.18-9.53-9.18s-9.02,4.14-9.02,9.43v3.86h18.56v-4.11ZM562.79,607.56c-2.75,0-3.36,2.74-3.36,4.97,0,1.56.38,3.03,1.15,4.59l-2.4,1.24c-1.06-2.52-1.28-4.49-1.28-5.99,0-3.98,1.7-7.68,5.66-7.68h11.39v2.68h-1.79c1.54,1.47,2.18,3.09,2.18,5.29,0,4.05-2.27,7.23-5.98,7.23-3.04,0-5.73-2.58-5.73-7.2,0-1.75.51-3.6,1.89-5.13h-1.73ZM565.15,612.15c0,3.51,1.7,4.68,3.33,4.68s3.33-1.18,3.33-4.68-1.7-4.68-3.33-4.68-3.33,1.18-3.33,4.68ZM564.26,591.95c-2.5,0-4.67,1.02-4.67,3.86,0,2.68,1.82,4.3,4.99,4.3h9.37v2.87h-16.67v-2.87h1.95v-.06c-1.5-.86-2.34-2.71-2.34-4.56,0-3.22,1.76-6.4,6.27-6.4h10.78v2.87h-9.69ZM557.28,577.17v-3.76l7.71,7.68,8.96-7.84v4.01l-8.09,6.92h8.09v2.87h-24.32v-2.87h14.91l-7.26-7.01ZM572,556.49v.06c1.5.86,2.34,2.71,2.34,4.56,0,3.22-1.76,6.41-6.27,6.41h-10.78v-2.87h9.69c2.5,0,4.67-1.02,4.67-3.86,0-2.68-1.82-4.3-4.99-4.3h-9.37v-2.87h16.67v2.87h-1.95ZM739.56,365.44c-.24-1.65-1.2-2.66-2.69-2.66-1.99,0-2.53,1.3-2.53,2.26,0,1.05.66,1.71,2.05,2.22l1.77.66c2.23.83,3.27,2.13,3.27,3.82,0,2.26-1.81,3.89-4.5,3.89-2.55,0-4.35-1.34-4.58-4.13h1.77c.15,1.52.92,2.59,2.9,2.59,1.53,0,2.64-.97,2.64-2.2,0-1.08-.9-1.78-2.18-2.28l-1.79-.7c-2.08-.81-3.12-2.02-3.12-3.82,0-2.41,2.01-3.86,4.32-3.86s4.13,1.38,4.34,4.21h-1.66ZM748.36,369.85c0-1.43-.59-2.68-2.23-2.68-1.55,0-2.49,1.05-2.49,2.87v5.38h-1.66v-13.96h1.66v5.51h.04c.5-.86,1.57-1.34,2.64-1.34,1.86,0,3.71,1.01,3.71,3.6v6.19h-1.66v-5.57ZM757.47,374.29h-.04c-.5.86-1.57,1.34-2.64,1.34-1.86,0-3.71-1.01-3.71-3.6v-6.19h1.66v5.57c0,1.43.59,2.68,2.23,2.68,1.55,0,2.49-1.05,2.49-2.87v-5.38h1.66v9.57h-1.66v-1.12ZM766.03,365.84h2.18l-4.45,4.43,4.54,5.14h-2.32l-4-4.65v4.65h-1.66v-13.96h1.66v8.56l4.06-4.17ZM768.41,365.84h1.66v1.36h.04c.83-1.49,1.62-1.58,3.03-1.58v1.75c-.24-.06-.5-.09-.76-.09-1.38,0-2.31.96-2.31,2.7v5.44h-1.66v-9.57ZM779.77,369c0-1.58-1.59-1.93-2.88-1.93-.9,0-1.75.22-2.66.66l-.72-1.38c1.46-.61,2.6-.73,3.47-.73,2.31,0,4.45.97,4.45,3.25v6.54h-1.55v-1.03c-.85.88-1.79,1.25-3.06,1.25-2.34,0-4.19-1.3-4.19-3.44,0-1.75,1.49-3.29,4.17-3.29,1.01,0,2.08.29,2.97,1.08v-.99ZM777.11,370.36c-2.03,0-2.71.97-2.71,1.91s.68,1.91,2.71,1.91,2.71-.97,2.71-1.91-.68-1.91-2.71-1.91ZM788.81,369.85c0-1.43-.59-2.68-2.23-2.68-1.55,0-2.49,1.05-2.49,2.87v5.38h-1.66v-9.57h1.66v1.12h.04c.5-.86,1.57-1.34,2.64-1.34,1.86,0,3.71,1.01,3.71,3.6v6.19h-1.66v-5.57ZM701.68,68.94v1.4h-5.61v3.47c.4-.06,1.18-.1,1.6-.1,1.23,0,2.45.27,3.35.86.98.63,1.66,1.65,1.66,3.15,0,1.23-.42,2.15-1.08,2.82-1.06,1.04-2.81,1.44-4.59,1.44-1.18,0-2.06-.08-2.62-.15v-12.9h7.29ZM696.07,80.6c.39.08.83.1,1.41.1,1.04,0,2.1-.33,2.74-1,.44-.46.71-1.09.71-1.9,0-1-.42-1.67-1.06-2.11-.66-.46-1.54-.65-2.47-.65-.37,0-.91.04-1.33.08v5.49ZM710.33,72.59v9.29h-1.7v-7.97h-3.2v2.38c0,2.61-.25,4.36-1.46,5.14-.46.36-.98.58-1.85.58l-.17-1.32c.33-.06.69-.19.93-.38.87-.63.96-1.94.96-4.01v-3.7h6.49ZM718.1,79.65c0,.81.04,1.59.14,2.23h-1.52l-.13-1.17h-.06c-.52.73-1.52,1.38-2.85,1.38-1.89,0-2.85-1.32-2.85-2.67,0-2.25,2-3.47,5.61-3.46v-.19c0-.75-.21-2.15-2.12-2.13-.89,0-1.79.25-2.45.69l-.39-1.13c.77-.48,1.91-.81,3.08-.81,2.85,0,3.55,1.94,3.55,3.78v3.47ZM716.46,77.14c-1.85-.04-3.95.29-3.95,2.09,0,1.11.73,1.61,1.58,1.61,1.23,0,2.02-.77,2.29-1.55.06-.19.08-.38.08-.54v-1.61ZM724.98,72.59v1.34h-4.05v7.95h-1.68v-9.29h5.72ZM733.61,77.16c0,3.44-2.41,4.93-4.64,4.93-2.51,0-4.47-1.84-4.47-4.78,0-3.09,2.06-4.91,4.63-4.91s4.49,1.94,4.49,4.76ZM726.23,77.26c0,2.03,1.16,3.57,2.81,3.57s2.83-1.52,2.83-3.61c0-1.57-.79-3.55-2.79-3.55s-2.85,1.84-2.85,3.59ZM741.43,72.59v8.02l.96.02-.1,4.18h-1.33l-.08-2.94h-6.46l-.1,2.94h-1.31l-.08-4.17.79-.04c.4-.59.71-1.23.93-1.9.37-1.15.54-2.4.54-3.7v-2.42h6.23ZM736.69,75.39c0,1.25-.15,2.44-.48,3.47-.19.63-.44,1.21-.73,1.73h4.3v-6.72h-3.08v1.52ZM749.43,79.65c0,.81.04,1.59.13,2.23h-1.52l-.13-1.17h-.06c-.52.73-1.52,1.38-2.85,1.38-1.89,0-2.85-1.32-2.85-2.67,0-2.25,2-3.47,5.61-3.46v-.19c0-.75-.21-2.15-2.12-2.13-.89,0-1.79.25-2.45.69l-.39-1.13c.77-.48,1.91-.81,3.08-.81,2.85,0,3.55,1.94,3.55,3.78v3.47ZM747.79,77.14c-1.85-.04-3.95.29-3.95,2.09,0,1.11.73,1.61,1.58,1.61,1.23,0,2.02-.77,2.29-1.55.06-.19.08-.38.08-.54v-1.61ZM750.62,75.62c0-1.19-.04-2.15-.08-3.03h1.5l.1,1.59h.04c.67-1.13,1.79-1.79,3.31-1.79,2.27,0,3.97,1.9,3.97,4.7,0,3.34-2.06,4.99-4.26,4.99-1.23,0-2.31-.54-2.87-1.46h-.04v5.05h-1.68v-10.06ZM752.3,78.1c0,.25.02.48.08.69.31,1.17,1.33,1.98,2.54,1.98,1.79,0,2.83-1.46,2.83-3.59,0-1.84-.98-3.44-2.78-3.44-1.16,0-2.26.81-2.56,2.07-.06.21-.12.46-.12.67v1.61ZM766.85,81.88h-1.68v-3.9h-1.25c-.71,0-1.19.19-1.54.54-.71.56-.96,1.69-1.33,2.59-.12.29-.25.54-.39.77h-1.81c.21-.31.4-.65.58-1.06.4-.9.64-2.11,1.46-2.8.29-.25.64-.44,1.06-.54v-.04c-1.21-.13-2.47-.88-2.47-2.32,0-.96.52-1.61,1.23-2.02.77-.46,1.91-.63,3.14-.63,1.1,0,2.18.08,2.99.19v9.21ZM765.17,73.7c-.42-.06-.81-.1-1.41-.1-1.14,0-2.52.33-2.52,1.61,0,1.19,1.48,1.63,2.49,1.63h1.45v-3.15ZM751.83,428.9v18.28l1.8.06-.18,7h-2.07l-.18-4.91h-12.94l-.18,4.91h-2.07l-.15-7,1.52-.06c.76-1.39,1.52-2.88,2.01-4.49.7-2.36.97-5.09.97-8.61v-5.18h11.48ZM742.82,434.93c0,3.27-.3,6.03-1.04,8.34-.43,1.43-1.1,2.79-1.67,3.88h9.07v-16.07h-6.36v3.85ZM765.19,449.33h-2.65v-6.16h-1.98c-1.13,0-1.89.3-2.44.85-1.13.88-1.52,2.67-2.1,4.09-.18.45-.4.85-.61,1.21h-2.86c.33-.49.64-1.03.91-1.67.64-1.42,1-3.34,2.31-4.43.46-.39,1-.7,1.67-.85v-.06c-1.92-.21-3.9-1.39-3.9-3.67,0-1.52.82-2.55,1.95-3.18,1.22-.73,3.01-1,4.96-1,1.74,0,3.44.12,4.72.3v14.55ZM762.55,436.42c-.67-.09-1.28-.15-2.22-.15-1.8,0-3.99.52-3.99,2.55,0,1.88,2.34,2.58,3.93,2.58h2.28v-4.97ZM769.76,434.66v6.37h.64l5.51-6.37h3.26l-6.39,6.61c2.37.27,3.81,1.85,4.96,4.49.4.97.88,2.4,1.55,3.58h-2.8c-.4-.64-.88-1.79-1.37-3-1-2.36-2.37-3.46-4.84-3.46h-.52v6.46h-2.65v-14.68h2.65ZM780.23,434.66l3.2,8.67c.37.97.73,2.12.97,3h.06c.27-.88.58-2,.94-3.06l2.92-8.61h2.83l-4.02,10.46c-1.92,5.03-3.23,7.58-5.05,9.19-1.34,1.12-2.62,1.58-3.29,1.7l-.67-2.21c.67-.21,1.55-.64,2.34-1.3.73-.58,1.61-1.61,2.25-2.97.12-.27.21-.49.21-.64s-.06-.36-.21-.7l-5.42-13.52h2.92ZM793.71,434.66v6.19h2.53c.46-3.88,2.98-6.49,6.51-6.49,3.87,0,6.49,3,6.49,7.52,0,4.76-2.92,7.79-6.64,7.79s-6.12-2.61-6.42-6.79h-2.47v6.46h-2.62v-14.68h2.62ZM806.56,441.94c0-2.73-1.25-5.58-3.87-5.58s-3.96,2.76-3.96,5.73,1.31,5.61,3.93,5.61,3.9-2.97,3.9-5.76ZM560.73,505.37h-7.36l-1.44,3.67h-2.18l6.43-15.74h1.75l6.43,15.74h-2.18l-1.44-3.67ZM557.05,495.9l-3,7.73h5.99l-3-7.73ZM566.05,505.89c.12,1.16,1.1,1.76,2.25,1.76,1.68,0,2.14-.91,2.14-1.55,0-.7-.46-1.14-1.91-1.53l-1.89-.52c-1.6-.44-2.21-1.49-2.21-2.78,0-1.78,1.35-3.27,3.87-3.27,2.77,0,3.72,1.74,3.72,3.36h-1.75c-.15-1.22-.77-1.82-2.02-1.82s-1.96.7-1.96,1.55c0,.6.33,1.06,1.21,1.31l2.54.72c1.71.5,2.27,1.43,2.27,2.82,0,2.2-1.93,3.36-3.93,3.36-2.54,0-4.01-1.35-4.08-3.4h1.75ZM581.01,501.81c0-1.78-1.79-2.18-3.24-2.18-1.02,0-1.98.25-2.99.75l-.81-1.55c1.64-.68,2.93-.83,3.91-.83,2.6,0,5.01,1.1,5.01,3.67v7.37h-1.75v-1.16c-.96.99-2.02,1.41-3.45,1.41-2.64,0-4.72-1.47-4.72-3.87,0-1.97,1.68-3.71,4.7-3.71,1.14,0,2.35.33,3.35,1.22v-1.12ZM578.01,503.34c-2.29,0-3.06,1.1-3.06,2.15s.77,2.15,3.06,2.15,3.06-1.1,3.06-2.15-.77-2.15-3.06-2.15ZM591.2,502.76c0-1.62-.67-3.02-2.52-3.02-1.75,0-2.81,1.18-2.81,3.23v6.07h-1.87v-10.79h1.87v1.26h.04c.56-.97,1.77-1.51,2.97-1.51,2.1,0,4.18,1.14,4.18,4.06v6.98h-1.87v-6.28ZM595.15,495.63h1.87v2.61h1.73v1.64h-1.73v6.63c0,.58.19.79.92.79h.85v1.72c-.27.02-.71.02-1.14.02-1.91,0-2.5-.66-2.5-2.32v-6.84h-1.5v-1.64h1.5v-2.61ZM609.48,506.94c-1.46,1.62-2.99,2.34-4.89,2.34-3.85,0-5.91-2.78-5.91-5.66,0-3.07,2.2-5.63,5.6-5.63s5.68,2.55,5.68,6.36h-9.28c.29,1.84,1.79,3.19,3.89,3.19,1.33,0,2.52-.62,3.47-1.74l1.44,1.14ZM607.84,502.82c-.19-1.78-1.64-3.09-3.58-3.09-2.29,0-3.39,1.62-3.58,3.09h7.16ZM200.72,495.03h-11.27l-2.2,5.61h-3.34l9.84-24.1h2.67l9.84,24.1h-3.34l-2.2-5.61ZM195.08,480.54l-4.58,11.83h9.17l-4.58-11.83ZM206.7,484.12h2.87v2.35h.06c1.43-2.57,2.8-2.73,5.22-2.73v3.01c-.41-.1-.86-.16-1.3-.16-2.39,0-3.98,1.65-3.98,4.66v9.39h-2.87v-16.52ZM216.8,476.9c1.11,0,2.01.89,2.01,2s-.89,2-2.01,2-2.01-.89-2.01-2,.89-2,2.01-2ZM215.36,484.12h2.87v16.52h-2.87v-16.52ZM234.37,484.12h2.87v14.24c0,6.09-2.93,9.26-9.36,9.26-2.93,0-5.51-1.08-7.74-3.55l2.29-1.81c1.75,2.19,3.79,2.85,5.51,2.85,4.46,0,6.43-2.22,6.43-5.9v-1.17h-.06c-1.56,1.87-3.18,2.79-6.4,2.79-5.57,0-8.53-4.76-8.53-8.59,0-4.79,3.95-8.5,8.63-8.5,2.45,0,4.93,1.01,6.3,2.98h.06v-2.6ZM228.51,486.41c-3.88,0-6.08,3.08-6.08,5.83,0,3.8,2.99,6.09,5.98,6.09,3.28,0,5.95-2.63,5.95-5.93s-2.74-5.99-5.86-5.99ZM250.64,489.58c0-2.73-2.74-3.33-4.97-3.33-1.56,0-3.02.38-4.58,1.14l-1.24-2.38c2.52-1.05,4.49-1.27,5.99-1.27,3.98,0,7.67,1.68,7.67,5.61v11.29h-2.67v-1.78c-1.46,1.52-3.09,2.16-5.29,2.16-4.04,0-7.23-2.25-7.23-5.93,0-3.01,2.58-5.68,7.2-5.68,1.75,0,3.6.51,5.13,1.87v-1.71ZM246.06,491.93c-3.5,0-4.68,1.68-4.68,3.3s1.18,3.3,4.68,3.3,4.68-1.68,4.68-3.3-1.18-3.3-4.68-3.3ZM255.93,480.13h2.87v4h2.64v2.5h-2.64v10.15c0,.89.29,1.21,1.4,1.21h1.31v2.63c-.41.03-1.08.03-1.75.03-2.93,0-3.82-1.01-3.82-3.55v-10.46h-2.29v-2.5h2.29v-4ZM270.8,483.74c5.22,0,8.98,4,8.98,8.66s-3.57,8.62-8.98,8.62-8.98-3.9-8.98-8.62,3.76-8.66,8.98-8.66ZM264.87,492.4c0,3.17,2.74,5.96,5.92,5.96s5.92-2.79,5.92-5.96c0-3.42-2.74-5.99-5.92-5.99s-5.92,2.57-5.92,5.99ZM752.11,461c-.84-.76-1.92-1.21-3.06-1.21-2.48,0-4.7,1.97-4.7,4.69s2.28,4.69,4.7,4.69c1.31,0,2.34-.48,3.17-1.26l.95,1.07c-1.06.96-2.62,1.59-4.12,1.59-4.03,0-6.29-3.17-6.29-6.09s2.26-6.09,6.29-6.09c1.58,0,3.12.64,4.07,1.51l-1.01,1.1ZM759.4,465.68c0-1.21-.5-2.27-1.89-2.27-1.31,0-2.11.89-2.11,2.42v4.55h-1.4v-11.81h1.4v4.66h.03c.42-.73,1.33-1.13,2.23-1.13,1.58,0,3.14.85,3.14,3.05v5.24h-1.4v-4.71ZM765.97,462.1c2.56,0,4.4,1.96,4.4,4.24s-1.75,4.23-4.4,4.23-4.4-1.91-4.4-4.23,1.84-4.24,4.4-4.24ZM763.07,466.34c0,1.55,1.34,2.92,2.9,2.92s2.9-1.37,2.9-2.92c0-1.68-1.34-2.94-2.9-2.94s-2.9,1.26-2.9,2.94ZM776.38,462.29h1.84l-3.76,3.75,3.84,4.35h-1.97l-3.39-3.93v3.93h-1.4v-11.81h1.4v7.24l3.43-3.53ZM779.02,462.29h1.4v1.15h.03c.7-1.26,1.37-1.34,2.56-1.34v1.48c-.2-.05-.42-.08-.64-.08-1.17,0-1.95.81-1.95,2.28v4.6h-1.4v-8.1ZM788.95,464.96c0-1.34-1.34-1.63-2.43-1.63-.76,0-1.48.19-2.25.56l-.61-1.17c1.23-.51,2.2-.62,2.93-.62,1.95,0,3.76.82,3.76,2.75v5.53h-1.31v-.87c-.72.75-1.51,1.06-2.59,1.06-1.98,0-3.54-1.1-3.54-2.91,0-1.48,1.26-2.78,3.53-2.78.86,0,1.76.25,2.51.92v-.84ZM786.7,466.11c-1.72,0-2.29.82-2.29,1.62s.58,1.62,2.29,1.62,2.29-.82,2.29-1.62-.58-1.62-2.29-1.62ZM796.91,465.68c0-1.21-.5-2.27-1.89-2.27-1.31,0-2.11.89-2.11,2.42v4.55h-1.4v-8.1h1.4v.95h.03c.42-.73,1.33-1.13,2.23-1.13,1.58,0,3.14.85,3.14,3.05v5.24h-1.4v-4.71ZM807.26,468.82c-1.09,1.21-2.25,1.76-3.67,1.76-2.89,0-4.43-2.08-4.43-4.24,0-2.3,1.65-4.23,4.2-4.23s4.26,1.91,4.26,4.77h-6.96c.22,1.38,1.34,2.39,2.92,2.39,1,0,1.89-.47,2.61-1.3l1.08.85ZM806.02,465.72c-.14-1.34-1.23-2.32-2.68-2.32-1.72,0-2.54,1.21-2.68,2.32h5.37ZM1047.96,489.06c-1.01-.91-2.3-1.45-3.66-1.45-2.97,0-5.63,2.36-5.63,5.62s2.73,5.62,5.63,5.62c1.57,0,2.8-.58,3.79-1.51l1.14,1.28c-1.27,1.15-3.14,1.9-4.93,1.9-4.82,0-7.53-3.8-7.53-7.3s2.71-7.3,7.53-7.3c1.89,0,3.74.76,4.88,1.81l-1.21,1.32ZM1056.7,494.66c0-1.45-.6-2.72-2.26-2.72-1.57,0-2.52,1.06-2.52,2.9v5.45h-1.68v-14.15h1.68v5.58h.04c.5-.87,1.59-1.36,2.67-1.36,1.89,0,3.76,1.02,3.76,3.65v6.27h-1.68v-5.64ZM1064.57,490.38c3.07,0,5.27,2.35,5.27,5.08s-2.09,5.06-5.27,5.06-5.27-2.29-5.27-5.06,2.21-5.08,5.27-5.08ZM1061.09,495.46c0,1.86,1.61,3.5,3.48,3.5s3.48-1.64,3.48-3.5c0-2.01-1.61-3.52-3.48-3.52s-3.48,1.51-3.48,3.52ZM1077.04,490.6h2.21l-4.5,4.49,4.6,5.21h-2.36l-4.06-4.71v4.71h-1.68v-14.15h1.68v8.68l4.11-4.23ZM1080.2,490.6h1.68v1.38h.04c.84-1.51,1.65-1.6,3.07-1.6v1.77c-.24-.06-.5-.09-.77-.09-1.4,0-2.34.97-2.34,2.74v5.51h-1.68v-9.7ZM1092.09,493.8c0-1.6-1.61-1.96-2.92-1.96-.92,0-1.78.22-2.69.67l-.73-1.4c1.48-.62,2.64-.74,3.51-.74,2.34,0,4.5.99,4.5,3.29v6.63h-1.57v-1.04c-.86.89-1.81,1.27-3.1,1.27-2.37,0-4.24-1.32-4.24-3.48,0-1.77,1.51-3.33,4.23-3.33,1.03,0,2.11.3,3.01,1.1v-1ZM1089.4,495.18c-2.06,0-2.75.99-2.75,1.94s.69,1.94,2.75,1.94,2.75-.99,2.75-1.94-.69-1.94-2.75-1.94ZM1101.63,494.66c0-1.45-.6-2.72-2.26-2.72-1.57,0-2.52,1.06-2.52,2.9v5.45h-1.68v-9.7h1.68v1.14h.04c.51-.87,1.59-1.36,2.67-1.36,1.89,0,3.76,1.02,3.76,3.65v6.27h-1.68v-5.64ZM1114.03,498.42c-1.31,1.45-2.69,2.1-4.39,2.1-3.46,0-5.31-2.49-5.31-5.08,0-2.75,1.98-5.06,5.03-5.06s5.1,2.29,5.1,5.71h-8.34c.26,1.66,1.61,2.87,3.5,2.87,1.2,0,2.26-.56,3.12-1.56l1.29,1.02ZM1112.55,494.72c-.17-1.6-1.48-2.77-3.21-2.77-2.06,0-3.05,1.45-3.21,2.77h6.43ZM859.25,644.57h10.96c8.15,0,16,6.95,16,16.46s-7.58,16.72-17.05,16.72h-9.91v-33.19ZM869.11,673.83c7.45,0,12.63-5.68,12.63-13.01s-5.7-12.31-12.98-12.31h-5.3v25.33h5.66ZM903.25,662.52c0-3.76-3.77-4.59-6.84-4.59-2.15,0-4.16.53-6.32,1.57l-1.71-3.28c3.47-1.44,6.18-1.75,8.25-1.75,5.48,0,10.56,2.32,10.56,7.73v15.54h-3.68v-2.45c-2.02,2.1-4.25,2.97-7.28,2.97-5.57,0-9.95-3.1-9.95-8.16,0-4.15,3.55-7.81,9.91-7.81,2.41,0,4.95.7,7.06,2.58v-2.36ZM896.94,665.75c-4.82,0-6.44,2.32-6.44,4.54s1.62,4.54,6.44,4.54,6.45-2.32,6.45-4.54-1.62-4.54-6.45-4.54ZM924.72,664.53c0-3.4-1.4-6.37-5.3-6.37-3.69,0-5.92,2.49-5.92,6.81v12.79h-3.94v-22.75h3.94v2.66h.09c1.18-2.05,3.72-3.19,6.27-3.19,4.42,0,8.81,2.4,8.81,8.56v14.72h-3.94v-13.23ZM945.06,655.01h5.17l-10.56,10.52,10.78,12.23h-5.52l-9.51-11.05v11.05h-3.94v-33.19h3.94v20.35l9.64-9.91ZM962.4,654.49c7.19,0,12.37,5.5,12.37,11.92s-4.91,11.87-12.37,11.87-12.36-5.37-12.36-11.87,5.17-11.92,12.36-11.92ZM954.25,666.41c0,4.37,3.77,8.21,8.15,8.21s8.15-3.84,8.15-8.21c0-4.72-3.77-8.25-8.15-8.25s-8.15,3.53-8.15,8.25ZM992.08,664.53c0-3.4-1.4-6.37-5.3-6.37-3.69,0-5.92,2.49-5.92,6.81v12.79h-3.94v-22.75h3.94v2.66h.09c1.18-2.05,3.72-3.19,6.27-3.19,4.43,0,8.81,2.4,8.81,8.56v14.72h-3.94v-13.23ZM772.55,808.37c-.25-1.73-1.25-2.79-2.82-2.79-2.08,0-2.64,1.36-2.64,2.36,0,1.1.69,1.79,2.14,2.32l1.85.69c2.33.86,3.41,2.23,3.41,4,0,2.36-1.89,4.07-4.71,4.07-2.66,0-4.55-1.4-4.78-4.32h1.85c.15,1.59.96,2.71,3.03,2.71,1.6,0,2.76-1.02,2.76-2.31,0-1.13-.95-1.86-2.28-2.38l-1.87-.73c-2.18-.85-3.26-2.11-3.26-4,0-2.52,2.1-4.03,4.51-4.03s4.32,1.44,4.53,4.4h-1.74ZM775.58,808.79h1.74v1.57h.04c.83-1.19,2.33-1.81,3.82-1.81,2.84,0,5.23,2.25,5.23,5.13,0,3.15-2.51,5.34-5.3,5.34-1.74,0-3.01-.73-3.74-1.77h-.04v5.76h-1.74v-14.24ZM780.87,810.18c-1.89,0-3.55,1.61-3.55,3.63s1.62,3.61,3.61,3.61c1.83,0,3.63-1.4,3.63-3.71,0-1.67-1.33-3.53-3.68-3.53ZM794.25,812.1c0-1.65-1.66-2.02-3.01-2.02-.94,0-1.83.23-2.78.69l-.75-1.44c1.52-.63,2.72-.77,3.63-.77,2.41,0,4.65,1.02,4.65,3.4v6.84h-1.62v-1.08c-.89.92-1.87,1.31-3.2,1.31-2.45,0-4.38-1.36-4.38-3.59,0-1.83,1.56-3.44,4.36-3.44,1.06,0,2.18.31,3.11,1.13v-1.04ZM791.47,813.52c-2.12,0-2.84,1.02-2.84,2s.71,2,2.84,2,2.84-1.02,2.84-2-.71-2-2.84-2ZM798.45,815.88c.12,1.08,1.02,1.63,2.08,1.63,1.56,0,1.99-.85,1.99-1.44,0-.65-.42-1.06-1.78-1.42l-1.76-.48c-1.49-.4-2.04-1.38-2.04-2.57,0-1.65,1.25-3.03,3.59-3.03,2.57,0,3.45,1.61,3.45,3.11h-1.62c-.14-1.13-.71-1.69-1.87-1.69s-1.81.65-1.81,1.44c0,.56.31.98,1.12,1.21l2.35.67c1.58.46,2.1,1.33,2.1,2.61,0,2.04-1.79,3.11-3.65,3.11-2.35,0-3.72-1.25-3.78-3.15h1.62ZM806.17,804.41c.67,0,1.21.54,1.21,1.21s-.54,1.21-1.21,1.21-1.22-.54-1.22-1.21.54-1.21,1.22-1.21ZM805.3,808.79h1.74v10.01h-1.74v-10.01ZM808.77,804.2h1.74v6.17h.04c.83-1.19,2.33-1.81,3.82-1.81,2.84,0,5.23,2.25,5.23,5.13,0,3.15-2.51,5.34-5.3,5.34-1.74,0-3.01-.73-3.74-1.77h-.04v1.54h-1.74v-14.6ZM814.06,810.18c-1.89,0-3.55,1.61-3.55,3.63s1.62,3.61,3.61,3.61c1.83,0,3.63-1.4,3.63-3.71,0-1.67-1.33-3.53-3.68-3.53ZM825.57,808.56c3.16,0,5.44,2.42,5.44,5.24s-2.16,5.23-5.44,5.23-5.44-2.36-5.44-5.23,2.28-5.24,5.44-5.24ZM821.98,813.81c0,1.92,1.66,3.61,3.59,3.61s3.59-1.69,3.59-3.61c0-2.07-1.66-3.63-3.59-3.63s-3.59,1.56-3.59,3.63ZM847.45,568.64h4.92v38.83h-4.92v-28.76h-.1l-15.75,29.17-15.75-29.17h-.1v28.76h-4.92v-38.83h4.92l15.85,29.32,15.85-29.32ZM873.67,589.64c0-4.39-4.41-5.36-8-5.36-2.51,0-4.87.61-7.39,1.84l-2-3.83c4.05-1.69,7.23-2.04,9.64-2.04,6.41,0,12.36,2.71,12.36,9.04v18.19h-4.31v-2.86c-2.36,2.45-4.98,3.47-8.51,3.47-6.51,0-11.64-3.63-11.64-9.55,0-4.85,4.16-9.15,11.59-9.15,2.82,0,5.8.82,8.26,3.01v-2.76ZM866.28,593.42c-5.64,0-7.54,2.71-7.54,5.31s1.9,5.31,7.54,5.31,7.54-2.71,7.54-5.31-1.9-5.31-7.54-5.31ZM882.19,574.41h4.62v6.44h4.26v4.04h-4.26v16.35c0,1.43.46,1.94,2.26,1.94h2.1v4.24c-.67.05-1.74.05-2.82.05-4.72,0-6.16-1.63-6.16-5.72v-16.86h-3.69v-4.04h3.69v-6.44ZM906.14,580.24c8.41,0,14.47,6.44,14.47,13.95s-5.75,13.89-14.47,13.89-14.46-6.28-14.46-13.89,6.05-13.95,14.46-13.95ZM896.6,594.18c0,5.11,4.41,9.6,9.54,9.6s9.54-4.49,9.54-9.6c0-5.52-4.41-9.66-9.54-9.66s-9.54,4.14-9.54,9.66ZM940.87,591.99c0-3.99-1.64-7.46-6.21-7.46-4.31,0-6.92,2.91-6.92,7.97v14.97h-4.62v-26.62h4.62v3.12h.1c1.39-2.4,4.36-3.73,7.33-3.73,5.18,0,10.31,2.81,10.31,10.01v17.22h-4.62v-15.48ZM971.55,568.64h4.62v38.83h-4.62v-4.09h-.1c-1.95,2.76-5.34,4.7-9.95,4.7-7.44,0-14.11-5.82-14.11-14.2,0-7.66,6.36-13.64,13.9-13.64,3.95,0,7.95,1.63,10.16,4.8h.1v-16.4ZM962.11,584.53c-6.26,0-9.8,4.96-9.8,9.4,0,6.13,4.77,9.86,9.64,9.86,5.28,0,9.59-4.29,9.59-9.6s-4.41-9.66-9.44-9.66ZM993.45,580.24c8.41,0,14.47,6.44,14.47,13.95s-5.75,13.89-14.47,13.89-14.47-6.28-14.47-13.89,6.05-13.95,14.47-13.95ZM983.91,594.18c0,5.11,4.41,9.6,9.54,9.6s9.54-4.49,9.54-9.6c0-5.52-4.41-9.66-9.54-9.66s-9.54,4.14-9.54,9.66ZM803.83,64.68h30.19c0,21.43-14.82,33.84-31.61,33.84-20.34,0-31.77-16.02-31.77-30.78s11.43-30.77,31.77-30.77c7.02,0,14.03,2.04,21.13,8.08l-4.81,5.65c-4.81-4.48-11.04-6.67-16.32-6.67-12.53,0-23.73,9.97-23.73,23.71s11.51,23.71,23.73,23.71c10.8,0,20.81-7.22,23.34-19.7h-21.92v-7.06ZM837.27,56.67h7.1v5.81h.16c3.55-6.36,6.94-6.75,12.93-6.75v7.46c-1.02-.23-2.13-.39-3.23-.39-5.91,0-9.85,4.08-9.85,11.54v23.24h-7.1v-40.91ZM885.83,70.17c0-6.75-6.78-8.24-12.3-8.24-3.86,0-7.49.94-11.35,2.83l-3.07-5.89c6.23-2.59,11.11-3.14,14.82-3.14,9.86,0,19,4.16,19,13.89v27.95h-6.62v-4.4c-3.63,3.77-7.65,5.34-13.09,5.34-10.01,0-17.9-5.57-17.9-14.68,0-7.46,6.39-14.05,17.82-14.05,4.34,0,8.91,1.25,12.69,4.63v-4.24ZM874.48,75.98c-8.67,0-11.59,4.16-11.59,8.17s2.92,8.16,11.59,8.16,11.59-4.16,11.59-8.16-2.92-8.17-11.59-8.17ZM914.85,62.87h-19.24v-6.2h30.98l-21.29,34.7h20.26v6.2h-32.16l21.44-34.7ZM931.41,38.77c2.76,0,4.96,2.2,4.96,4.95s-2.21,4.94-4.96,4.94-4.97-2.2-4.97-4.94,2.21-4.95,4.97-4.95ZM927.86,56.67h7.1v40.91h-7.1v-40.91ZM979.03,89.64c-5.52,6.12-11.35,8.87-18.53,8.87-14.58,0-22.39-10.52-22.39-21.44,0-11.62,8.36-21.35,21.21-21.35s21.52,9.66,21.52,24.1h-35.16c1.1,6.99,6.78,12.09,14.74,12.09,5.05,0,9.54-2.36,13.16-6.59l5.44,4.32ZM972.8,74.02c-.71-6.75-6.23-11.7-13.56-11.7-8.67,0-12.85,6.12-13.56,11.7h27.12ZM901.9,716.43h7.02c0,4.98-3.45,7.87-7.35,7.87-4.73,0-7.39-3.72-7.39-7.16s2.66-7.15,7.39-7.15c1.63,0,3.26.47,4.91,1.88l-1.12,1.31c-1.12-1.04-2.57-1.55-3.8-1.55-2.91,0-5.52,2.32-5.52,5.51s2.68,5.52,5.52,5.52c2.51,0,4.84-1.68,5.43-4.58h-5.1v-1.64ZM909.68,714.57h1.65v1.35h.04c.82-1.48,1.61-1.57,3-1.57v1.74c-.24-.05-.49-.09-.75-.09-1.38,0-2.29.95-2.29,2.68v5.4h-1.65v-9.51ZM920.97,717.71c0-1.57-1.58-1.92-2.86-1.92-.9,0-1.74.22-2.64.66l-.71-1.37c1.45-.6,2.58-.73,3.45-.73,2.29,0,4.42.97,4.42,3.23v6.5h-1.54v-1.02c-.84.88-1.78,1.24-3.04,1.24-2.33,0-4.16-1.3-4.16-3.41,0-1.73,1.49-3.27,4.14-3.27,1.01,0,2.07.29,2.95,1.08v-.99ZM918.34,719.06c-2.02,0-2.7.97-2.7,1.9s.68,1.9,2.7,1.9,2.69-.97,2.69-1.9-.68-1.9-2.69-1.9ZM927.73,716.01h-4.47v-1.44h7.2l-4.95,8.07h4.71v1.44h-7.48l4.99-8.07ZM931.58,710.4c.64,0,1.15.51,1.15,1.15s-.51,1.15-1.15,1.15-1.16-.51-1.16-1.15.51-1.15,1.16-1.15ZM930.75,714.57h1.65v9.51h-1.65v-9.51ZM942.65,722.24c-1.28,1.42-2.64,2.06-4.31,2.06-3.39,0-5.21-2.45-5.21-4.98,0-2.7,1.94-4.97,4.93-4.97s5,2.25,5,5.61h-8.18c.26,1.63,1.58,2.81,3.43,2.81,1.17,0,2.22-.55,3.06-1.53l1.26,1ZM941.21,718.6c-.17-1.57-1.45-2.72-3.15-2.72-2.02,0-2.99,1.42-3.15,2.72h6.31ZM157.88,401.04v-14.3c10.24,0,16.16,7.02,16.16,14.97,0,9.63-7.65,15.04-14.7,15.04s-14.69-5.41-14.69-15.04c0-3.33.97-6.65,3.86-10.01l2.7,2.27c-2.13,2.28-3.18,5.23-3.18,7.73,0,5.93,4.76,11.24,11.32,11.24s11.33-5.45,11.33-11.24c0-5.12-3.45-9.86-9.41-11.06v10.38h-3.38ZM154.06,385.19v-3.36h2.77v-.08c-3.04-1.68-3.23-3.29-3.23-6.12h3.56c-.11.48-.19,1.01-.19,1.53,0,2.8,1.95,4.67,5.51,4.67h11.1v3.36h-19.53ZM160.5,362.18c-3.22,0-3.94,3.21-3.94,5.82,0,1.83.45,3.55,1.35,5.38l-2.81,1.45c-1.23-2.95-1.5-5.26-1.5-7.02,0-4.67,1.99-9,6.64-9h13.35v3.14h-2.1c1.8,1.72,2.55,3.62,2.55,6.2,0,4.74-2.66,8.47-7.01,8.47-3.56,0-6.71-3.02-6.71-8.44,0-2.05.6-4.22,2.21-6.01h-2.02ZM163.28,367.55c0,4.11,1.98,5.49,3.9,5.49s3.9-1.38,3.9-5.49-1.99-5.49-3.9-5.49-3.9,1.38-3.9,5.49ZM157.02,348.43v9.11h-2.96v-14.68l16.57,10.08v-9.59h2.96v15.23l-16.57-10.15ZM145.5,340.58c0-1.31,1.05-2.35,2.36-2.35s2.36,1.04,2.36,2.35-1.05,2.35-2.36,2.35-2.36-1.05-2.36-2.35ZM154.06,342.26v-3.36h19.53v3.36h-19.53ZM169.8,318.02c2.93,2.61,4.24,5.37,4.24,8.77,0,6.91-5.02,10.61-10.24,10.61-5.55,0-10.2-3.96-10.2-10.05s4.61-10.19,11.51-10.19v16.65c3.34-.52,5.78-3.21,5.78-6.98,0-2.39-1.12-4.52-3.15-6.24l2.06-2.58ZM162.34,320.97c-3.22.34-5.59,2.95-5.59,6.42,0,4.11,2.93,6.09,5.59,6.42v-12.85ZM204.26,528.69h6.45c4.8,0,9.41,4.08,9.41,9.68s-4.46,9.84-10.03,9.84h-5.83v-19.52ZM210.06,545.9c4.38,0,7.43-3.34,7.43-7.65s-3.35-7.24-7.63-7.24h-3.12v14.9h3.33ZM230.15,539.25c0-2.21-2.22-2.7-4.02-2.7-1.26,0-2.45.31-3.71.93l-1.01-1.93c2.04-.85,3.64-1.03,4.85-1.03,3.22,0,6.21,1.36,6.21,4.55v9.14h-2.17v-1.44c-1.19,1.23-2.5,1.75-4.28,1.75-3.28,0-5.85-1.82-5.85-4.8,0-2.44,2.09-4.6,5.83-4.6,1.42,0,2.91.41,4.15,1.51v-1.39ZM226.44,541.15c-2.84,0-3.79,1.36-3.79,2.67s.95,2.67,3.79,2.67,3.79-1.36,3.79-2.67-.95-2.67-3.79-2.67ZM242.79,540.43c0-2-.83-3.75-3.12-3.75-2.17,0-3.48,1.46-3.48,4.01v7.53h-2.32v-13.38h2.32v1.57h.05c.7-1.21,2.19-1.87,3.69-1.87,2.6,0,5.18,1.41,5.18,5.03v8.66h-2.32v-7.78ZM254.76,534.83h3.04l-6.21,6.19,6.34,7.19h-3.25l-5.6-6.5v6.5h-2.32v-19.52h2.32v11.97l5.67-5.83ZM262.14,528.69h8.64v13.18c0,4.37-2.99,6.65-7.48,6.65-.64,0-1.11-.03-1.44-.05v-2.26h.85c3.84,0,5.6-1.16,5.6-4.88v-10.32h-6.16v-2.31ZM285.22,545.62c-1.81,2-3.71,2.9-6.06,2.9-4.77,0-7.32-3.44-7.32-7.01,0-3.8,2.73-6.99,6.94-6.99s7.04,3.16,7.04,7.88h-11.5c.36,2.29,2.22,3.95,4.82,3.95,1.65,0,3.12-.77,4.31-2.16l1.78,1.41ZM283.18,540.51c-.23-2.21-2.04-3.83-4.44-3.83-2.84,0-4.2,2-4.44,3.83h8.87ZM434.82,588.38h2.95l-6.77,21.91h-2.14l-5.3-17.35h-.06l-5.3,17.35h-2.14l-6.77-21.91h2.95l4.92,16.63h.06l5.01-16.63h2.6l5.01,16.69h.06l4.92-16.69ZM450.53,607.37c-2.03,2.25-4.17,3.26-6.8,3.26-5.35,0-8.22-3.86-8.22-7.87,0-4.27,3.07-7.84,7.78-7.84s7.9,3.54,7.9,8.85h-12.91c.4,2.56,2.49,4.44,5.41,4.44,1.85,0,3.5-.86,4.83-2.42l2,1.59ZM448.24,601.64c-.26-2.48-2.29-4.29-4.98-4.29-3.18,0-4.72,2.25-4.98,4.29h9.96ZM454.55,588.38v17.21c0,1.7.84,2.28,1.68,2.28h.78v2.42h-1.07c-2.4,0-3.99-1.35-3.99-4.5v-17.41h2.6ZM468.04,600.22c0-2.48-2.49-3.03-4.51-3.03-1.42,0-2.75.35-4.17,1.04l-1.13-2.16c2.29-.95,4.08-1.15,5.44-1.15,3.62,0,6.97,1.53,6.97,5.1v10.26h-2.43v-1.61c-1.33,1.38-2.81,1.96-4.8,1.96-3.68,0-6.57-2.05-6.57-5.39,0-2.74,2.34-5.16,6.54-5.16,1.59,0,3.27.46,4.66,1.7v-1.56ZM463.87,602.36c-3.18,0-4.25,1.53-4.25,3s1.07,3,4.25,3,4.25-1.53,4.25-3-1.07-3-4.25-3ZM474.63,588.38v17.21c0,1.7.84,2.28,1.68,2.28h.78v2.42h-1.07c-2.4,0-3.99-1.35-3.99-4.5v-17.41h2.6ZM479.47,588.7c1.01,0,1.82.81,1.82,1.82s-.81,1.82-1.82,1.82-1.82-.81-1.82-1.82.81-1.82,1.82-1.82ZM478.16,595.27h2.6v15.02h-2.6v-15.02ZM492.63,601.55c0-2.25-.93-4.21-3.5-4.21-2.43,0-3.91,1.64-3.91,4.5v8.45h-2.6v-15.02h2.6v1.76h.06c.78-1.35,2.46-2.1,4.14-2.1,2.92,0,5.82,1.59,5.82,5.65v9.71h-2.6v-8.73ZM373.46,711.86h3.12v24.62h-3.12v-18.24h-.06l-9.99,18.5-9.99-18.5h-.06v18.24h-3.12v-24.62h3.12l10.05,18.6,10.05-18.6ZM390.09,725.18c0-2.79-2.8-3.4-5.07-3.4-1.59,0-3.09.39-4.68,1.17l-1.27-2.43c2.57-1.07,4.59-1.3,6.12-1.3,4.07,0,7.84,1.72,7.84,5.73v11.53h-2.73v-1.82c-1.5,1.56-3.16,2.2-5.4,2.2-4.13,0-7.38-2.3-7.38-6.06,0-3.08,2.64-5.8,7.35-5.8,1.79,0,3.68.52,5.24,1.91v-1.75ZM385.4,727.58c-3.58,0-4.78,1.72-4.78,3.37s1.2,3.37,4.78,3.37,4.78-1.72,4.78-3.37-1.2-3.37-4.78-3.37ZM406.16,725.18c0-2.79-2.8-3.4-5.07-3.4-1.59,0-3.09.39-4.68,1.17l-1.27-2.43c2.57-1.07,4.59-1.3,6.11-1.3,4.07,0,7.84,1.72,7.84,5.73v11.53h-2.73v-1.82c-1.5,1.56-3.16,2.2-5.4,2.2-4.13,0-7.38-2.3-7.38-6.06,0-3.08,2.64-5.8,7.35-5.8,1.79,0,3.68.52,5.24,1.91v-1.75ZM401.48,727.58c-3.58,0-4.78,1.72-4.78,3.37s1.2,3.37,4.78,3.37,4.78-1.72,4.78-3.37-1.2-3.37-4.78-3.37ZM421.13,719.61h3.84l-7.84,7.81,8,9.07h-4.1l-7.06-8.2v8.2h-2.93v-24.62h2.93v15.1l7.16-7.35ZM441.23,733.21c-2.28,2.53-4.68,3.66-7.64,3.66-6.02,0-9.24-4.34-9.24-8.84,0-4.79,3.45-8.81,8.75-8.81s8.88,3.98,8.88,9.95h-14.51c.46,2.88,2.8,4.99,6.08,4.99,2.08,0,3.94-.97,5.43-2.72l2.25,1.78ZM438.66,726.77c-.29-2.79-2.57-4.83-5.59-4.83-3.58,0-5.3,2.53-5.59,4.83h11.19ZM996.06,84.44h1.62v12.81h-1.62v-9.49h-.03l-5.2,9.62-5.2-9.62h-.03v9.49h-1.62v-12.81h1.62l5.23,9.67,5.23-9.67ZM1004.71,91.37c0-1.45-1.46-1.77-2.64-1.77-.83,0-1.61.2-2.44.61l-.66-1.26c1.34-.56,2.39-.67,3.18-.67,2.12,0,4.08.89,4.08,2.98v6h-1.42v-.94c-.78.81-1.64,1.15-2.81,1.15-2.15,0-3.84-1.2-3.84-3.15,0-1.6,1.37-3.02,3.82-3.02.93,0,1.91.27,2.72.99v-.91ZM1002.28,92.61c-1.86,0-2.49.89-2.49,1.75s.63,1.75,2.49,1.75,2.49-.89,2.49-1.75-.63-1.75-2.49-1.75ZM1013.08,91.37c0-1.45-1.46-1.77-2.64-1.77-.83,0-1.61.2-2.44.61l-.66-1.26c1.34-.56,2.39-.67,3.18-.67,2.12,0,4.08.89,4.08,2.98v6h-1.42v-.94c-.78.81-1.64,1.15-2.81,1.15-2.15,0-3.84-1.2-3.84-3.15,0-1.6,1.37-3.02,3.82-3.02.93,0,1.91.27,2.72.99v-.91ZM1010.64,92.61c-1.86,0-2.49.89-2.49,1.75s.63,1.75,2.49,1.75,2.49-.89,2.49-1.75-.63-1.75-2.49-1.75ZM1020.86,88.47h2l-4.08,4.06,4.16,4.72h-2.13l-3.67-4.26v4.26h-1.52v-12.81h1.52v7.85l3.72-3.83ZM1031.32,95.55c-1.18,1.32-2.44,1.9-3.98,1.9-3.13,0-4.81-2.26-4.81-4.6,0-2.49,1.79-4.58,4.55-4.58s4.62,2.07,4.62,5.17h-7.55c.24,1.5,1.46,2.6,3.17,2.6,1.08,0,2.05-.51,2.83-1.42l1.17.93ZM1029.99,92.19c-.15-1.45-1.34-2.51-2.91-2.51-1.86,0-2.76,1.31-2.91,2.51h5.82ZM891.49,686.49c5.24,0,8.19,4.13,8.19,7.94s-2.95,7.94-8.19,7.94-8.19-4.13-8.19-7.94,2.95-7.94,8.19-7.94ZM891.49,700.54c3.15,0,6.12-2.47,6.12-6.11s-2.97-6.11-6.12-6.11-6.12,2.47-6.12,6.11,2.97,6.11,6.12,6.11ZM900.59,686.73h1.83v6.5h.04c.87-1.26,2.46-1.9,4.02-1.9,2.99,0,5.51,2.37,5.51,5.4,0,3.32-2.64,5.63-5.59,5.63-1.83,0-3.17-.77-3.94-1.86h-.04v1.62h-1.83v-15.39ZM906.16,693.03c-1.99,0-3.74,1.7-3.74,3.83s1.71,3.81,3.8,3.81c1.93,0,3.82-1.48,3.82-3.91,0-1.76-1.4-3.72-3.88-3.72ZM912.87,691.57h1.83v1.5h.04c.91-1.64,1.79-1.74,3.33-1.74v1.92c-.26-.06-.55-.1-.83-.1-1.52,0-2.54,1.05-2.54,2.98v5.99h-1.83v-10.55ZM919.71,686.96c.71,0,1.28.57,1.28,1.28s-.57,1.28-1.28,1.28-1.28-.57-1.28-1.28.57-1.28,1.28-1.28ZM918.8,691.57h1.83v10.55h-1.83v-10.55ZM931.34,691.57h1.83v9.09c0,3.89-1.87,5.91-5.98,5.91-1.87,0-3.52-.69-4.94-2.27l1.46-1.15c1.12,1.4,2.42,1.82,3.52,1.82,2.85,0,4.11-1.42,4.11-3.77v-.75h-.04c-1,1.19-2.03,1.78-4.09,1.78-3.56,0-5.45-3.04-5.45-5.49,0-3.06,2.52-5.42,5.51-5.42,1.56,0,3.15.65,4.02,1.9h.04v-1.66ZM927.6,693.03c-2.48,0-3.88,1.96-3.88,3.72,0,2.43,1.91,3.89,3.82,3.89,2.09,0,3.8-1.68,3.8-3.78s-1.75-3.83-3.74-3.83ZM942.13,695.05c0-1.74-1.75-2.13-3.17-2.13-1,0-1.93.24-2.93.73l-.79-1.52c1.61-.67,2.87-.81,3.82-.81,2.54,0,4.9,1.07,4.9,3.58v7.21h-1.71v-1.13c-.94.97-1.97,1.38-3.37,1.38-2.58,0-4.61-1.44-4.61-3.79,0-1.92,1.65-3.62,4.59-3.62,1.12,0,2.3.32,3.27,1.19v-1.09ZM939.2,696.55c-2.24,0-2.99,1.07-2.99,2.11s.75,2.11,2.99,2.11,2.99-1.07,2.99-2.11-.75-2.11-2.99-2.11ZM954.2,686.73h1.83v15.39h-1.83v-1.62h-.04c-.77,1.09-2.11,1.86-3.94,1.86-2.95,0-5.59-2.31-5.59-5.63,0-3.04,2.52-5.4,5.51-5.4,1.57,0,3.15.65,4.02,1.9h.04v-6.5ZM950.46,693.03c-2.48,0-3.88,1.96-3.88,3.72,0,2.43,1.89,3.91,3.82,3.91,2.09,0,3.8-1.7,3.8-3.81s-1.75-3.83-3.74-3.83ZM962.88,691.33c3.33,0,5.73,2.55,5.73,5.53s-2.28,5.51-5.73,5.51-5.73-2.49-5.73-5.51,2.4-5.53,5.73-5.53ZM959.1,696.86c0,2.02,1.75,3.81,3.78,3.81s3.78-1.78,3.78-3.81c0-2.19-1.75-3.83-3.78-3.83s-3.78,1.64-3.78,3.83ZM586.72,878.58c8.96,0,14,7.06,14,13.56s-5.04,13.57-14,13.57-14-7.06-14-13.57,5.04-13.56,14-13.56ZM586.72,902.6c5.39,0,10.46-4.22,10.46-10.45s-5.07-10.45-10.46-10.45-10.46,4.22-10.46,10.45,5.07,10.45,10.46,10.45ZM602.3,879h3.13v11.11h.07c1.49-2.14,4.2-3.25,6.88-3.25,5.11,0,9.42,4.05,9.42,9.24,0,5.67-4.52,9.62-9.56,9.62-3.13,0-5.42-1.32-6.74-3.18h-.07v2.77h-3.13v-26.3ZM611.82,889.76c-3.41,0-6.39,2.91-6.39,6.54s2.92,6.5,6.5,6.5c3.3,0,6.53-2.52,6.53-6.68,0-3.01-2.4-6.36-6.64-6.36ZM623.3,887.27h3.13v2.56h.07c1.56-2.8,3.06-2.98,5.7-2.98v3.29c-.45-.1-.94-.17-1.42-.17-2.61,0-4.34,1.8-4.34,5.09v10.24h-3.13v-18.03ZM635.01,879.38c1.22,0,2.19.97,2.19,2.18s-.97,2.18-2.19,2.18-2.19-.97-2.19-2.18.97-2.18,2.19-2.18ZM633.45,887.27h3.13v18.03h-3.13v-18.03ZM654.89,887.27h3.13v15.54c0,6.64-3.2,10.11-10.21,10.11-3.2,0-6.01-1.18-8.44-3.88l2.5-1.97c1.91,2.38,4.13,3.11,6.01,3.11,4.86,0,7.02-2.42,7.02-6.44v-1.28h-.07c-1.7,2.04-3.47,3.04-6.98,3.04-6.08,0-9.31-5.19-9.31-9.38,0-5.23,4.31-9.27,9.42-9.27,2.68,0,5.39,1.11,6.88,3.25h.07v-2.84ZM648.49,889.76c-4.24,0-6.64,3.35-6.64,6.36,0,4.15,3.27,6.64,6.53,6.64,3.58,0,6.5-2.87,6.5-6.47s-2.99-6.54-6.39-6.54ZM673.34,893.22c0-2.98-2.99-3.63-5.42-3.63-1.7,0-3.3.42-5,1.25l-1.36-2.6c2.75-1.14,4.9-1.38,6.53-1.38,4.34,0,8.37,1.83,8.37,6.13v12.32h-2.92v-1.94c-1.6,1.66-3.37,2.35-5.77,2.35-4.41,0-7.89-2.46-7.89-6.47,0-3.29,2.81-6.19,7.85-6.19,1.91,0,3.93.55,5.59,2.04v-1.87ZM668.34,895.78c-3.82,0-5.11,1.84-5.11,3.6s1.29,3.6,5.11,3.6,5.11-1.83,5.11-3.6-1.29-3.6-5.11-3.6ZM693.99,879h3.13v26.3h-3.13v-2.77h-.07c-1.32,1.87-3.61,3.18-6.74,3.18-5.04,0-9.55-3.95-9.55-9.62,0-5.19,4.31-9.24,9.42-9.24,2.67,0,5.39,1.11,6.88,3.25h.07v-11.11ZM687.6,889.76c-4.24,0-6.64,3.35-6.64,6.36,0,4.15,3.23,6.68,6.53,6.68,3.58,0,6.5-2.91,6.5-6.5s-2.99-6.54-6.39-6.54ZM708.84,886.85c5.7,0,9.8,4.36,9.8,9.45s-3.89,9.41-9.8,9.41-9.8-4.26-9.8-9.41,4.1-9.45,9.8-9.45ZM702.38,896.3c0,3.46,2.99,6.5,6.46,6.5s6.46-3.04,6.46-6.5c0-3.74-2.99-6.54-6.46-6.54s-6.46,2.8-6.46,6.54ZM611.99,800.46h9.09v71.68h-9.09v-53.1h-.19l-29.07,53.85-29.07-53.85h-.19v53.1h-9.09v-71.68h9.09l29.26,54.13,29.26-54.13ZM674.09,862.61c-6.63,7.36-13.64,10.66-22.25,10.66-17.52,0-26.89-12.64-26.89-25.75,0-13.96,10.04-25.65,25.47-25.65s25.85,11.6,25.85,28.95h-42.23c1.33,8.39,8.14,14.52,17.71,14.52,6.06,0,11.46-2.83,15.81-7.92l6.54,5.19ZM666.61,843.84c-.85-8.11-7.48-14.05-16.29-14.05-10.41,0-15.44,7.36-16.29,14.05h32.57ZM679.86,823h8.52v6.98h.19c4.26-7.64,8.33-8.11,15.53-8.11v8.96c-1.23-.28-2.56-.47-3.88-.47-7.1,0-11.84,4.9-11.84,13.86v27.92h-8.52v-49.14ZM739.61,834.69c-3.41-3.3-7.2-4.9-11.46-4.9-8.43,0-16.29,6.13-16.29,18.2,0,10,7.29,17.35,17.14,17.35,4.07,0,8.05-2.26,10.99-5l5.02,6.23c-4.45,4.53-10.7,6.69-17.05,6.69-15.15,0-25.19-11.98-25.19-25.56s11.08-25.84,25.28-25.84c7.48,0,13.82,3.11,17.33,6.13l-5.78,6.7ZM751.44,801.5c3.32,0,5.97,2.64,5.97,5.94s-2.65,5.94-5.97,5.94-5.96-2.64-5.96-5.94,2.65-5.94,5.96-5.94ZM747.18,823h8.52v49.14h-8.52v-49.14ZM193.66,147.47h-6.95l-1.35,3.46h-2.06l6.06-14.86h1.65l6.06,14.86h-2.06l-1.35-3.46ZM190.18,138.54l-2.83,7.29h5.65l-2.83-7.29ZM197.35,140.75h1.77v1.45h.04c.88-1.58,1.73-1.68,3.22-1.68v1.86c-.26-.06-.53-.1-.8-.1-1.47,0-2.45,1.02-2.45,2.87v5.79h-1.77v-10.18ZM203.57,136.29c.69,0,1.24.55,1.24,1.23s-.55,1.23-1.24,1.23-1.24-.55-1.24-1.23.55-1.23,1.24-1.23ZM202.68,140.75h1.77v10.18h-1.77v-10.18ZM214.4,140.75h1.77v8.78c0,3.75-1.81,5.71-5.77,5.71-1.81,0-3.4-.66-4.77-2.19l1.41-1.11c1.08,1.35,2.34,1.76,3.4,1.76,2.75,0,3.96-1.37,3.96-3.64v-.72h-.04c-.96,1.15-1.96,1.72-3.95,1.72-3.43,0-5.26-2.93-5.26-5.3,0-2.95,2.43-5.24,5.32-5.24,1.51,0,3.04.63,3.89,1.84h.04v-1.6ZM210.79,142.15c-2.39,0-3.75,1.9-3.75,3.6,0,2.35,1.85,3.75,3.69,3.75,2.02,0,3.67-1.62,3.67-3.66s-1.69-3.69-3.61-3.69ZM224.43,144.11c0-1.68-1.69-2.05-3.06-2.05-.96,0-1.86.23-2.83.7l-.77-1.47c1.55-.64,2.77-.78,3.69-.78,2.45,0,4.73,1.04,4.73,3.46v6.96h-1.65v-1.09c-.9.94-1.9,1.33-3.26,1.33-2.49,0-4.46-1.39-4.46-3.66,0-1.86,1.59-3.5,4.44-3.5,1.08,0,2.22.31,3.16,1.15v-1.06ZM221.6,145.56c-2.16,0-2.88,1.04-2.88,2.03s.73,2.03,2.88,2.03,2.89-1.04,2.89-2.03-.73-2.03-2.89-2.03ZM227.68,138.28h1.77v2.46h1.63v1.54h-1.63v6.25c0,.55.18.74.86.74h.8v1.62c-.26.02-.67.02-1.08.02-1.81,0-2.35-.63-2.35-2.19v-6.45h-1.41v-1.54h1.41v-2.46ZM236.85,140.51c3.22,0,5.53,2.46,5.53,5.34s-2.2,5.32-5.53,5.32-5.53-2.4-5.53-5.32,2.32-5.34,5.53-5.34ZM233.2,145.85c0,1.95,1.69,3.67,3.65,3.67s3.65-1.72,3.65-3.67c0-2.11-1.69-3.69-3.65-3.69s-3.65,1.58-3.65,3.69ZM236.85,137.68l-1.49,1.49h-1.45l1.88-2.58h2.12l1.88,2.58h-1.45l-1.49-1.49ZM558.48,162.47h5.84c4.35,0,8.53,3.7,8.53,8.77s-4.04,8.91-9.09,8.91h-5.28v-17.69ZM563.74,178.07c3.97,0,6.73-3.02,6.73-6.93s-3.04-6.56-6.92-6.56h-2.83v13.5h3.01ZM574.95,162.73c.82,0,1.47.65,1.47,1.47s-.65,1.47-1.47,1.47-1.47-.65-1.47-1.47.65-1.47,1.47-1.47ZM573.9,168.04h2.1v12.12h-2.1v-12.12ZM583.88,167.76c3.83,0,6.59,2.93,6.59,6.35s-2.62,6.33-6.59,6.33-6.59-2.86-6.59-6.33,2.76-6.35,6.59-6.35ZM579.53,174.11c0,2.33,2.01,4.37,4.35,4.37s4.35-2.05,4.35-4.37c0-2.51-2.01-4.4-4.35-4.4s-4.35,1.88-4.35,4.4ZM593.57,162.47v13.89c0,1.37.68,1.84,1.36,1.84h.63v1.95h-.86c-1.94,0-3.22-1.09-3.22-3.63v-14.05h2.1ZM603.87,170.92c-.84-.81-1.78-1.21-2.83-1.21-2.08,0-4.02,1.51-4.02,4.49,0,2.47,1.8,4.28,4.23,4.28,1,0,1.99-.56,2.71-1.23l1.24,1.54c-1.1,1.12-2.64,1.65-4.21,1.65-3.74,0-6.22-2.96-6.22-6.31s2.73-6.38,6.24-6.38c1.85,0,3.41.77,4.28,1.51l-1.43,1.65ZM613.69,173.11c0-1.81-.75-3.4-2.83-3.4-1.96,0-3.15,1.33-3.15,3.63v6.82h-2.1v-17.69h2.1v6.98h.05c.63-1.09,1.99-1.7,3.34-1.7,2.36,0,4.7,1.28,4.7,4.56v7.84h-2.1v-7.05ZM359.11,535.75c-.54,2.33-1.08,4.67-1.8,6.82,31.71,5.56,43.43,25.3,43.43,46.48,0,28.53-24.5,45.76-69.55,50.79-.72-2.51-3.24-7.9-4.86-10.77,37.3-3.59,61.27-16.51,61.27-39.66v-1.26c-.9-20.82-14.96-31.05-34.24-34.28-7.75,20.28-20.9,39.12-35.86,52.76,1.26,3.77,2.88,7,4.68,9.69l-10.63,6.64c-1.62-2.51-3.06-5.56-4.32-8.97-14.42,10.59-25.95,13.46-34.06,13.46-14.42,0-21.8-10.59-21.8-23.87,0-24.77,20.54-44.51,46.67-54.92-.36-9.33-.36-19.56-.18-30.15-30.45,0-33.7,0-39.64-.36l-.36-11.84c9.19.54,24.87.54,40.36.54.18-8.25.54-18.3.9-26.74l18.02,1.25c-.18,1.8-1.98,3.23-4.68,3.59-.54,6.64-.9,14.9-1.44,21.53,19.64-.54,54.06-2.87,72.26-7.54l1.62,12.2c-19.1,4.66-53.88,6.46-74.42,7-.36,9.33-.54,18.31-.36,26.74,12.62-3.95,23.97-4.13,27.03-4.13,2.7,0,5.04,0,7.39.18.72-2.87,1.26-5.56,1.8-8.43l12.8,3.23ZM303.8,602.69c-2.88-11.13-4.51-25.3-5.23-41.99-19.64,8.61-34.95,23.51-34.95,40.91,0,10.59,5.95,14.18,12.43,13.82,8.47-.18,18.2-5.03,27.75-12.74ZM340.73,552.27c-2.88-.18-16.94-.54-30.45,4.31.36,14.54,1.62,26.92,4.15,36.97,10.81-10.95,20.54-25.48,26.31-41.27ZM446.7,582.77c-3.42-9.69-5.05-23.69-5.23-33.74,0-16.87,1.8-36.43,6.13-59.22l18.02,3.05c-.72,2.33-2.88,2.87-5.22,3.05-3.6,14.9-6.13,37.69-6.13,52.22,0,3.95.18,7.18.54,9.69,3.6-8.79,10.27-21,14.05-27.82,1.62,2.33,5.22,6.1,7.03,7.9-13.34,23.87-17.3,30.69-17.3,38.23,0,1.44.18,2.87.54,4.49l-12.43,2.15ZM543.28,485.15c-.18,2.15-1.62,3.05-4.68,3.95,1.26,15.61,3.06,41.63,3.06,62.27-.18,34.64-12.8,65.86-67.03,88.29-1.98-2.87-6.31-7.72-9.01-10.41,49.19-18.67,62.34-48.27,62.34-77.71,0-22.08-2.16-48.1-4.14-67.3l19.46.9ZM644.38,485.51c-.36,2.15-2.53,3.05-5.95,3.23-1.98,10.05-5.23,27.46-7.39,38.22,8.11-.89,15.5-1.61,20-1.61,27.39-.36,36.76,17.77,36.76,44.68,0,13.46-2.52,29.43-6.12,40.2-5.59,18.31-17.12,27.1-32.07,27.1-7.39,0-17.12-3.05-32.62-15.61,1.98-3.23,3.42-7.18,4.86-10.95,14.42,11.13,21.99,13.64,27.57,13.64,10.27,0,16.4-6.46,20-17.94,3.79-11.13,5.77-27.64,5.77-36.79-.18-20.46-6.85-32.66-24.87-32.48-5.41,0-12.8.71-21.99,1.79-9.01,36.61-19.64,68.01-36.94,96.91l-11.89-5.74c17.48-27.82,27.39-55.63,35.86-89.73-9.19,1.07-22.35,2.69-32.07,4.31l-1.08-12.56c8.83-1.07,23.61-2.69,35.68-4.13,2.7-13.1,5.59-29.25,7.75-45.04l18.74,2.51ZM686.18,479.94c8.65,6.64,18.92,17.41,24.15,25.12l-7.03,5.02c-5.04-7.72-15.85-19.02-23.79-24.94l6.67-5.2ZM726.54,584.39c-5.95-25.84-20.18-47.56-36.76-61.19l10.45-7c17.84,14.9,33.34,37.33,39.28,63.35l-12.98,4.84ZM713.39,472.94c8.83,6.46,19.1,17.23,24.32,24.94l-7.03,5.21c-5.05-7.72-15.86-19.21-23.79-25.13l6.49-5.02ZM881.16,540.6c-.36.18-.9.18-1.44.18-1.26,0-2.7-.36-3.78-1.08-53.52,15.61-101.99,39.12-101.81,63.17,0,17.23,19.1,23.15,48.29,23.15s51.18-2.15,63.79-4.13l1.08,13.1c-16.58,2.15-43.43,3.23-64.51,3.23-35.68,0-61.62-8.26-61.8-34.64-.18-19.21,19.1-36.07,47.39-50.61-6.13-10.95-8.29-31.76-8.29-72.32l19.82,1.62c-.18,2.33-1.98,3.77-5.59,4.3-.18,31.41.9,50.97,5.95,60.66,16.94-7.9,36.4-15.08,56.22-21.53l4.68,14.9ZM928.92,542.93c27.03-7.36,61.09-14.72,74.6-14.72,27.03,0,42.88,14.36,42.88,40.92v1.43c-.36,32.66-26.13,56.53-77.84,70.35-1.62-3.05-5.41-7.9-8.11-10.95,46.13-10.95,72.26-32.48,72.26-59.76,0-17.23-8.29-29.61-29.73-29.61-14.42,0-43.07,6.46-65.23,14.18.18,1.43-1.62,3.23-3.42,4.13l-5.4-15.97ZM954.15,480.84c24.69,2.16,53.16,7.36,72.44,14l-3.79,12.56c-19.1-6.46-48.29-12.38-71.72-14.36l3.06-12.2ZM300.79,108.12c-.25,1.08-.5,2.15-.83,3.15,14.64,2.57,20.04,11.68,20.04,21.45,0,13.17-11.31,21.12-32.1,23.44-.33-1.16-1.5-3.64-2.24-4.97,17.21-1.66,28.27-7.62,28.27-18.3v-.58c-.42-9.61-6.9-14.33-15.8-15.82-3.58,9.36-9.65,18.05-16.55,24.35.58,1.74,1.33,3.23,2.16,4.47l-4.91,3.06c-.75-1.16-1.41-2.57-1.99-4.14-6.65,4.89-11.98,6.21-15.72,6.21-6.65,0-10.06-4.89-10.06-11.01,0-11.43,9.48-20.54,21.54-25.34-.17-4.31-.17-9.03-.08-13.91-14.05,0-15.55,0-18.3-.17l-.16-5.46c4.24.25,11.47.25,18.63.25.08-3.81.25-8.45.41-12.34l8.32.58c-.08.83-.91,1.49-2.16,1.66-.25,3.06-.42,6.87-.67,9.94,9.06-.25,24.95-1.33,33.35-3.48l.75,5.63c-8.82,2.15-24.86,2.98-34.34,3.23-.17,4.31-.25,8.45-.17,12.34,5.82-1.82,11.06-1.9,12.47-1.9,1.25,0,2.33,0,3.41.08.33-1.33.58-2.57.83-3.89l5.9,1.49ZM275.26,139.01c-1.33-5.13-2.08-11.68-2.41-19.38-9.06,3.98-16.13,10.85-16.13,18.88,0,4.89,2.74,6.54,5.74,6.38,3.91-.08,8.4-2.32,12.81-5.88ZM292.31,115.74c-1.33-.08-7.82-.25-14.05,1.99.17,6.71.75,12.42,1.91,17.06,4.99-5.05,9.48-11.76,12.14-19.05ZM341.21,129.82c-1.58-4.47-2.33-10.93-2.41-15.57,0-7.79.83-16.81,2.83-27.33l8.32,1.41c-.33,1.08-1.33,1.33-2.41,1.41-1.66,6.87-2.83,17.39-2.83,24.1,0,1.82.08,3.31.25,4.47,1.66-4.06,4.74-9.69,6.49-12.84.75,1.08,2.41,2.82,3.24,3.64-6.15,11.02-7.98,14.16-7.98,17.64,0,.66.08,1.33.25,2.07l-5.74.99ZM385.78,84.76c-.08.99-.75,1.41-2.16,1.82.58,7.2,1.41,19.21,1.41,28.74-.08,15.98-5.9,30.39-30.93,40.75-.91-1.33-2.91-3.56-4.16-4.8,22.7-8.61,28.77-22.28,28.77-35.86,0-10.19-1-22.2-1.91-31.06l8.98.41ZM432.43,84.93c-.17.99-1.17,1.41-2.74,1.49-.92,4.64-2.41,12.67-3.41,17.64,3.74-.41,7.15-.74,9.23-.74,12.64-.17,16.96,8.2,16.96,20.62,0,6.21-1.16,13.58-2.83,18.55-2.58,8.45-7.9,12.51-14.8,12.51-3.41,0-7.9-1.41-15.05-7.21.91-1.49,1.58-3.31,2.24-5.05,6.65,5.13,10.15,6.29,12.72,6.29,4.74,0,7.57-2.98,9.23-8.28,1.75-5.14,2.66-12.75,2.66-16.98-.08-9.44-3.16-15.07-11.47-14.99-2.5,0-5.9.33-10.15.83-4.16,16.89-9.06,31.39-17.05,44.72l-5.49-2.65c8.07-12.84,12.64-25.67,16.55-41.41-4.24.5-10.31,1.24-14.8,1.99l-.5-5.8c4.07-.5,10.89-1.24,16.47-1.9,1.25-6.05,2.58-13.5,3.57-20.79l8.65,1.16ZM451.72,82.36c3.99,3.06,8.73,8.03,11.14,11.59l-3.24,2.32c-2.33-3.56-7.32-8.78-10.98-11.51l3.08-2.4ZM470.35,130.56c-2.74-11.93-9.31-21.95-16.96-28.24l4.82-3.23c8.23,6.87,15.38,17.23,18.13,29.23l-5.99,2.24ZM464.28,79.13c4.07,2.98,8.81,7.95,11.22,11.51l-3.24,2.4c-2.33-3.56-7.32-8.86-10.98-11.6l2.99-2.32ZM541.7,110.36c-.17.08-.42.08-.67.08-.58,0-1.25-.17-1.75-.5-24.7,7.2-47.07,18.05-46.98,29.15,0,7.95,8.81,10.68,22.28,10.68s23.62-.99,29.44-1.91l.5,6.05c-7.65.99-20.04,1.49-29.77,1.49-16.46,0-28.44-3.81-28.52-15.98-.08-8.86,8.81-16.65,21.87-23.36-2.83-5.05-3.82-14.66-3.82-33.38l9.15.75c-.08,1.08-.91,1.74-2.58,1.99-.08,14.49.42,23.52,2.74,27.99,7.82-3.64,16.8-6.96,25.95-9.94l2.16,6.87ZM563.74,111.43c12.47-3.4,28.19-6.79,34.43-6.79,12.47,0,19.79,6.63,19.79,18.88v.66c-.17,15.07-12.06,26.09-35.92,32.47-.75-1.41-2.49-3.65-3.74-5.05,21.29-5.05,33.35-14.99,33.35-27.58,0-7.95-3.82-13.66-13.72-13.66-6.65,0-19.87,2.98-30.1,6.54.08.66-.75,1.49-1.58,1.9l-2.49-7.37ZM575.39,82.78c11.39,1,24.53,3.4,33.43,6.46l-1.75,5.8c-8.81-2.98-22.28-5.71-33.1-6.63l1.41-5.63ZM507.93,646.56h22.28l-47.98,70.73,50.08,73.39h-22.66l-38.66-58.22-38.65,58.22h-22.66l50.08-73.39-47.99-70.73h22.28l36.94,55.75,36.94-55.75ZM543.7,648.64c6.67,0,12,5.31,12,11.95s-5.33,11.95-12,11.95-12-5.31-12-11.95,5.33-11.95,12-11.95ZM535.14,691.88h17.13v98.8h-17.13v-98.8ZM658.71,771.53c-13.33,14.79-27.42,21.43-44.75,21.43-35.23,0-54.08-25.41-54.08-51.77,0-28.07,20.18-51.58,51.22-51.58s51.98,23.32,51.98,58.22h-84.93c2.67,16.88,16.37,29.21,35.61,29.21,12.19,0,23.04-5.69,31.8-15.93l13.14,10.43ZM643.66,733.79c-1.71-16.31-15.04-28.25-32.75-28.25-20.94,0-31.04,14.79-32.75,28.25h65.5ZM584.83,653v-1.52h23.04l15.42,25.03h-13.52l-24.94-23.51ZM738.66,691.88h21.71l-38.46,48.36,39.99,50.45h-22.85l-28.37-36.79-29.51,36.79h-21.71l39.99-50.45-38.46-48.36h22.85l26.85,35.65,27.99-35.65ZM772.92,648.64c6.66,0,11.99,5.31,11.99,11.95s-5.33,11.95-11.99,11.95-12-5.31-12-11.95,5.33-11.95,12-11.95ZM764.35,691.88h17.13v98.8h-17.13v-98.8ZM887.92,771.53c-13.33,14.79-27.42,21.43-44.75,21.43-35.23,0-54.08-25.41-54.08-51.77,0-28.07,20.18-51.58,51.22-51.58s51.98,23.32,51.98,58.22h-84.93c2.67,16.88,16.37,29.21,35.61,29.21,12.19,0,23.04-5.69,31.8-15.93l13.14,10.43ZM872.88,733.79c-1.71-16.31-15.04-28.25-32.75-28.25-20.94,0-31.04,14.79-32.75,28.25h65.5ZM814.04,653v-1.52h23.04l15.42,25.03h-13.52l-24.94-23.51ZM291.27,158.97h3.16l-6.8,10.03,7.1,10.41h-3.21l-5.48-8.26-5.48,8.26h-3.21l7.1-10.41-6.8-10.03h3.16l5.24,7.91,5.24-7.91ZM296.35,159.27c.95,0,1.7.75,1.7,1.69s-.76,1.69-1.7,1.69-1.7-.75-1.7-1.69.76-1.69,1.7-1.69ZM295.13,165.4h2.43v14.01h-2.43v-14.01ZM312.66,176.69c-1.89,2.1-3.89,3.04-6.35,3.04-5,0-7.67-3.6-7.67-7.34,0-3.98,2.86-7.31,7.26-7.31s7.37,3.31,7.37,8.26h-12.04c.38,2.39,2.32,4.14,5.05,4.14,1.73,0,3.27-.81,4.51-2.26l1.86,1.48ZM310.52,171.34c-.24-2.31-2.13-4.01-4.64-4.01-2.97,0-4.4,2.1-4.64,4.01h9.29ZM302.18,159.89v-.21h3.27l2.19,3.55h-1.92l-3.54-3.33ZM323.99,165.4h3.08l-5.45,6.86,5.67,7.15h-3.24l-4.02-5.22-4.18,5.22h-3.08l5.67-7.15-5.45-6.86h3.24l3.81,5.06,3.97-5.06ZM328.85,159.27c.95,0,1.7.75,1.7,1.69s-.76,1.69-1.7,1.69-1.7-.75-1.7-1.69.76-1.69,1.7-1.69ZM327.64,165.4h2.43v14.01h-2.43v-14.01ZM345.16,176.69c-1.89,2.1-3.89,3.04-6.35,3.04-5,0-7.67-3.6-7.67-7.34,0-3.98,2.86-7.31,7.26-7.31s7.37,3.31,7.37,8.26h-12.04c.38,2.39,2.32,4.14,5.05,4.14,1.73,0,3.27-.81,4.51-2.26l1.86,1.48ZM343.02,171.34c-.24-2.31-2.13-4.01-4.64-4.01-2.97,0-4.4,2.1-4.64,4.01h9.29ZM334.68,159.89v-.21h3.27l2.19,3.55h-1.92l-3.54-3.33ZM283.3,61.73c-.23-1.6-1.16-2.59-2.61-2.59-1.93,0-2.45,1.27-2.45,2.19,0,1.02.64,1.66,1.99,2.16l1.72.64c2.17.8,3.17,2.07,3.17,3.71,0,2.19-1.75,3.78-4.37,3.78-2.47,0-4.22-1.3-4.44-4.01h1.72c.14,1.48.9,2.51,2.81,2.51,1.49,0,2.56-.95,2.56-2.14,0-1.05-.88-1.73-2.11-2.21l-1.74-.68c-2.02-.78-3.03-1.96-3.03-3.71,0-2.34,1.95-3.74,4.19-3.74s4.01,1.34,4.21,4.08h-1.61ZM291.83,66.01c0-1.39-.57-2.6-2.17-2.6-1.5,0-2.42,1.02-2.42,2.78v5.22h-1.61v-13.55h1.61v5.35h.04c.48-.84,1.52-1.3,2.56-1.3,1.81,0,3.6.98,3.6,3.49v6.01h-1.61v-5.4ZM300.68,70.33h-.04c-.48.84-1.52,1.3-2.56,1.3-1.81,0-3.6-.98-3.6-3.49v-6.01h1.61v5.4c0,1.39.57,2.6,2.17,2.6,1.5,0,2.42-1.02,2.42-2.78v-5.22h1.61v9.29h-1.61v-1.09ZM308.98,62.13h2.11l-4.31,4.3,4.4,4.99h-2.26l-3.88-4.51v4.51h-1.61v-13.55h1.61v8.31l3.94-4.05ZM311.29,62.13h1.61v1.32h.04c.81-1.44,1.58-1.53,2.94-1.53v1.69c-.23-.05-.48-.09-.73-.09-1.34,0-2.24.93-2.24,2.62v5.28h-1.61v-9.29ZM322.31,65.19c0-1.53-1.54-1.87-2.79-1.87-.88,0-1.7.21-2.58.64l-.7-1.34c1.41-.59,2.52-.71,3.37-.71,2.24,0,4.31.94,4.31,3.16v6.35h-1.5v-1c-.82.86-1.74,1.21-2.97,1.21-2.27,0-4.06-1.27-4.06-3.33,0-1.69,1.45-3.19,4.05-3.19.98,0,2.02.29,2.88,1.05v-.96ZM319.73,66.51c-1.97,0-2.63.94-2.63,1.85s.66,1.85,2.63,1.85,2.63-.94,2.63-1.85-.66-1.85-2.63-1.85ZM331.08,66.01c0-1.39-.57-2.6-2.17-2.6-1.5,0-2.42,1.02-2.42,2.78v5.22h-1.61v-9.29h1.61v1.09h.04c.48-.84,1.52-1.3,2.56-1.3,1.81,0,3.6.98,3.6,3.49v6.01h-1.61v-5.4ZM736.8,625.15h2.93l-6.72,11.89v7.89h-2.51v-7.89l-6.72-11.89h2.93l5.04,9.27,5.04-9.27ZM743.17,631.05c4.29,0,7.37,3.28,7.37,7.1s-2.93,7.08-7.37,7.08-7.37-3.2-7.37-7.08,3.08-7.1,7.37-7.1ZM738.31,638.16c0,2.6,2.25,4.89,4.86,4.89s4.86-2.29,4.86-4.89c0-2.81-2.25-4.92-4.86-4.92s-4.86,2.11-4.86,4.92ZM760.34,643.34h-.05c-.71,1.22-2.22,1.9-3.74,1.9-2.64,0-5.25-1.43-5.25-5.1v-8.77h2.35v7.89c0,2.03.84,3.8,3.16,3.8,2.2,0,3.53-1.48,3.53-4.06v-7.63h2.35v13.56h-2.35v-1.59ZM692.96,605.5h-4.97v-2.34h12.44v2.34h-4.97v17.44h-2.51v-17.44ZM710.26,615.05c0-2.03-.84-3.8-3.16-3.8-2.2,0-3.53,1.48-3.53,4.06v7.63h-2.35v-19.78h2.35v7.81h.05c.71-1.22,2.22-1.9,3.74-1.9,2.64,0,5.25,1.43,5.25,5.1v8.77h-2.35v-7.89ZM723.28,613.85c0-2.24-2.25-2.73-4.08-2.73-1.28,0-2.48.31-3.76.94l-1.02-1.95c2.06-.86,3.68-1.04,4.91-1.04,3.27,0,6.3,1.38,6.3,4.61v9.27h-2.2v-1.46c-1.2,1.25-2.53,1.77-4.34,1.77-3.32,0-5.93-1.85-5.93-4.87,0-2.47,2.12-4.66,5.91-4.66,1.44,0,2.95.42,4.21,1.54v-1.41ZM719.51,615.78c-2.87,0-3.84,1.38-3.84,2.71s.97,2.71,3.84,2.71,3.84-1.38,3.84-2.71-.97-2.71-3.84-2.71ZM735.56,615.05c0-2.03-.84-3.8-3.16-3.8-2.2,0-3.53,1.48-3.53,4.06v7.63h-2.35v-13.56h2.35v1.59h.05c.71-1.22,2.22-1.9,3.74-1.9,2.64,0,5.25,1.43,5.25,5.1v8.77h-2.35v-7.89ZM747.16,609.37h3.08l-6.3,6.27,6.43,7.29h-3.29l-5.67-6.58v6.58h-2.35v-19.78h2.35v12.13l5.75-5.91ZM769.42,837.88h-4.89l-.95,2.43h-1.45l4.27-10.45h1.16l4.27,10.45h-1.45l-.95-2.43ZM766.98,831.6l-1.99,5.13h3.98l-1.99-5.13ZM772.95,838.22c.08.77.73,1.17,1.49,1.17,1.12,0,1.42-.6,1.42-1.03,0-.47-.3-.76-1.27-1.02l-1.26-.34c-1.06-.29-1.46-.99-1.46-1.84,0-1.18.9-2.17,2.57-2.17,1.84,0,2.47,1.15,2.47,2.23h-1.16c-.1-.81-.51-1.21-1.34-1.21s-1.3.47-1.3,1.03c0,.4.22.7.8.87l1.68.48c1.13.33,1.5.95,1.5,1.87,0,1.46-1.28,2.23-2.61,2.23-1.68,0-2.66-.89-2.71-2.25h1.16ZM782.88,835.51c0-1.18-1.19-1.44-2.15-1.44-.68,0-1.31.17-1.99.5l-.54-1.03c1.09-.45,1.95-.55,2.6-.55,1.73,0,3.33.73,3.33,2.43v4.89h-1.16v-.77c-.64.66-1.34.93-2.29.93-1.75,0-3.13-.98-3.13-2.57,0-1.31,1.12-2.46,3.12-2.46.76,0,1.56.22,2.22.81v-.74ZM780.89,836.53c-1.52,0-2.03.73-2.03,1.43s.51,1.43,2.03,1.43,2.03-.73,2.03-1.43-.51-1.43-2.03-1.43ZM789.64,836.15c0-1.07-.44-2.01-1.67-2.01-1.16,0-1.86.78-1.86,2.14v4.03h-1.24v-7.16h1.24v.84h.03c.37-.65,1.17-1,1.97-1,1.39,0,2.77.76,2.77,2.69v4.63h-1.24v-4.17ZM792.27,831.42h1.24v1.73h1.15v1.09h-1.15v4.4c0,.38.12.52.61.52h.57v1.14c-.18.01-.47.01-.76.01-1.27,0-1.66-.44-1.66-1.54v-4.54h-.99v-1.09h.99v-1.73ZM801.78,838.92c-.97,1.07-1.99,1.55-3.24,1.55-2.55,0-3.92-1.84-3.92-3.75,0-2.03,1.46-3.74,3.71-3.74s3.77,1.69,3.77,4.22h-6.16c.19,1.22,1.19,2.12,2.58,2.12.88,0,1.67-.41,2.31-1.16l.95.76ZM800.69,836.19c-.12-1.18-1.09-2.05-2.37-2.05-1.52,0-2.25,1.07-2.37,2.05h4.75ZM1051.45,508h3.81l-10.57,11.45,10.82,12.01h-4.28l-9.39-10.71v10.71h-2.97v-23.46h2.97v10.74l9.61-10.74ZM1057.27,508.34c1.08,0,1.95.86,1.95,1.94s-.87,1.94-1.95,1.94-1.95-.86-1.95-1.94.87-1.94,1.95-1.94ZM1055.88,515.38h2.79v16.08h-2.79v-16.08ZM1062.23,508.34c1.08,0,1.95.86,1.95,1.94s-.87,1.94-1.95,1.94-1.95-.86-1.95-1.94.87-1.94,1.95-1.94ZM1060.84,515.38h2.79v16.08h-2.79v-16.08ZM1066.29,511.49h2.79v3.89h2.57v2.44h-2.57v9.88c0,.86.28,1.17,1.36,1.17h1.27v2.56c-.4.03-1.05.03-1.7.03-2.85,0-3.72-.99-3.72-3.46v-10.18h-2.23v-2.44h2.23v-3.89ZM1080.76,515.01c5.08,0,8.74,3.89,8.74,8.43s-3.47,8.39-8.74,8.39-8.74-3.8-8.74-8.39,3.66-8.43,8.74-8.43ZM1074.99,523.43c0,3.09,2.67,5.8,5.76,5.8s5.76-2.72,5.76-5.8c0-3.33-2.67-5.83-5.76-5.83s-5.76,2.5-5.76,5.83ZM1092.69,526.76c.18,1.73,1.64,2.62,3.35,2.62,2.51,0,3.19-1.36,3.19-2.31,0-1.05-.68-1.7-2.85-2.28l-2.82-.77c-2.39-.65-3.29-2.22-3.29-4.14,0-2.65,2.02-4.88,5.76-4.88,4.12,0,5.55,2.59,5.55,5h-2.6c-.22-1.82-1.15-2.72-3.01-2.72s-2.91,1.05-2.91,2.32c0,.89.5,1.57,1.8,1.94l3.78,1.08c2.54.74,3.38,2.13,3.38,4.2,0,3.27-2.88,5-5.86,5-3.78,0-5.98-2.01-6.07-5.06h2.6ZM844.06,485.31h5.09l-14.11,15.28,14.44,16.03h-5.71l-12.53-14.3v14.3h-3.97v-31.31h3.97v14.34l12.82-14.34ZM851.83,485.77c1.45,0,2.61,1.15,2.61,2.59s-1.16,2.6-2.61,2.6-2.61-1.15-2.61-2.6,1.16-2.59,2.61-2.59ZM849.97,495.16h3.72v21.47h-3.72v-21.47ZM870.82,502.25c0-3.54-3.56-4.33-6.45-4.33-2.03,0-3.93.49-5.96,1.48l-1.61-3.09c3.27-1.36,5.83-1.65,7.78-1.65,5.17,0,9.97,2.18,9.97,7.29v14.67h-3.48v-2.31c-1.9,1.98-4.01,2.8-6.87,2.8-5.25,0-9.39-2.92-9.39-7.7,0-3.91,3.35-7.38,9.35-7.38,2.27,0,4.67.66,6.66,2.43v-2.22ZM864.86,505.3c-4.55,0-6.08,2.18-6.08,4.28s1.53,4.28,6.08,4.28,6.08-2.18,6.08-4.28-1.53-4.28-6.08-4.28ZM900.1,484.82c10.67,0,16.67,8.4,16.67,16.15s-6,16.15-16.67,16.15-16.67-8.4-16.67-16.15,6-16.15,16.67-16.15ZM900.1,513.41c6.41,0,12.45-5.03,12.45-12.44s-6.04-12.44-12.45-12.44-12.45,5.03-12.45,12.44,6.04,12.44,12.45,12.44ZM918.63,495.16h3.72v3.05h.08c1.86-3.34,3.64-3.54,6.78-3.54v3.91c-.54-.12-1.12-.21-1.7-.21-3.1,0-5.17,2.14-5.17,6.06v12.2h-3.72v-21.47ZM944.11,502.25c0-3.54-3.56-4.33-6.45-4.33-2.03,0-3.93.49-5.96,1.48l-1.61-3.09c3.27-1.36,5.83-1.65,7.78-1.65,5.17,0,9.97,2.18,9.97,7.29v14.67h-3.47v-2.31c-1.9,1.98-4.01,2.8-6.87,2.8-5.25,0-9.39-2.92-9.39-7.7,0-3.91,3.35-7.38,9.35-7.38,2.28,0,4.68.66,6.66,2.43v-2.22ZM938.15,505.3c-4.55,0-6.08,2.18-6.08,4.28s1.53,4.28,6.08,4.28,6.08-2.18,6.08-4.28-1.53-4.28-6.08-4.28ZM725.71,383.31h6.25l-17.32,18.76,17.72,19.67h-7.01l-15.38-17.55v17.55h-4.87v-38.43h4.87v17.6l15.74-17.6ZM735.25,383.86c1.78,0,3.2,1.42,3.2,3.19s-1.42,3.18-3.2,3.18-3.2-1.41-3.2-3.18,1.42-3.19,3.2-3.19ZM732.97,395.4h4.57v26.35h-4.57v-26.35ZM743.38,383.86c1.78,0,3.2,1.42,3.2,3.19s-1.42,3.18-3.2,3.18-3.2-1.41-3.2-3.18,1.42-3.19,3.2-3.19ZM741.09,395.4h4.57v26.35h-4.57v-26.35ZM750.03,389.02h4.57v6.37h4.21v3.99h-4.21v16.18c0,1.42.46,1.92,2.23,1.92h2.08v4.19c-.66.05-1.73.05-2.79.05-4.67,0-6.09-1.62-6.09-5.66v-16.69h-3.66v-3.99h3.66v-6.37ZM773.74,394.79c8.33,0,14.32,6.37,14.32,13.81s-5.69,13.76-14.32,13.76-14.32-6.22-14.32-13.76,5.99-13.81,14.32-13.81ZM764.29,408.6c0,5.06,4.37,9.5,9.45,9.5s9.44-4.45,9.44-9.5c0-5.46-4.37-9.56-9.44-9.56s-9.45,4.1-9.45,9.56ZM793.28,414.05c.31,2.83,2.69,4.3,5.48,4.3,4.11,0,5.23-2.23,5.23-3.79,0-1.72-1.12-2.78-4.67-3.74l-4.62-1.26c-3.91-1.06-5.38-3.64-5.38-6.78,0-4.35,3.3-7.99,9.44-7.99,6.75,0,9.09,4.25,9.09,8.19h-4.26c-.36-2.98-1.88-4.45-4.92-4.45s-4.77,1.72-4.77,3.79c0,1.47.81,2.58,2.94,3.18l6.19,1.77c4.16,1.21,5.54,3.49,5.54,6.88,0,5.36-4.72,8.2-9.6,8.2-6.19,0-9.8-3.29-9.95-8.3h4.26Z"/>
</svg>