<?xml version="1.0" encoding="UTF-8"?>
<svg id="weg-design" xmlns="http://www.w3.org/2000/svg" viewBox="0 0 960 960">
  <defs>
    <style>
      .cls-1 {
        fill: #333;
      }
    </style>
  </defs>
  <g>
    <g>
      <path class="cls-1" d="M656.38,625.42c-9.85,0-20.23-2.96-29.57-9.07l-95.85-62.71c-22.57-14.76-30.68-42.43-18.1-61.68l169.96-259.79c5.51-8.42,13.83-14.46,24.06-17.47l110.66-32.56c7.32-2.15,15.49-.78,22.43,3.76,6.94,4.54,11.48,11.48,12.43,19.05l14.49,114.43c1.34,10.58-.86,20.63-6.37,29.05l-169.96,259.79c-7.38,11.28-20.25,17.2-34.19,17.2ZM824.51,197.95c-.78,0-1.53.1-2.23.31l-110.66,32.56c-6.35,1.87-11.45,5.52-14.75,10.56l-169.96,259.79c-7.52,11.49-1.58,28.73,13.23,38.42l95.85,62.71c14.81,9.69,32.99,8.23,40.51-3.26l169.96-259.79c3.29-5.03,4.59-11.17,3.76-17.74h0s-14.49-114.44-14.49-114.44c-.33-2.63-2.19-5.29-4.97-7.1-2.01-1.31-4.23-2.01-6.26-2.01Z"/>
      <path class="cls-1" d="M706.8,576.46c-1.58,0-3.17-.44-4.59-1.37l-163.65-107.06c-3.88-2.54-4.97-7.75-2.43-11.63,2.54-3.88,7.74-4.97,11.63-2.43l163.65,107.06c3.88,2.54,4.97,7.75,2.43,11.63-1.61,2.46-4.3,3.8-7.04,3.8Z"/>
      <path class="cls-1" d="M858.21,340.63c-1.58,0-3.17-.44-4.59-1.37l-159.63-104.43c-3.88-2.54-4.97-7.75-2.43-11.63,2.54-3.88,7.74-4.97,11.63-2.43l159.63,104.43c3.88,2.54,4.97,7.75,2.43,11.63-1.61,2.46-4.3,3.8-7.04,3.8Z"/>
    </g>
    <g>
      <path class="cls-1" d="M245.77,796.28h-36.12c-64.48,0-116.93-52.46-116.93-116.93v-143.83c0-73.44,59.74-133.18,133.18-133.18h3.62c73.44,0,133.18,59.75,133.18,133.18v143.83c0,64.48-52.46,116.93-116.93,116.93ZM225.9,419.14c-64.17,0-116.38,52.21-116.38,116.38v143.83c0,55.21,44.92,100.13,100.13,100.13h36.12c55.21,0,100.13-44.92,100.13-100.13v-143.83c0-64.17-52.21-116.38-116.38-116.38h-3.62Z"/>
      <path class="cls-1" d="M227.71,541.25c-4.64,0-8.4-3.76-8.4-8.4v-48.67c0-4.64,3.76-8.4,8.4-8.4s8.4,3.76,8.4,8.4v48.67c0,4.64-3.76,8.4-8.4,8.4Z"/>
    </g>
    <path class="cls-1" d="M515.29,415.57c-4.64,0-8.4-3.76-8.4-8.4v-116.64c0-74.65-60.74-135.39-135.39-135.39s-135.39,60.74-135.39,135.39v64.34c0,4.64-3.76,8.4-8.4,8.4s-8.4-3.76-8.4-8.4v-64.34c0-83.92,68.27-152.19,152.19-152.19s152.19,68.27,152.19,152.19v116.64c0,4.64-3.76,8.4-8.4,8.4Z"/>
  </g>
  <g>
    <path class="cls-1" d="M523.93,720.59c-2.83,0-5.13-2.3-5.13-5.13v-32.12c0-2.83,2.3-5.13,5.13-5.13s5.13,2.3,5.13,5.13v32.12c0,2.83-2.3,5.13-5.13,5.13Z"/>
    <path class="cls-1" d="M523.93,786.94c-2.83,0-5.13-2.3-5.13-5.13v-32.12c0-2.83,2.3-5.13,5.13-5.13s5.13,2.3,5.13,5.13v32.12c0,2.83-2.3,5.13-5.13,5.13Z"/>
    <path class="cls-1" d="M573.17,737.71h-32.12c-2.83,0-5.13-2.3-5.13-5.13s2.3-5.13,5.13-5.13h32.12c2.83,0,5.13,2.3,5.13,5.13s-2.3,5.13-5.13,5.13Z"/>
    <path class="cls-1" d="M506.82,737.71h-32.12c-2.83,0-5.13-2.3-5.13-5.13s2.3-5.13,5.13-5.13h32.12c2.83,0,5.13,2.3,5.13,5.13s-2.3,5.13-5.13,5.13Z"/>
  </g>
</svg>