<?xml version="1.0" encoding="UTF-8"?>
<svg xmlns="http://www.w3.org/2000/svg" xmlns:xlink="http://www.w3.org/1999/xlink" viewBox="0 0 1280 960">
  <defs>
    <style>
      .cls-1 {
        fill: #dd3b10;
      }

      .cls-2, .cls-3, .cls-4, .cls-5 {
        mix-blend-mode: screen;
      }

      .cls-2, .cls-6 {
        fill: #c6b9be;
      }

      .cls-7 {
        fill: #423eaf;
      }

      .cls-8 {
        fill: #f6f6fb;
      }

      .cls-9 {
        fill: #5555c6;
      }

      .cls-10 {
        fill: #bbc0e6;
      }

      .cls-11 {
        fill: #b9bfe8;
      }

      .cls-12 {
        fill: #f7f7fc;
      }

      .cls-13 {
        fill: #f5f5fa;
      }

      .cls-14 {
        fill: url(#linear-gradient-8);
      }

      .cls-15 {
        fill: url(#linear-gradient-7);
      }

      .cls-16 {
        fill: url(#linear-gradient-9);
      }

      .cls-17 {
        fill: url(#linear-gradient-4);
      }

      .cls-18 {
        fill: url(#linear-gradient-3);
      }

      .cls-3 {
        fill: #6a6ae2;
      }

      .cls-19 {
        fill: url(#linear-gradient-2);
      }

      .cls-19, .cls-20, .cls-21, .cls-22, .cls-23, .cls-24, .cls-25, .cls-26, .cls-27, .cls-28, .cls-29, .cls-30, .cls-31, .cls-32, .cls-33, .cls-34, .cls-35, .cls-36, .cls-37, .cls-38, .cls-39, .cls-40, .cls-41, .cls-42, .cls-43, .cls-44, .cls-45, .cls-46, .cls-47, .cls-48, .cls-49, .cls-50, .cls-51, .cls-52, .cls-53 {
        mix-blend-mode: multiply;
      }

      .cls-20 {
        fill: url(#linear-gradient-6);
      }

      .cls-21 {
        fill: url(#linear-gradient-5);
      }

      .cls-22, .cls-54 {
        fill: #e8ecf7;
      }

      .cls-55 {
        fill: #ffad02;
      }

      .cls-56 {
        fill: url(#radial-gradient);
      }

      .cls-57 {
        fill: #bdc1e4;
      }

      .cls-58 {
        fill: #c2c7e3;
      }

      .cls-23 {
        fill: #dfe4f4;
      }

      .cls-59 {
        fill: url(#linear-gradient);
      }

      .cls-60 {
        fill: #fbba05;
      }

      .cls-61 {
        fill: #4141aa;
      }

      .cls-62 {
        fill: #34318f;
      }

      .cls-63 {
        fill: #5652cc;
      }

      .cls-64 {
        fill: #807dfb;
      }

      .cls-65 {
        fill: #ef4e16;
      }

      .cls-66 {
        fill: #f2eeed;
      }

      .cls-67 {
        isolation: isolate;
      }

      .cls-4 {
        fill: #6b6b6b;
      }

      .cls-24 {
        fill: url(#linear-gradient-71);
      }

      .cls-25 {
        fill: url(#linear-gradient-73);
      }

      .cls-26 {
        fill: url(#linear-gradient-67);
      }

      .cls-27 {
        fill: url(#linear-gradient-63);
      }

      .cls-28 {
        fill: url(#linear-gradient-61);
      }

      .cls-29 {
        fill: url(#linear-gradient-56);
      }

      .cls-30 {
        fill: url(#linear-gradient-52);
      }

      .cls-31 {
        fill: url(#linear-gradient-59);
      }

      .cls-32 {
        fill: url(#linear-gradient-22);
      }

      .cls-33 {
        fill: url(#linear-gradient-19);
      }

      .cls-34 {
        fill: url(#linear-gradient-30);
      }

      .cls-35 {
        fill: url(#linear-gradient-17);
      }

      .cls-36 {
        fill: url(#linear-gradient-15);
      }

      .cls-37 {
        fill: url(#linear-gradient-28);
      }

      .cls-38 {
        fill: url(#linear-gradient-32);
      }

      .cls-39 {
        fill: url(#linear-gradient-26);
      }

      .cls-40 {
        fill: url(#linear-gradient-27);
      }

      .cls-41 {
        fill: url(#linear-gradient-36);
      }

      .cls-42 {
        fill: url(#linear-gradient-38);
      }

      .cls-43 {
        fill: url(#linear-gradient-18);
      }

      .cls-44 {
        fill: url(#linear-gradient-35);
      }

      .cls-45 {
        fill: url(#linear-gradient-29);
      }

      .cls-46 {
        fill: url(#linear-gradient-42);
      }

      .cls-47 {
        fill: url(#linear-gradient-45);
      }

      .cls-48 {
        fill: url(#linear-gradient-47);
      }

      .cls-49 {
        fill: url(#linear-gradient-46);
      }

      .cls-68 {
        fill: #121047;
      }

      .cls-69 {
        fill: #ccd2fa;
      }

      .cls-70 {
        fill: #362e93;
      }

      .cls-71 {
        fill: #efeff3;
      }

      .cls-72 {
        fill: #1e1c6b;
      }

      .cls-73 {
        fill: #dee2f9;
      }

      .cls-74 {
        fill: #362b6e;
      }

      .cls-5 {
        fill: #ffc16b;
      }

      .cls-50 {
        fill: #f4f4f4;
      }

      .cls-75 {
        fill: #fff;
      }

      .cls-76 {
        fill: #1f196f;
      }

      .cls-77 {
        fill: #eaeef9;
      }

      .cls-78 {
        fill: url(#linear-gradient-43);
      }

      .cls-79 {
        fill: url(#linear-gradient-40);
      }

      .cls-80 {
        fill: url(#linear-gradient-41);
      }

      .cls-81 {
        fill: url(#linear-gradient-49);
      }

      .cls-82 {
        fill: url(#linear-gradient-48);
      }

      .cls-83 {
        fill: url(#linear-gradient-44);
      }

      .cls-84 {
        fill: url(#linear-gradient-10);
      }

      .cls-85 {
        fill: url(#linear-gradient-11);
      }

      .cls-86 {
        fill: url(#linear-gradient-12);
      }

      .cls-87 {
        fill: url(#linear-gradient-13);
      }

      .cls-88 {
        fill: url(#linear-gradient-14);
      }

      .cls-89 {
        fill: url(#linear-gradient-21);
      }

      .cls-90 {
        fill: url(#linear-gradient-20);
      }

      .cls-91 {
        fill: url(#linear-gradient-23);
      }

      .cls-92 {
        fill: url(#linear-gradient-25);
      }

      .cls-93 {
        fill: url(#linear-gradient-31);
      }

      .cls-94 {
        fill: url(#linear-gradient-33);
      }

      .cls-95 {
        fill: url(#linear-gradient-16);
      }

      .cls-96 {
        fill: url(#linear-gradient-34);
      }

      .cls-97 {
        fill: url(#linear-gradient-24);
      }

      .cls-98 {
        fill: url(#linear-gradient-37);
      }

      .cls-99 {
        fill: url(#linear-gradient-39);
      }

      .cls-100 {
        fill: url(#linear-gradient-57);
      }

      .cls-101 {
        fill: url(#linear-gradient-58);
      }

      .cls-102 {
        fill: url(#linear-gradient-53);
      }

      .cls-103 {
        fill: url(#linear-gradient-54);
      }

      .cls-104 {
        fill: url(#linear-gradient-55);
      }

      .cls-105 {
        fill: url(#linear-gradient-50);
      }

      .cls-106 {
        fill: url(#linear-gradient-51);
      }

      .cls-107 {
        fill: url(#linear-gradient-68);
      }

      .cls-108 {
        fill: url(#linear-gradient-69);
      }

      .cls-109 {
        fill: url(#linear-gradient-64);
      }

      .cls-110 {
        fill: url(#linear-gradient-65);
      }

      .cls-111 {
        fill: url(#linear-gradient-66);
      }

      .cls-112 {
        fill: url(#linear-gradient-60);
      }

      .cls-113 {
        fill: url(#linear-gradient-62);
      }

      .cls-114 {
        fill: url(#linear-gradient-72);
      }

      .cls-115 {
        fill: url(#linear-gradient-74);
      }

      .cls-116 {
        fill: url(#linear-gradient-70);
      }

      .cls-117 {
        fill: #362e94;
      }

      .cls-118 {
        fill: #d0d4f6;
      }

      .cls-119 {
        fill: #afa3a8;
      }

      .cls-120 {
        fill: #fc780b;
      }

      .cls-121 {
        fill: #20196f;
      }

      .cls-51 {
        fill: #e2dede;
      }

      .cls-122 {
        fill: #ced3f8;
      }

      .cls-123 {
        fill: #231574;
      }

      .cls-52 {
        fill: #dce1f4;
      }

      .cls-124 {
        fill: #6b67e9;
      }

      .cls-125 {
        fill: #131147;
      }

      .cls-53 {
        fill: #ccc;
      }
    </style>
    <linearGradient id="linear-gradient" x1="650.29" y1="188.93" x2="611.42" y2="1090.42" gradientUnits="userSpaceOnUse">
      <stop offset=".23" stop-color="#fff"/>
      <stop offset="1" stop-color="#efeff3"/>
    </linearGradient>
    <linearGradient id="linear-gradient-2" x1="279" y1="877.5" x2="558.2" y2="877.5" gradientUnits="userSpaceOnUse">
      <stop offset=".53" stop-color="#c6cbe7"/>
      <stop offset=".83" stop-color="#eeeff7"/>
      <stop offset="1" stop-color="#fff"/>
    </linearGradient>
    <linearGradient id="linear-gradient-3" x1="507.85" y1="891.77" x2="518.03" y2="874.15" gradientUnits="userSpaceOnUse">
      <stop offset="0" stop-color="#4141aa"/>
      <stop offset=".24" stop-color="#3c3ba1"/>
      <stop offset=".62" stop-color="#2e2d88"/>
      <stop offset="1" stop-color="#1e1c6b"/>
    </linearGradient>
    <linearGradient id="linear-gradient-4" x1="441.07" y1="830.87" x2="443.44" y2="826.77" xlink:href="#linear-gradient-3"/>
    <linearGradient id="linear-gradient-5" x1="416.09" y1="877.64" x2="517.78" y2="877.64" gradientUnits="userSpaceOnUse">
      <stop offset="0" stop-color="#c6cbe7"/>
      <stop offset=".84" stop-color="#f5f5fa"/>
      <stop offset="1" stop-color="#fff"/>
    </linearGradient>
    <linearGradient id="linear-gradient-6" x1="123.92" y1="488.53" x2="290.2" y2="488.53" gradientUnits="userSpaceOnUse">
      <stop offset=".33" stop-color="#c2c9eb"/>
      <stop offset=".58" stop-color="#d5daf1"/>
      <stop offset="1" stop-color="#fff"/>
    </linearGradient>
    <linearGradient id="linear-gradient-7" x1="161.24" y1="469.32" x2="211.47" y2="469.32" gradientUnits="userSpaceOnUse">
      <stop offset="0" stop-color="#b9bfe8"/>
      <stop offset="1" stop-color="#d8dff6"/>
    </linearGradient>
    <linearGradient id="linear-gradient-8" x1="147.05" y1="506.33" x2="179.1" y2="506.33" gradientUnits="userSpaceOnUse">
      <stop offset="0" stop-color="#b9bfe8"/>
      <stop offset="1" stop-color="#ccd2fa"/>
    </linearGradient>
    <linearGradient id="linear-gradient-9" x1="-9226.15" y1="8994.34" x2="-9210.35" y2="9020.77" gradientTransform="translate(3399.8 12993.06) rotate(120)" gradientUnits="userSpaceOnUse">
      <stop offset="0" stop-color="#ccd2fa"/>
      <stop offset="1" stop-color="#b9bfe8"/>
    </linearGradient>
    <linearGradient id="linear-gradient-10" x1="226.87" y1="481.41" x2="248.73" y2="481.41" gradientUnits="userSpaceOnUse">
      <stop offset=".4" stop-color="#b9bfe8"/>
      <stop offset="1" stop-color="#ccd2fa"/>
    </linearGradient>
    <linearGradient id="linear-gradient-11" x1="415.06" y1="396.42" x2="650.03" y2="396.42" gradientUnits="userSpaceOnUse">
      <stop offset="0" stop-color="#c6cbe7"/>
      <stop offset=".24" stop-color="#ccd0e9"/>
      <stop offset=".58" stop-color="#dee1f1"/>
      <stop offset=".97" stop-color="#fcfcfd"/>
      <stop offset="1" stop-color="#fff"/>
    </linearGradient>
    <linearGradient id="linear-gradient-12" x1="396.15" y1="414.18" x2="603.44" y2="414.18" gradientUnits="userSpaceOnUse">
      <stop offset=".24" stop-color="#5555c6"/>
      <stop offset=".31" stop-color="#5353c3"/>
      <stop offset=".34" stop-color="#4e4ebb"/>
      <stop offset=".37" stop-color="#4645ae"/>
      <stop offset=".39" stop-color="#3b399b"/>
      <stop offset=".4" stop-color="#34318f"/>
    </linearGradient>
    <linearGradient id="linear-gradient-13" x1="319.83" y1="418.4" x2="578.02" y2="-28.79" gradientUnits="userSpaceOnUse">
      <stop offset=".39" stop-color="#4141aa"/>
      <stop offset=".41" stop-color="#4646b1"/>
      <stop offset=".43" stop-color="#5454c4"/>
      <stop offset=".46" stop-color="#6a6ae2"/>
    </linearGradient>
    <linearGradient id="linear-gradient-14" x1="-4616.48" y1="368.43" x2="-4483.63" y2="368.43" gradientTransform="translate(-3770.76) rotate(-180) scale(1 -1)" gradientUnits="userSpaceOnUse">
      <stop offset=".26" stop-color="#362e94"/>
      <stop offset=".32" stop-color="#3f38a3"/>
      <stop offset=".43" stop-color="#5953cc"/>
      <stop offset=".49" stop-color="#6b67e9"/>
    </linearGradient>
    <linearGradient id="linear-gradient-15" x1="808.9" y1="491.63" x2="1185.07" y2="491.63" gradientUnits="userSpaceOnUse">
      <stop offset="0" stop-color="#c6cbe7"/>
      <stop offset=".02" stop-color="#c7cce7"/>
      <stop offset=".67" stop-color="#eff0f8"/>
      <stop offset="1" stop-color="#fff"/>
    </linearGradient>
    <linearGradient id="linear-gradient-16" x1="-4518.12" y1="454.14" x2="-4490.1" y2="454.14" gradientTransform="translate(-3592.58) rotate(-180) scale(1 -1)" gradientUnits="userSpaceOnUse">
      <stop offset="0" stop-color="#20196f"/>
      <stop offset=".11" stop-color="#261f7a"/>
      <stop offset=".48" stop-color="#3a35a0"/>
      <stop offset=".68" stop-color="#423eaf"/>
    </linearGradient>
    <linearGradient id="linear-gradient-17" x1="961.79" y1="605.7" x2="1155.82" y2="605.7" gradientUnits="userSpaceOnUse">
      <stop offset="0" stop-color="#c6cbe7"/>
      <stop offset="1" stop-color="#fff"/>
    </linearGradient>
    <linearGradient id="linear-gradient-18" x1="907.57" y1="573.95" x2="1080.76" y2="573.95" gradientUnits="userSpaceOnUse">
      <stop offset="0" stop-color="#c6cbe7"/>
      <stop offset=".36" stop-color="#c8cde8"/>
      <stop offset=".58" stop-color="#d1d5eb"/>
      <stop offset=".77" stop-color="#dfe2f1"/>
      <stop offset=".93" stop-color="#f3f4fa"/>
      <stop offset="1" stop-color="#fff"/>
    </linearGradient>
    <linearGradient id="linear-gradient-19" x1="891.79" y1="573.95" x2="1064.98" y2="573.95" gradientUnits="userSpaceOnUse">
      <stop offset="0" stop-color="#c6cbe7"/>
      <stop offset="1" stop-color="#dce1f4"/>
    </linearGradient>
    <linearGradient id="linear-gradient-20" x1="886.53" y1="589.32" x2="1060.53" y2="589.32" gradientUnits="userSpaceOnUse">
      <stop offset="0" stop-color="#6a6ae2"/>
      <stop offset=".49" stop-color="#4342a6"/>
      <stop offset="1" stop-color="#1e1c6b"/>
    </linearGradient>
    <linearGradient id="linear-gradient-21" x1="867.19" y1="644.62" x2="850.76" y2="613.83" gradientUnits="userSpaceOnUse">
      <stop offset="0" stop-color="#34318f"/>
      <stop offset="1" stop-color="#5555c6"/>
    </linearGradient>
    <radialGradient id="radial-gradient" cx="802.54" cy="650.59" fx="802.54" fy="650.59" r="29.99" gradientUnits="userSpaceOnUse">
      <stop offset="0" stop-color="#7f7ff4"/>
      <stop offset=".14" stop-color="#7170e1"/>
      <stop offset=".53" stop-color="#504eb4"/>
      <stop offset=".83" stop-color="#3b3899"/>
      <stop offset="1" stop-color="#34318f"/>
    </radialGradient>
    <linearGradient id="linear-gradient-22" x1="600.39" y1="594.49" x2="757.48" y2="594.49" gradientUnits="userSpaceOnUse">
      <stop offset=".44" stop-color="#c2c9eb"/>
      <stop offset=".57" stop-color="#c7cdec"/>
      <stop offset=".73" stop-color="#d7dbf1"/>
      <stop offset=".92" stop-color="#f0f2fa"/>
      <stop offset="1" stop-color="#fff"/>
    </linearGradient>
    <linearGradient id="linear-gradient-23" x1="-4138.11" y1="556.72" x2="-4145.57" y2="538.4" gradientTransform="translate(-3546.45) rotate(-180) scale(1 -1)" gradientUnits="userSpaceOnUse">
      <stop offset="0" stop-color="#b9bfe8"/>
      <stop offset=".25" stop-color="#c2c7ea"/>
      <stop offset=".65" stop-color="#daddf2"/>
      <stop offset="1" stop-color="#f5f5fa"/>
    </linearGradient>
    <linearGradient id="linear-gradient-24" x1="-4129.86" y1="543.21" x2="-4132.84" y2="537.36" gradientTransform="translate(-3546.45) rotate(-180) scale(1 -1)" gradientUnits="userSpaceOnUse">
      <stop offset="0" stop-color="#231574"/>
      <stop offset=".21" stop-color="#2b1d82"/>
      <stop offset=".62" stop-color="#4035a8"/>
      <stop offset="1" stop-color="#584fd3"/>
    </linearGradient>
    <linearGradient id="linear-gradient-25" x1="799.15" y1="775.87" x2="758.14" y2="708.28" gradientUnits="userSpaceOnUse">
      <stop offset="0" stop-color="#bbc0e6"/>
      <stop offset="1" stop-color="#f6f6fb"/>
    </linearGradient>
    <linearGradient id="linear-gradient-26" x1="862.88" y1="812.27" x2="1129.25" y2="812.27" gradientTransform="translate(-108.92)" gradientUnits="userSpaceOnUse">
      <stop offset="0" stop-color="#c4cae8"/>
      <stop offset=".38" stop-color="#c6cce8"/>
      <stop offset=".59" stop-color="#ced3ec"/>
      <stop offset=".76" stop-color="#dce0f1"/>
      <stop offset=".92" stop-color="#f0f1f9"/>
      <stop offset="1" stop-color="#fff"/>
    </linearGradient>
    <linearGradient id="linear-gradient-27" x1="140.21" y1="689.66" x2="234.34" y2="689.66" gradientTransform="translate(42.41)" gradientUnits="userSpaceOnUse">
      <stop offset="0" stop-color="#c4c9e5"/>
      <stop offset=".24" stop-color="#dcdfef"/>
      <stop offset=".54" stop-color="#f5f6fa"/>
      <stop offset=".72" stop-color="#fff"/>
    </linearGradient>
    <linearGradient id="linear-gradient-28" x1="45.46" y1="717.26" x2="135.56" y2="717.26" gradientTransform="translate(97.64)" xlink:href="#linear-gradient-27"/>
    <linearGradient id="linear-gradient-29" x1="-49.28" y1="744.88" x2="33.65" y2="744.88" gradientTransform="translate(152.86)" xlink:href="#linear-gradient-27"/>
    <linearGradient id="linear-gradient-30" x1="527.05" y1="504.75" x2="571.83" y2="504.75" gradientTransform="translate(154.55)" gradientUnits="userSpaceOnUse">
      <stop offset="0" stop-color="#d1d7f3"/>
      <stop offset=".3" stop-color="#e4e7f8"/>
      <stop offset=".77" stop-color="#fff"/>
    </linearGradient>
    <linearGradient id="linear-gradient-31" x1="-4781.47" y1="502.18" x2="-4755.5" y2="502.18" gradientTransform="translate(-4097.72) rotate(-180) scale(1 -1)" gradientUnits="userSpaceOnUse">
      <stop offset="0" stop-color="#bbc0e6"/>
      <stop offset=".45" stop-color="#d7d9f0"/>
      <stop offset="1" stop-color="#f6f6fb"/>
    </linearGradient>
    <linearGradient id="linear-gradient-32" x1="-4781.43" y1="504.92" x2="-4755.6" y2="504.92" gradientTransform="translate(-4097.72) rotate(-180) scale(1 -1)" gradientUnits="userSpaceOnUse">
      <stop offset="0" stop-color="#f6f6fb"/>
      <stop offset="1" stop-color="#dae0f5"/>
    </linearGradient>
    <linearGradient id="linear-gradient-33" x1="-4773.54" y1="500.96" x2="-4768.78" y2="397.29" gradientTransform="translate(-4097.72) rotate(-180) scale(1 -1)" gradientUnits="userSpaceOnUse">
      <stop offset="0" stop-color="#423eaf"/>
      <stop offset="1" stop-color="#20196f"/>
    </linearGradient>
    <linearGradient id="linear-gradient-34" x1="653.21" y1="394.74" x2="677.48" y2="394.74" gradientUnits="userSpaceOnUse">
      <stop offset=".38" stop-color="#ced3f8"/>
      <stop offset=".55" stop-color="#d3d7f8"/>
      <stop offset=".75" stop-color="#e2e5fa"/>
      <stop offset=".98" stop-color="#fcfcfe"/>
      <stop offset="1" stop-color="#fff"/>
    </linearGradient>
    <linearGradient id="linear-gradient-35" x1="649.94" y1="406.74" x2="677.48" y2="406.74" gradientUnits="userSpaceOnUse">
      <stop offset="0" stop-color="#fff"/>
      <stop offset="1" stop-color="#ced3f8"/>
    </linearGradient>
    <linearGradient id="linear-gradient-36" x1="533.61" y1="519.96" x2="578.4" y2="519.96" gradientTransform="translate(119.99)" xlink:href="#linear-gradient-30"/>
    <linearGradient id="linear-gradient-37" x1="-4753.48" y1="517.47" x2="-4727.5" y2="517.47" xlink:href="#linear-gradient-31"/>
    <linearGradient id="linear-gradient-38" x1="-4753.44" y1="520.21" x2="-4727.61" y2="520.21" xlink:href="#linear-gradient-32"/>
    <linearGradient id="linear-gradient-39" x1="-4745.54" y1="516.25" x2="-4740.79" y2="412.58" xlink:href="#linear-gradient-33"/>
    <linearGradient id="linear-gradient-40" x1="359.14" y1="406.76" x2="356.53" y2="345.12" gradientTransform="translate(316.41 -15.33) rotate(-.7)" xlink:href="#linear-gradient-33"/>
    <linearGradient id="linear-gradient-41" x1="-4731.06" y1="351.49" x2="-4713.15" y2="333.58" gradientTransform="translate(-4097.72) rotate(-180) scale(1 -1)" gradientUnits="userSpaceOnUse">
      <stop offset="0" stop-color="#20196f"/>
      <stop offset="1" stop-color="#423eaf"/>
    </linearGradient>
    <linearGradient id="linear-gradient-42" x1="653.11" y1="327.13" x2="679.77" y2="327.13" gradientUnits="userSpaceOnUse">
      <stop offset="0" stop-color="#ced3f8"/>
      <stop offset="1" stop-color="#fff"/>
    </linearGradient>
    <linearGradient id="linear-gradient-43" x1="-4757.12" y1="319.07" x2="-4741.97" y2="328.99" gradientTransform="translate(-4097.72) rotate(-180) scale(1 -1)" gradientUnits="userSpaceOnUse">
      <stop offset="0" stop-color="#362e94"/>
      <stop offset="1" stop-color="#5652cc"/>
    </linearGradient>
    <linearGradient id="linear-gradient-44" x1="-4763.49" y1="292.81" x2="-4734.89" y2="311.39" gradientTransform="translate(-4097.72) rotate(-180) scale(1 -1)" gradientUnits="userSpaceOnUse">
      <stop offset="0" stop-color="#f6f6fb"/>
      <stop offset=".55" stop-color="#d7d9f0"/>
      <stop offset="1" stop-color="#bbc0e6"/>
    </linearGradient>
    <linearGradient id="linear-gradient-45" x1="-4755.11" y1="309.29" x2="-4735.61" y2="309.29" gradientTransform="translate(-4097.72) rotate(-180) scale(1 -1)" gradientUnits="userSpaceOnUse">
      <stop offset="0" stop-color="#ced3f8"/>
      <stop offset=".04" stop-color="#d2d6f8"/>
      <stop offset=".33" stop-color="#eaecfc"/>
      <stop offset=".59" stop-color="#f9fafe"/>
      <stop offset=".8" stop-color="#fff"/>
    </linearGradient>
    <linearGradient id="linear-gradient-46" x1="661.61" y1="393.68" x2="661.61" y2="334.26" xlink:href="#linear-gradient-42"/>
    <linearGradient id="linear-gradient-47" x1="406.5" y1="657.55" x2="445.89" y2="725.76" gradientUnits="userSpaceOnUse">
      <stop offset="0" stop-color="#d1d7f3"/>
      <stop offset=".31" stop-color="#dadff5"/>
      <stop offset=".83" stop-color="#f5f6fc"/>
      <stop offset=".99" stop-color="#fff"/>
    </linearGradient>
    <linearGradient id="linear-gradient-48" x1="-3893.93" y1="663.41" x2="-3868.86" y2="619.98" gradientTransform="translate(-3468.3) rotate(-180) scale(1 -1)" gradientUnits="userSpaceOnUse">
      <stop offset="0" stop-color="#f6f6fb"/>
      <stop offset="1" stop-color="#bbc0e6"/>
    </linearGradient>
    <linearGradient id="linear-gradient-49" x1="-3916.53" y1="659.05" x2="-3883.94" y2="602.59" gradientTransform="translate(-3468.3) rotate(-180) scale(1 -1)" gradientUnits="userSpaceOnUse">
      <stop offset="0" stop-color="#1f196f"/>
      <stop offset="1" stop-color="#5652cc"/>
    </linearGradient>
    <linearGradient id="linear-gradient-50" x1="-4827.3" y1="582.02" x2="-4844.61" y2="575.67" gradientTransform="translate(-4387.57) rotate(-180) scale(1 -1)" gradientUnits="userSpaceOnUse">
      <stop offset="0" stop-color="#1f196f"/>
      <stop offset=".13" stop-color="#27217c"/>
      <stop offset=".72" stop-color="#4844b5"/>
      <stop offset="1" stop-color="#5652cc"/>
    </linearGradient>
    <linearGradient id="linear-gradient-51" x1="-3899.5" y1="648.83" x2="-3820.18" y2="648.83" gradientTransform="translate(-3468.3) rotate(-180) scale(1 -1)" gradientUnits="userSpaceOnUse">
      <stop offset=".41" stop-color="#a3a9d0"/>
      <stop offset=".46" stop-color="#a7add4"/>
      <stop offset=".68" stop-color="#bbc0e6"/>
    </linearGradient>
    <linearGradient id="linear-gradient-52" x1="-3878.15" y1="669.17" x2="-3840.31" y2="603.62" gradientTransform="translate(-3468.3) rotate(-180) scale(1 -1)" gradientUnits="userSpaceOnUse">
      <stop offset="0" stop-color="#a7aed5"/>
      <stop offset=".01" stop-color="#aeb4d8"/>
      <stop offset=".07" stop-color="#d1d4e9"/>
      <stop offset=".13" stop-color="#eaecf5"/>
      <stop offset=".18" stop-color="#f9fafc"/>
      <stop offset=".22" stop-color="#fff"/>
    </linearGradient>
    <linearGradient id="linear-gradient-53" x1="-3831.2" y1="699.69" x2="-3806.12" y2="656.25" xlink:href="#linear-gradient-48"/>
    <linearGradient id="linear-gradient-54" x1="-3853.8" y1="695.32" x2="-3821.2" y2="638.86" xlink:href="#linear-gradient-49"/>
    <linearGradient id="linear-gradient-55" x1="-3907.69" y1="595.29" x2="-3811.98" y2="595.29" gradientTransform="translate(-3468.3) rotate(-180) scale(1 -1)" gradientUnits="userSpaceOnUse">
      <stop offset=".51" stop-color="#bbc0e6"/>
      <stop offset=".68" stop-color="#ced3f8"/>
    </linearGradient>
    <linearGradient id="linear-gradient-56" x1="364.28" y1="557.02" x2="439.39" y2="557.02" gradientUnits="userSpaceOnUse">
      <stop offset="0" stop-color="#d1d7f3"/>
      <stop offset=".29" stop-color="#d8ddf5"/>
      <stop offset=".72" stop-color="#eef0fa"/>
      <stop offset="1" stop-color="#fff"/>
    </linearGradient>
    <linearGradient id="linear-gradient-57" x1="-4810.02" y1="534.72" x2="-4786.3" y2="575.8" gradientTransform="translate(-4387.57) rotate(-180) scale(1 -1)" gradientUnits="userSpaceOnUse">
      <stop offset=".2" stop-color="#ced3f8"/>
      <stop offset=".3" stop-color="#e1e3f9"/>
      <stop offset=".4" stop-color="#f6f6fb"/>
    </linearGradient>
    <linearGradient id="linear-gradient-58" x1="-4778.4" y1="568.07" x2="-4810.81" y2="531.86" gradientTransform="translate(-4387.57) rotate(-180) scale(1 -1)" gradientUnits="userSpaceOnUse">
      <stop offset="0" stop-color="#1f196f"/>
      <stop offset=".26" stop-color="#2a2482"/>
      <stop offset=".77" stop-color="#4743b3"/>
      <stop offset="1" stop-color="#5652cc"/>
    </linearGradient>
    <linearGradient id="linear-gradient-59" x1="407.15" y1="555.3" x2="395.49" y2="542.27" gradientUnits="userSpaceOnUse">
      <stop offset="0" stop-color="#c4cae8"/>
      <stop offset=".5" stop-color="#dadef0"/>
      <stop offset="1" stop-color="#f6f6fb"/>
    </linearGradient>
    <linearGradient id="linear-gradient-60" x1="-4789.32" y1="518.82" x2="-4762.19" y2="565.81" gradientTransform="translate(-4387.57) rotate(-180) scale(1 -1)" gradientUnits="userSpaceOnUse">
      <stop offset="0" stop-color="#fff"/>
      <stop offset=".39" stop-color="#e8ebfb"/>
      <stop offset=".78" stop-color="#ced3f8"/>
    </linearGradient>
    <linearGradient id="linear-gradient-61" x1="-5257.83" y1="13325.7" x2="-5236.71" y2="13325.7" gradientTransform="translate(-5785.87 13525.89) rotate(46.93) scale(1 -1)" gradientUnits="userSpaceOnUse">
      <stop offset="0" stop-color="#d1d7f3"/>
      <stop offset=".51" stop-color="#edf0fa"/>
      <stop offset=".89" stop-color="#fff"/>
    </linearGradient>
    <linearGradient id="linear-gradient-62" x1="-4734.5" y1="588.51" x2="-4779.71" y2="640.4" gradientTransform="translate(-4387.57) rotate(-180) scale(1 -1)" gradientUnits="userSpaceOnUse">
      <stop offset="0" stop-color="#5652cc"/>
      <stop offset=".28" stop-color="#4844b5"/>
      <stop offset=".87" stop-color="#27217c"/>
      <stop offset="1" stop-color="#1f196f"/>
    </linearGradient>
    <linearGradient id="linear-gradient-63" x1="587.4" y1="763.97" x2="625.85" y2="830.55" xlink:href="#linear-gradient-47"/>
    <linearGradient id="linear-gradient-64" x1="-4074.54" y1="769.76" x2="-4050.06" y2="727.36" xlink:href="#linear-gradient-48"/>
    <linearGradient id="linear-gradient-65" x1="-4096.6" y1="765.5" x2="-4064.78" y2="710.39" xlink:href="#linear-gradient-49"/>
    <linearGradient id="linear-gradient-66" x1="-4079.97" y1="755.52" x2="-4002.55" y2="755.52" xlink:href="#linear-gradient-51"/>
    <linearGradient id="linear-gradient-67" x1="-4059.14" y1="775.38" x2="-4022.2" y2="711.4" xlink:href="#linear-gradient-52"/>
    <linearGradient id="linear-gradient-68" x1="-4013.31" y1="805.17" x2="-3988.83" y2="762.77" xlink:href="#linear-gradient-48"/>
    <linearGradient id="linear-gradient-69" x1="-4035.37" y1="800.91" x2="-4003.55" y2="745.79" xlink:href="#linear-gradient-49"/>
    <linearGradient id="linear-gradient-70" x1="-4087.97" y1="703.27" x2="-3994.54" y2="703.27" xlink:href="#linear-gradient-55"/>
    <linearGradient id="linear-gradient-71" x1="541.88" y1="662.98" x2="619.67" y2="662.98" xlink:href="#linear-gradient-56"/>
    <linearGradient id="linear-gradient-72" x1="-4046.85" y1="626.15" x2="-4020.47" y2="671.84" gradientTransform="translate(-3468.3) rotate(-180) scale(1 -1)" gradientUnits="userSpaceOnUse">
      <stop offset="0" stop-color="#f6f6fb"/>
      <stop offset=".46" stop-color="#dfe2f9"/>
      <stop offset=".78" stop-color="#ced3f8"/>
    </linearGradient>
    <linearGradient id="linear-gradient-73" x1="-5055.14" y1="13384.8" x2="-5034.52" y2="13384.8" xlink:href="#linear-gradient-61"/>
    <linearGradient id="linear-gradient-74" x1="4981.8" y1="9257.45" x2="5016.4" y2="9297.12" gradientTransform="translate(-9096.77 5009.84) rotate(-85.75)" xlink:href="#linear-gradient-62"/>
  </defs>
  <g class="cls-67">
    <g id="Wave_shape">
      <path class="cls-59" d="M1073.61,716.03c27.45-86.19,59.61-79.58,109.35-110.33,153.08-94.61,90.05-339.23-143.23-339.23-283.01,0-335.45-107.87-525.12-169.96C297.78,25.53,174.26,47.27,174.26,265.26c0,115.02-188.59,20.36-159.43,208.28,104.65,674.44,990.6,456.56,1058.79,242.5Z"/>
    </g>
    <g id="Abstract_shapes">
      <path class="cls-22" d="M197.82,298.44l24.37,52.52c1.47,3.17,5.35,4.4,8.38,2.65l66.59-38.45c4.87-2.81,3.49-10.19-2.07-11.05l-90.96-14.07c-4.7-.73-8.32,4.08-6.32,8.4Z"/>
      <path class="cls-22" d="M1161.01,412.04c-19.9-11.49-52.17-11.49-72.07,0-19.9,11.49-19.9,30.12,0,41.61,19.9,11.49,52.17,11.49,72.07,0,19.9-11.49,19.9-30.12,0-41.61ZM1105.94,443.83c-10.51-6.07-10.51-15.91,0-21.97,10.51-6.07,27.55-6.07,38.06,0,10.51,6.07,10.51,15.91,0,21.97-10.51,6.07-27.55,6.07-38.06,0Z"/>
      <g>
        <path class="cls-54" d="M256.05,495.03c3.51,2.02,9.19,2.02,12.7,0,3.51-2.02,3.51-5.31,0-7.33-3.51-2.02-9.19-2.02-12.7,0-3.51,2.02-3.51,5.31,0,7.33Z"/>
        <path class="cls-54" d="M287.13,512.97c3.51,2.02,9.19,2.02,12.7,0,3.51-2.02,3.51-5.31,0-7.33-3.51-2.02-9.19-2.02-12.7,0-3.51,2.02-3.51,5.31,0,7.33Z"/>
        <path class="cls-54" d="M318.22,530.91c3.51,2.02,9.19,2.02,12.7,0s3.51-5.31,0-7.33-9.19-2.02-12.7,0c-3.51,2.02-3.51,5.31,0,7.33Z"/>
        <path class="cls-54" d="M362,541.52c-3.51-2.02-9.19-2.02-12.7,0-3.51,2.02-3.51,5.31,0,7.33,3.51,2.02,9.19,2.02,12.7,0,3.51-2.02,3.51-5.31,0-7.33Z"/>
        <path class="cls-54" d="M224.97,512.97c3.51,2.02,9.19,2.02,12.7,0s3.51-5.31,0-7.33-9.2-2.02-12.7,0-3.51,5.31,0,7.33Z"/>
        <path class="cls-54" d="M256.05,530.91c3.51,2.02,9.2,2.02,12.7,0,3.51-2.03,3.51-5.31,0-7.33-3.51-2.02-9.19-2.02-12.7,0-3.51,2.02-3.51,5.31,0,7.33Z"/>
        <path class="cls-54" d="M287.13,548.86c3.51,2.02,9.19,2.02,12.7,0,3.51-2.02,3.51-5.31,0-7.33-3.51-2.02-9.19-2.02-12.7,0-3.51,2.02-3.51,5.31,0,7.33Z"/>
        <path class="cls-54" d="M330.92,559.47c-3.51-2.02-9.19-2.03-12.7,0-3.51,2.02-3.51,5.31,0,7.33,3.51,2.02,9.19,2.02,12.7,0s3.51-5.31,0-7.33Z"/>
        <path class="cls-54" d="M193.89,530.91c3.51,2.02,9.2,2.02,12.7,0,3.51-2.03,3.51-5.31,0-7.33-3.51-2.02-9.19-2.02-12.7,0-3.51,2.02-3.51,5.31,0,7.33Z"/>
        <path class="cls-54" d="M224.97,548.86c3.51,2.02,9.19,2.02,12.7,0s3.51-5.31,0-7.33-9.2-2.02-12.7,0-3.51,5.31,0,7.33Z"/>
        <path class="cls-54" d="M256.06,566.8c3.51,2.02,9.19,2.02,12.7,0,3.51-2.02,3.51-5.31,0-7.33-3.51-2.03-9.19-2.03-12.7,0-3.51,2.02-3.51,5.31,0,7.33Z"/>
        <path class="cls-54" d="M299.84,577.41c-3.51-2.02-9.19-2.02-12.7,0-3.51,2.02-3.51,5.31,0,7.33,3.51,2.02,9.19,2.02,12.7,0,3.51-2.02,3.51-5.31,0-7.33Z"/>
        <path class="cls-54" d="M162.82,548.86c3.51,2.02,9.19,2.02,12.7,0s3.51-5.31,0-7.33-9.19-2.02-12.7,0c-3.51,2.02-3.51,5.31,0,7.33Z"/>
        <path class="cls-54" d="M193.9,566.8c3.51,2.02,9.19,2.02,12.7,0,3.51-2.02,3.51-5.31,0-7.33-3.51-2.02-9.19-2.02-12.7,0-3.51,2.03-3.51,5.31,0,7.33Z"/>
        <path class="cls-54" d="M224.97,584.75c3.51,2.02,9.19,2.02,12.7,0,3.51-2.03,3.51-5.31,0-7.33s-9.2-2.02-12.7,0-3.51,5.31,0,7.33Z"/>
        <path class="cls-54" d="M268.76,595.35c-3.51-2.02-9.19-2.02-12.7,0-3.51,2.02-3.51,5.31,0,7.33,3.51,2.02,9.19,2.02,12.7,0,3.51-2.02,3.51-5.31,0-7.33Z"/>
        <path class="cls-54" d="M144.44,559.46c-3.51-2.02-9.19-2.02-12.7,0-3.51,2.03-3.51,5.31,0,7.33,3.51,2.02,9.19,2.02,12.7,0,3.51-2.02,3.51-5.31,0-7.33Z"/>
        <path class="cls-54" d="M175.52,577.41c-3.51-2.02-9.19-2.02-12.7,0-3.51,2.02-3.51,5.31,0,7.33,3.51,2.02,9.19,2.02,12.7,0,3.51-2.03,3.51-5.31,0-7.33Z"/>
        <path class="cls-54" d="M206.6,595.35c-3.51-2.02-9.19-2.02-12.7,0-3.51,2.02-3.51,5.31,0,7.33,3.51,2.02,9.19,2.02,12.7,0,3.51-2.02,3.51-5.31,0-7.33Z"/>
        <path class="cls-54" d="M237.68,613.3c-3.51-2.02-9.2-2.02-12.7,0s-3.51,5.31,0,7.33c3.51,2.02,9.19,2.02,12.7,0s3.51-5.31,0-7.33Z"/>
      </g>
      <g>
        <path class="cls-75" d="M560.47,929.4c3.51,2.02,9.19,2.02,12.7,0,3.51-2.03,3.51-5.31,0-7.33-3.51-2.03-9.2-2.03-12.7,0-3.51,2.02-3.51,5.31,0,7.33Z"/>
        <path class="cls-75" d="M591.55,911.45c3.51,2.02,9.19,2.02,12.7,0,3.51-2.03,3.51-5.31,0-7.33-3.51-2.03-9.19-2.03-12.7,0-3.51,2.03-3.51,5.31,0,7.33Z"/>
        <path class="cls-75" d="M622.63,893.51c3.51,2.03,9.19,2.03,12.7,0,3.51-2.02,3.51-5.31,0-7.33-3.51-2.02-9.19-2.02-12.7,0-3.51,2.02-3.51,5.31,0,7.33Z"/>
        <path class="cls-75" d="M653.71,875.57c3.51,2.03,9.2,2.03,12.7,0,3.51-2.02,3.51-5.31,0-7.33-3.51-2.02-9.19-2.02-12.7,0-3.51,2.02-3.51,5.31,0,7.33Z"/>
        <path class="cls-75" d="M684.79,857.62c3.51,2.03,9.19,2.03,12.7,0,3.51-2.02,3.51-5.31,0-7.33-3.51-2.02-9.19-2.02-12.7,0-3.51,2.03-3.51,5.31,0,7.33Z"/>
      </g>
    </g>
    <g id="Objects">
      <path class="cls-19" d="M557.46,892.67c-.36-.28-.76-.52-1.26-.74l-142.38-82.26c-1.96-1.29-6.48-2.1-13.08-2.1-12.63,0-27.99,2.96-34.3,6.6l-87.44,50.48,143.34,82.76h45.74l87.43-50.48c2.82-1.63,3.34-3.12,1.95-4.27Z"/>
      <g>
        <polygon class="cls-61" points="366.44 811.75 509.77 894.5 422.34 944.98 279 862.22 366.44 811.75"/>
        <path class="cls-118" d="M504.76,870.07s-78.23,45.17-82.25,47.49v21.53c4.02-2.32,82.25-47.49,82.25-47.49,5.14-2.97,9.33-10.21,9.33-16.15s-4.18-8.35-9.32-5.38Z"/>
        <path class="cls-18" d="M513.37,871.73c.47,1.01.72,2.26.72,3.73,0,5.94-4.18,13.18-9.33,16.15l5.01,2.89c5.14-2.97,9.33-10.22,9.33-16.15,0-4.47-2.37-6.94-5.73-6.62Z"/>
        <polygon class="cls-12" points="289.2 840.59 422.51 917.56 422.51 939.1 289.2 862.12 289.2 840.59"/>
        <polygon class="cls-61" points="366.44 787.78 509.77 870.53 422.34 921.01 279 838.25 366.44 787.78"/>
        <polygon class="cls-9" points="371.45 790.67 504.76 867.64 422.34 915.23 289.03 838.25 371.45 790.67"/>
        <polygon class="cls-62" points="279 838.25 422.34 921.01 422.34 923.45 279 840.69 279 838.25"/>
        <polygon class="cls-62" points="279 862.22 422.34 944.98 422.34 947.42 279 864.66 279 862.22"/>
        <path class="cls-17" d="M518.07,869.86l-143.33-82.76c-2.11-1.32-5.04-1.22-8.3.67,0,0,143.34,82.76,143.34,82.76l8.3-.67Z"/>
        <path class="cls-72" d="M521.2,877.13c0-7.29-5.12-10.24-11.43-6.6l-87.43,50.48v2.44l87.43-50.48c5.14-2.97,9.32-.55,9.32,5.38s-4.18,13.18-9.33,16.15l-87.43,50.48v2.44l87.43-50.48c6.32-3.65,11.43-12.51,11.43-19.81Z"/>
        <polygon class="cls-75" points="403.55 836.39 425.57 849.11 385.23 872.4 363.2 859.68 403.55 836.39"/>
        <polygon class="cls-75" points="430.16 851.75 434.55 854.29 414.39 865.94 409.99 863.4 430.16 851.75"/>
      </g>
      <g>
        <polygon class="cls-122" points="418.2 896.21 274.86 813.46 363.36 762.37 506.69 845.12 418.2 896.21"/>
        <polygon class="cls-8" points="496.15 827.23 496.15 845.42 413.19 893.32 413.19 875.12 496.15 827.23"/>
        <polygon class="cls-71" points="416.09 876.8 272.75 794.04 363.36 741.74 506.69 824.49 416.09 876.8"/>
        <polygon class="cls-10" points="416.09 899.86 506.69 847.56 506.69 845.12 418.2 896.21 418.2 878.02 506.69 826.93 506.69 824.49 416.09 876.8 416.09 899.86"/>
        <polygon class="cls-75" points="382.12 821.87 367.89 813.65 399.44 795.44 413.67 803.66 382.12 821.87"/>
        <polygon class="cls-122" points="416.09 899.86 272.75 817.11 272.75 794.04 416.09 876.8 416.09 899.86"/>
        <polygon class="cls-10" points="300.39 827.86 295.47 825.02 295.47 812.36 300.39 815.2 300.39 827.86"/>
        <polygon class="cls-10" points="311.99 834.56 307.07 831.71 307.07 819.06 311.99 821.9 311.99 834.56"/>
      </g>
      <path class="cls-21" d="M416.09,899.86h42.88l50.8-29.33c3.12-1.8,5.95-1.98,8.01-.83l-24.72-14.27-76.97,44.44Z"/>
      <path class="cls-20" d="M271.75,480.01c-.67-1.16-1.48-2.29-2.42-3.41-3.29-3.27,4.29-8.73,7.71-10.71.07,0-9.97-5.8-9.97-5.8l-29.51.04c-1.98-2.53-2.49-5.95-2.48-7.71h-14.16c0,2.3-.95,7.46-4.86,9.72-.82.48-1.76.82-2.86.98-2.01.39-3.98.86-5.89,1.41-.12,0-.19-.02-.25-.04-1.91-.55-3.87-1.02-5.87-1.41-6.32-.96-7.62-7.92-7.61-10.71h-14.16c0,2.3-.95,7.47-4.85,9.72-.81.47-1.77.82-2.86.98-2,.39-3.98.86-5.89,1.41-6.52,1.41-15.06-2.45-18.46-4.43l-10.04,5.8c3.4,1.98,10.92,7.44,7.59,10.7-.96,1.11-1.77,2.25-2.45,3.41-.28.63-.89,1.18-1.71,1.65-3.91,2.26-12.82,2.78-16.81,2.78l-.03,8.2c4.82,0,16.83.77,18.45,4.43.67,1.16,1.46,2.3,2.42,3.41,3.29,3.26-4.29,8.73-7.72,10.71l9.98,5.8c.35-.2.78-.43,1.24-.67l-1.17.67,29.49.03c1.93,2.51,2.44,5.9,2.42,7.65l55.63.05s13.87-7.71,13.87-7.71l18.22.02,10.04-5.8c-3.41-1.98-10.92-7.45-7.6-10.71.58-.67,1.09-1.36,1.57-2.06h9.34s10.04-5.79,10.04-5.79c0,0,.06-8.19.06-8.19-5.17.2-16.83-.78-18.45-4.44Z"/>
      <g>
        <path class="cls-13" d="M145.75,450.76c0-3.18-5.62-7.19-8.42-8.82l.07,23.92c2.81,1.63,8.42,5.63,8.42,8.82l-.07-23.92Z"/>
        <path class="cls-11" d="M235.62,465.86l-.07-23.92c-2.84,1.63-8.53,5.68-8.52,8.87l.06,23.92c0-3.2,5.69-7.23,8.53-8.87Z"/>
        <path class="cls-15" d="M168.7,478.24c9.84-5.68,25.71-5.68,35.48,0,4.85,2.81,7.28,6.51,7.29,10.2l-.07-23.91c-.02-3.69-2.44-7.38-7.29-10.21-9.77-5.67-25.64-5.67-35.47,0-4.94,2.86-7.41,6.6-7.4,10.34l.07,23.92c0-3.74,2.46-7.48,7.4-10.34Z"/>
        <polygon class="cls-69" points="147.05 493.04 137.07 487.24 137.14 511.16 147.12 516.96 147.05 493.04"/>
        <polygon class="cls-11" points="235.37 511.16 235.3 487.24 225.25 493.04 225.32 516.96 235.37 511.16"/>
        <path class="cls-14" d="M165.62,512.52c1.91.56,3.88,1.02,5.88,1.41,6.25.94,7.58,7.74,7.6,10.6l-.07-23.92c-.01-2.86-1.36-9.66-7.59-10.6-2-.39-3.97-.86-5.88-1.41-5.62-1.92-15.09,2.45-18.51,4.43l.07,23.92c3.42-1.98,12.88-6.35,18.51-4.44Z"/>
        <path class="cls-16" d="M198.13,514.9c.8-.46,1.75-.8,2.84-.97,2.01-.39,3.96-.86,5.88-1.41,5.66-1.93,15.07,2.45,18.47,4.43l-.07-23.92c-3.4-1.98-12.81-6.35-18.47-4.43-1.92.55-3.87,1.02-5.88,1.4-1.1.17-2.04.51-2.85.97-3.85,2.23-4.67,7.31-4.89,9.73l.07,23.91c.22-2.42,1.04-7.51,4.89-9.73Z"/>
        <path class="cls-8" d="M144.79,476.54c3.29,3.26-4.29,8.73-7.72,10.7l9.98,5.8c3.42-1.98,12.89-6.35,18.51-4.43,1.91.55,3.88,1.02,5.88,1.41,6.31.95,7.61,7.92,7.59,10.7h14.15c.22-2.42,1.03-7.51,4.89-9.73.81-.46,1.75-.8,2.85-.97,2.01-.39,3.96-.86,5.88-1.4,5.65-1.92,15.07,2.45,18.47,4.43l10.05-5.8c-3.41-1.97-10.93-7.44-7.6-10.7.95-1.11,1.78-2.25,2.46-3.41.29-.63.88-1.18,1.71-1.65,3.9-2.25,12.81-2.78,16.79-2.78l.05-8.2c-5.17.21-16.83-.77-18.45-4.44-.67-1.16-1.48-2.3-2.42-3.4-3.29-3.27,4.29-8.73,7.72-10.71l-9.98-5.8c-3.42,1.98-12.89,6.35-18.51,4.43-1.91-.55-3.87-1.02-5.87-1.41-6.32-.96-7.62-7.92-7.61-10.7h-14.16c0,2.3-.95,7.47-4.85,9.72-.81.47-1.77.81-2.86.98-2,.39-3.98.86-5.89,1.41-6.52,1.41-15.06-2.46-18.46-4.43l-10.04,5.8c3.4,1.98,10.92,7.44,7.59,10.7-.96,1.11-1.77,2.25-2.45,3.41-.28.63-.89,1.18-1.71,1.66-3.91,2.25-12.82,2.78-16.81,2.78l-.03,8.2c4.82,0,16.83.77,18.45,4.43.67,1.16,1.46,2.3,2.42,3.41ZM168.63,454.32c9.83-5.67,25.7-5.67,35.47,0,9.76,5.68,9.72,14.87-.11,20.55-9.82,5.67-25.7,5.67-35.47,0-9.77-5.68-9.71-14.87.11-20.55Z"/>
        <path class="cls-69" d="M137.07,487.24c3.42-1.97,11-7.44,7.72-10.7-.96-1.11-1.75-2.25-2.42-3.41-1.62-3.66-13.63-4.44-18.45-4.43l.07,23.91c3,0,8.77.3,13.1,1.41l-.02-6.77Z"/>
        <polygon class="cls-11" points="193.24 524.64 193.17 500.72 179.03 500.72 179.1 524.64 193.24 524.64"/>
        <path class="cls-84" d="M248.73,492.61l-.07-23.91c-3.98,0-12.89.53-16.79,2.78-.82.47-1.42,1.02-1.71,1.65-.68,1.16-1.51,2.3-2.46,3.41-3.33,3.26,4.19,8.73,7.6,10.7l.02,6.87c4.37-1.18,10.34-1.51,13.41-1.51Z"/>
      </g>
      <path class="cls-85" d="M621.98,381.31c1.11-2.77-.18-5.8-3.9-7.95l-60.56-34.96c-5.73-3.31-15.1-3.31-20.83,0l-117.34,67.74c-5.73,3.31-5.73,8.72,0,12.03,0,0,61.1,35.25,61.37,35.39l-9.33,3.36h14.98c5.76,0,10.57-1.6,14.36-3.78l48.69-28.11h100.59v-43.71h-28.05Z"/>
      <g>
        <path class="cls-12" d="M538.6,330.21c-5.73-3.31-15.1-3.31-20.83,0l-117.34,67.74c-5.73,3.31-5.73,8.72,0,12.03l60.56,34.96c5.73,3.31,15.1,3.31,20.83,0l117.34-67.75c5.73-3.31,5.73-8.72,0-12.02l-60.56-34.96Z"/>
        <path class="cls-52" d="M549.22,371.8l-1.02.02-75.7,43.7h60.27l66.39-38.33c2.59-1.5,4-3.42,4.24-5.39h-54.18Z"/>
        <path class="cls-86" d="M599.16,377.2l-117.34,67.75c-5.73,3.31-15.1,3.31-20.83,0l-60.56-34.96c-2.75-1.59-4.17-3.67-4.27-5.76-.01,0-.01,9.23-.01,9.23,0,2.18,1.42,4.37,4.29,6.03l60.56,34.96c5.73,3.31,15.1,3.31,20.83,0l117.34-67.75c2.97-1.71,4.39-4,4.27-6.27v-8.98c-.11,2.09-1.52,4.17-4.27,5.76Z"/>
      </g>
      <g>
        <path class="cls-57" d="M539.83,353.47c-4.71-14.46-4.72-26.76-4.72-31.83l-8.33-4.81c0,2.13,0,5.37.28,9.46l-67.65,39.06c0,7.14,0,28.56,13.1,50.19l75.7-43.7-8.38-18.35Z"/>
        <polygon class="cls-6" points="535.11 321.63 459.41 365.34 451.08 360.53 526.77 316.83 535.11 321.63"/>
        <path class="cls-118" d="M472.5,415.52c-13.09-21.63-13.1-43.05-13.1-50.19l-8.33-4.81c0,7.11,0,26.56,10.3,48.57l11.13,6.43Z"/>
        <path class="cls-52" d="M460.15,379.04c.47,3.88,1.22,8.28,2.47,13.01l75.7-43.71c-1.24-4.73-1.99-9.12-2.46-13.01l-75.7,43.71Z"/>
      </g>
      <g>
        <path class="cls-72" d="M660.44,25.23c0-6.62-4.69-9.32-10.41-6.01l-280.64,162.03c-5.73,3.31-10.42,11.42-10.42,18.04v188.11l301.46-174.05V25.23Z"/>
        <path class="cls-87" d="M638.74,12.7l-280.64,162.03c-5.73,3.31-10.41,11.42-10.41,18.04v188.11l11.29,6.52v-188.11c0-6.61,4.69-14.73,10.42-18.04L650.03,19.22c2.34-1.35,4.49-1.68,6.23-1.17l-9.03-5.14c-1.89-1.99-5-2.22-8.5-.2Z"/>
        <path class="cls-57" d="M358.97,387.39v38.03c0,6.61,4.69,9.31,10.42,6.01l280.64-162.03c5.73-3.3,10.41-11.42,10.41-18.04v-38.03s-301.47,174.05-301.47,174.05Z"/>
        <path class="cls-118" d="M358.97,425.43v-38.03l-11.29-6.52v38.03c0,3.33,1.19,5.66,3.09,6.74l10.83,6.2c-1.63-1.18-2.63-3.39-2.63-6.43Z"/>
        <polygon class="cls-75" points="650.03 219.36 369.39 381.38 369.39 193.27 650.03 31.24 650.03 219.36"/>
      </g>
      <polygon class="cls-75" points="509.71 300.37 369.39 381.38 369.39 193.27 509.71 112.26 509.71 300.37"/>
      <polygon class="cls-8" points="650.02 219.35 509.71 300.37 509.71 112.26 650.02 31.24 650.02 219.35"/>
      <g>
        <polygon class="cls-120" points="406.68 186.51 475.66 146.68 475.66 163.57 406.68 203.39 406.68 186.51"/>
        <g>
          <polygon class="cls-61" points="439.02 320.12 443.32 317.64 443.32 322.6 439.02 325.08 439.02 320.12"/>
          <polygon class="cls-61" points="429.72 325.49 434.01 323.01 434.01 327.97 429.72 330.45 429.72 325.49"/>
          <polygon class="cls-61" points="452.63 312.26 448.33 314.75 448.33 319.71 452.62 317.22 452.63 312.26"/>
          <g>
            <polygon class="cls-118" points="402.01 217.35 493.35 164.61 493.35 167.77 402.01 220.51 402.01 217.35"/>
            <polygon class="cls-118" points="388.99 232.6 493.35 172.35 493.35 175.51 388.99 235.77 388.99 232.6"/>
            <polygon class="cls-118" points="388.99 240.34 493.35 180.09 493.35 183.25 388.99 243.51 388.99 240.34"/>
            <polygon class="cls-118" points="388.99 248.08 493.35 187.83 493.35 190.99 388.99 251.25 388.99 248.08"/>
            <polygon class="cls-118" points="388.99 255.82 493.35 195.57 493.35 198.73 388.99 258.98 388.99 255.82"/>
            <polygon class="cls-118" points="388.99 263.56 493.35 203.3 493.35 206.47 388.99 266.72 388.99 263.56"/>
            <polygon class="cls-118" points="388.99 271.3 471.92 223.41 471.92 226.58 388.99 274.46 388.99 271.3"/>
          </g>
          <g>
            <polygon class="cls-118" points="402.01 280.55 442.93 256.92 442.93 260.09 402.01 283.72 402.01 280.55"/>
            <polygon class="cls-118" points="388.99 295.8 442.93 264.66 442.93 267.83 388.99 298.97 388.99 295.8"/>
            <polygon class="cls-118" points="388.99 303.54 442.93 272.4 442.93 275.56 388.99 306.71 388.99 303.54"/>
            <polygon class="cls-118" points="456.03 249.36 493.35 227.81 493.35 230.98 456.03 252.52 456.03 249.36"/>
            <polygon class="cls-118" points="450.22 260.45 493.35 235.55 493.35 238.72 450.22 263.62 450.22 260.45"/>
            <polygon class="cls-118" points="450.22 268.19 493.35 243.29 493.35 246.46 450.22 271.36 450.22 268.19"/>
            <polygon class="cls-118" points="388.99 311.28 442.93 280.14 442.93 283.3 388.99 314.45 388.99 311.28"/>
            <polygon class="cls-118" points="388.99 319.02 442.93 287.88 442.93 291.04 388.99 322.19 388.99 319.02"/>
            <polygon class="cls-118" points="388.99 326.76 442.93 295.62 442.93 298.78 388.99 329.93 388.99 326.76"/>
            <polygon class="cls-118" points="388.99 334.5 429.53 311.1 429.53 314.26 388.99 337.67 388.99 334.5"/>
          </g>
        </g>
      </g>
      <g>
        <polygon class="cls-118" points="539.52 206.11 630.87 153.38 630.87 156.54 539.52 209.28 539.52 206.11"/>
        <polygon class="cls-118" points="526.51 221.37 630.87 161.12 630.87 164.28 526.51 224.53 526.51 221.37"/>
        <polygon class="cls-118" points="526.51 229.11 630.87 168.86 630.87 172.02 526.51 232.27 526.51 229.11"/>
        <polygon class="cls-118" points="526.51 236.85 630.87 176.59 630.87 179.76 526.51 240.01 526.51 236.85"/>
        <polygon class="cls-118" points="526.51 244.59 630.87 184.33 630.87 187.5 526.51 247.75 526.51 244.59"/>
        <polygon class="cls-118" points="526.51 252.32 630.87 192.07 630.87 195.24 526.51 255.49 526.51 252.32"/>
        <polygon class="cls-118" points="526.51 260.06 609.44 212.18 609.44 215.35 526.51 263.23 526.51 260.06"/>
      </g>
      <path class="cls-122" d="M541.24,125.72c0-5.33,3.77-11.86,8.39-14.52l57.44-33.16c4.61-2.66,8.38-.48,8.38,4.84v53.29c0,5.33-3.77,11.86-8.38,14.52l-57.44,33.16c-4.61,2.66-8.39.48-8.39-4.84v-53.3Z"/>
      <path class="cls-75" d="M583.4,110.47c-.76.19-1.54,1.16-1.75,2.16l-8.14,38.67c-.21,1,.23,1.65.99,1.45.76-.2,1.54-1.16,1.75-2.16l8.14-38.67c.21-1-.23-1.65-.99-1.45ZM572.17,123.94c-.45-.49-1.33-.17-1.98.72l-13.64,18.71c-.39.53-.62,1.17-.62,1.71s.23.92.62,1l13.64,2.96c.65.14,1.53-.56,1.98-1.57.44-1,.28-1.93-.37-2.07l-11.94-2.59,11.94-16.38c.65-.89.81-2.01.37-2.5ZM602.34,116.94l-13.64-2.96c-.65-.14-1.54.56-1.98,1.57-.45,1.01-.28,1.93.37,2.08l11.94,2.59-11.94,16.38c-.65.89-.81,2.01-.37,2.5.44.49,1.33.17,1.98-.72l13.64-18.72c.39-.53.62-1.17.62-1.71s-.23-.91-.62-1Z"/>
      <g>
        <polygon class="cls-55" points="419.26 264.91 425.16 268.31 413.89 274.82 407.99 271.42 419.26 264.91"/>
        <polygon class="cls-1" points="425.16 339.33 425.16 268.31 413.89 274.82 413.89 255.83 396.21 285.02 310.15 334.71 310.15 405.73 425.16 339.33"/>
        <polygon class="cls-23" points="408.45 302.75 338.58 343.09 338.58 340.31 408.45 299.97 408.45 302.75"/>
        <polygon class="cls-23" points="408.45 312.13 326.85 359.24 326.85 356.46 408.45 309.35 408.45 312.13"/>
        <polygon class="cls-23" points="408.45 321.51 326.85 368.62 326.85 365.84 408.45 318.73 408.45 321.51"/>
        <polygon class="cls-23" points="390.17 341.44 326.85 378 326.85 375.22 390.17 338.66 390.17 341.44"/>
        <polygon class="cls-120" points="304.26 331.31 310.15 334.71 310.15 405.73 304.26 402.33 304.26 331.31"/>
        <polygon class="cls-55" points="390.32 281.62 396.21 285.02 310.15 334.71 304.26 331.31 390.32 281.62"/>
        <polygon class="cls-120" points="407.99 252.43 413.89 255.83 396.21 285.02 390.32 281.62 407.99 252.43"/>
      </g>
      <g>
        <path class="cls-8" d="M721.17,328.81c-5.23,3.02-8.22,6.16-8.3,9.06-.11,3.22,3.25,6.13,9,8.24,23.65,9.25,37.33,17.61,62.69,36.58,11.02,8.72,29.06,12.23,40.09,5.87,5.14-2.97,7.71-4.45,12.85-7.42,5.52-3.19,8.08-7.98,8.2-13.05.12-5.08-2.21-10.46-7.76-14.89-24.17-19.58-40.4-28.51-63.14-37.13-10.92-3.95-29.75-1.05-40.79,5.33-5.14,2.96-7.7,4.45-12.85,7.42Z"/>
        <path class="cls-88" d="M721.87,346.11c23.65,9.25,37.33,17.61,62.69,36.58,11.02,8.72,29.06,12.23,40.09,5.87,5.14-2.97,7.71-4.45,12.85-7.42,5.52-3.19,8.08-7.98,8.2-13.05v6.58c.02.39.02.78,0,1.16v.21h-.01c-.33,3.91-3.05,7.76-8.21,10.75l-12.85,7.42c-11.04,6.37-28.93,6.37-39.97,0l-63.52-36.68c-5.59-3.22-8.33-7.47-8.27-11.7h0v-7.96c-.11,3.22,3.25,6.13,9,8.24Z"/>
        <path class="cls-10" d="M762.46,338.43c2.52-1.44,2.6-3.56.1-4.41-2.5-.84-6.66.04-9.17,1.46-2.27,1.27-2.42,2.87.08,3.72,2.5.86,6.64.57,8.99-.78Z"/>
      </g>
      <polygon class="cls-36" points="1185.07 440.39 914.47 440.39 808.9 528.53 897.32 528.53 872.63 542.78 914.62 542.78 914.47 542.86 1185.07 542.86 1185.07 440.39"/>
      <g>
        <polygon class="cls-1" points="789.64 517.41 789.64 353.42 887.3 297.03 887.3 461.02 789.64 517.41"/>
        <polygon class="cls-12" points="898.33 316.52 881.34 306.71 791.92 358.34 808.9 368.15 898.33 316.52"/>
        <polygon class="cls-1" points="808.9 528.53 808.9 364.54 906.56 308.15 906.56 472.14 808.9 528.53"/>
        <polygon class="cls-55" points="787.37 352.11 885.03 295.72 887.3 297.03 791.91 352.11 808.9 361.91 904.29 306.84 906.56 308.15 808.9 364.54 787.37 352.11"/>
        <polygon class="cls-75" points="840.73 437.01 840.73 419.3 874.73 399.67 874.73 417.38 840.73 437.01"/>
        <polygon class="cls-120" points="787.37 516.1 787.37 352.11 808.9 364.54 808.9 528.53 787.37 516.1"/>
        <polygon class="cls-12" points="791.59 486.39 791.58 386.68 804.68 394.24 804.68 493.95 791.59 486.39"/>
        <polygon class="cls-118" points="791.59 396.04 791.58 386.68 804.68 394.24 804.68 403.6 791.59 396.04"/>
        <polygon class="cls-118" points="791.59 486.39 791.58 477.03 804.68 484.59 804.68 493.95 791.59 486.39"/>
        <polygon class="cls-118" points="793.39 432.1 802.88 437.58 802.88 448.53 793.39 443.05 793.39 432.1"/>
      </g>
      <g>
        <polygon class="cls-72" points="834.63 516.29 834.63 347.8 932.29 291.41 932.29 459.91 834.63 516.29"/>
        <polygon class="cls-118" points="943.32 310.9 926.33 301.09 836.91 352.72 853.89 362.52 943.32 310.9"/>
        <polygon class="cls-72" points="853.89 527.41 853.89 358.92 951.55 302.53 951.55 471.03 853.89 527.41"/>
        <polygon class="cls-61" points="832.36 346.48 930.02 290.1 932.29 291.41 836.91 346.48 853.89 356.29 949.28 301.22 951.55 302.53 853.89 358.91 832.36 346.48"/>
        <polygon class="cls-57" points="886.86 437.94 886.86 420.23 920.86 400.6 920.86 418.31 886.86 437.94"/>
        <polygon class="cls-9" points="832.36 514.98 832.36 346.48 853.89 358.91 853.89 527.41 832.36 514.98"/>
        <path class="cls-12" d="M850.49,441.2c0-4.7-3.3-10.41-7.37-12.76-4.07-2.35-7.37-.44-7.37,4.25s3.3,10.41,7.37,12.76c4.07,2.35,7.37.44,7.37-4.26Z"/>
        <path class="cls-12" d="M850.49,395.34c0-4.7-3.3-10.41-7.37-12.76-4.07-2.35-7.37-.45-7.37,4.25s3.3,10.41,7.37,12.76c4.07,2.35,7.37.44,7.37-4.25Z"/>
        <path class="cls-12" d="M850.49,487.06c0-4.7-3.3-10.41-7.37-12.76-4.07-2.35-7.37-.44-7.37,4.25s3.3,10.41,7.37,12.76c4.07,2.35,7.37.44,7.37-4.26Z"/>
      </g>
      <g>
        <polygon class="cls-57" points="854.75 341.77 854.75 529.68 955.21 471.68 955.21 283.77 854.75 341.77"/>
        <polygon class="cls-12" points="966.82 304.29 948.93 293.96 854.75 348.34 872.64 358.67 966.82 304.29"/>
        <polygon class="cls-57" points="872.64 354.87 872.63 542.78 975.5 483.39 975.49 295.48 872.64 354.87"/>
        <polygon class="cls-118" points="849.95 341.77 952.82 282.39 955.21 283.77 854.75 341.77 872.64 352.1 973.1 294.1 975.49 295.48 872.64 354.87 849.95 341.77"/>
        <polygon class="cls-75" points="907.36 419.45 907.36 438.1 943.17 417.43 943.17 398.77 907.36 419.45"/>
        <polygon class="cls-73" points="849.96 341.77 849.96 529.68 872.63 542.78 872.64 354.87 849.96 341.77"/>
        <polygon class="cls-12" points="849.96 496.82 849.96 512.11 872.63 525.2 872.63 509.92 849.96 496.82"/>
        <polygon class="cls-12" points="849.96 359.14 849.96 374.42 872.63 387.52 872.63 372.23 849.96 359.14"/>
        <polygon class="cls-57" points="876.83 507.5 876.83 522.78 872.63 525.2 872.63 509.92 876.83 507.5"/>
        <polygon class="cls-57" points="876.83 369.81 876.83 385.1 872.63 387.52 872.63 372.23 876.83 369.81"/>
      </g>
      <g>
        <path class="cls-121" d="M904.9,359.7l-5.39,3.13v7.08c.74.79,1.67,1.53,2.82,2.19,6.41,3.7,16.8,3.7,23.21,0,0,0,0,143.67,0,143.67l67.68-39.07v-168l-88.32,50.99Z"/>
        <path class="cls-8" d="M904.47,365.81s79.41-45.85,83.48-48.2c3.17,1.83,15.76,9.1,18.93,10.93-4.08,2.35-83.48,48.2-83.48,48.2-5.22,3.01-13.71,3.01-18.93,0-5.22-3.01-5.22-7.91,0-10.93Z"/>
        <polygon class="cls-121" points="925.54 540.1 925.54 372.1 1014.29 320.86 1014.29 488.87 925.54 540.1"/>
        <path class="cls-63" d="M902.33,372.1c-6.41-3.7-6.41-9.7,0-13.4l88.75-51.24,2.14,1.24-88.75,51.24c-5.22,3.01-5.22,7.91,0,10.93,5.22,3.01,13.71,3.01,18.93,0l88.75-51.24,2.14,1.24-88.75,51.24c-6.41,3.7-16.8,3.7-23.21,0Z"/>
        <path class="cls-95" d="M902.33,372.1c6.41,3.7,16.8,3.7,23.21,0,0,0,0,168,0,168-6.42,3.7-16.81,3.7-23.21,0-3.2-1.85-4.8-4.27-4.8-6.7v-168c0,2.43,1.6,4.85,4.81,6.7Z"/>
        <polygon class="cls-10" points="949.44 455.21 949.44 429.4 990.39 405.76 990.39 431.57 949.44 455.21"/>
        <path class="cls-51" d="M921.53,464.06v-9.47c-6.19,1.87-14,1.3-19.2-1.7-2.31-1.34-3.78-2.98-4.42-4.7-.25-.66-.38-1.33-.38-2.01-.04,0,0,9.47,0,9.47,0,2.43,1.6,4.85,4.81,6.7,5.2,3,13.01,3.57,19.2,1.71Z"/>
        <path class="cls-51" d="M902.33,390.65c-2.31-1.34-3.78-2.97-4.42-4.69-.25-.66-.38-1.33-.38-2.01v4.02c0,2.42,1.6,4.85,4.81,6.7,6.41,3.7,16.8,3.7,23.21,0v-4.01c-6.41,3.7-16.8,3.7-23.21,0Z"/>
        <path class="cls-51" d="M902.33,401.77c-2.31-1.33-3.78-2.97-4.42-4.69-.25-.66-.38-1.33-.38-2.01v4.02c0,2.43,1.6,4.85,4.81,6.7,6.41,3.7,16.8,3.7,23.21,0v-4.01c-6.41,3.7-16.8,3.7-23.21,0Z"/>
        <path class="cls-51" d="M902.33,506.42c-2.31-1.34-3.78-2.97-4.42-4.69-.25-.66-.38-1.33-.39-2.01v4.02c0,2.43,1.6,4.85,4.81,6.7,6.41,3.7,16.8,3.7,23.21,0v-4.02c-6.41,3.7-16.8,3.7-23.21,0Z"/>
        <path class="cls-51" d="M902.33,517.54c-2.31-1.34-3.78-2.98-4.42-4.69-.25-.66-.38-1.34-.38-2.01v4.01c0,2.43,1.6,4.85,4.81,6.7,6.41,3.7,16.8,3.7,23.21,0v-4.02c-6.41,3.7-16.8,3.7-23.21,0Z"/>
      </g>
      <polygon class="cls-35" points="1058.72 530.56 1027.87 530.56 1124.97 586.62 961.79 680.83 992.63 680.83 1155.82 586.62 1058.72 530.56"/>
      <g>
        <polygon class="cls-55" points="991.53 506.89 828.35 601.1 961.79 678.15 1124.97 583.93 991.53 506.89"/>
        <polygon class="cls-12" points="962.05 662.36 962.05 675.31 833.26 600.95 833.26 588.01 962.05 662.36"/>
        <polygon class="cls-57" points="1120.06 571.13 1120.06 584.09 962.05 675.31 962.05 662.36 1120.06 571.13"/>
        <polygon class="cls-55" points="991.53 491.26 828.35 585.47 961.79 662.51 1124.97 568.3 991.53 491.26"/>
        <polygon class="cls-120" points="828.35 603.79 961.79 680.83 961.79 678.15 830.67 602.45 830.67 589.5 961.79 665.2 961.79 662.51 828.35 585.47 828.35 603.79"/>
        <polygon class="cls-1" points="961.79 662.51 1124.97 568.3 1124.97 570.98 961.79 665.2 961.79 662.51"/>
        <polygon class="cls-1" points="961.79 678.15 1124.97 583.93 1124.97 586.62 961.79 680.83 961.79 678.15"/>
        <polygon class="cls-50" points="973.86 517.72 874.19 575.26 979.46 636.05 1079.13 578.5 973.86 517.72"/>
        <polygon class="cls-120" points="899.94 590.13 900.1 560.31 874.19 575.26 899.94 590.13"/>
        <polygon class="cls-66" points="968.02 559.78 964.79 561.64 1003.06 583.74 1006.29 581.87 968.02 559.78"/>
        <polygon class="cls-66" points="953.81 575.81 950.58 577.68 975.28 591.94 978.52 590.07 953.81 575.81"/>
        <polygon class="cls-1" points="830.67 602.45 833.26 600.95 833.26 591 830.67 589.5 830.67 602.45"/>
      </g>
      <path class="cls-43" d="M1055.39,538.6c-19.64-11.34-46.38-16.08-71.97-14.24,18.46,1.33,36.32,6.06,50.49,14.24,33.82,19.52,33.81,51.18,0,70.7-14.17,8.19-32.03,12.92-50.49,14.24,25.59,1.84,52.33-2.9,71.97-14.24,33.82-19.52,33.82-51.18,0-70.7Z"/>
      <path class="cls-33" d="M938.64,538.6c14.17-8.18,32.03-12.92,50.49-14.24-25.59-1.84-52.33,2.9-71.97,14.24-33.82,19.52-33.82,51.18,0,70.7,19.65,11.35,46.38,16.08,71.97,14.24-18.46-1.32-36.32-6.06-50.49-14.24-33.82-19.52-33.82-51.18,0-70.7Z"/>
      <g>
        <path class="cls-119" d="M912,538.42c-33.98,19.62-33.98,51.43,0,71.05,33.98,19.62,89.08,19.62,123.06,0,33.98-19.62,33.99-51.43,0-71.05-33.98-19.62-89.08-19.62-123.07,0ZM1024.91,603.61c-28.38,16.38-74.38,16.38-102.76,0-28.37-16.38-28.38-42.95,0-59.33,28.38-16.38,74.39-16.38,102.76,0,28.37,16.38,28.37,42.95,0,59.33Z"/>
        <path class="cls-72" d="M1024.91,524.29c-28.38-16.38-74.39-16.38-102.76,0-18.62,10.75-25.02,25.89-19.2,39.66,3.05-7.2,9.45-14.04,19.2-19.67,28.38-16.38,74.39-16.38,102.76,0,9.75,5.63,16.15,12.46,19.2,19.67,5.83-13.77-.57-28.9-19.2-39.66Z"/>
        <g>
          <path class="cls-4" d="M922,530.53c28.37-16.38,74.37-16.38,102.74,0,28.37,16.38,28.37,42.94,0,59.32-28.37,16.38-74.37,16.38-102.74,0-28.37-16.38-28.37-42.94,0-59.32Z"/>
          <path class="cls-3" d="M929.3,533.45c6.18-3.93,16.46-4.38,22.96-.99,6.5,3.39,6.76,9.32.57,13.26-6.18,3.94-16.46,4.38-22.96.99-6.5-3.39-6.76-9.32-.57-13.26Z"/>
          <path class="cls-3" d="M960.46,526.24c2.56-1.63,6.81-1.81,9.51-.41,2.69,1.4,2.79,3.86.24,5.49-2.56,1.63-6.82,1.81-9.51.41-2.69-1.4-2.8-3.86-.24-5.49Z"/>
          <path class="cls-2" d="M922,533.49c28.37-16.38,74.37-16.38,102.74,0,13.53,7.81,20.6,17.94,21.22,28.17.68-11.22-6.38-22.57-21.22-31.14-28.37-16.38-74.37-16.38-102.74,0-14.84,8.57-21.9,19.92-21.22,31.14.62-10.23,7.69-20.36,21.22-28.17Z"/>
        </g>
        <path class="cls-61" d="M912,518.43c-33.98,19.62-33.98,51.43,0,71.05,33.98,19.62,89.08,19.62,123.06,0,33.98-19.62,33.99-51.43,0-71.05-33.98-19.62-89.08-19.62-123.07,0ZM1024.91,583.62c-28.38,16.38-74.38,16.38-102.76,0-28.37-16.38-28.38-42.95,0-59.33,28.38-16.38,74.39-16.38,102.76,0,28.37,16.38,28.37,42.95,0,59.33Z"/>
        <path class="cls-90" d="M1035.06,589.48c-33.98,19.62-89.08,19.62-123.06,0-16.77-9.68-25.25-22.34-25.47-35.03v19c-.22,13.02,8.26,26.09,25.47,36.02,33.98,19.62,89.08,19.62,123.06,0,17.21-9.94,25.69-23,25.46-36.02v-18.91c-.25,12.66-8.73,25.28-25.46,34.94Z"/>
      </g>
      <g>
        <path class="cls-118" d="M912,592.15c-2.14-1.24-4.15-2.52-6.02-3.85l-14.64,8.45,12.68,7.32,14.64-8.45c-2.3-1.08-4.52-2.24-6.66-3.47Z"/>
        <polygon class="cls-57" points="904.03 618.73 918.67 610.27 918.67 595.63 904.03 604.08 904.03 618.73"/>
        <path class="cls-89" d="M909.54,614.58c0-7.56-5.31-16.75-11.85-20.53-3.4-1.97-6.46-2.07-8.63-.66,0-.01-84.37,48.7-84.37,48.7l16.13,29.29,84.37-48.71c2.66-.98,4.36-3.81,4.36-8.08Z"/>
        <path class="cls-53" d="M903.01,618.34c0-7.56-5.31-16.75-11.85-20.53-3.4-1.97-6.46-2.07-8.63-.66,0-.01-5.6,3.21-5.6,3.21,2.16-1.4,5.22-1.3,8.62.66,6.55,3.78,11.85,12.97,11.85,20.53,0,3.41-1.09,5.88-2.88,7.25l4.13-2.38c2.65-.98,4.35-3.81,4.35-8.08Z"/>
        <path class="cls-56" d="M822.49,670.41c1.68-1.39,2.68-3.83,2.68-7.12,0-7.56-5.31-16.75-11.85-20.53-3.11-1.8-5.92-2.03-8.04-.99-5.18,2.84-8.7,8.35-8.7,14.67,0,9.24,7.49,16.73,16.73,16.73,3.51,0,6.76-1.08,9.45-2.93l-.28.16Z"/>
      </g>
      <polygon class="cls-32" points="632.82 556.41 623.87 554.31 607.66 556.41 600.39 560.6 725.06 632.58 734 634.67 750.22 632.58 757.48 628.38 632.82 556.41"/>
      <g>
        <path class="cls-91" d="M587.31,545.22s13.09,15.38,13.09,15.38l7.26-18.72-16.83-2.45-.53-.08c-.3.02-.63.12-.98.32-1.34.78-2.43,2.66-2.43,4.21,0,.59.16,1.04.42,1.33Z"/>
        <path class="cls-97" d="M590.3,539.36c-.3.02-.63.12-.98.32-1.34.78-2.43,2.66-2.43,4.21,0,.58.16,1.04.42,1.33-.03.02-6.19-7.2-6.19-7.2l9.18,1.34Z"/>
        <polygon class="cls-120" points="596.76 555.43 721.42 627.41 725.06 618.04 600.39 546.07 596.76 555.43"/>
        <polygon class="cls-1" points="600.39 560.6 725.06 632.58 721.42 627.41 596.76 555.43 600.39 560.6"/>
        <polygon class="cls-55" points="600.39 546.07 725.06 618.04 732.32 613.85 607.66 541.88 600.39 546.07"/>
        <polygon class="cls-11" points="732.32 628.38 735.95 619.02 732.32 613.85 725.06 618.04 721.42 627.41 725.06 632.58 732.32 628.38"/>
        <path class="cls-123" d="M731.09,621.82c0-1.53-1.08-2.15-2.4-1.39-1.33.77-2.4,2.63-2.4,4.16s1.08,2.15,2.4,1.39c1.33-.77,2.4-2.63,2.4-4.16Z"/>
      </g>
      <g>
        <g class="cls-67">
          <path class="cls-92" d="M774.91,714.58c-7.56-4.36-14.4-4.77-19.34-1.89l-9.57,5.56c4.95-2.87,11.79-2.47,19.35,1.89,15.01,8.67,27.15,29.68,27.1,46.93-.02,8.57-3.05,14.6-7.93,17.44l9.57-5.56c4.88-2.84,7.91-8.87,7.93-17.44.05-17.25-12.08-38.26-27.1-46.93Z"/>
          <path class="cls-122" d="M765.34,720.13c-15.01-8.66-27.23-1.71-27.28,15.54-.05,17.25,12.09,38.27,27.1,46.93,15.02,8.67,27.23,1.71,27.28-15.54.05-17.25-12.08-38.26-27.1-46.93Z"/>
          <path class="cls-117" d="M765.27,727.95c-2.7-1.56-4.89-.31-4.9,2.79,0,3.1,2.17,6.87,4.86,8.42,2.69,1.56,4.89.31,4.89-2.79,0-3.1-2.17-6.87-4.86-8.43Z"/>
        </g>
        <polygon class="cls-117" points="771.7 753.25 771.7 748.65 758.8 741.19 758.8 745.8 761.56 747.39 761.56 765 758.8 763.4 758.8 768.01 771.7 775.46 771.7 770.86 768.95 769.26 768.95 751.66 771.7 753.25"/>
      </g>
      <path class="cls-39" d="M753.97,899.32h7.06s259.3-149.7,259.3-149.7h-7.06l-259.3,149.7ZM978.06,725.21h-7.06l42.27,24.41h7.07l-42.27-24.41Z"/>
      <g>
        <polygon class="cls-55" points="711.68 870.84 753.97 895.25 1013.27 745.54 970.98 721.12 711.68 870.84"/>
        <g>
          <polygon class="cls-7" points="972.89 728.7 965.38 724.36 967.8 722.96 975.31 727.3 972.89 728.7"/>
          <polygon class="cls-7" points="950.29 741.75 942.78 737.41 945.19 736.01 952.7 740.35 950.29 741.75"/>
          <polygon class="cls-7" points="927.68 754.8 920.18 750.46 922.59 749.06 930.1 753.4 927.68 754.8"/>
          <polygon class="cls-7" points="905.09 767.85 897.57 763.51 899.99 762.11 907.5 766.45 905.09 767.85"/>
          <polygon class="cls-7" points="882.48 780.9 874.97 776.56 877.39 775.17 884.9 779.5 882.48 780.9"/>
          <polygon class="cls-7" points="859.88 793.94 852.37 789.61 854.78 788.21 862.29 792.55 859.88 793.94"/>
          <polygon class="cls-7" points="837.28 806.99 829.76 802.66 832.18 801.27 839.7 805.6 837.28 806.99"/>
          <polygon class="cls-7" points="814.68 820.05 807.16 815.71 809.57 814.31 817.09 818.65 814.68 820.05"/>
          <polygon class="cls-7" points="792.07 833.09 784.56 828.76 786.98 827.36 794.49 831.7 792.07 833.09"/>
          <polygon class="cls-7" points="769.47 846.14 761.96 841.81 764.37 840.41 771.88 844.75 769.47 846.14"/>
          <polygon class="cls-7" points="746.87 859.2 739.35 854.86 741.77 853.46 749.28 857.8 746.87 859.2"/>
          <polygon class="cls-7" points="726.68 870.85 719.17 866.51 716.75 867.91 724.26 872.24 726.68 870.85"/>
        </g>
        <polygon class="cls-120" points="896.97 792.13 890.29 788.27 827.97 824.25 834.65 828.1 896.97 792.13"/>
        <polygon class="cls-60" points="753.97 899.32 711.68 874.91 711.68 870.84 753.97 895.25 753.97 899.32"/>
        <polygon class="cls-1" points="1013.27 749.62 753.97 899.32 753.97 895.25 1013.27 745.54 1013.27 749.62"/>
      </g>
      <path class="cls-77" d="M986.06,87.2l-11.96,6.91c-6.99,4.04-16.61-17.99-24.43-13.48l-20.97,12.11c-15.64,9.02-9.99-17.26-33.38-3.76-27.48,15.87-25.23,47.72-40.87,56.74l-20.97,12.11c-7.82,4.52-9.95,23.2-16.94,27.24l-11.96,6.91c-2.6,1.5-7.58,5.66-7.58,11.11,3.55-2.05,98.32-56.76,98.32-56.76,0,0,94.76-54.72,98.32-56.77,0-5.44-4.98-3.86-7.58-2.35Z"/>
      <polygon class="cls-40" points="252.84 675.85 182.62 675.85 206.53 689.65 182.62 703.46 252.84 703.46 276.75 689.65 252.84 675.85"/>
      <polygon class="cls-37" points="209.29 703.46 143.1 703.46 167.01 717.27 143.1 731.07 209.29 731.07 233.2 717.27 209.29 703.46"/>
      <polygon class="cls-45" points="162.6 731.07 103.58 731.07 127.5 744.88 103.58 758.69 162.6 758.69 186.51 744.88 162.6 731.07"/>
      <g>
        <polygon class="cls-117" points="158.7 639.37 182.61 653.18 182.61 703.46 158.7 689.65 158.7 639.37"/>
        <polygon class="cls-121" points="206.53 639.37 182.61 653.18 182.61 703.46 206.53 689.65 206.53 639.37"/>
        <polygon class="cls-7" points="182.61 625.57 158.7 639.37 182.61 653.18 206.53 639.37 182.61 625.57"/>
      </g>
      <g>
        <polygon class="cls-63" points="119.18 680.59 143.1 694.4 143.1 731.07 119.18 717.26 119.18 680.59"/>
        <polygon class="cls-7" points="167.01 680.59 143.1 694.4 143.1 731.07 167.01 717.26 167.01 680.59"/>
        <polygon class="cls-124" points="143.1 666.78 119.18 680.59 143.1 694.4 167.01 680.59 143.1 666.78"/>
      </g>
      <g>
        <polygon class="cls-120" points="79.67 716.11 103.58 729.92 103.58 758.69 79.67 744.88 79.67 716.11"/>
        <polygon class="cls-1" points="127.5 716.11 103.58 729.92 103.58 758.69 127.5 744.88 127.5 716.11"/>
        <polygon class="cls-55" points="103.58 702.31 79.67 716.11 103.58 729.92 127.5 716.11 103.58 702.31"/>
      </g>
      <path class="cls-64" d="M1058.41,225.13c19.82,11.44,34.33,33.35,34.33,52.69v.81c0,18.53-10.33,20.62-20.65,19.82l-3.07-.32c-3.49-.24-4.6,1.37-4.6,6.2v5.8s-16.05-9.27-16.05-9.27v-6.93c0-10.47,2.79-15.47,11.58-14.74l2.93.24c8.93.64,13.68-.64,13.67-9.99,0-10.15-7.53-20.78-18.14-26.91-11.02-6.36-19.53-5-19.54,7.41v4.51s-16.05-9.26-16.05-9.26v-5.32c0-22.07,15.49-26.34,35.58-14.74ZM1056.32,313.34c6.98,4.03,12.14,12.81,12.14,20.87s-5.16,11.03-12.14,7.01c-6.84-3.95-12-12.73-12-20.94s5.16-10.88,12-6.93Z"/>
      <g>
        <polygon class="cls-34" points="722.08 498.49 680.01 498.49 676.76 511.01 722.08 511.01 722.08 498.49"/>
        <path class="cls-93" d="M681.82,497.59c2.52,2.51,2.58,9.36.93,10.91-1.66,1.54-5.18,3.84-9.17,1.54-3.99-2.31-14.91-8.37-15.61-10.16-1.64-4.21,1.97-7.66,6.92-6.19,5.7,1.69,6.88,2.18,9.55,2.08,2.68-.1,5.54-.02,7.38,1.83Z"/>
        <path class="cls-38" d="M683.84,505.17c-.11,1.5-.48,2.76-1.09,3.33-1.66,1.54-5.18,3.84-9.17,1.54-3.99-2.31-14.91-8.37-15.61-10.16-.14-.35-.23-.7-.29-1.04,8.76,5.51,12.49,3.3,15.22,4.1,2.73.79,2.18,4.49,5.11,5.53,2.92,1.04,5.2-1.91,5.84-3.3Z"/>
        <path class="cls-94" d="M676.93,502.07c3.05,0,5.54-2.47,5.55-5.53,0-1.7-4.74-41.82-4.94-50.52-.21-9.13-.86-29.87-.03-39.7.39-4.71-.85-8.44-5.65-8.42-3.07.01-4.84,3.38-5,6.44-.44,8.27-.62,33.38-.42,41.93.19,8.55,4.93,49.8,4.93,50.22-.01,3.07,2.46,5.57,5.53,5.58h.03Z"/>
      </g>
      <g>
        <path class="cls-8" d="M637.91,405.48c-.12,8.42,1.03,13.36,11.53,17.07,7.84,2.77,22.15-5.47,25.89-12.95,1.86-3.71,2.17-8.08,2.14-9.97-2.47-24.18-39.34-9.17-39.56,5.85Z"/>
        <path class="cls-96" d="M653.21,389.1v13.49h24.1c.14-1.21.18-2.25.16-2.95-1.39-13.64-13.73-14.81-24.26-10.54Z"/>
        <path class="cls-44" d="M666.58,404.13c-4.18,2.76-9.27,3.3-12.25,3.75-5.12.77-6.84,11.63.85,15.05,7.73-1.09,17.22-7.42,20.16-13.31,1.86-3.71,2.17-8.08,2.14-9.97-.24-2.37-2.97-7.43-3.81-9.08,1.11,3.64.06,8.85-7.09,13.57Z"/>
      </g>
      <g>
        <path class="cls-7" d="M646.43,385.69c0,1.13.58,2.13,1.82,2.85,3.47,2.01,10.7,1.08,16.14-2.06,3.36-1.94,5.25-4.27,5.39-6.25v12.54h0c.14,2.06-1.77,4.6-5.39,6.69-5.44,3.14-12.67,4.06-16.14,2.06-1.19-.69-1.78-1.63-1.82-2.7,0-.19,0-13.13,0-13.13Z"/>
        <path class="cls-117" d="M646.43,396.23v.04c.04,1.07.63,2.02,1.82,2.7,3.47,2,10.7,1.08,16.14-2.06,3.62-2.09,5.52-4.63,5.39-6.69h0v1.21h0c.14,2.06-1.77,4.6-5.39,6.69-5.44,3.14-12.67,4.06-16.14,2.06-1.19-.69-1.78-1.63-1.82-2.7,0-.04,0-.51,0-1.25h0Z"/>
        <path class="cls-117" d="M646.43,393.64v.04c.04,1.07.63,2.01,1.82,2.7,3.47,2,10.7,1.08,16.14-2.06,3.62-2.09,5.52-4.63,5.39-6.69h0v1.21h0c.14,2.06-1.77,4.6-5.39,6.69-5.44,3.14-12.67,4.06-16.14,2.06-1.19-.69-1.78-1.63-1.82-2.7,0-.04,0-.51,0-1.25h0Z"/>
        <path class="cls-117" d="M646.43,391.05v.04c.04,1.07.63,2.02,1.82,2.7,3.47,2,10.7,1.08,16.14-2.06,3.62-2.09,5.52-4.63,5.39-6.69h0s0,1.21,0,1.21h0c.14,2.06-1.77,4.6-5.39,6.69-5.44,3.14-12.67,4.06-16.14,2.06-1.19-.69-1.78-1.63-1.82-2.7,0-.04,0-.51,0-1.25h0Z"/>
        <path class="cls-117" d="M646.43,388.46v.04c.04,1.07.63,2.01,1.82,2.7,3.47,2,10.7,1.08,16.14-2.06,3.62-2.09,5.52-4.63,5.39-6.69h0v1.21h0c.14,2.06-1.77,4.6-5.39,6.69-5.44,3.14-12.67,4.06-16.14,2.06-1.19-.69-1.78-1.64-1.82-2.71,0-.04,0-.51,0-1.25h0Z"/>
        <path class="cls-117" d="M646.43,385.86v.04c.04,1.07.63,2.01,1.82,2.7,3.47,2,10.7,1.08,16.14-2.06,3.62-2.09,5.52-4.63,5.39-6.69h0s0,1.21,0,1.21h0c.14,2.06-1.77,4.6-5.39,6.69-5.44,3.15-12.67,4.07-16.14,2.06-1.19-.69-1.78-1.63-1.82-2.7,0-.04,0-.51,0-1.25h0Z"/>
      </g>
      <g>
        <polygon class="cls-41" points="694.09 513.61 649.9 513.61 648.77 526.3 694.09 526.3 694.09 513.61"/>
        <path class="cls-98" d="M653.83,512.88c2.52,2.52,2.59,9.35.93,10.9-1.66,1.55-5.18,3.85-9.17,1.54-3.99-2.3-14.92-8.36-15.61-10.16-1.63-4.22,1.98-7.66,6.93-6.19,5.7,1.69,6.88,2.18,9.55,2.08,2.68-.1,5.54-.02,7.38,1.82Z"/>
        <path class="cls-42" d="M655.84,520.46c-.11,1.5-.48,2.76-1.09,3.32-1.66,1.55-5.18,3.85-9.17,1.54-3.99-2.3-14.92-8.36-15.61-10.16-.14-.36-.22-.7-.29-1.04,8.76,5.51,12.49,3.3,15.22,4.09,2.73.79,2.18,4.49,5.11,5.53,2.92,1.04,5.2-1.9,5.84-3.29Z"/>
        <path class="cls-99" d="M648.94,517.36c3.06,0,5.54-2.47,5.55-5.53,0-1.7-4.74-41.82-4.94-50.52-.21-9.13-.86-29.87-.03-39.7.4-4.71-.85-8.44-5.64-8.42-3.07,0-4.84,3.38-5,6.44-.44,8.27-.62,33.38-.42,41.93.19,8.55,4.93,49.8,4.93,50.22-.01,3.07,2.46,5.57,5.53,5.58h.03Z"/>
      </g>
      <g>
        <path class="cls-125" d="M678.54,390.26c-.98.24-1.67.84-1.88,1.86-.34,1.61-1.44,3.6-2.24,4.8-.8,1.21-.66,2.4.42,3.06,1.08.67,2.04.88,3.15-.58,1.1-1.46,2.69-4.41,3.03-6.68.16-1.09-.57-2.28-1.79-2.46-.23-.03-.45-.06-.68,0Z"/>
        <path class="cls-79" d="M678.73,393.46c-2.78-1.05-3.05-2.47-2.44-7.11.05-.37,2.42-18.49,1.66-24.92-.78-6.63-3.55-18.84-6.7-24.97-.74-1.44-1.4-3.54-1.98-5.08-.92-2.43.03-5.02,2.59-6,2.56-.97,4.93.24,6.15,2.62.73,1.43,1.47,2.97,2.18,4.47,3.57,7.55,6.25,21.91,7.29,28.77,1.2,7.89-1.28,25.48-2.12,27.79-1.5,4.15-3.06,5.78-6.63,4.43Z"/>
        <path class="cls-121" d="M685.11,397.51c-.02.58-.08,1.4-.27,2.01-.36,1.14-1.4,1.98-2.64,1.66-1.24-.32-1.89-1.19-1.65-2.62.25-1.43.07-3.8-.23-5.2-.3-1.4.36-2.4,1.58-2.72,1.21-.32,2.27.1,2.69,1.54.42,1.44.58,3.64.52,5.33Z"/>
        <path class="cls-121" d="M678.84,390.29c-.14,1-.66,1.73-1.66,2.05-1.56.5-3.46,1.81-4.59,2.73-1.13.91-2.35.92-3.15-.07-.79-.99-1.11-1.9.22-3.16,1.33-1.26,4.13-3.15,6.37-3.72,1.07-.27,2.4.28,2.74,1.49.06.23.11.44.08.67Z"/>
      </g>
      <path class="cls-8" d="M629.04,343.75c-.16,10.69-.76,44.57,12.56,49.28,9.95,3.52,29.28-7.93,32.84-16.42,4.74-11.29,6.21-29.03,6.17-40.29-3.13-30.67-51.29-11.62-51.57,7.44Z"/>
      <g>
        <path class="cls-125" d="M630.28,316.57c.16-.69.36-1.35.62-1.94.48-1.12,1.79-1.64,2.91-1.15,1.12.48,1.63,1.79,1.15,2.91-.61,1.42-.82,4.03-.72,5.3.09,1.22-.83,2.28-2.04,2.37-1.22.09-2.28-.82-2.37-2.04-.09-1.2,0-3.42.46-5.44Z"/>
        <path class="cls-125" d="M635.09,324.95c.21-.91,1-1.63,1.98-1.71,1.54-.12,3.95-1.16,5.03-1.83,1.03-.65,2.4-.33,3.05.7.65,1.04.33,2.4-.7,3.05-1.37.86-4.49,2.29-7.03,2.49-1.21.09-2.28-.82-2.37-2.03-.02-.23,0-.46.05-.67Z"/>
        <path class="cls-80" d="M611.57,359.83c3.66,0,11.14-1.09,26.9-14.36,2.6-2.19,2.46-6.12.75-8.25-1.72-2.13-4.84-2.46-6.97-.75-6.17,4.98-11.09,8.39-14.61,10.53,3.06-4.73,8.85-9.96,18.22-18.24,2.05-1.81,2.25-4.95.44-7-1.81-2.05-4.94-2.25-7-.43-13.89,12.26-22.28,19.67-24.01,30.44-.73,4.56,2.12,6.6,3.01,7.12.7.4,1.63.94,3.27.94Z"/>
        <path class="cls-121" d="M636.02,325.29c.94.04,1.84-.53,2.17-1.46.53-1.45,2.17-3.5,3.1-4.36.9-.83.96-2.22.14-3.12-.83-.9-2.22-.96-3.12-.14-1.19,1.09-3.4,3.72-4.27,6.11-.41,1.15.18,2.42,1.33,2.83.22.08.44.12.66.13Z"/>
      </g>
      <path class="cls-46" d="M666.85,320.54l-13.74,10.37c6.55,0,20.57,5.43,26.66,1.16-2-6.93-6.89-10.46-12.92-11.53Z"/>
      <path class="cls-78" d="M651.05,312.66c0,1.04,5.79.28,10.84-2.54,1.18-.66,2.1-.85,3.1-1.79l3.77,13.57h0c.13,1.9-1.63,4.24-4.96,6.16-5.01,2.9-11.67,3.74-14.86,1.9-1.1-.63-1.64-1.5-1.68-2.49,0-.17,3.8-14.8,3.8-14.8Z"/>
      <g>
        <path class="cls-83" d="M668.81,302.38c0-7.67-5.6-17.16-13.89-17.16-7.67,0-13.88,9.49-13.88,17.16s.02,19.19,3.97,18.77c2.43-.26,12.59-8.79,17.65-10.47,4.63-1.54,6.15-3.07,6.15-8.29Z"/>
        <path class="cls-47" d="M662.66,310.68c-5.06,1.69-15.22,10.21-17.65,10.47-3.12.33-3.78-6.75-3.93-13.52.97-4.26,2.09-10.19,8.35-10.21,6.24-.02,6.35,13.19,14.67,10.91,4.54-1.25,4.48-3.75,4.65-4.86v.02c-.22,4.32-1.82,5.76-6.09,7.19Z"/>
      </g>
      <path class="cls-49" d="M668.74,336.81c-6.88,3.24-20.98,11.03-20.02,21.76.96,10.72,4.42,35.06-6.1,34.77,10.2,2.46,28.37-8.51,31.82-16.72,4.74-11.29,6.21-29.03,6.17-40.29-.02-.21-.07-.39-.09-.6-.68-2.26-5.4-1.9-11.77,1.09Z"/>
      <path class="cls-48" d="M499.42,694.85l-25.92-14.96,19.98-11.54c.12-.06.24-.13.34-.2l.1-.06h0c3.45-2.23.76-6.67-8.09-11.78-12.73-7.35-33.38-13.31-46.11-13.31-4.43,0-7.31.72-8.66,1.97h-.02s-20.62,11.89-20.62,11.89c-3.16,1.5-2.76,4.32,1.17,7.79l-25.82,14.91c-3.73-.62-7.23-.96-10.28-.96-4.43,0-7.31.72-8.66,1.97l-.03-.02-20.62,11.9c-4.41,2.08-1.94,6.73,7.43,12.14,12.73,7.35,33.38,13.31,46.11,13.31,4.25,0,7.07-.67,8.49-1.83h0s18.52-10.69,18.52-10.69l27.21,15.71,45.46-26.25Z"/>
      <g>
        <path class="cls-122" d="M393.77,628.76c0,13.31,9.34,29.49,20.87,36.14,11.53,6.66,20.87,1.26,20.87-12.05s-9.34-29.49-20.87-36.15c-11.53-6.66-20.87-1.26-20.87,12.05ZM396.91,630.57c0-11.31,7.94-15.89,17.73-10.24,9.8,5.66,17.73,19.4,17.73,30.71s-7.94,15.89-17.73,10.24c-9.79-5.65-17.73-19.4-17.73-30.71Z"/>
        <path class="cls-82" d="M414.64,661.28c-9.79-5.65-17.73-19.4-17.73-30.71s7.94-15.89,17.73-10.24c.39.23.78.49,1.16.74.6,10.55,7.66,22.76,16.51,28.53.03.48.06.97.06,1.44,0,11.31-7.94,15.89-17.73,10.24Z"/>
        <path class="cls-70" d="M391.59,627.49c0,14.7,10.32,32.58,23.05,39.93,12.74,7.35,23.06,1.39,23.06-13.31s-10.32-32.58-23.06-39.93c-12.73-7.35-23.05-1.39-23.05,13.31ZM393.77,628.76c0-13.31,9.34-18.7,20.87-12.05,11.53,6.65,20.87,22.84,20.87,36.15s-9.34,18.7-20.87,12.05c-11.53-6.65-20.87-22.83-20.87-36.14Z"/>
        <g>
          <path class="cls-74" d="M430.75,669.14h0s.02-.01.04-.02l-.04.02Z"/>
          <path class="cls-81" d="M416.64,602.03c4.21-2.8,10.22-2.61,16.89,1.24,12.74,7.35,23.05,25.23,23.05,39.94,0,7.46-2.66,12.67-6.95,15.03h0s-18.54,10.7-18.54,10.7c4.08-2.45,6.6-7.57,6.6-14.83,0-14.7-10.32-32.58-23.06-39.93-6.67-3.85-12.68-4.04-16.89-1.24l18.89-10.91Z"/>
        </g>
      </g>
      <path class="cls-105" d="M436.57,556.12c6.28,1.49,11.94,6.79,15.93,14.93,4.47,9.11,7,22.66,2.58,32.39l-10.41-4.73c2.37-5.23,1.33-14.95-2.43-22.63-2.39-4.86-5.49-8.17-8.29-8.83l2.63-11.13Z"/>
      <g>
        <path class="cls-58" d="M354.58,618.81c-3.62-2.09-3.62-5.51,0-7.59l30.75-17.76c3.62-2.09,9.54-2.09,13.15,0l30.01,17.32c3.61,2.09,3.62,5.51,0,7.59l-30.75,17.76c-3.62,2.09-9.54,2.09-13.15,0l-30.01-17.32Z"/>
        <path class="cls-8" d="M354.58,618.81c-3.62-2.09-3.62-5.51,0-7.59l30.75-17.76c3.62-2.09,9.54-2.09,13.15,0l30.01,17.32c3.61,2.09,3.62,5.51,0,7.59l-30.75,17.76c-3.62,2.09-9.54,2.09-13.15,0l-30.01-17.32Z"/>
        <path class="cls-106" d="M351.88,615.24c.1,1.3.99,2.58,2.7,3.57l30.01,17.32h0c3.62,2.09,9.53,2.09,13.14,0l30.75-17.76c1.8-1.04,2.7-2.4,2.71-3.77h0s0,30.84,0,30.84c0,4.31-3.62,13.78-9.79,17.04l-34.01,19.63c-.07.04-.14.08-.2.12l-.11.07h0c-2.36,1.23-5.55.99-9.08-1.04l-16.85-9.73c-9.62-5.55-9.27-15.92-9.27-20.54v-35.75Z"/>
        <path class="cls-30" d="M351.88,615.24c.1,1.3.99,2.58,2.7,3.57l30.01,17.32h0c3.62,2.09,9.53,2.09,13.14,0l30.75-17.76c1.8-1.04,2.7-2.4,2.71-3.77h0s0,30.84,0,30.84c0,4.31-3.62,13.78-9.79,17.04l-34.01,19.63c-.07.04-.14.08-.2.12l-.11.07h0c-2.36,1.23-5.55.99-9.08-1.04l-16.85-9.73c-9.62-5.55-9.27-15.92-9.27-20.54v-35.75Z"/>
      </g>
      <g>
        <path class="cls-122" d="M331.04,665.03c0,13.31,9.34,29.49,20.87,36.15,11.53,6.65,20.87,1.26,20.87-12.05s-9.34-29.49-20.87-36.14c-11.53-6.66-20.87-1.26-20.87,12.04ZM334.18,666.84c0-11.31,7.93-15.89,17.73-10.23,9.79,5.66,17.73,19.4,17.73,30.71s-7.94,15.89-17.73,10.24c-9.79-5.65-17.73-19.4-17.73-30.71Z"/>
        <path class="cls-102" d="M351.91,697.55c-9.79-5.65-17.73-19.4-17.73-30.71s7.93-15.89,17.73-10.23c.39.22.78.49,1.16.74.6,10.55,7.66,22.76,16.51,28.53.03.48.06.96.06,1.44,0,11.31-7.94,15.89-17.73,10.24Z"/>
        <path class="cls-70" d="M328.85,663.77c0,14.7,10.32,32.58,23.05,39.93,12.73,7.35,23.06,1.39,23.06-13.31s-10.32-32.58-23.06-39.93c-12.73-7.35-23.06-1.39-23.05,13.31ZM331.04,665.03c0-13.31,9.35-18.7,20.87-12.04,11.53,6.65,20.87,22.83,20.87,36.14s-9.34,18.7-20.87,12.05c-11.52-6.66-20.87-22.84-20.87-36.15Z"/>
        <g>
          <path class="cls-74" d="M368.02,705.42h0s.02-.01.04-.02l-.03.02Z"/>
          <path class="cls-103" d="M353.91,638.31c4.21-2.8,10.22-2.61,16.89,1.24,12.73,7.35,23.05,25.23,23.05,39.93,0,7.46-2.66,12.67-6.95,15.03h0s-18.54,10.7-18.54,10.7c4.08-2.45,6.6-7.57,6.6-14.83,0-14.7-10.32-32.58-23.06-39.93-6.67-3.85-12.68-4.05-16.89-1.24l18.89-10.91Z"/>
        </g>
      </g>
      <g>
        <g>
          <path d="M343.68,561.17h0s0,.07,0,.1v-.1Z"/>
          <path class="cls-104" d="M343.68,561.46c.04,1.34.94,2.68,2.71,3.7l30,17.32c3.62,2.09,9.54,2.09,13.15,0l47.13-27.21c1.81-1.04,2.71-2.42,2.71-3.79v55.05c0,1.38-.9,2.75-2.71,3.8l-47.13,27.21c-3.62,2.09-9.53,2.09-13.15,0l-30-17.32c-1.9-1.09-2.79-2.55-2.7-4h0s0-54.76,0-54.76Z"/>
        </g>
        <path class="cls-75" d="M346.38,565.16c-3.62-2.09-3.62-5.51,0-7.59l47.13-27.21c3.62-2.09,9.53-2.09,13.15,0l30,17.32c3.62,2.09,3.62,5.51,0,7.59l-47.13,27.21c-3.62,2.09-9.53,2.09-13.15,0l-30-17.32Z"/>
        <path class="cls-29" d="M436.67,547.68l-15.53-8.97c-.33,0-.66-.02-1-.02h-11.25c-5.33,0-11.81,1.25-14.47,2.78l-29,16.74c-2.66,1.54-.5,2.79,4.82,2.79l20.44,11.56c-2.66,1.54-.5,2.78,4.82,2.78h6.41l34.76-20.07c3.62-2.09,3.62-5.5,0-7.59Z"/>
      </g>
      <g>
        <path class="cls-10" d="M407.44,531.34c10.67-6.16,19.32-1.17,19.32,11.15v6.5c0,3.08-2.16,6.81-4.82,8.35l-29,16.74c-2.67,1.54-4.83.29-4.83-2.78v-6.5c0-12.32,8.65-27.3,19.33-33.46Z"/>
        <path class="cls-100" d="M421.91,548.97v-6.49c0-4.67-1.43-8.13-3.8-10.12,3.81,1.39,6.25,5.43,6.25,11.54v6.49c0,1.54-1.08,3.41-2.41,4.18l-29,16.74c-1.33.77-2.41.14-2.41-1.4v-.04l28.97-16.73c1.33-.77,2.41-2.64,2.41-4.17Z"/>
        <path class="cls-101" d="M407.44,534.13c4.04-2.34,7.75-2.83,10.66-1.77,2.37,1.99,3.8,5.46,3.8,10.12v6.49c0,1.54-1.08,3.41-2.41,4.17l-28.97,16.73v-6.46c0-10.77,7.59-23.91,16.91-29.29Z"/>
        <path class="cls-31" d="M393.81,563.18c0-10.77,7.59-23.91,16.91-29.29,1.79-1.03,3.51-1.69,5.13-2.02-2.48-.22-5.34.49-8.4,2.26-9.33,5.38-16.91,18.52-16.91,29.29v6.46l3.27-1.89v-4.8Z"/>
        <path class="cls-112" d="M382.41,516.89c5.35-3.09,10.19-3.37,13.69-1.34l24.99,14.43c-3.49-2.01-8.32-1.71-13.64,1.36-10.67,6.16-19.33,21.14-19.33,33.46v6.5c0,1.52.53,2.58,1.38,3.1l-24.9-14.38c-.93-.48-1.51-1.58-1.51-3.17v-6.5c0-12.32,8.65-27.31,19.32-33.47Z"/>
      </g>
      <path class="cls-5" d="M396.09,555.24c0-1.19.84-2.65,1.87-3.25,1.04-.6,1.87-.11,1.87,1.09s-.84,2.65-1.87,3.24c-1.03.6-1.87.11-1.87-1.08Z"/>
      <path class="cls-5" d="M410.02,547.21c0-1.19.84-2.65,1.87-3.24,1.03-.6,1.87-.11,1.87,1.08s-.84,2.65-1.87,3.24c-1.03.6-1.87.11-1.87-1.08Z"/>
      <g>
        <polygon class="cls-120" points="465.46 593.44 600.58 671.45 510.23 723.62 375.1 645.6 465.46 593.44"/>
        <polygon class="cls-122" points="595.07 672.16 595.07 660.45 512.33 708.22 512.33 719.93 595.07 672.16"/>
        <polygon class="cls-55" points="465.46 579.29 600.58 657.31 510.23 709.48 375.1 631.46 465.46 579.29"/>
        <polygon class="cls-1" points="510.23 709.48 600.58 657.31 600.58 659.74 512.33 710.69 512.33 722.4 600.58 671.45 600.58 673.88 510.23 726.05 510.23 709.48"/>
        <polygon class="cls-120" points="513.71 607.15 552.33 629.45 461.98 681.62 423.35 659.32 513.71 607.15"/>
        <polygon class="cls-120" points="375.1 631.46 510.23 709.48 510.23 726.05 375.1 648.03 375.1 631.46"/>
        <polygon class="cls-65" points="402.66 647.37 414.58 654.26 414.58 670.83 402.66 663.94 402.66 647.37"/>
        <polygon class="cls-65" points="482.67 693.56 470.75 686.68 470.75 703.25 482.67 710.13 482.67 693.56"/>
        <polygon class="cls-8" points="494.2 635.08 503.96 640.72 481.49 653.69 471.73 648.06 494.2 635.08"/>
        <polygon class="cls-65" points="423.35 659.32 461.98 681.62 461.98 698.19 423.35 675.89 423.35 659.32"/>
      </g>
      <path class="cls-68" d="M391.37,645.91c.72.56,1.46,1.06,2.2,1.45,1.4.73,3.13.19,3.86-1.21.73-1.4.19-3.12-1.21-3.86-1.77-.93-4.11-3.39-5.05-4.73-.9-1.3-2.68-1.61-3.98-.71-1.29.9-1.61,2.68-.71,3.98.89,1.28,2.78,3.44,4.89,5.08Z"/>
      <g>
        <polygon class="cls-28" points="376.63 598.22 362.33 582.68 354.81 589.72 369.11 605.26 376.63 598.22"/>
        <path class="cls-68" d="M387.9,637.72c1.12.46,2.46.16,3.28-.83,1.27-1.54,4.17-3.31,5.67-3.95,1.45-.62,2.14-2.29,1.52-3.75-.61-1.45-2.29-2.14-3.74-1.52-1.93.81-5.76,3.05-7.86,5.58-1,1.22-.83,3.02.38,4.03.23.19.48.34.75.45Z"/>
        <path class="cls-76" d="M365.27,590.18c0-3.78-2.65-8.37-5.92-10.26-3.27-1.89-5.92-.36-5.92,3.42,0,3.77,2.65,8.37,5.92,10.25,3.27,1.89,5.92.36,5.92-3.42Z"/>
        <path class="cls-113" d="M354.28,583.47s2.61-3.16,3.82-4.11c.4.13.82.32,1.25.56,2.72,1.57,5,5,5.7,8.29-.52,1.15-1.11,2.03-1.43,2.36-4.78,5.36-4.61,15.72-1.99,19.95,5.92,9.58,13.15,15.87,26.21,20.09,6.02,3.21,5.4,10.11.13,11.43-17.92-5.58-27.26-11.65-35.65-24.87-4.71-7.43-4.73-26.08,1.96-33.7Z"/>
      </g>
      <path class="cls-27" d="M678.1,800.38l-25.3-14.61,19.51-11.26c.12-.06.23-.13.33-.19l.1-.06h0c3.37-2.18.74-6.51-7.89-11.5-12.43-7.17-32.58-12.99-45.01-12.99-4.32,0-7.14.71-8.45,1.93l-.02-.02-20.13,11.62c-3.09,1.46-2.7,4.21,1.14,7.6l-25.2,14.55c-3.64-.6-7.06-.94-10.03-.94-4.32,0-7.14.7-8.45,1.93h-.02s-20.13,11.61-20.13,11.61c-4.3,2.03-1.89,6.57,7.25,11.85,12.43,7.18,32.58,12.99,45.01,12.99,4.15,0,6.91-.65,8.28-1.78h0s18.07-10.43,18.07-10.43l26.56,15.34,44.38-25.62Z"/>
      <g>
        <path class="cls-122" d="M575.14,735.93c0,12.99,9.12,28.78,20.37,35.28,11.26,6.49,20.37,1.23,20.37-11.76s-9.12-28.79-20.37-35.28c-11.25-6.5-20.37-1.23-20.37,11.76ZM578.2,737.7c0-11.04,7.75-15.51,17.31-9.99,9.56,5.52,17.31,18.94,17.31,29.97s-7.75,15.51-17.31,9.99c-9.56-5.51-17.31-18.93-17.31-29.97Z"/>
        <path class="cls-109" d="M595.51,767.67c-9.56-5.51-17.31-18.93-17.31-29.97s7.75-15.51,17.31-9.99c.39.22.76.47,1.14.72.59,10.3,7.48,22.21,16.11,27.85.03.47.06.94.06,1.4,0,11.04-7.75,15.51-17.31,9.99Z"/>
        <path class="cls-70" d="M573.01,734.7c0,14.35,10.08,31.8,22.5,38.98,12.43,7.17,22.51,1.36,22.51-12.99s-10.07-31.8-22.51-38.98c-12.43-7.18-22.5-1.36-22.5,12.99ZM575.14,735.93c0-12.99,9.12-18.26,20.37-11.76,11.26,6.5,20.37,22.29,20.37,35.28s-9.12,18.26-20.37,11.76c-11.25-6.5-20.37-22.29-20.37-35.28Z"/>
        <g>
          <path class="cls-74" d="M611.23,775.35h0s.02-.01.04-.02l-.04.02Z"/>
          <path class="cls-110" d="M597.46,709.85c4.11-2.74,9.98-2.55,16.49,1.21,12.43,7.17,22.5,24.63,22.5,38.98,0,7.29-2.6,12.37-6.78,14.67h0s-18.1,10.45-18.1,10.45c3.98-2.39,6.44-7.39,6.44-14.47,0-14.35-10.07-31.8-22.51-38.98-6.51-3.76-12.37-3.95-16.48-1.21l18.44-10.65Z"/>
        </g>
      </g>
      <g>
        <path class="cls-58" d="M536.88,726.22c-3.53-2.04-3.53-5.37,0-7.41l30.02-17.33c3.53-2.04,9.31-2.04,12.83,0l29.29,16.91c3.53,2.04,3.53,5.37,0,7.41l-30.02,17.33c-3.53,2.04-9.31,2.04-12.84,0l-29.28-16.91Z"/>
        <path class="cls-8" d="M536.88,726.22c-3.53-2.04-3.53-5.37,0-7.41l30.02-17.33c3.53-2.04,9.31-2.04,12.83,0l29.29,16.91c3.53,2.04,3.53,5.37,0,7.41l-30.02,17.33c-3.53,2.04-9.31,2.04-12.84,0l-29.28-16.91Z"/>
        <path class="cls-111" d="M534.25,722.74c.09,1.27.97,2.52,2.63,3.48l29.28,16.91h.01c3.53,2.04,9.3,2.03,12.83,0l30.02-17.33c1.75-1.01,2.63-2.35,2.64-3.69h0v30.11c0,4.2-3.53,13.46-9.55,16.63l-33.19,19.16c-.07.04-.13.08-.2.12l-.11.06h0c-2.3,1.2-5.42.97-8.86-1.01l-16.45-9.5c-9.39-5.42-9.05-15.54-9.05-20.04v-34.9Z"/>
        <path class="cls-26" d="M534.25,722.74c.09,1.27.97,2.52,2.63,3.48l29.28,16.91h.01c3.53,2.04,9.3,2.03,12.83,0l30.02-17.33c1.75-1.01,2.63-2.35,2.64-3.69h0v30.11c0,4.2-3.53,13.46-9.55,16.63l-33.19,19.16c-.07.04-.13.08-.2.12l-.11.06h0c-2.3,1.2-5.42.97-8.86-1.01l-16.45-9.5c-9.39-5.42-9.05-15.54-9.05-20.04v-34.9Z"/>
      </g>
      <g>
        <path class="cls-122" d="M513.91,771.33c0,12.99,9.12,28.79,20.37,35.28,11.25,6.5,20.37,1.23,20.37-11.76s-9.12-28.79-20.37-35.28c-11.25-6.49-20.37-1.23-20.37,11.76ZM516.97,773.1c0-11.04,7.75-15.51,17.31-9.99,9.56,5.52,17.31,18.94,17.31,29.98s-7.75,15.51-17.31,9.99c-9.56-5.52-17.31-18.94-17.31-29.98Z"/>
        <path class="cls-107" d="M534.28,803.08c-9.56-5.52-17.31-18.94-17.31-29.98s7.75-15.51,17.31-9.99c.38.22.75.48,1.13.72.59,10.3,7.48,22.22,16.11,27.85.03.47.06.94.06,1.41,0,11.04-7.75,15.51-17.31,9.99Z"/>
        <path class="cls-70" d="M511.77,770.1c0,14.35,10.08,31.8,22.51,38.98,12.43,7.17,22.5,1.36,22.5-12.99s-10.08-31.8-22.5-38.98c-12.43-7.18-22.51-1.36-22.51,12.99ZM513.91,771.33c0-12.99,9.12-18.25,20.37-11.76,11.25,6.49,20.37,22.29,20.37,35.28s-9.12,18.25-20.37,11.76c-11.25-6.49-20.37-22.29-20.37-35.28Z"/>
        <g>
          <path class="cls-74" d="M550,810.76h0s.02-.02.03-.02l-.03.02Z"/>
          <path class="cls-108" d="M536.23,745.25c4.11-2.74,9.97-2.55,16.49,1.21,12.43,7.18,22.5,24.62,22.5,38.98,0,7.29-2.6,12.37-6.78,14.67h0l-18.1,10.44c3.98-2.39,6.44-7.39,6.44-14.47,0-14.36-10.08-31.8-22.5-38.98-6.52-3.76-12.38-3.95-16.49-1.21l18.44-10.64Z"/>
        </g>
      </g>
      <g>
        <g>
          <path d="M526.25,669.95h0s0,.07,0,.1v-.1Z"/>
          <path class="cls-116" d="M526.25,670.24c.04,1.31.91,2.62,2.64,3.61l29.29,16.91c3.53,2.04,9.31,2.04,12.84,0l46.01-26.56c1.76-1.02,2.65-2.36,2.65-3.71v53.74c0,1.35-.88,2.69-2.65,3.71l-46.01,26.56c-3.53,2.04-9.31,2.04-12.84,0l-29.29-16.91c-1.85-1.06-2.72-2.49-2.63-3.9h0s0-53.45,0-53.45Z"/>
        </g>
        <path class="cls-75" d="M528.88,673.86c-3.53-2.04-3.53-5.37,0-7.41l46.01-26.56c3.53-2.04,9.31-2.04,12.83,0l29.29,16.91c3.53,2.04,3.53,5.37,0,7.41l-46.01,26.56c-3.53,2.04-9.31,2.04-12.84,0l-29.29-16.91Z"/>
      </g>
      <path class="cls-24" d="M617.02,656.79l-20.47-11.82c-.12,0-.24,0-.37,0h-10.94c-5.18,0-11.48,1.21-14.06,2.71l-28.2,16.28c-2.59,1.5-.49,2.71,4.69,2.71l19.86,11.63c-2.59,1.5-.49,2.71,4.69,2.71h10.94c1.62,0,3.27-.03,4.93-.09l28.93-16.7c3.53-2.04,3.53-5.37,0-7.41Z"/>
      <g>
        <path class="cls-10" d="M584.08,638.33c10.37-5.99,18.79-1.14,18.79,10.84v6.32c0,2.99-2.1,6.63-4.69,8.12l-28.2,16.28c-2.59,1.49-4.69.28-4.69-2.71v-6.32c0-11.98,8.41-26.55,18.79-32.54Z"/>
        <path class="cls-114" d="M559.75,624.28c5.2-3,9.9-3.28,13.31-1.3,0,0,24.3,14.02,24.3,14.02-3.4-1.95-8.09-1.66-13.27,1.33-10.37,5.99-18.79,20.56-18.79,32.54v6.32c0,1.47.51,2.51,1.34,3.01l-24.2-13.98c-.9-.47-1.47-1.53-1.47-3.08v-6.31c0-11.98,8.41-26.55,18.79-32.54Z"/>
      </g>
      <g>
        <polygon class="cls-25" points="557.77 705.65 543.81 690.48 536.47 697.34 550.43 712.51 557.77 705.65"/>
        <path class="cls-68" d="M547.3,698.24c0-3.67-2.58-8.13-5.76-9.97-3.18-1.83-5.76-.35-5.76,3.32,0,3.67,2.58,8.14,5.76,9.97,3.18,1.84,5.76.34,5.76-3.33Z"/>
        <path class="cls-68" d="M491.85,720.45c.8.38,1.61.7,2.39.91,1.48.4,3.01-.47,3.41-1.96.4-1.48-.48-3.01-1.96-3.41-1.87-.51-4.61-2.35-5.79-3.43-1.13-1.04-2.89-.97-3.93.16-1.04,1.13-.97,2.89.16,3.93,1.12,1.03,3.36,2.69,5.71,3.8Z"/>
        <path class="cls-115" d="M537.08,689.59c-.01.07-3.39,2.79-2.4,7.81,2.36,10.74-1.31,20.65-11.67,24.19-6.94,2.37-15.89-4.89-20.74-9.91-5.76-3.83-13.27,1.91-7.55,8.54,5.72,6.64,18.78,15.18,32.24,11.39,14.66-4.12,23.82-19.44,18.26-37.76-2-4.35-5.86-6.87-8.14-4.27Z"/>
        <path class="cls-68" d="M502.32,704.13c-.04-.88-.13-1.75-.31-2.54-.34-1.5-1.83-2.44-3.33-2.09-1.5.34-2.43,1.83-2.09,3.33.43,1.89.08,5.17-.33,6.71-.39,1.49.49,3,1.98,3.39,1.49.39,3-.49,3.4-1.98.39-1.47.8-4.23.69-6.83Z"/>
        <path class="cls-125" d="M495.88,715.03c.52-1.06.33-2.38-.57-3.24-1.4-1.34-2.93-4.27-3.43-5.78-.49-1.45-2.07-2.23-3.52-1.74-1.46.5-2.24,2.07-1.75,3.52.66,1.93,2.55,5.81,4.86,8.02,1.11,1.06,2.87,1.02,3.93-.09.2-.21.36-.45.48-.7Z"/>
      </g>
      <path class="cls-63" d="M590.28,676.71c-.89,0-1.62-.72-1.62-1.62v-3.93c0-1.57-1.09-3.63-2.29-4.32l-3.1-1.79c-.77-.45-1.04-1.44-.59-2.21.45-.77,1.44-1.04,2.21-.59l3.1,1.79c2.19,1.27,3.91,4.4,3.91,7.13v3.93c0,.9-.73,1.62-1.62,1.62Z"/>
      <path class="cls-1" d="M595.76,673.58c-.89,0-1.62-.72-1.62-1.62v-3.93c0-1.57-1.09-3.62-2.29-4.32l-3.1-1.79c-.77-.45-1.04-1.44-.59-2.21.45-.77,1.44-1.04,2.21-.59l3.1,1.79c2.19,1.27,3.91,4.4,3.91,7.13v3.93c0,.9-.73,1.62-1.62,1.62Z"/>
    </g>
  </g>
</svg>