<?xml version="1.0" encoding="UTF-8"?>
<svg id="wordpress" xmlns="http://www.w3.org/2000/svg" viewBox="0 0 960 960">
  <defs>
    <style>
      .cls-1 {
        fill: none;
        stroke: #333;
        stroke-linecap: round;
        stroke-linejoin: round;
        stroke-width: 16px;
      }

      .cls-2 {
        fill: #333;
      }
    </style>
  </defs>
  <path class="cls-1" d="M828.06,584.94V231.88c0-45.7-24.34-65.89-50.56-65.89H191.4c-35.93,0-58.05,24.34-58.05,54.3v364.65c0,43.6,28.09,56.67,56.18,56.67h595.46c27.9,0,47.17,8.28,52.09,18.1l32.42,67.45c8.51,22.92-4.45,66.85-46.22,66.85H143.26c-51.34,0-64.18-42.81-49.63-73.61l23.96-46.21"/>
  <g>
    <path class="cls-2" d="M439.78,530.77c-28.82,0-56.56-9.74-79.31-28.09-26.36-21.25-42.87-51.49-46.48-85.16-3.61-33.66,6.1-66.72,27.35-93.08,21.25-26.36,51.49-42.87,85.16-46.48,33.66-3.61,66.72,6.1,93.08,27.35h0c26.36,21.25,42.87,51.49,46.48,85.16,3.61,33.67-6.1,66.72-27.35,93.08-21.25,26.36-51.49,42.87-85.16,46.48-4.6.49-9.2.74-13.77.74ZM440.24,291.31c-4.06,0-8.15.22-12.24.66-29.93,3.21-56.81,17.89-75.7,41.32-18.89,23.43-27.52,52.82-24.31,82.74,3.21,29.93,17.89,56.81,41.32,75.7,23.43,18.89,52.82,27.52,82.74,24.31,29.93-3.21,56.81-17.89,75.7-41.32,18.89-23.43,27.52-52.82,24.31-82.74-3.21-29.93-17.89-56.81-41.32-75.7h0c-20.22-16.3-44.89-24.97-70.5-24.97Z"/>
    <path class="cls-2" d="M439.95,486.76c-19.05,0-36.98-6.34-51.86-18.33-3.03-2.44-3.5-6.87-1.06-9.9,2.44-3.03,6.87-3.5,9.9-1.06,12.35,9.95,27.23,15.21,43.03,15.21,3.89,0,7.04,3.15,7.04,7.04s-3.15,7.04-7.04,7.04Z"/>
    <path class="cls-2" d="M619.53,586.87c-8.34,0-16.73-2.74-23.71-8.36l-32.59-26.27c-16.24-13.09-18.8-36.96-5.71-53.21l.3-.37c13.1-16.25,36.97-18.81,53.21-5.71l32.59,26.27c7.84,6.32,12.76,15.35,13.84,25.43,1.08,10.07-1.81,19.94-8.13,27.78,0,0,0,0,0,0l-.3.37c-7.46,9.26-18.43,14.07-29.49,14.07ZM587.3,498.65c-6.95,0-13.83,3.02-18.52,8.84l-.3.37c-8.22,10.2-6.61,25.19,3.59,33.41l32.59,26.27c10.2,8.22,25.19,6.61,33.41-3.59l.3-.37c3.96-4.91,5.77-11.11,5.09-17.44-.68-6.33-3.76-12-8.67-15.97l-32.59-26.27c-4.38-3.53-9.65-5.25-14.89-5.25ZM643.84,568h.02-.02Z"/>
  </g>
</svg>