<?xml version="1.0" encoding="UTF-8"?>
<svg id="_レイヤー_2" data-name="レイヤー_2" xmlns="http://www.w3.org/2000/svg" viewBox="0 0 1261.62 356.73">
  <defs>
    <style>
      .cls-1 {
        fill: #f5f5f7;
      }
    </style>
  </defs>
  <g id="blob">
    <path id="blob-cultured-lt" class="cls-1" d="M0,0v356.73c2.5-6.64,5.49-13.2,9.13-19.62,24.54-43.31,92.46-73.77,139.91-47.16,62.29,35.03,146.55,40.31,214.33,13.56,53.15-21.05,94.68-61.22,113.94-107.8,1.93-4.71,3.64-9.56,5.14-14.41,2.5-8.28,4.35-16.77,5.42-25.26,7.85-63.14,83.05-106.59,158.75-114.23,5.71-.64,11.49-1,17.19-1.14,2-.07,3.92-.07,5.92-.07,79.05-.86,154.25,27.04,227.95,51.37,59.5,19.62,123.22,37.31,186.14,35.96,5.42-.14,10.84-.43,16.34-.86,11.49-.86,22.97-2.5,34.39-4.85C1201.69,108.16,1261.12,55.51,1261.62,0H0Z"/>
  </g>
</svg>