<?xml version="1.0" encoding="UTF-8"?>
<svg id="_レイヤー_2" data-name="レイヤー_2" xmlns="http://www.w3.org/2000/svg" xmlns:xlink="http://www.w3.org/1999/xlink" viewBox="0 0 227.82 227.82">
  <defs>
    <style>
      .cls-1 {
        fill: none;
      }

      .cls-2 {
        fill: #f7f7f9;
      }

      .cls-3 {
        clip-path: url(#clippath);
      }
    </style>
    <clipPath id="clippath">
      <circle class="cls-1" cx="113.91" cy="113.91" r="113.91"/>
    </clipPath>
  </defs>
  <g id="clipgroup">
    <g id="embellishments-cultured-circle">
      <g class="cls-3">
        <g>
          <g>
            <circle class="cls-2" cx="5.86" cy="222.11" r="1.39"/>
            <circle class="cls-2" cx="5.86" cy="205.48" r="1.39" transform="translate(-197.93 178.48) rotate(-80.82)"/>
            <circle class="cls-2" cx="5.86" cy="188.86" r="1.39"/>
            <circle class="cls-2" cx="5.86" cy="172.24" r="1.39"/>
            <circle class="cls-2" cx="5.86" cy="155.61" r="1.39"/>
            <circle class="cls-2" cx="5.86" cy="138.99" r="1.39" transform="translate(-132.29 122.6) rotate(-80.82)"/>
            <circle class="cls-2" cx="5.86" cy="122.37" r="1.39"/>
            <circle class="cls-2" cx="22.48" cy="222.11" r="1.39"/>
            <circle class="cls-2" cx="22.48" cy="205.48" r="1.39"/>
            <circle class="cls-2" cx="22.48" cy="188.86" r="1.39"/>
            <circle class="cls-2" cx="22.48" cy="172.24" r="1.39"/>
            <circle class="cls-2" cx="22.48" cy="155.61" r="1.39"/>
            <circle class="cls-2" cx="22.48" cy="138.99" r="1.39"/>
            <circle class="cls-2" cx="22.48" cy="122.37" r="1.39"/>
            <circle class="cls-2" cx="39.1" cy="222.11" r="1.39"/>
            <circle class="cls-2" cx="39.1" cy="205.48" r="1.39"/>
            <circle class="cls-2" cx="39.1" cy="188.86" r="1.39"/>
            <circle class="cls-2" cx="39.1" cy="172.24" r="1.39"/>
            <path class="cls-2" d="M39.1,154.23c.77,0,1.39.62,1.39,1.39s-.62,1.39-1.39,1.39-1.39-.62-1.39-1.39c0-.77.62-1.39,1.39-1.39Z"/>
            <circle class="cls-2" cx="39.1" cy="138.99" r="1.39"/>
            <path class="cls-2" d="M39.1,120.98c.77,0,1.39.62,1.39,1.39s-.62,1.39-1.39,1.39-1.39-.62-1.39-1.39c0-.77.62-1.39,1.39-1.39Z"/>
            <circle class="cls-2" cx="55.73" cy="222.11" r="1.39"/>
            <circle class="cls-2" cx="55.73" cy="205.48" r="1.39"/>
            <circle class="cls-2" cx="55.73" cy="188.86" r="1.39"/>
            <circle class="cls-2" cx="55.73" cy="172.24" r="1.39"/>
            <circle class="cls-2" cx="55.73" cy="155.61" r="1.39"/>
            <circle class="cls-2" cx="55.73" cy="138.99" r="1.39"/>
            <circle class="cls-2" cx="55.73" cy="122.37" r="1.39"/>
            <circle class="cls-2" cx="72.35" cy="222.11" r="1.39" transform="translate(-158.48 257.95) rotate(-80.78)"/>
            <circle class="cls-2" cx="72.35" cy="205.48" r="1.39"/>
            <circle class="cls-2" cx="72.35" cy="188.86" r="1.39"/>
            <circle class="cls-2" cx="72.35" cy="172.24" r="1.39"/>
            <circle class="cls-2" cx="72.35" cy="155.61" r="1.39" transform="translate(-50.07 35.35) rotate(-20.57)"/>
            <circle class="cls-2" cx="72.35" cy="138.99" r="1.39"/>
            <circle class="cls-2" cx="72.35" cy="122.37" r="1.39" transform="translate(-60.02 174.18) rotate(-80.78)"/>
            <path class="cls-2" d="M88.98,220.72c.77,0,1.39.62,1.39,1.39s-.62,1.39-1.39,1.39-1.39-.62-1.39-1.39.62-1.39,1.39-1.39Z"/>
            <circle class="cls-2" cx="88.98" cy="205.48" r="1.39"/>
            <circle class="cls-2" cx="88.98" cy="188.86" r="1.39"/>
            <circle class="cls-2" cx="88.98" cy="172.24" r="1.39"/>
            <circle class="cls-2" cx="88.98" cy="155.61" r="1.39"/>
            <circle class="cls-2" cx="88.98" cy="138.99" r="1.39"/>
            <circle class="cls-2" cx="88.98" cy="122.37" r="1.39"/>
            <circle class="cls-2" cx="105.6" cy="222.11" r="1.39"/>
            <circle class="cls-2" cx="105.6" cy="205.48" r="1.39"/>
            <circle class="cls-2" cx="105.6" cy="188.86" r="1.39"/>
            <circle class="cls-2" cx="105.6" cy="172.24" r="1.39"/>
            <path class="cls-2" d="M105.6,154.23c.77,0,1.39.62,1.39,1.39s-.62,1.39-1.39,1.39-1.39-.62-1.39-1.39.62-1.39,1.39-1.39Z"/>
            <circle class="cls-2" cx="105.6" cy="138.99" r="1.39"/>
            <circle class="cls-2" cx="105.6" cy="122.37" r="1.39"/>
            <path class="cls-2" d="M122.22,220.72c.77,0,1.39.62,1.39,1.39s-.62,1.39-1.39,1.39-1.39-.62-1.39-1.39.62-1.39,1.39-1.39Z"/>
            <circle class="cls-2" cx="122.22" cy="205.48" r="1.39"/>
            <circle class="cls-2" cx="122.22" cy="188.86" r="1.39"/>
            <circle class="cls-2" cx="122.22" cy="172.24" r="1.39"/>
            <circle class="cls-2" cx="122.22" cy="155.61" r="1.39"/>
            <circle class="cls-2" cx="122.22" cy="138.99" r="1.39"/>
            <circle class="cls-2" cx="122.22" cy="122.37" r="1.39"/>
            <circle class="cls-2" cx="138.85" cy="222.11" r="1.39"/>
            <circle class="cls-2" cx="138.85" cy="205.48" r="1.39" transform="translate(-86.22 309.62) rotate(-80.78)"/>
            <circle class="cls-2" cx="138.85" cy="188.86" r="1.39"/>
            <circle class="cls-2" cx="138.85" cy="172.24" r="1.39"/>
            <path class="cls-2" d="M138.85,154.23c.77,0,1.39.62,1.39,1.39s-.62,1.39-1.39,1.39-1.39-.62-1.39-1.39.62-1.39,1.39-1.39Z"/>
            <circle class="cls-2" cx="138.85" cy="138.99" r="1.39" transform="translate(-20.59 253.78) rotate(-80.78)"/>
            <circle class="cls-2" cx="138.85" cy="122.37" r="1.39"/>
            <path class="cls-2" d="M155.47,220.72c.77,0,1.39.62,1.39,1.39s-.62,1.39-1.39,1.39-1.39-.62-1.39-1.39.62-1.39,1.39-1.39Z"/>
            <path class="cls-2" d="M155.47,204.1c.77,0,1.39.62,1.39,1.39,0,.77-.62,1.39-1.39,1.39s-1.39-.62-1.39-1.39.62-1.39,1.39-1.39Z"/>
            <circle class="cls-2" cx="155.47" cy="188.86" r="1.39"/>
            <circle class="cls-2" cx="155.47" cy="172.24" r="1.39"/>
            <circle class="cls-2" cx="155.47" cy="155.61" r="1.39"/>
            <circle class="cls-2" cx="155.47" cy="138.99" r="1.39"/>
            <circle class="cls-2" cx="155.47" cy="122.37" r="1.39"/>
            <circle class="cls-2" cx="172.09" cy="222.11" r="1.39"/>
            <circle class="cls-2" cx="172.09" cy="205.48" r="1.39"/>
            <circle class="cls-2" cx="172.09" cy="188.86" r="1.39"/>
            <circle class="cls-2" cx="172.09" cy="172.24" r="1.39"/>
            <path class="cls-2" d="M172.09,154.23c.77,0,1.39.62,1.39,1.39s-.62,1.39-1.39,1.39-1.39-.62-1.39-1.39.62-1.39,1.39-1.39Z"/>
            <circle class="cls-2" cx="172.09" cy="138.99" r="1.39"/>
            <circle class="cls-2" cx="172.09" cy="122.37" r="1.39"/>
            <path class="cls-2" d="M188.72,220.72c.77,0,1.39.62,1.39,1.39s-.62,1.39-1.39,1.39-1.39-.62-1.39-1.39.62-1.39,1.39-1.39Z"/>
            <circle class="cls-2" cx="188.72" cy="205.48" r="1.39"/>
            <circle class="cls-2" cx="188.72" cy="188.86" r="1.39"/>
            <circle class="cls-2" cx="188.72" cy="172.24" r="1.39"/>
            <circle class="cls-2" cx="188.72" cy="155.61" r="1.39"/>
            <circle class="cls-2" cx="188.72" cy="138.99" r="1.39"/>
            <circle class="cls-2" cx="188.72" cy="122.37" r="1.39"/>
            <circle class="cls-2" cx="205.34" cy="222.11" r="1.39" transform="translate(-46.79 389.22) rotate(-80.78)"/>
            <circle class="cls-2" cx="205.34" cy="205.48" r="1.39"/>
            <circle class="cls-2" cx="205.34" cy="188.86" r="1.39"/>
            <circle class="cls-2" cx="205.34" cy="172.24" r="1.39"/>
            <path class="cls-2" d="M205.34,154.23c.77,0,1.39.62,1.39,1.39s-.62,1.39-1.39,1.39-1.39-.62-1.39-1.39.62-1.39,1.39-1.39Z"/>
            <circle class="cls-2" cx="205.34" cy="138.99" r="1.39"/>
            <circle class="cls-2" cx="205.34" cy="122.37" r="1.39" transform="translate(51.66 305.45) rotate(-80.78)"/>
            <path class="cls-2" d="M221.96,220.72c.77,0,1.39.62,1.39,1.39,0,.77-.62,1.39-1.39,1.39s-1.39-.62-1.39-1.39.62-1.39,1.39-1.39Z"/>
            <circle class="cls-2" cx="221.96" cy="205.48" r="1.39"/>
            <path class="cls-2" d="M221.96,187.47c.77,0,1.39.62,1.39,1.39,0,.77-.62,1.39-1.39,1.39s-1.39-.62-1.39-1.39.62-1.39,1.39-1.39Z"/>
            <circle class="cls-2" cx="221.96" cy="172.24" r="1.39"/>
            <path class="cls-2" d="M221.96,154.23c.77,0,1.39.62,1.39,1.39,0,.77-.62,1.39-1.39,1.39s-1.39-.62-1.39-1.39.62-1.39,1.39-1.39Z"/>
            <circle class="cls-2" cx="221.96" cy="138.99" r="1.39"/>
            <circle class="cls-2" cx="221.96" cy="122.37" r="1.39"/>
          </g>
          <g>
            <circle class="cls-2" cx="5.86" cy="105.46" r="1.39"/>
            <circle class="cls-2" cx="5.86" cy="88.83" r="1.39"/>
            <path class="cls-2" d="M5.86,70.82c.77,0,1.39.62,1.39,1.39s-.62,1.39-1.39,1.39-1.39-.62-1.39-1.39.62-1.39,1.39-1.39Z"/>
            <circle class="cls-2" cx="5.86" cy="55.59" r="1.39" transform="translate(-50.01 53.98) rotate(-82.34)"/>
            <circle class="cls-2" cx="5.86" cy="38.96" r="1.39"/>
            <circle class="cls-2" cx="5.86" cy="22.34" r="1.39" transform="translate(-17.13 24.56) rotate(-80.82)"/>
            <circle class="cls-2" cx="5.86" cy="5.71" r="1.39"/>
            <circle class="cls-2" cx="22.48" cy="105.46" r="1.39"/>
            <circle class="cls-2" cx="22.48" cy="88.83" r="1.39"/>
            <circle class="cls-2" cx="22.48" cy="72.21" r="1.39"/>
            <circle class="cls-2" cx="22.48" cy="55.59" r="1.39"/>
            <circle class="cls-2" cx="22.48" cy="38.96" r="1.39" transform="translate(-17.05 60.43) rotate(-88.53)"/>
            <circle class="cls-2" cx="22.48" cy="22.34" r="1.39"/>
            <path class="cls-2" d="M22.48,4.33c.77,0,1.39.62,1.39,1.39s-.62,1.39-1.39,1.39-1.39-.62-1.39-1.39.62-1.39,1.39-1.39Z"/>
            <circle class="cls-2" cx="39.1" cy="105.46" r="1.39"/>
            <circle class="cls-2" cx="39.1" cy="88.83" r="1.39"/>
            <path class="cls-2" d="M39.1,70.82c.77,0,1.39.62,1.39,1.39s-.62,1.39-1.39,1.39-1.39-.62-1.39-1.39.62-1.39,1.39-1.39Z"/>
            <circle class="cls-2" cx="39.1" cy="55.59" r="1.39"/>
            <path class="cls-2" d="M39.1,37.58c.77,0,1.39.62,1.39,1.39s-.62,1.39-1.39,1.39-1.39-.62-1.39-1.39c0-.77.62-1.39,1.39-1.39Z"/>
            <circle class="cls-2" cx="39.1" cy="22.34" r="1.39"/>
            <path class="cls-2" d="M39.1,4.33c.77,0,1.39.62,1.39,1.39s-.62,1.39-1.39,1.39-1.39-.62-1.39-1.39c0-.77.62-1.39,1.39-1.39Z"/>
            <circle class="cls-2" cx="55.73" cy="105.46" r="1.39"/>
            <circle class="cls-2" cx="55.73" cy="88.83" r="1.39"/>
            <circle class="cls-2" cx="55.73" cy="72.21" r="1.39"/>
            <circle class="cls-2" cx="55.73" cy="55.59" r="1.39"/>
            <circle class="cls-2" cx="55.73" cy="38.96" r="1.39"/>
            <circle class="cls-2" cx="55.73" cy="22.34" r="1.39"/>
            <path class="cls-2" d="M55.73,4.33c.77,0,1.39.62,1.39,1.39s-.62,1.39-1.39,1.39-1.39-.62-1.39-1.39.62-1.39,1.39-1.39Z"/>
            <circle class="cls-2" cx="72.35" cy="105.46" r="1.39"/>
            <circle class="cls-2" cx="72.35" cy="88.83" r="1.39"/>
            <path class="cls-2" d="M72.35,70.82c.77,0,1.39.62,1.39,1.39s-.62,1.39-1.39,1.39-1.39-.62-1.39-1.39.62-1.39,1.39-1.39Z"/>
            <circle class="cls-2" cx="72.35" cy="55.59" r="1.39"/>
            <circle class="cls-2" cx="72.35" cy="38.96" r="1.39" transform="translate(22.3 104.14) rotate(-80.78)"/>
            <circle class="cls-2" cx="72.35" cy="22.34" r="1.39"/>
            <circle class="cls-2" cx="72.35" cy="5.71" r="1.39" transform="translate(55.12 76.22) rotate(-80.78)"/>
            <circle class="cls-2" cx="88.98" cy="105.46" r="1.39"/>
            <circle class="cls-2" cx="88.98" cy="88.83" r="1.39"/>
            <circle class="cls-2" cx="88.98" cy="72.21" r="1.39"/>
            <circle class="cls-2" cx="88.98" cy="55.59" r="1.39"/>
            <circle class="cls-2" cx="88.98" cy="38.96" r="1.39"/>
            <circle class="cls-2" cx="88.98" cy="22.34" r="1.39"/>
            <circle class="cls-2" cx="88.98" cy="5.71" r="1.39"/>
            <circle class="cls-2" cx="105.6" cy="105.46" r="1.39"/>
            <circle class="cls-2" cx="105.6" cy="88.83" r="1.39"/>
            <path class="cls-2" d="M105.6,70.82c.77,0,1.39.62,1.39,1.39s-.62,1.39-1.39,1.39-1.39-.62-1.39-1.39.62-1.39,1.39-1.39Z"/>
            <circle class="cls-2" cx="105.6" cy="55.59" r="1.39"/>
            <circle class="cls-2" cx="105.6" cy="38.96" r="1.39"/>
            <circle class="cls-2" cx="105.6" cy="22.34" r="1.39"/>
            <circle class="cls-2" cx="105.6" cy="5.71" r="1.39"/>
            <circle class="cls-2" cx="122.22" cy="105.46" r="1.39"/>
            <circle class="cls-2" cx="122.22" cy="88.83" r="1.39"/>
            <circle class="cls-2" cx="122.22" cy="72.21" r="1.39"/>
            <circle class="cls-2" cx="122.22" cy="55.59" r="1.39"/>
            <circle class="cls-2" cx="122.22" cy="38.96" r="1.39"/>
            <circle class="cls-2" cx="122.22" cy="22.34" r="1.39"/>
            <circle class="cls-2" cx="122.22" cy="5.71" r="1.39"/>
            <circle class="cls-2" cx="138.85" cy="105.46" r="1.39"/>
            <circle class="cls-2" cx="138.85" cy="88.83" r="1.39"/>
            <circle class="cls-2" cx="138.85" cy="72.21" r="1.39"/>
            <circle class="cls-2" cx="138.85" cy="55.59" r="1.39" transform="translate(61.74 183.73) rotate(-80.78)"/>
            <circle class="cls-2" cx="138.85" cy="38.96" r="1.39"/>
            <circle class="cls-2" cx="138.85" cy="22.34" r="1.39" transform="translate(94.56 155.81) rotate(-80.78)"/>
            <circle class="cls-2" cx="138.85" cy="5.71" r="1.39"/>
            <circle class="cls-2" cx="155.47" cy="105.46" r="1.39"/>
            <path class="cls-2" d="M155.47,87.45c.77,0,1.39.62,1.39,1.39,0,.77-.62,1.39-1.39,1.39s-1.39-.62-1.39-1.39.62-1.39,1.39-1.39Z"/>
            <circle class="cls-2" cx="155.47" cy="72.21" r="1.39"/>
            <circle class="cls-2" cx="155.47" cy="55.59" r="1.39"/>
            <circle class="cls-2" cx="155.47" cy="38.96" r="1.39"/>
            <circle class="cls-2" cx="155.47" cy="22.34" r="1.39"/>
            <circle class="cls-2" cx="155.47" cy="5.71" r="1.39"/>
            <circle class="cls-2" cx="172.09" cy="105.46" r="1.39"/>
            <circle class="cls-2" cx="172.09" cy="88.83" r="1.39"/>
            <circle class="cls-2" cx="172.09" cy="72.21" r="1.39"/>
            <circle class="cls-2" cx="172.09" cy="55.59" r="1.39"/>
            <circle class="cls-2" cx="172.09" cy="38.96" r="1.39"/>
            <circle class="cls-2" cx="172.09" cy="22.34" r="1.39"/>
            <circle class="cls-2" cx="172.09" cy="5.71" r="1.39"/>
            <circle class="cls-2" cx="188.72" cy="105.46" r="1.39"/>
            <circle class="cls-2" cx="188.72" cy="88.83" r="1.39"/>
            <circle class="cls-2" cx="188.72" cy="72.21" r="1.39"/>
            <circle class="cls-2" cx="188.72" cy="55.59" r="1.39"/>
            <circle class="cls-2" cx="188.72" cy="38.96" r="1.39"/>
            <circle class="cls-2" cx="188.72" cy="22.34" r="1.39"/>
            <circle class="cls-2" cx="188.72" cy="5.71" r="1.39"/>
            <circle class="cls-2" cx="205.34" cy="105.46" r="1.39"/>
            <circle class="cls-2" cx="205.34" cy="88.83" r="1.39"/>
            <circle class="cls-2" cx="205.34" cy="72.21" r="1.39"/>
            <circle class="cls-2" cx="205.34" cy="55.59" r="1.39"/>
            <circle class="cls-2" cx="205.34" cy="38.96" r="1.39" transform="translate(133.99 235.41) rotate(-80.78)"/>
            <circle class="cls-2" cx="205.34" cy="22.34" r="1.39"/>
            <circle class="cls-2" cx="205.34" cy="5.71" r="1.39" transform="translate(166.81 207.49) rotate(-80.78)"/>
            <path class="cls-2" d="M221.96,104.07c.77,0,1.39.62,1.39,1.39,0,.77-.62,1.39-1.39,1.39s-1.39-.62-1.39-1.39.62-1.39,1.39-1.39Z"/>
            <circle class="cls-2" cx="221.96" cy="88.83" r="1.39"/>
            <path class="cls-2" d="M221.96,70.82c.77,0,1.39.62,1.39,1.39,0,.77-.62,1.39-1.39,1.39s-1.39-.62-1.39-1.39.62-1.39,1.39-1.39Z"/>
            <circle class="cls-2" cx="221.96" cy="55.59" r="1.39"/>
            <circle class="cls-2" cx="221.96" cy="38.96" r="1.39"/>
            <circle class="cls-2" cx="221.96" cy="22.34" r="1.39"/>
            <circle class="cls-2" cx="221.96" cy="5.71" r="1.39"/>
          </g>
        </g>
      </g>
    </g>
  </g>
</svg>