<svg xmlns="http://www.w3.org/2000/svg" viewBox="0 0 512 512" style="enable-background:new 0 0 512 512" xml:space="preserve"><path d="M256 0C114.6 0 0 114.6 0 256s114.6 256 256 256 256-114.6 256-256S397.4 0 256 0zm4.9 217.4h.2c-.9-3.8-1.3-7.7-1.3-11.7 0-28.3 23-51.3 51.3-51.3 14.7 0 28.1 6.2 37.4 16.2 9.6-1.9 18.7-5.2 27.1-9.5 1.8-.9 3.6-1.7 5.3-2.7-3 9.3-8.7 17.4-16.1 23.5-2 1.6-4.1 3.1-6.3 4.3.2 0 .3-.1.5-.1-.1.1-.3.2-.4.3 8.4-1 16.5-3.1 24.1-5.9 1.7-.6 3.4-1.2 5.1-1.9-6.8 10.2-15.5 19.1-25.4 26.3.1 2.2.1 4.4.1 6.6 0 67.7-51.6 145.8-145.8 145.8-28.9 0-55.9-8.5-78.6-23 4 .5 8.1.7 12.2.7 19.1 0 37-5.3 52.4-14.3 3.9-2.2 7.7-4.6 11.3-7.4h-.3c.1-.1.2-.1.3-.2-19.4-.4-36.2-11.5-44.6-27.7-1.2-2.5-2.3-5.1-3.2-7.8 3.1.6 6.2.9 9.5.9 3.4 0 6.7-.4 9.9-1.1 1.2-.2 2.4-.3 3.6-.5-.2 0-.3-.1-.4-.1.2 0 .3-.1.5-.1-23.4-4.7-41.1-25.4-41.1-50.3v-.7c5.5 3.1 11.7 5.1 18.2 5.9 1.6.3 3.2.5 4.8.7-.1-.1-.2-.2-.3-.2h.4c-13.8-9.2-22.8-24.9-22.8-42.7 0-8.1 2-15.8 5.4-22.6.5-1 1-2.1 1.6-3.1 22.7 27.8 55.5 47 92.8 52.2 4.2.8 8.4 1.3 12.6 1.5z" style="fill:#b6bdc7"/></svg>