<?xml version="1.0" encoding="UTF-8"?>
<svg xmlns="http://www.w3.org/2000/svg" id="icon-twitter" viewBox="0 0 24 24">
  <defs>
    <style>.cls-1{fill:#fff;}</style>
  </defs>
  <path class="cls-1" d="m12,0C5.37,0,0,5.37,0,12s5.37,12,12,12,12-5.37,12-12S18.63,0,12,0Zm6.07,9.65c.18,4.04-2.83,8.54-8.16,8.54-1.62,0-3.13-.48-4.4-1.29,1.52.18,3.04-.24,4.25-1.19-1.26-.02-2.32-.85-2.68-1.99.45.09.89.06,1.3-.05-1.38-.28-2.34-1.52-2.3-2.85.39.22.83.34,1.3.36-1.28-.85-1.64-2.54-.89-3.84,1.42,1.74,3.53,2.88,5.92,3-.42-1.8.94-3.53,2.8-3.53.83,0,1.57.35,2.1.91.65-.13,1.27-.37,1.82-.7-.22.67-.67,1.23-1.26,1.59.58-.07,1.14-.22,1.65-.45-.38.58-.87,1.08-1.43,1.49Z"></path>
</svg>
