<?xml version="1.0" encoding="UTF-8"?>
<svg xmlns="http://www.w3.org/2000/svg" id="icon-design" viewBox="0 0 160 160">
  <defs>
    <style>.cls-1{stroke-width:6px;}.cls-1,.cls-2{fill:none;stroke:#80999c;stroke-miterlimit:10;}.cls-3{fill:#fff;}.cls-4{fill:#80999c;}.cls-2{stroke-width:7px;}</style>
  </defs>
  <g id="pen">
    <path class="cls-1" d="m97.78,46.77s-22.75,11.43-25.17,12.88c-4.53,2.72-9.84,6.01-11.55,10.45-1.56,4.05-16.02,45.44-17.39,49.59-2.3,6.97,1.38,10.83,7.08,5.73s40.07-38.78,40.07-38.78"></path>
    <path class="cls-2" d="m131.39,79.86s-13.91,25.1-15.49,27.43-4.3,4.74-7.56,6.42c-3.26,1.68-45.55,17.24-49.67,18.68-8.08,2.84-10.28-.57-5.18-6.28,5.1-5.7,38.18-39.23,38.18-39.23"></path>
    <circle class="cls-4" cx="90.82" cy="86.64" r="8.9"></circle>
    <rect class="cls-4" x="114.45" y="17.92" width="30.17" height="61.25" rx="7.71" ry="7.71" transform="translate(3.61 105.81) rotate(-45)"></rect>
    <rect class="cls-3" x="120.38" y="28.19" width="4.63" height="8.83" rx="1.18" ry="1.18" transform="translate(12.88 96.31) rotate(-45)"></rect>
    <rect class="cls-3" x="135.85" y="32.73" width="4.63" height="30.68" rx="2.2" ry="2.2" transform="translate(6.47 111.78) rotate(-45)"></rect>
  </g>
  <circle class="cls-4" cx="16.31" cy="24.66" r="5.6"></circle>
  <circle class="cls-4" cx="31.24" cy="32.32" r="5.6"></circle>
  <circle class="cls-4" cx="34.46" cy="48.8" r="5.6"></circle>
  <circle class="cls-4" cx="27.68" cy="64.49" r="5.6"></circle>
  <circle class="cls-4" cx="18.12" cy="78.83" r="5.6"></circle>
  <circle class="cls-4" cx="10.95" cy="94.5" r="5.6"></circle>
  <circle class="cls-4" cx="10.24" cy="111.54" r="5.6"></circle>
  <circle class="cls-4" cx="18.83" cy="126.24" r="5.6"></circle>
  <circle class="cls-4" cx="33.7" cy="135.69" r="5.6"></circle>
</svg>
