<?xml version="1.0" encoding="utf-8"?>
<!-- Generator: Adobe Illustrator 24.3.0, SVG Export Plug-In . SVG Version: 6.00 Build 0)  -->
<svg version="1.1" id="レイヤー_1" xmlns="http://www.w3.org/2000/svg" xmlns:xlink="http://www.w3.org/1999/xlink" x="0px"
	 y="0px" viewBox="0 0 56 56" style="enable-background: new 0 0 56 56;" xml:space="preserve">
<path d="M42.5,34h5c0.3,0,0.5,0.2,0.5,0.5v1c0,0.3-0.2,0.5-0.5,0.5h-5c-0.3,0-0.5-0.2-0.5-0.5v-1C42,34.2,42.2,34,42.5,34z"/>
<path d="M4,16.5v23C4,39.8,4.2,40,4.5,40h47c0.3,0,0.5-0.2,0.5-0.5v-23c0-0.3-0.2-0.5-0.5-0.5h-47C4.2,16,4,16.2,4,16.5z M50,38H26
	V18h24V38z"/>
</svg>
