<?xml version="1.0" encoding="utf-8"?>
<!-- Generator: Adobe Illustrator 24.3.0, SVG Export Plug-In . SVG Version: 6.00 Build 0)  -->
<svg version="1.1" id="レイヤー_1" xmlns="http://www.w3.org/2000/svg" xmlns:xlink="http://www.w3.org/1999/xlink" x="0px"
	 y="0px" viewBox="0 0 56 56" style="enable-background: new 0 0 56 56;" xml:space="preserve">
<g>
	<path d="M10.5,47.5h35c0.3,0,0.5-0.2,0.5-0.5V9c0-0.3-0.2-0.5-0.5-0.5h-35C10.2,8.5,10,8.7,10,9v38C10,47.3,10.2,47.5,10.5,47.5z
		 M44,45.5H12v-20h32V45.5z"/>
	<path d="M36.5,41.5h5c0.3,0,0.5,0.2,0.5,0.5v1c0,0.3-0.2,0.5-0.5,0.5h-5c-0.3,0-0.5-0.2-0.5-0.5v-1C36,41.7,36.2,41.5,36.5,41.5z"
		/>
</g>
</svg>
