<?xml version="1.0" encoding="UTF-8"?>
<svg xmlns="http://www.w3.org/2000/svg" id="_ロゴ_-3" viewBox="0 0 1200 360">
  <defs>
    <style>.cls-1{fill:#fff;}</style>
  </defs>
  <path class="cls-1" d="m154.23,322.61l11.84-9.16c.3-.23.59-.2.82.11l.7.91c.23.3.2.59-.11.82l-9.38,7.25,7.91-1.42c.33-.05.56.02.77.29l.77,1c.21.27.22.51.09.82l-3.35,7.32,9.38-7.26c.3-.23.59-.2.82.1l.66.86c.23.3.2.59-.11.82l-11.84,9.16c-.3.23-.59.2-.82-.1l-.79-1.02c-.21-.27-.22-.51-.09-.82l4.21-9.27-10.01,1.76c-.33.05-.56-.02-.77-.29l-.83-1.07c-.23-.3-.2-.59.11-.82Z"></path>
  <path class="cls-1" d="m145.32,308.79l10.23-12.11c.28-.33.6-.31.82.06l.6,1.01c.19.31.15.57-.06.82l-3.01,3.4,3,5.01,4.42-1.04c.33-.07.57.03.75.34l.57.95c.22.37.08.66-.34.75l-15.51,3.29c-.33.07-.57-.03-.74-.32l-.81-1.35c-.17-.29-.14-.54.07-.8Zm7.79-5.95l-5.57,6.33,8.21-1.92-2.64-4.41Z"></path>
  <path class="cls-1" d="m134.85,287.67l9.07,2.92,4.18-9.3c.21-.47.58-.47.79-.02l.4.86c.12.27.14.51,0,.8l-3.89,8.52,6.23-2.87c.35-.16.62-.06.78.29l.47,1.02c.16.35.06.62-.29.78l-13.6,6.27c-.35.16-.62.06-.78-.29l-.47-1.02c-.16-.35-.06-.62.29-.78l5.61-2.59-8.32-2.64c-.29-.09-.47-.26-.59-.52l-.39-.84c-.21-.45.03-.74.52-.59Z"></path>
  <path class="cls-1" d="m130.42,276.55l14.08-5.1c.36-.13.62,0,.75.35l.43,1.19c.13.36,0,.62-.35.75l-14.08,5.1c-.36.13-.62,0-.75-.35l-.43-1.19c-.13-.36,0-.62.35-.75Z"></path>
  <path class="cls-1" d="m124.34,255.97l14.48-3.82c.37-.1.62.05.72.42l.33,1.26c.09.33.03.55-.21.78l-10.01,9.87,11.62-3.07c.37-.1.62.05.72.42l.28,1.07c.1.37-.05.62-.42.72l-14.48,3.82c-.37.1-.62-.05-.72-.42l-.33-1.26c-.09-.33-.03-.55.21-.78l10.01-9.87-11.62,3.07c-.37.1-.62-.05-.72-.42l-.28-1.07c-.1-.37.05-.62.42-.72Z"></path>
  <path class="cls-1" d="m135.6,233.36c.73,1.28,1.31,2.91,1.56,4.63.66,4.55-2.19,8.12-7.1,8.83-4.98.72-8.65-1.82-9.38-6.82-.19-1.29-.21-2.57-.1-3.68.04-.35.22-.53.58-.59l.13-.02c.42-.06.64.16.57.6-.2,1.26-.21,2.31-.06,3.36.52,3.57,3.37,5.46,7.92,4.8,4.44-.65,6.75-3.29,6.28-6.48-.14-.96-.4-1.81-.9-2.74l-6.65.97.66,4.53c.05.38-.12.61-.5.67-.36.05-.57-.12-.62-.5l-.9-6.18c-.06-.38.12-.61.5-.66l7.28-1.06c.33-.05.58.05.73.35Z"></path>
  <path class="cls-1" d="m120.14,194.15c-.05-1.21,0-2.48.16-3.66.7-5.37,3.82-7.65,9.06-6.96,5.55.73,8.11,3.72,7.41,9.12-.16,1.21-.43,2.42-.79,3.58-.09.33-.34.48-.69.43l-14.58-1.91c-.36-.05-.56-.26-.56-.6Zm15.44-1.66c.51-3.92-1.32-6.07-6.51-6.75-4.76-.62-7.07,1.03-7.58,4.9-.08.65-.12,1.24-.08,1.85l13.78,1.8c.19-.59.31-1.17.4-1.81Z"></path>
  <path class="cls-1" d="m126.04,164.97h.02c.37.09.52.34.43.71l-1.63,6.8,5.53,1.32,1.53-6.39c.09-.37.33-.52.71-.43.35.08.48.32.39.7l-1.53,6.38,6.76,1.62,1.63-6.8c.09-.37.33-.52.71-.43h.02c.37.09.52.34.43.71l-2.03,8.49c-.09.37-.33.52-.71.43l-14.57-3.49c-.37-.09-.52-.33-.43-.71l2.03-8.49c.09-.37.33-.52.71-.43Z"></path>
  <path class="cls-1" d="m141.35,160.53c1.22-.89,1.9-1.83,2.3-3,.68-1.96.14-3.29-1.95-4.02-1.73-.6-3.04-.05-4.39,1.65-2.14,2.67-4.14,3.55-6.06,2.89-2.2-.76-3.08-2.9-2.09-5.76.52-1.49,1.28-2.8,2.18-3.81.2-.24.48-.29.78-.18l.32.11c.43.15.48.48.13.79-1.17,1.1-1.86,2.13-2.28,3.34-.51,1.47-.13,2.72,1.7,3.36,1.56.54,2.98-.04,4.05-1.42,2.51-3.19,4.23-3.93,6.42-3.17,2.6.9,3.52,3.13,2.36,6.5-.48,1.39-1.27,2.64-2.19,3.49-.25.23-.47.27-.79.15l-.38-.13c-.47-.16-.49-.5-.11-.8Z"></path>
  <path class="cls-1" d="m136.03,137.13l13.71,6.04c.35.15.45.42.3.77l-.51,1.16c-.16.35-.42.46-.77.3l-13.71-6.04c-.35-.15-.45-.42-.3-.77l.51-1.16c.16-.35.42-.46.77-.3Z"></path>
  <path class="cls-1" d="m158.74,125.54c-.19,1.47-.71,3.11-1.55,4.63-2.22,4.03-6.65,5.14-10.99,2.74-4.4-2.43-5.8-6.67-3.36-11.1.63-1.15,1.38-2.17,2.14-2.99.24-.25.5-.29.81-.12l.12.07c.38.21.41.51.09.82-.92.88-1.56,1.71-2.08,2.64-1.74,3.16-.61,6.38,3.42,8.61,3.93,2.17,7.36,1.46,8.92-1.36.47-.85.77-1.68.94-2.73l-5.88-3.25-2.21,4.01c-.19.34-.46.42-.8.23-.32-.17-.38-.44-.19-.77l3.02-5.47c.19-.34.46-.42.8-.23l6.44,3.55c.3.16.43.39.37.72Z"></path>
  <path class="cls-1" d="m157.63,100.53l12.22,8.66c.31.22.36.5.14.82l-.76,1.07c-.2.28-.41.38-.74.34l-14-1.35,9.81,6.95c.31.22.36.5.14.82l-.64.9c-.22.31-.5.36-.82.14l-12.22-8.66c-.31-.22-.36-.5-.14-.82l.76-1.07c.2-.28.41-.38.74-.34l14,1.35-9.81-6.95c-.31-.22-.36-.5-.14-.82l.64-.9c.22-.31.5-.36.82-.14Z"></path>
  <path class="cls-1" d="m197.02,61.85l9.28,11.75c.24.3.2.59-.1.82l-.9.71c-.3.24-.59.2-.82-.1l-7.35-9.31,1.5,7.9c.06.33-.02.56-.28.77l-.99.78c-.26.21-.51.23-.81.1l-7.36-3.27,7.35,9.31c.24.3.2.59-.1.82l-.85.67c-.3.24-.59.2-.82-.1l-9.28-11.75c-.24-.3-.2-.59.1-.82l1.01-.8c.27-.21.51-.23.81-.1l9.31,4.11-1.86-10c-.06-.33.02-.56.28-.77l1.06-.84c.3-.24.59-.2.82.1Z"></path>
  <path class="cls-1" d="m220.15,55.97c1.35,2.22,1.86,4.15,1.56,6.21-.28,1.75-1.45,3.44-3.41,4.63-3.91,2.38-7.8,1.07-10.48-3.34s-2.06-8.46,1.85-10.84,7.8-1.07,10.48,3.34Zm-10.31,6.27c2.45,4.03,5.25,5.12,7.83,3.55,2.58-1.57,2.9-4.56.45-8.59-1.22-2-2.61-3.38-3.8-3.87-1.54-.62-2.74-.47-4.03.31-2.58,1.57-2.9,4.56-.45,8.59Z"></path>
  <path class="cls-1" d="m223.75,45.16c.98-.68,2.15-1.32,3.43-1.92,3.91-1.82,6.57-1.22,7.69,1.17.86,1.84.58,3.86-1.32,5.29l-.61.46c1.41-.08,2.66.68,3.72,1.68l3.06,2.88c.31.3.27.62-.12.8l-.98.46c-.31.14-.57.12-.8-.12l-3.27-3.13c-1.84-1.76-2.12-1.77-4.02-.89l-1.33.62,2.78,5.97c.16.35.06.62-.28.78l-1.02.48c-.35.16-.62.06-.78-.28l-6.27-13.47c-.15-.33-.1-.6.14-.76Zm9.1.36c-.98-2.11-2.71-2.4-5.33-1.18-.59.28-1.13.57-1.67.95l2.86,6.13,1.33-.62c2.99-1.39,3.87-3.02,2.81-5.29Z"></path>
  <path class="cls-1" d="m250.81,34.78v.02c.13.36,0,.62-.35.75l-6.61,2.29,1.86,5.37,6.2-2.15c.36-.13.62,0,.75.36.12.34-.01.58-.38.7l-6.2,2.15,2.27,6.57,6.61-2.29c.36-.13.62,0,.75.36v.02c.13.36,0,.62-.35.75l-8.25,2.86c-.36.13-.62,0-.75-.36l-4.9-14.15c-.12-.36,0-.62.36-.75l8.25-2.86c.36-.13.62,0,.75.36Z"></path>
  <path class="cls-1" d="m297.29,26.35l6.04,14.65c.16.4,0,.68-.43.7l-1.17.07c-.36.02-.57-.12-.7-.43l-1.64-4.24-5.83.36-1.11,4.41c-.09.32-.29.49-.65.51l-1.1.07c-.43.03-.62-.23-.51-.65l4.22-15.28c.09-.32.29-.49.62-.51l1.58-.1c.34-.02.55.12.68.43Zm1.7,9.66l-3.05-7.86-2.08,8.17,5.13-.31Z"></path>
  <path class="cls-1" d="m319.83,41.89c-1.12.27-2.39.37-3.63.31-4.46-.2-7.1-3.45-6.87-8.61.23-5.14,2.96-8.18,7.53-7.98,1.26.06,2.49.29,3.56.63.31.1.46.34.44.67v.16c-.03.45-.3.6-.7.44-1.13-.43-2.16-.66-3.2-.71-3-.13-5.09,2.35-5.29,6.88-.2,4.48,1.81,7.19,4.74,7.32,1.08.05,2.13-.09,3.29-.42.41-.12.67.05.66.5v.14c-.02.36-.19.58-.53.65Z"></path>
  <path class="cls-1" d="m337.46,44.07c-1.14.15-2.41.12-3.64-.06-4.42-.65-6.7-4.16-5.95-9.27.75-5.09,3.78-7.83,8.31-7.16,1.25.18,2.45.54,3.48.99.3.14.42.38.37.72l-.02.16c-.07.45-.36.56-.74.37-1.08-.55-2.08-.88-3.11-1.03-2.97-.44-5.31,1.81-5.97,6.3-.66,4.44,1.06,7.34,3.96,7.77,1.07.16,2.12.13,3.32-.08.42-.07.67.12.6.57l-.02.13c-.05.36-.24.56-.59.6Z"></path>
  <path class="cls-1" d="m358.59,33.21v.02c-.1.37-.35.52-.72.42l-6.78-1.72-1.4,5.51,6.36,1.61c.37.09.52.34.42.71-.09.35-.33.48-.7.38l-6.36-1.61-1.71,6.73,6.78,1.72c.37.09.52.34.42.71v.02c-.1.37-.35.52-.72.42l-8.46-2.14c-.37-.09-.52-.34-.42-.71l3.68-14.52c.09-.37.34-.52.71-.42l8.46,2.14c.37.09.52.34.42.71Z"></path>
  <path class="cls-1" d="m362.83,48.57c.88,1.23,1.8,1.92,2.97,2.34,1.95.7,3.29.18,4.04-1.9.62-1.72.09-3.04-1.6-4.41-2.64-2.18-3.5-4.19-2.81-6.1.79-2.18,2.94-3.04,5.79-2.01,1.48.54,2.79,1.32,3.78,2.23.24.21.28.48.17.78l-.11.32c-.15.42-.48.47-.79.12-1.08-1.18-2.1-1.89-3.31-2.32-1.46-.53-2.72-.17-3.38,1.66-.56,1.55,0,2.97,1.36,4.06,3.15,2.55,3.87,4.28,3.08,6.46-.93,2.59-3.17,3.48-6.53,2.27-1.38-.5-2.62-1.31-3.46-2.23-.22-.25-.26-.48-.14-.8l.14-.38c.17-.47.51-.49.8-.09Z"></path>
  <path class="cls-1" d="m378.35,54.63c.75,1.31,1.61,2.09,2.73,2.62,1.88.89,3.26.5,4.21-1.5.78-1.65.38-3.02-1.16-4.55-2.42-2.42-3.08-4.51-2.21-6.34,1-2.1,3.22-2.74,5.96-1.44,1.43.68,2.65,1.58,3.55,2.58.22.23.23.51.1.8l-.15.31c-.19.41-.53.42-.8.05-.96-1.28-1.91-2.08-3.07-2.63-1.41-.67-2.69-.43-3.53,1.32-.71,1.49-.28,2.96.96,4.18,2.89,2.85,3.45,4.63,2.45,6.73-1.18,2.49-3.5,3.16-6.72,1.63-1.33-.63-2.49-1.55-3.23-2.56-.2-.27-.21-.5-.07-.81l.17-.37c.21-.45.56-.44.81-.02Z"></path>
  <path class="cls-1" d="m402.19,51.9l-7.5,12.97c-.19.33-.47.41-.8.21l-1.09-.63c-.33-.19-.41-.47-.21-.8l7.5-12.97c.19-.33.47-.41.8-.21l1.09.63c.33.19.41.47.21.8Z"></path>
  <path class="cls-1" d="m411.01,56.76c1.08.5,2.16,1.12,3.16,1.81,3.32,2.31,4.18,4.61,2.79,6.61-.9,1.3-3.09,1.72-5.26.85v.1c1.98,1.8,2.39,4.45,1.31,6-1.78,2.56-4.54,2.7-8.13.2-1.06-.73-2.07-1.57-2.99-2.46-.25-.23-.27-.52-.07-.81l8.4-12.08c.21-.3.48-.38.79-.22Zm-7.07,13.33c.49.48,1,.89,1.59,1.3,2.32,1.61,4.17,1.47,5.68-.7,1.37-1.96.54-3.78-2.28-5.73l-.96-.67-4.03,5.8Zm11.06-5.99c1.2-1.72.7-3.06-1.49-4.58-.52-.36-1.03-.66-1.59-.91l-3.31,4.76.96.67c2.46,1.71,4.2,1.82,5.42.06Z"></path>
  <path class="cls-1" d="m427.48,69.67l-9.33,10.91,5.42,4.63c.29.25.31.54.07.83l-.03.03c-.25.29-.54.31-.83.06l-6.81-5.82c-.29-.25-.31-.54-.06-.83l9.74-11.39c.25-.29.54-.31.83-.06l.94.81c.29.25.31.54.07.83Z"></path>
  <path class="cls-1" d="m446.35,87.7l-.02.02c-.28.27-.56.26-.83-.02l-4.84-5.05-4.1,3.93,4.54,4.74c.27.28.26.56-.02.83-.26.25-.53.23-.8-.05l-4.54-4.74-5.01,4.81,4.84,5.05c.26.28.26.56-.02.83l-.02.02c-.28.27-.56.26-.83-.02l-6.04-6.3c-.27-.28-.26-.56.02-.83l10.81-10.36c.28-.27.56-.26.83.02l6.04,6.3c.27.28.26.56-.02.83Z"></path>
  <path class="cls-1" d="m259.32,280.82c-3.2,1.4-5.8,1-7.6-1.6s-.8-5,2.4-7.2c36.4-23.6,46.8-53.8,47.8-99.8h-70.8c-3.8,0-5.8-2-6-5.6-.2-3.4,2-5.4,6-5.4h70.6v-45.2c0-3.8,2.2-6,6-5.6h9.4c4,0,6,2,6,6v44.8h56.6c4,0,6,2,6,5.4,0,3.6-2,5.6-6,5.6h-56.4c-.6,47.6-18.6,87.6-64,108.6Z"></path>
  <path class="cls-1" d="m501.63,251.47c-1.83-.91-3.12-2.28-3.91-4.1v-3.12c6.51-7.55,11.33-15.95,14.45-25.2,3.12-9.24,4.69-18.95,4.69-29.1h-29.69l-8.98.39c-1.83-.78-3.12-2.08-3.91-3.91v-3.12c.78-1.82,2.08-3.12,3.91-3.91l8.98-.78h29.69v-5.08l-1.56-24.41c.78-1.82,2.08-3.12,3.91-3.91h3.12c1.82.78,3.12,2.08,3.91,3.91l1.95,29.1h27.34l5.27,2.34c1.04,1.3,1.43,3,1.17,5.08-.78,1.83-2.15,3.12-4.1,3.91l-2.73.39-.39-.39h-26.56c0,11.2-1.63,21.94-4.88,32.23-3.26,10.29-8.53,19.73-15.82,28.32-1.56,1.17-3.52,1.63-5.86,1.37Z"></path>
  <path class="cls-1" d="m641.12,248.54c-1.69-.78-2.93-2.08-3.71-3.91v-3.12c5.86-4.82,12.17-9.63,18.95-14.45,6.77-4.82,13.15-10.48,19.14-16.99-3.91-3.12-7.81-6.05-11.72-8.79s-7.42-5.53-10.55-8.4v-3.12c.78-1.82,2.02-3.12,3.71-3.91h3.71c4.03,1.83,7.84,4.3,11.43,7.42,3.58,3.12,7.45,5.8,11.62,8.01,5.99-7.55,11.33-15.4,16.02-23.54,4.69-8.14,8.33-16.63,10.94-25.49,1.17-1.17,2.73-1.63,4.69-1.37,1.82.91,3.12,2.28,3.91,4.1v3.71c-1.95,9.12-5.5,17.81-10.64,26.07-5.15,8.27-10.52,16.38-16.11,24.32,4.69,3.39,9.24,6.58,13.67,9.57,4.42,3,8.4,6.51,11.91,10.55v3.71c-.78,1.69-2.02,3-3.71,3.91h-3.12c-4.56-3.25-8.96-6.54-13.18-9.86-4.23-3.32-8.82-6.35-13.77-9.08-6.77,6.64-13.67,12.67-20.7,18.07-7.03,5.4-14.52,9.6-22.46,12.6Z"></path>
  <path class="cls-1" d="m830.81,252.05l-4.3-2.34c-1.04-1.43-1.44-3.19-1.17-5.27,1.04-2.08,2.6-3.52,4.69-4.3,4.17-1.3,8.2-2.8,12.11-4.49,3.91-1.69,7.55-4.1,10.94-7.23,2.08-2.34,2.99-5.08,2.73-8.2-.78-3.12-2.61-5.73-5.47-7.81-2.61-2.08-5.66-3.12-9.18-3.12h-10.74c-6.51.78-12.63,2.48-18.36,5.08-1.83-.78-3.13-2.08-3.91-3.91v-7.42c.52-6.25,1.04-12.5,1.56-18.75.52-6.25,1.69-12.24,3.52-17.97,1.3-1.04,2.99-1.43,5.08-1.17,1.82.78,3.12,2.08,3.91,3.91v7.81c-.78,3.65-1.37,7.36-1.76,11.13-.39,3.78-.59,7.62-.59,11.52h2.73c3.12-.78,6.45-1.24,9.96-1.37,3.52-.13,7.1-.2,10.74-.2,3.91.26,7.55,1.37,10.94,3.32,3.38,1.95,6.38,4.62,8.98,8.01,3.38,4.69,4.69,10.16,3.91,16.41-1.3,4.95-4.04,9.25-8.2,12.89-4.17,3.39-8.66,6.15-13.48,8.3-4.82,2.15-9.7,3.88-14.65,5.18Zm12.11-82.23c-4.69-3.64-9.57-7.1-14.65-10.35-5.08-3.25-9.57-7.42-13.48-12.5v-3.12c.78-1.82,2.08-3.12,3.91-3.91h3.12c4.69,4.17,9.5,7.91,14.45,11.23,4.95,3.32,9.5,7.06,13.67,11.23v3.52c-.78,1.83-2.08,3.12-3.91,3.91h-3.12Z"></path>
  <path class="cls-1" d="m959.17,240.34c-2.08-.26-3.78-1.3-5.08-3.12-3.52-5.47-5.73-11.52-6.64-18.16-.91-6.64-1.37-13.48-1.37-20.51.52-6.77,1.3-13.48,2.34-20.12,1.04-6.64,3.32-12.82,6.84-18.55,1.3-1.04,2.99-1.43,5.08-1.17,1.82.78,3.12,2.08,3.91,3.91v3.52c-2.87,5.99-4.62,12.5-5.27,19.53-.65,7.03-1.11,14.06-1.37,21.09.52,6.25,1.56,12.24,3.12,17.97h.78c2.6-2.86,5.86-4.3,9.77-4.3,1.82.78,3.12,2.08,3.91,3.91v3.12c-4.43,4.17-9.12,8.33-14.06,12.5l-1.95.39Zm48.44,9.18c-4.95-.52-9.12-2.93-12.5-7.23-3.91-4.42-5.6-9.63-5.08-15.62.52-3.38,2.34-6.38,5.47-8.98,2.86-2.34,6.05-3.97,9.57-4.88,3.52-.91,7.23-1.24,11.13-.98v-12.5l-.39-3.12h-8.2l-13.67.78c-1.83-.78-3.12-2.08-3.91-3.91v-3.12c.78-1.82,2.08-3.12,3.91-3.91l20.7-1.17v-3.52l-.78-8.59h-17.19c-1.83-.78-3.12-2.08-3.91-3.91v-3.12c.78-1.82,2.08-3.12,3.91-3.91l1.56-.39h25.39l10.94-.78c2.08.78,3.52,2.22,4.3,4.3v3.12c-.78,1.83-2.08,3.12-3.91,3.91l-9.77.39v5.08l.78,7.03c5.99-.52,11.33.13,16.02,1.95,1.04,1.3,1.43,3,1.17,5.08-.78,1.83-2.08,3.12-3.91,3.91l-12.11.39v2.34l.39,15.62c3.91,1.3,7.68,3.06,11.33,5.27,3.64,2.22,7.03,5.15,10.16,8.79,1.04,1.56,1.43,3.39,1.17,5.47-.78,1.83-2.08,3.12-3.91,3.91h-3.12l-3.12-1.95-2.73-2.73-2.73-2.73-7.42-3.52c-.52,3.65-1.3,7.16-2.34,10.55-1.04,3.39-3,6.38-5.86,8.98-3.12,2.73-6.9,3.97-11.33,3.71Zm4.3-12.7c2.6-4.17,3.91-8.72,3.91-13.67h-6.25c-2.87.52-5.34,1.95-7.42,4.3l-.78,2.34,3.52,6.25c1.56,1.3,3.52,1.83,5.86,1.56l1.17-.78Zm42.19-63.28l-2.73-1.56c-1.3-3.38-2.96-6.57-4.98-9.57-2.02-2.99-3.29-6.31-3.81-9.96.91-1.82,2.28-3.12,4.1-3.91h3.12c4.69,3.91,8.07,8.73,10.16,14.45l1.17,6.64c-.78,1.83-2.08,3.12-3.91,3.91h-3.12Zm18.75-7.81l-2.73-1.56c-1.3-3.38-2.96-6.57-4.98-9.57-2.02-2.99-3.29-6.31-3.81-9.96.91-1.82,2.28-3.12,4.1-3.91h3.12c4.69,3.91,8.07,8.73,10.16,14.45l1.17,6.64c-.78,1.83-2.08,3.12-3.91,3.91h-3.12Z"></path>
</svg>
