<?xml version="1.0" encoding="UTF-8"?>
<svg xmlns="http://www.w3.org/2000/svg" id="site-icon2" viewBox="0 0 640 640">
  <defs>
    <style>.cls-1{fill:#fff;}.cls-2{fill:#5f5f5f;}</style>
  </defs>
  <rect class="cls-1" width="640" height="640"></rect>
  <path class="cls-2" d="m248.45,497.11c-6.08,2.66-11.02,1.9-14.43-3.04-3.42-4.94-1.52-9.5,4.56-13.68,69.13-44.82,88.89-102.18,90.79-189.55h-134.47c-7.22,0-11.02-3.8-11.4-10.64-.38-6.46,3.8-10.26,11.4-10.26h134.09v-85.85c0-7.22,4.18-11.4,11.4-10.64h17.85c7.6,0,11.4,3.8,11.4,11.39v85.09h107.5c7.6,0,11.4,3.8,11.4,10.26,0,6.84-3.8,10.64-11.4,10.64h-107.12c-1.14,90.41-35.33,166.38-121.55,206.26Z"></path>
  <path class="cls-2" d="m102.43,520.57l24.22-20.46c.62-.52,1.23-.47,1.75.15l1.57,1.86c.52.62.47,1.23-.15,1.75l-19.19,16.21,16.62-3.71c.69-.14,1.19,0,1.65.55l1.73,2.04c.46.55.52,1.06.26,1.72l-6.41,15.79,19.19-16.2c.62-.52,1.23-.47,1.75.15l1.48,1.75c.52.62.47,1.23-.15,1.75l-24.23,20.46c-.62.52-1.23.47-1.75-.15l-1.76-2.08c-.46-.55-.52-1.06-.26-1.72l8.05-19.99-21.03,4.63c-.69.14-1.19,0-1.65-.55l-1.85-2.19c-.52-.62-.47-1.23.15-1.75Z"></path>
  <path class="cls-2" d="m86.38,496.87l21.03-26.17c.57-.7,1.26-.68,1.75.08l1.33,2.1c.41.65.36,1.19-.08,1.75l-6.19,7.36,6.61,10.46,9.31-2.43c.69-.16,1.21.03,1.61.68l1.25,1.98c.49.77.21,1.4-.67,1.61l-32.67,7.76c-.69.16-1.21-.03-1.59-.63l-1.79-2.83c-.38-.61-.33-1.15.11-1.71Zm16.19-13l-11.46,13.69,17.28-4.48-5.82-9.21Z"></path>
  <path class="cls-2" d="m66.61,458.09l19.27,5.98,8.64-19.8c.43-1,1.22-1,1.67-.05l.86,1.81c.27.56.3,1.08,0,1.69l-8.05,18.14,13.12-6.22c.73-.35,1.31-.14,1.65.59l1.02,2.16c.35.73.14,1.31-.59,1.65l-28.65,13.59c-.73.35-1.31.14-1.65-.59l-1.02-2.16c-.35-.73-.14-1.31.59-1.65l11.82-5.61-17.68-5.41c-.62-.18-.99-.53-1.26-1.09l-.84-1.77c-.45-.95.05-1.56,1.09-1.26Z"></path>
  <path class="cls-2" d="m59.65,440.63l29.77-10.92c.76-.28,1.31-.02,1.59.74l.92,2.51c.28.76.02,1.31-.74,1.59l-29.77,10.92c-.76.28-1.31.02-1.59-.74l-.92-2.51c-.28-.76-.02-1.31.74-1.59Z"></path>
  <path class="cls-2" d="m48.74,403.19l30.69-7.96c.79-.2,1.31.1,1.51.89l.7,2.68c.18.69.06,1.17-.46,1.65l-21.28,20.82,24.63-6.39c.79-.2,1.31.1,1.51.89l.59,2.27c.2.79-.1,1.31-.89,1.51l-30.69,7.96c-.79.2-1.31-.1-1.51-.89l-.7-2.68c-.18-.69-.06-1.17.46-1.65l21.28-20.82-24.63,6.39c-.79.2-1.31-.1-1.51-.89l-.59-2.27c-.2-.79.1-1.31.89-1.51Z"></path>
  <path class="cls-2" d="m74.56,361.98c1.5,2.75,2.66,6.22,3.11,9.87,1.21,9.67-4.98,17.09-15.41,18.4-10.57,1.32-18.24-4.22-19.57-14.84-.34-2.75-.34-5.45-.06-7.79.1-.73.49-1.12,1.24-1.21l.28-.04c.9-.11,1.34.36,1.17,1.3-.49,2.66-.54,4.88-.27,7.11.95,7.59,6.91,11.7,16.57,10.49,9.43-1.18,14.42-6.67,13.58-13.45-.25-2.04-.77-3.85-1.79-5.84l-14.12,1.77,1.2,9.62c.1.81-.27,1.29-1.08,1.39-.76.09-1.19-.28-1.29-1.09l-1.64-13.13c-.1-.81.27-1.29,1.08-1.39l15.45-1.93c.71-.09,1.22.14,1.54.77Z"></path>
  <path class="cls-2" d="m42.61,311.2c-.09-2.57.03-5.25.36-7.76,1.52-11.36,8.13-16.17,19.21-14.7,11.74,1.56,17.15,7.92,15.63,19.33-.34,2.56-.93,5.13-1.69,7.58-.19.7-.71,1.01-1.47.91l-30.86-4.11c-.76-.1-1.18-.54-1.18-1.27Zm32.69-3.45c1.11-8.29-2.77-12.85-13.75-14.31-10.08-1.34-14.98,2.15-16.07,10.34-.18,1.37-.25,2.62-.19,3.93l29.16,3.88c.41-1.25.67-2.47.85-3.84Z"></path>
  <path class="cls-2" d="m54.44,255.76h.05c.79.21,1.1.74.89,1.52l-3.68,14.35,11.66,2.99,3.45-13.47c.2-.79.72-1.1,1.51-.89.74.19,1,.7.8,1.49l-3.45,13.47,14.25,3.65,3.68-14.35c.2-.79.72-1.1,1.51-.89h.05c.79.21,1.1.74.9,1.52l-4.59,17.91c-.2.79-.72,1.1-1.51.89l-30.72-7.87c-.79-.2-1.1-.72-.89-1.51l4.59-17.91c.2-.79.72-1.1,1.51-.89Z"></path>
  <path class="cls-2" d="m85.08,253.29c2.62-1.82,4.12-3.76,5.05-6.21,1.55-4.11.48-6.97-3.9-8.62-3.62-1.36-6.43-.28-9.39,3.25-4.69,5.53-8.97,7.29-13,5.77-4.6-1.73-6.34-6.32-4.09-12.31,1.18-3.13,2.87-5.86,4.83-7.93.44-.5,1.04-.58,1.66-.34l.67.25c.89.34.99,1.04.24,1.67-2.54,2.26-4.05,4.39-5.01,6.94-1.16,3.08-.43,5.76,3.41,7.21,3.26,1.23,6.3.08,8.65-2.77,5.5-6.61,9.17-8.08,13.77-6.35,5.45,2.05,7.28,6.83,4.62,13.89-1.1,2.91-2.84,5.51-4.83,7.27-.53.46-1.02.54-1.69.28l-.8-.3c-.98-.37-1.02-1.1-.18-1.7Z"></path>
  <path class="cls-2" d="m72.66,209.59l28.6,13.69c.73.35.93.92.58,1.66l-1.16,2.41c-.35.73-.92.93-1.66.58l-28.6-13.69c-.73-.35-.93-.92-.58-1.66l1.16-2.41c.35-.73.92-.94,1.66-.58Z"></path>
  <path class="cls-2" d="m118.47,192.59c-.53,3.09-1.77,6.53-3.67,9.67-5.04,8.34-14.5,10.33-23.49,4.89-9.12-5.51-11.71-14.61-6.17-23.77,1.43-2.37,3.1-4.49,4.78-6.16.53-.51,1.07-.58,1.73-.18l.25.15c.78.47.83,1.12.12,1.75-2.03,1.79-3.45,3.5-4.61,5.42-3.95,6.54-1.83,13.46,6.51,18.5,8.13,4.92,15.45,3.7,18.99-2.15,1.06-1.76,1.78-3.5,2.21-5.7l-12.18-7.36-5.01,8.3c-.42.7-1.01.84-1.71.42-.65-.39-.76-.96-.34-1.66l6.84-11.33c.42-.7,1.01-.84,1.71-.42l13.33,8.05c.61.37.87.86.73,1.56Z"></path>
  <path class="cls-2" d="m115.1,145.09l24.81,19.75c.64.5.7,1.11.2,1.75l-1.73,2.17c-.45.56-.9.75-1.59.62l-29.44-4.5,19.92,15.85c.64.51.7,1.11.2,1.75l-1.46,1.83c-.51.64-1.11.7-1.75.2l-24.81-19.75c-.63-.51-.7-1.11-.2-1.75l1.73-2.17c.45-.56.9-.75,1.59-.62l29.44,4.5-19.92-15.85c-.64-.51-.7-1.11-.2-1.75l1.46-1.83c.51-.64,1.11-.7,1.75-.2Z"></path>
  <path class="cls-2" d="m178.57,89.79l18.61,25.67c.48.66.38,1.26-.28,1.73l-1.97,1.43c-.66.48-1.26.38-1.73-.28l-14.74-20.34,2.48,16.84c.09.7-.09,1.18-.67,1.6l-2.17,1.57c-.58.42-1.1.44-1.73.13l-15.28-7.57,14.74,20.34c.48.66.38,1.26-.28,1.73l-1.86,1.35c-.66.48-1.26.38-1.73-.28l-18.61-25.67c-.48-.66-.38-1.26.28-1.73l2.21-1.6c.58-.42,1.1-.44,1.73-.13l19.35,9.51-3.06-21.31c-.09-.7.09-1.18.67-1.6l2.32-1.68c.66-.48,1.26-.38,1.73.28Z"></path>
  <path class="cls-2" d="m222.89,83.5c2.56,4.86,3.4,9.01,2.48,13.32-.82,3.67-3.5,7.08-7.82,9.35-8.58,4.52-16.62,1.25-21.72-8.42-5.1-9.68-3.25-18.15,5.33-22.67s16.62-1.25,21.72,8.42Zm-22.61,11.91c4.65,8.83,10.44,11.51,16.1,8.52,5.66-2.98,6.73-9.26,2.07-18.1-2.32-4.39-5.07-7.48-7.53-8.66-3.17-1.51-5.73-1.35-8.57.14-5.66,2.98-6.73,9.26-2.08,18.1Z"></path>
  <path class="cls-2" d="m226.29,63.82c2.17-1.27,4.75-2.44,7.57-3.5,8.54-3.2,14.08-1.5,16.04,3.73,1.51,4.02.59,8.25-3.65,10.96l-1.36.87c2.98.06,5.5,1.87,7.58,4.15l5.99,6.58c.62.69.46,1.36-.39,1.68l-2.15.8c-.67.25-1.22.15-1.68-.39l-6.4-7.14c-3.6-4.01-4.19-4.09-8.35-2.53l-2.91,1.09,4.9,13.06c.29.76.03,1.31-.73,1.6l-2.24.84c-.76.29-1.31.03-1.6-.73l-11.05-29.47c-.27-.72-.12-1.28.43-1.59Zm19.16,2.25c-1.73-4.61-5.33-5.5-11.05-3.35-1.3.49-2.47,1.03-3.69,1.74l5.03,13.42,2.91-1.09c6.53-2.45,8.66-5.75,6.8-10.71Z"></path>
  <path class="cls-2" d="m279.08,48.65v.05c.21.79-.11,1.31-.89,1.5l-14.38,3.57,2.9,11.68,13.49-3.35c.79-.2,1.31.12,1.5.91.18.74-.14,1.22-.93,1.41l-13.49,3.35,3.54,14.28,14.38-3.57c.79-.2,1.31.12,1.5.91v.05c.21.79-.11,1.31-.89,1.5l-17.95,4.45c-.79.2-1.31-.12-1.5-.91l-7.64-30.78c-.2-.79.12-1.31.91-1.5l17.95-4.45c.79-.2,1.31.12,1.5.91Z"></path>
  <path class="cls-2" d="m346.16,42.34l10.37,31.93c.27.86-.12,1.43-1.03,1.42l-2.48-.04c-.76-.01-1.19-.35-1.42-1.03l-2.76-9.21-12.37-.2-3.06,9.12c-.25.66-.68.99-1.45.98l-2.34-.04c-.91-.01-1.28-.59-.98-1.45l11.41-31.57c.25-.66.69-.99,1.4-.98l3.34.05c.72.01,1.14.35,1.37,1.02Zm2,20.66l-5.17-17.09-5.72,16.91,10.89.18Z"></path>
  <path class="cls-2" d="m384.51,78.35c-2.41.37-5.1.36-7.71.03-9.38-1.19-14.38-8.52-13-19.37,1.37-10.8,7.66-16.74,17.28-15.52,2.65.34,5.21,1.05,7.41,1.95.64.27.91.79.82,1.5l-.04.33c-.12.95-.73,1.21-1.55.81-2.32-1.11-4.45-1.77-6.63-2.04-6.3-.8-11.16,4.07-12.37,13.6-1.2,9.43,2.56,15.49,8.72,16.27,2.27.29,4.5.19,7.02-.31.89-.18,1.42.23,1.29,1.17l-.04.28c-.1.76-.49,1.19-1.22,1.29Z"></path>
  <path class="cls-2" d="m414.56,85.17c-2.43.09-5.11-.23-7.66-.86-9.18-2.27-13.29-10.13-10.66-20.74,2.62-10.57,9.55-15.74,18.97-13.41,2.6.64,5.05,1.64,7.13,2.8.6.35.81.89.64,1.59l-.08.32c-.23.93-.87,1.11-1.63.63-2.17-1.37-4.21-2.27-6.34-2.8-6.17-1.53-11.56,2.75-13.86,12.07-2.28,9.22.74,15.68,6.77,17.17,2.23.55,4.45.71,7.01.5.9-.07,1.38.39,1.15,1.32l-.07.28c-.18.74-.62,1.12-1.37,1.14Z"></path>
  <path class="cls-2" d="m455.07,65.09l-.02.04c-.28.76-.84,1.01-1.6.73l-13.87-5.18-4.21,11.27,13.02,4.86c.76.28,1.01.84.73,1.6-.27.72-.8.92-1.56.64l-13.02-4.86-5.15,13.78,13.87,5.18c.76.28,1.01.84.73,1.6l-.02.04c-.28.76-.84,1.01-1.6.73l-17.32-6.47c-.76-.28-1.01-.84-.73-1.6l11.09-29.71c.28-.76.84-1.01,1.6-.73l17.32,6.47c.76.28,1.01.84.73,1.6Z"></path>
  <path class="cls-2" d="m454.28,95.81c1.53,2.8,3.3,4.5,5.64,5.68,3.92,1.98,6.88,1.22,8.98-2.96,1.74-3.46.96-6.36-2.24-9.68-5.01-5.25-6.3-9.7-4.36-13.54,2.21-4.39,6.96-5.64,12.68-2.76,2.99,1.5,5.52,3.48,7.38,5.64.45.49.47,1.09.17,1.69l-.32.64c-.43.85-1.13.87-1.69.06-1.98-2.76-3.94-4.5-6.37-5.72-2.94-1.48-5.68-1.04-7.53,2.62-1.57,3.11-.74,6.26,1.83,8.89,5.99,6.17,7.06,9.98,4.85,14.37-2.62,5.2-7.56,6.51-14.3,3.11-2.77-1.4-5.18-3.41-6.71-5.58-.4-.58-.42-1.07-.1-1.71l.39-.77c.47-.94,1.2-.89,1.71,0Z"></path>
  <path class="cls-2" d="m479.5,109.22c1.22,2.95,2.8,4.82,5.01,6.24,3.69,2.38,6.71,1.94,9.24-1.99,2.1-3.25,1.63-6.22-1.2-9.86-4.42-5.75-5.23-10.31-2.9-13.92,2.67-4.13,7.52-4.87,12.9-1.4,2.81,1.81,5.12,4.04,6.74,6.39.39.54.35,1.13-.01,1.7l-.39.6c-.52.8-1.22.75-1.68-.12-1.67-2.96-3.44-4.89-5.73-6.37-2.77-1.79-5.54-1.64-7.76,1.81-1.89,2.93-1.4,6.14.88,9.04,5.3,6.77,5.97,10.67,3.3,14.8-3.16,4.9-8.21,5.67-14.55,1.58-2.61-1.68-4.79-3.94-6.08-6.25-.34-.62-.31-1.11.08-1.71l.47-.72c.57-.88,1.29-.76,1.7.19Z"></path>
  <path class="cls-2" d="m524.84,106.25l-19.39,25.1c-.5.64-1.1.72-1.74.22l-2.12-1.64c-.64-.5-.72-1.1-.22-1.74l19.39-25.1c.5-.64,1.1-.72,1.74-.22l2.12,1.64c.64.5.72,1.1.22,1.74Z"></path>
  <path class="cls-2" d="m536.95,114.75c2.12,1.37,4.21,2.98,6.1,4.73,6.28,5.81,7.42,10.9,3.92,14.68-2.27,2.45-6.99,2.7-11.28.23l-.06.21c3.65,4.35,3.74,10.03,1.01,12.97-4.48,4.84-10.31,4.32-17.11-1.97-2-1.85-3.87-3.91-5.54-6.04-.46-.56-.42-1.17.1-1.73l21.15-22.85c.52-.56,1.12-.65,1.71-.24Zm-18.74,25.87c.89,1.15,1.84,2.16,2.96,3.2,4.38,4.05,8.31,4.31,12.11.21,3.44-3.72,2.23-7.76-3.1-12.69l-1.82-1.69-10.15,10.97Zm24.96-9.31c3.02-3.26,2.36-6.21-1.78-10.04-.98-.91-1.96-1.68-3.07-2.38l-8.34,9.01,1.82,1.69c4.66,4.31,8.28,5.05,11.36,1.72Z"></path>
  <path class="cls-2" d="m563.1,142.19l-22.99,19.86,9.87,11.42c.53.61.49,1.22-.13,1.75l-.07.06c-.61.53-1.22.49-1.75-.13l-12.4-14.35c-.53-.61-.49-1.22.13-1.75l24-20.73c.61-.53,1.22-.49,1.75.13l1.72,1.99c.53.61.49,1.22-.13,1.75Z"></path>
  <path class="cls-2" d="m592.69,181.11l-.04.03c-.67.46-1.27.35-1.73-.32l-8.38-12.21-9.92,6.81,7.87,11.46c.46.67.35,1.27-.32,1.73-.63.43-1.19.29-1.65-.38l-7.87-11.46-12.12,8.32,8.38,12.21c.46.67.35,1.27-.32,1.73l-.04.03c-.67.46-1.27.35-1.73-.32l-10.46-15.24c-.46-.67-.35-1.27.32-1.73l26.14-17.94c.67-.46,1.27-.35,1.73.32l10.46,15.24c.46.67.35,1.27-.32,1.73Z"></path>
</svg>
