<?xml version="1.0" encoding="UTF-8"?>
<svg xmlns="http://www.w3.org/2000/svg" id="site-icon" viewBox="0 0 640 640">
  <defs>
    <style>.cls-1{fill:#fff;}.cls-2{fill:#5f5f5f;}</style>
  </defs>
  <rect class="cls-1" width="640" height="640"></rect>
  <path class="cls-2" d="m274.37,511.5c-6.08,2.66-11.02,1.9-14.43-3.04-3.42-4.94-1.52-9.5,4.56-13.68,69.13-44.82,88.89-102.18,90.79-189.55h-134.47c-7.22,0-11.02-3.8-11.4-10.64-.38-6.46,3.8-10.26,11.4-10.26h134.09v-85.85c0-7.22,4.18-11.4,11.4-10.64h17.85c7.6,0,11.4,3.8,11.4,11.39v85.09h107.5c7.6,0,11.4,3.8,11.4,10.26,0,6.84-3.8,10.64-11.4,10.64h-107.12c-1.14,90.41-35.33,166.38-121.55,206.26Z"></path>
  <path class="cls-2" d="m74.78,590.86l22.49-17.4c.58-.45,1.12-.38,1.56.2l1.34,1.73c.45.58.38,1.12-.2,1.56l-17.82,13.78,15.03-2.69c.63-.1,1.06.04,1.46.55l1.47,1.9c.39.51.43.97.17,1.55l-6.36,13.9,17.82-13.78c.58-.45,1.12-.38,1.56.2l1.26,1.63c.45.58.37,1.12-.2,1.56l-22.49,17.4c-.58.45-1.12.38-1.56-.2l-1.49-1.93c-.39-.51-.42-.97-.17-1.55l7.99-17.6-19.02,3.34c-.62.1-1.06-.04-1.46-.55l-1.57-2.03c-.45-.57-.37-1.12.2-1.56Z"></path>
  <path class="cls-2" d="m57.84,564.61l19.42-23.01c.53-.62,1.15-.59,1.56.11l1.14,1.91c.35.59.29,1.07-.11,1.57l-5.71,6.46,5.7,9.52,8.4-1.98c.63-.12,1.08.05,1.43.64l1.08,1.8c.42.7.15,1.26-.64,1.43l-29.45,6.25c-.62.12-1.08-.05-1.41-.6l-1.54-2.57c-.33-.55-.27-1.03.13-1.53Zm14.8-11.3l-10.57,12.02,15.59-3.64-5.02-8.38Z"></path>
  <path class="cls-2" d="m37.97,524.5l17.23,5.54,7.93-17.67c.39-.89,1.1-.88,1.49-.03l.75,1.63c.23.5.26.97,0,1.51l-7.39,16.19,11.82-5.45c.66-.31,1.17-.12,1.48.55l.9,1.94c.3.66.12,1.17-.55,1.48l-25.82,11.91c-.66.3-1.17.12-1.48-.55l-.9-1.94c-.31-.66-.12-1.17.54-1.48l10.66-4.92-15.8-5.02c-.55-.17-.89-.49-1.12-.99l-.73-1.6c-.4-.86.06-1.4.99-1.12Z"></path>
  <path class="cls-2" d="m29.56,503.37l26.75-9.68c.68-.25,1.18-.02,1.43.67l.82,2.26c.25.68.02,1.18-.67,1.43l-26.75,9.68c-.69.25-1.18.02-1.43-.67l-.82-2.26c-.25-.69-.02-1.18.67-1.43Z"></path>
  <path class="cls-2" d="m18.01,464.29l27.5-7.25c.7-.19,1.18.09,1.36.79l.63,2.4c.16.62.06,1.05-.41,1.48l-19.02,18.75,22.07-5.82c.7-.19,1.18.09,1.36.79l.53,2.03c.19.7-.09,1.18-.79,1.36l-27.5,7.26c-.7.19-1.18-.09-1.36-.79l-.63-2.4c-.17-.62-.06-1.05.41-1.48l19.02-18.75-22.07,5.82c-.7.19-1.18-.09-1.36-.79l-.54-2.03c-.19-.7.09-1.18.79-1.36Z"></path>
  <path class="cls-2" d="m39.39,421.34c1.39,2.44,2.49,5.53,2.97,8.79,1.26,8.65-4.16,15.42-13.49,16.77-9.46,1.38-16.44-3.45-17.82-12.95-.36-2.46-.41-4.88-.19-6.99.08-.66.42-1.01,1.09-1.11l.26-.04c.8-.12,1.21.3,1.07,1.14-.39,2.39-.4,4.39-.11,6.38.99,6.78,6.4,10.37,15.05,9.11,8.44-1.23,12.82-6.24,11.93-12.3-.27-1.82-.76-3.44-1.71-5.21l-12.63,1.84,1.25,8.61c.1.72-.22,1.16-.94,1.26-.68.1-1.07-.23-1.18-.96l-1.71-11.74c-.11-.72.22-1.16.94-1.26l13.82-2.01c.64-.09,1.1.1,1.39.66Z"></path>
  <path class="cls-2" d="m10.03,346.88c-.09-2.3.01-4.71.31-6.96,1.34-10.2,7.26-14.52,17.2-13.22,10.54,1.38,15.41,7.07,14.07,17.31-.3,2.29-.82,4.6-1.5,6.8-.17.63-.64.91-1.32.82l-27.7-3.63c-.68-.09-1.06-.49-1.06-1.13Zm29.33-3.16c.97-7.44-2.51-11.52-12.37-12.81-9.05-1.19-13.44,1.96-14.4,9.31-.16,1.23-.22,2.35-.16,3.52l26.17,3.43c.36-1.12.59-2.21.75-3.44Z"></path>
  <path class="cls-2" d="m21.23,291.45h.04c.71.18.99.64.82,1.35l-3.09,12.92,10.5,2.51,2.9-12.13c.17-.71.63-.99,1.34-.82.67.16.91.61.74,1.32l-2.9,12.13,12.84,3.07,3.09-12.92c.17-.71.63-.99,1.34-.82h.04c.71.18.99.64.82,1.35l-3.86,16.13c-.17.71-.63.99-1.34.82l-27.67-6.62c-.71-.17-.99-.63-.83-1.34l3.86-16.13c.17-.71.63-.99,1.34-.82Z"></path>
  <path class="cls-2" d="m50.31,283.01c2.31-1.69,3.61-3.47,4.38-5.69,1.29-3.73.26-6.26-3.71-7.63-3.28-1.14-5.77-.09-8.34,3.14-4.07,5.07-7.87,6.75-11.51,5.49-4.17-1.44-5.84-5.52-3.96-10.94.98-2.83,2.43-5.32,4.14-7.23.39-.46.91-.55,1.48-.35l.61.21c.81.28.91.91.25,1.49-2.22,2.09-3.53,4.04-4.33,6.35-.97,2.79-.25,5.17,3.23,6.38,2.95,1.02,5.65-.08,7.69-2.69,4.77-6.05,8.03-7.47,12.2-6.02,4.94,1.71,6.69,5.95,4.48,12.34-.91,2.63-2.42,5.01-4.16,6.63-.47.43-.9.5-1.51.29l-.73-.25c-.89-.31-.94-.96-.2-1.52Z"></path>
  <path class="cls-2" d="m40.21,238.58l26.04,11.47c.67.29.86.8.57,1.47l-.97,2.2c-.29.67-.8.86-1.47.57l-26.04-11.47c-.67-.29-.86-.8-.57-1.47l.97-2.2c.29-.67.8-.86,1.47-.57Z"></path>
  <path class="cls-2" d="m83.33,216.56c-.36,2.78-1.35,5.91-2.94,8.8-4.22,7.65-12.63,9.76-20.88,5.21-8.36-4.61-11.01-12.68-6.37-21.08,1.2-2.17,2.62-4.13,4.07-5.68.46-.48.94-.56,1.54-.22l.22.12c.71.39.78.97.17,1.56-1.75,1.67-2.97,3.25-3.94,5.02-3.31,6-1.16,12.13,6.49,16.35,7.46,4.12,13.98,2.77,16.94-2.59.89-1.61,1.47-3.2,1.78-5.18l-11.18-6.17-4.2,7.61c-.35.64-.88.79-1.51.44-.6-.33-.71-.83-.36-1.47l5.73-10.39c.35-.64.88-.79,1.51-.44l12.22,6.75c.56.31.81.74.71,1.37Z"></path>
  <path class="cls-2" d="m81.24,169.06l23.21,16.45c.59.42.69.96.27,1.55l-1.44,2.03c-.37.52-.77.72-1.4.64l-26.59-2.57,18.63,13.21c.6.42.69.96.27,1.55l-1.21,1.71c-.42.59-.96.69-1.55.26l-23.21-16.45c-.6-.42-.69-.96-.27-1.55l1.44-2.03c.37-.52.77-.72,1.4-.64l26.59,2.57-18.63-13.21c-.59-.42-.68-.96-.26-1.55l1.21-1.71c.42-.59.96-.69,1.55-.27Z"></path>
  <path class="cls-2" d="m156.04,95.59l17.63,22.32c.45.57.39,1.11-.18,1.56l-1.71,1.35c-.57.45-1.11.39-1.56-.18l-13.96-17.68,2.84,15c.11.62-.03,1.06-.54,1.46l-1.88,1.49c-.5.4-.97.44-1.55.18l-13.97-6.22,13.96,17.68c.45.57.39,1.11-.18,1.56l-1.61,1.27c-.57.45-1.11.39-1.56-.18l-17.63-22.32c-.45-.57-.39-1.11.19-1.56l1.92-1.51c.5-.4.97-.43,1.55-.18l17.69,7.81-3.53-18.99c-.11-.62.03-1.06.54-1.46l2.02-1.59c.57-.45,1.11-.39,1.56.18Z"></path>
  <path class="cls-2" d="m199.98,84.44c2.56,4.21,3.54,7.88,2.96,11.79-.53,3.33-2.75,6.53-6.48,8.8-7.43,4.52-14.81,2.03-19.9-6.35-5.1-8.38-3.91-16.07,3.52-20.59,7.43-4.52,14.81-2.03,19.9,6.35Zm-19.58,11.91c4.65,7.65,9.98,9.73,14.88,6.74,4.91-2.98,5.51-8.67.86-16.32-2.31-3.81-4.95-6.41-7.22-7.34-2.93-1.18-5.21-.89-7.66.6-4.9,2.98-5.51,8.67-.86,16.32Z"></path>
  <path class="cls-2" d="m206.8,63.89c1.86-1.29,4.07-2.51,6.52-3.65,7.42-3.45,12.48-2.32,14.6,2.23,1.63,3.5,1.1,7.33-2.5,10.05l-1.16.87c2.67-.16,5.04,1.29,7.06,3.19l5.81,5.47c.6.57.5,1.18-.23,1.53l-1.86.87c-.58.27-1.08.22-1.53-.23l-6.22-5.94c-3.49-3.34-4.03-3.37-7.64-1.69l-2.52,1.18,5.28,11.34c.31.66.12,1.17-.54,1.48l-1.94.9c-.66.31-1.17.12-1.48-.54l-11.92-25.59c-.29-.62-.2-1.14.27-1.45Zm17.29.69c-1.86-4-5.14-4.55-10.11-2.24-1.13.52-2.14,1.09-3.18,1.81l5.43,11.65,2.52-1.18c5.67-2.64,7.35-5.74,5.34-10.05Z"></path>
  <path class="cls-2" d="m258.2,44.19v.04c.25.69.01,1.18-.67,1.42l-12.55,4.35,3.54,10.2,11.78-4.08c.69-.24,1.18,0,1.42.69.22.65-.03,1.1-.72,1.34l-11.78,4.08,4.32,12.47,12.55-4.35c.69-.24,1.18,0,1.42.69v.04c.25.69.01,1.18-.67,1.42l-15.67,5.43c-.69.24-1.18,0-1.42-.69l-9.31-26.88c-.24-.69,0-1.18.69-1.42l15.67-5.43c.69-.24,1.18,0,1.42.69Z"></path>
  <path class="cls-2" d="m346.49,28.17l11.48,27.83c.3.75,0,1.29-.82,1.34l-2.22.14c-.68.04-1.09-.23-1.34-.82l-3.11-8.05-11.07.68-2.11,8.37c-.18.61-.54.93-1.23.98l-2.09.13c-.81.05-1.19-.44-.98-1.23l8.01-29.02c.18-.61.54-.93,1.19-.97l2.99-.18c.64-.04,1.04.24,1.29.82Zm3.22,18.34l-5.8-14.92-3.95,15.52,9.75-.59Z"></path>
  <path class="cls-2" d="m389.3,57.69c-2.12.51-4.53.7-6.89.6-8.48-.37-13.48-6.55-13.05-16.36.43-9.76,5.62-15.54,14.31-15.15,2.4.1,4.74.55,6.77,1.2.59.2.87.64.84,1.28v.3c-.05.86-.58,1.13-1.34.84-2.15-.82-4.11-1.25-6.07-1.34-5.69-.25-9.67,4.46-10.05,13.07-.38,8.52,3.43,13.66,8.99,13.91,2.06.09,4.04-.17,6.25-.8.78-.22,1.28.1,1.24.96v.26c-.04.69-.36,1.1-1.01,1.24Z"></path>
  <path class="cls-2" d="m422.78,61.83c-2.16.29-4.58.23-6.91-.11-8.39-1.24-12.73-7.9-11.3-17.6,1.43-9.66,7.18-14.87,15.78-13.6,2.37.35,4.65,1.03,6.6,1.88.57.26.8.73.71,1.36l-.04.3c-.12.85-.68,1.07-1.4.7-2.06-1.04-3.95-1.67-5.9-1.95-5.63-.83-10.08,3.45-11.34,11.96-1.24,8.43,2.01,13.94,7.52,14.75,2.03.3,4.03.25,6.3-.15.8-.14,1.26.23,1.14,1.08l-.04.25c-.1.68-.46,1.06-1.12,1.13Z"></path>
  <path class="cls-2" d="m462.92,41.2v.04c-.19.71-.66.99-1.37.81l-12.87-3.26-2.65,10.47,12.09,3.06c.7.18.98.65.8,1.35-.17.66-.63.9-1.33.72l-12.09-3.06-3.24,12.79,12.87,3.26c.71.18.99.65.81,1.35v.04c-.19.71-.66.99-1.36.81l-16.07-4.07c-.71-.18-.98-.65-.81-1.35l6.99-27.58c.18-.71.65-.99,1.35-.81l16.07,4.07c.71.18.98.65.81,1.35Z"></path>
  <path class="cls-2" d="m470.97,70.38c1.66,2.33,3.42,3.65,5.63,4.45,3.71,1.34,6.25.34,7.68-3.6,1.18-3.26.17-5.77-3.03-8.38-5.02-4.14-6.64-7.96-5.33-11.58,1.5-4.15,5.59-5.77,10.99-3.82,2.82,1.02,5.29,2.5,7.17,4.23.45.39.53.92.33,1.48l-.22.6c-.29.81-.92.9-1.5.23-2.06-2.25-3.99-3.58-6.29-4.41-2.78-1-5.17-.32-6.42,3.15-1.06,2.94,0,5.65,2.59,7.72,5.99,4.85,7.36,8.12,5.86,12.27-1.78,4.91-6.03,6.61-12.4,4.31-2.62-.95-4.98-2.48-6.57-4.24-.42-.47-.49-.91-.27-1.51l.26-.72c.32-.89.97-.92,1.52-.18Z"></path>
  <path class="cls-2" d="m500.44,81.88c1.43,2.48,3.05,3.96,5.18,4.97,3.56,1.69,6.19.95,7.99-2.85,1.49-3.14.73-5.73-2.21-8.64-4.6-4.6-5.85-8.56-4.2-12.05,1.89-3.99,6.12-5.21,11.31-2.74,2.71,1.29,5.03,3,6.73,4.9.41.43.44.97.18,1.51l-.28.58c-.37.77-1,.81-1.51.09-1.83-2.44-3.63-3.95-5.84-5-2.67-1.27-5.12-.82-6.7,2.51-1.34,2.83-.54,5.63,1.83,7.94,5.5,5.41,6.55,8.8,4.65,12.79-2.24,4.72-6.64,6-12.76,3.1-2.52-1.19-4.72-2.95-6.14-4.86-.37-.51-.4-.95-.13-1.53l.33-.7c.4-.85,1.06-.83,1.53-.03Z"></path>
  <path class="cls-2" d="m545.73,76.7l-14.24,24.63c-.37.63-.89.77-1.52.41l-2.08-1.2c-.63-.36-.77-.89-.41-1.52l14.24-24.63c.37-.63.89-.77,1.52-.41l2.08,1.2c.63.36.77.89.41,1.52Z"></path>
  <path class="cls-2" d="m562.48,85.92c2.05.96,4.11,2.12,6.01,3.45,6.3,4.38,7.95,8.76,5.31,12.56-1.71,2.46-5.88,3.27-9.99,1.61l-.03.19c3.78,3.41,4.57,8.45,2.51,11.4-3.38,4.85-8.62,5.12-15.45.38-2.01-1.39-3.92-2.99-5.67-4.67-.48-.44-.52-.98-.12-1.55l15.95-22.94c.39-.56.92-.72,1.49-.42Zm-13.43,25.32c.93.91,1.9,1.69,3.03,2.47,4.4,3.06,7.92,2.79,10.78-1.32,2.59-3.73,1.02-7.17-4.33-10.89l-1.83-1.27-7.65,11.01Zm21.01-11.38c2.28-3.27,1.33-5.81-2.82-8.7-.98-.68-1.95-1.25-3.02-1.74l-6.29,9.04,1.83,1.27c4.68,3.25,7.98,3.46,10.3.12Z"></path>
  <path class="cls-2" d="m593.76,110.45l-17.71,20.72,10.29,8.8c.55.47.6,1.02.12,1.57l-.06.06c-.47.55-1.02.6-1.57.12l-12.93-11.06c-.55-.47-.6-1.02-.12-1.57l18.49-21.63c.47-.55,1.02-.6,1.57-.12l1.79,1.53c.55.47.6,1.02.12,1.57Z"></path>
  <path class="cls-2" d="m629.6,144.7l-.03.03c-.53.5-1.07.49-1.58-.03l-9.19-9.59-7.79,7.47,8.63,9c.5.53.49,1.07-.03,1.57-.5.47-1.01.43-1.51-.09l-8.63-9-9.52,9.13,9.19,9.59c.5.53.49,1.07-.03,1.57l-.03.03c-.52.5-1.07.49-1.57-.03l-11.47-11.97c-.5-.53-.49-1.07.03-1.57l20.53-19.69c.52-.5,1.07-.49,1.57.03l11.47,11.97c.5.53.49,1.07-.03,1.57Z"></path>
</svg>
