<?xml version="1.0" encoding="UTF-8"?>
<svg xmlns="http://www.w3.org/2000/svg" id="site-icon2" viewBox="0 0 640 640">
  <defs>
    <style>.cls-1{fill:#fff;}.cls-2{fill:#5f5f5f;}</style>
  </defs>
  <rect class="cls-1" width="640" height="640"></rect>
  <path class="cls-2" d="m219.54,550.31c-8.09,3.54-14.65,2.53-19.2-4.04-4.55-6.57-2.02-12.63,6.06-18.19,91.96-59.63,118.24-135.92,120.77-252.14h-178.88c-9.6,0-14.65-5.05-15.16-14.15-.51-8.59,5.05-13.64,15.16-13.64h178.37v-114.2c0-9.6,5.56-15.16,15.16-14.15h23.75c10.11,0,15.16,5.05,15.16,15.16v113.19h143c10.11,0,15.16,5.05,15.16,13.64,0,9.1-5.05,14.15-15.16,14.15h-142.5c-1.51,120.26-46.99,221.32-161.7,274.38Z"></path>
  <path class="cls-2" d="m76.72,577l27.36-23.1c.7-.59,1.39-.53,1.98.17l1.78,2.1c.59.7.53,1.39-.17,1.98l-21.67,18.3,18.76-4.19c.78-.16,1.34,0,1.86.62l1.95,2.31c.52.62.59,1.2.3,1.94l-7.24,17.84,21.67-18.3c.7-.59,1.38-.53,1.98.17l1.67,1.98c.59.7.53,1.39-.17,1.98l-27.36,23.1c-.7.59-1.38.53-1.98-.17l-1.98-2.35c-.52-.62-.59-1.2-.3-1.94l9.09-22.58-23.75,5.23c-.78.16-1.34,0-1.86-.62l-2.09-2.47c-.59-.7-.53-1.39.17-1.98Z"></path>
  <path class="cls-2" d="m58.6,550.24l23.75-29.56c.65-.79,1.42-.77,1.97.09l1.5,2.37c.46.73.4,1.34-.09,1.97l-7,8.31,7.47,11.81,10.51-2.75c.78-.18,1.36.03,1.82.76l1.41,2.24c.55.87.23,1.58-.76,1.82l-36.89,8.76c-.78.18-1.36-.03-1.79-.72l-2.02-3.19c-.43-.68-.37-1.3.12-1.93Zm18.28-14.68l-12.95,15.46,19.52-5.06-6.57-10.4Z"></path>
  <path class="cls-2" d="m36.27,506.44l21.76,6.76,9.75-22.36c.48-1.12,1.37-1.13,1.88-.06l.97,2.05c.3.63.34,1.21,0,1.91l-9.09,20.49,14.81-7.02c.83-.39,1.48-.16,1.87.67l1.16,2.44c.39.83.16,1.48-.67,1.87l-32.36,15.34c-.83.39-1.47.16-1.87-.67l-1.15-2.44c-.39-.83-.16-1.47.67-1.87l13.35-6.33-19.97-6.11c-.7-.21-1.12-.6-1.42-1.24l-.95-2c-.51-1.07.06-1.76,1.24-1.42Z"></path>
  <path class="cls-2" d="m28.41,486.73l33.62-12.33c.86-.32,1.48-.03,1.8.83l1.04,2.84c.32.86.03,1.48-.83,1.8l-33.62,12.33c-.86.32-1.48.03-1.8-.83l-1.04-2.84c-.32-.86-.03-1.48.83-1.8Z"></path>
  <path class="cls-2" d="m16.09,444.44l34.66-8.99c.89-.23,1.48.12,1.71,1.01l.79,3.03c.2.78.06,1.32-.52,1.86l-24.03,23.51,27.82-7.22c.89-.23,1.48.12,1.71,1.01l.66,2.56c.23.89-.12,1.48-1,1.71l-34.66,8.99c-.89.23-1.48-.12-1.71-1.01l-.79-3.03c-.2-.78-.06-1.32.52-1.86l24.03-23.51-27.82,7.22c-.89.23-1.48-.12-1.71-1l-.66-2.56c-.23-.89.12-1.48,1-1.71Z"></path>
  <path class="cls-2" d="m45.25,397.9c1.69,3.1,3,7.02,3.51,11.14,1.37,10.92-5.63,19.3-17.4,20.78-11.93,1.49-20.6-4.76-22.1-16.75-.39-3.1-.39-6.15-.07-8.8.11-.83.55-1.26,1.4-1.37l.32-.04c1.02-.13,1.52.41,1.33,1.47-.55,3.01-.61,5.52-.3,8.03,1.07,8.57,7.8,13.22,18.72,11.85,10.65-1.33,16.29-7.53,15.33-15.19-.29-2.3-.87-4.35-2.02-6.6l-15.95,2,1.36,10.87c.11.91-.31,1.45-1.22,1.57-.86.11-1.35-.32-1.46-1.23l-1.86-14.83c-.11-.91.31-1.45,1.22-1.57l17.45-2.18c.8-.1,1.38.15,1.74.87Z"></path>
  <path class="cls-2" d="m9.17,340.56c-.1-2.9.03-5.93.41-8.76,1.71-12.83,9.18-18.26,21.69-16.6,13.26,1.77,19.37,8.95,17.65,21.83-.39,2.89-1.05,5.79-1.9,8.56-.21.79-.81,1.14-1.66,1.03l-34.85-4.64c-.86-.11-1.33-.61-1.33-1.43Zm36.92-3.9c1.25-9.36-3.12-14.51-15.52-16.16-11.39-1.52-16.92,2.43-18.15,11.68-.21,1.55-.28,2.95-.21,4.43l32.93,4.38c.46-1.41.75-2.78.96-4.34Z"></path>
  <path class="cls-2" d="m22.53,277.95h.05c.89.24,1.24.83,1.01,1.72l-4.15,16.2,13.17,3.37,3.9-15.21c.23-.89.82-1.24,1.71-1.01.84.21,1.13.79.91,1.68l-3.9,15.21,16.09,4.12,4.15-16.2c.23-.89.82-1.24,1.71-1.01h.05c.89.24,1.24.83,1.01,1.72l-5.18,20.23c-.23.89-.82,1.24-1.71,1.01l-34.69-8.89c-.89-.23-1.24-.82-1.01-1.71l5.18-20.23c.23-.89.82-1.24,1.71-1.01Z"></path>
  <path class="cls-2" d="m57.13,275.17c2.96-2.05,4.65-4.24,5.7-7.02,1.75-4.65.54-7.87-4.4-9.73-4.09-1.54-7.26-.31-10.61,3.67-5.29,6.25-10.13,8.23-14.68,6.52-5.2-1.96-7.16-7.14-4.62-13.91,1.33-3.53,3.24-6.62,5.45-8.96.5-.56,1.17-.65,1.88-.39l.76.29c1.01.38,1.11,1.17.27,1.89-2.86,2.55-4.58,4.96-5.66,7.84-1.31,3.48-.49,6.5,3.85,8.14,3.68,1.39,7.12.09,9.77-3.12,6.21-7.46,10.36-9.13,15.55-7.17,6.16,2.32,8.22,7.71,5.21,15.69-1.24,3.28-3.21,6.23-5.46,8.21-.6.52-1.15.6-1.91.32l-.91-.34c-1.11-.42-1.15-1.24-.2-1.92Z"></path>
  <path class="cls-2" d="m43.1,225.81l32.3,15.46c.83.4,1.06,1.04.66,1.87l-1.3,2.73c-.4.83-1.04,1.06-1.87.66l-32.3-15.46c-.83-.4-1.06-1.04-.66-1.87l1.3-2.73c.4-.83,1.04-1.06,1.87-.66Z"></path>
  <path class="cls-2" d="m94.84,206.62c-.59,3.49-1.99,7.37-4.14,10.92-5.69,9.42-16.37,11.66-26.53,5.53-10.29-6.22-13.22-16.5-6.97-26.84,1.62-2.68,3.5-5.07,5.4-6.95.6-.58,1.21-.65,1.95-.21l.28.17c.88.53.94,1.26.13,1.97-2.29,2.02-3.9,3.95-5.21,6.12-4.46,7.39-2.06,15.21,7.35,20.9,9.19,5.55,17.45,4.18,21.44-2.42,1.2-1.99,2.01-3.95,2.5-6.43l-13.76-8.31-5.66,9.37c-.47.79-1.14.95-1.93.48-.74-.45-.86-1.09-.38-1.87l7.73-12.79c.48-.79,1.14-.95,1.93-.48l15.05,9.09c.69.42.99.97.83,1.76Z"></path>
  <path class="cls-2" d="m91.04,152.98l28.02,22.3c.72.57.8,1.25.22,1.97l-1.95,2.45c-.5.63-1.02.84-1.8.7l-33.25-5.08,22.49,17.9c.72.57.8,1.25.22,1.97l-1.65,2.07c-.57.72-1.25.8-1.97.22l-28.02-22.3c-.72-.57-.79-1.25-.22-1.97l1.95-2.45c.5-.63,1.02-.84,1.8-.7l33.25,5.08-22.49-17.9c-.72-.57-.8-1.25-.22-1.97l1.65-2.07c.57-.72,1.25-.8,1.97-.22Z"></path>
  <path class="cls-2" d="m162.71,90.53l21.02,28.99c.54.74.43,1.42-.31,1.96l-2.23,1.61c-.74.54-1.42.43-1.96-.31l-16.65-22.97,2.8,19.02c.11.79-.1,1.34-.75,1.81l-2.45,1.77c-.66.47-1.24.5-1.96.15l-17.25-8.54,16.65,22.97c.54.74.43,1.42-.31,1.96l-2.1,1.52c-.74.54-1.42.43-1.96-.31l-21.02-28.99c-.54-.74-.43-1.42.31-1.96l2.49-1.8c.66-.48,1.24-.5,1.96-.15l21.85,10.74-3.46-24.07c-.11-.79.1-1.34.75-1.81l2.62-1.9c.74-.54,1.42-.43,1.96.31Z"></path>
  <path class="cls-2" d="m212.76,83.42c2.89,5.49,3.83,10.17,2.8,15.04-.93,4.15-3.96,8-8.83,10.56-9.69,5.1-18.77,1.41-24.53-9.51-5.76-10.93-3.67-20.5,6.02-25.6,9.69-5.1,18.77-1.41,24.53,9.51Zm-25.54,13.45c5.25,9.97,11.79,12.99,18.18,9.62,6.4-3.37,7.6-10.46,2.34-20.44-2.61-4.96-5.73-8.44-8.51-9.78-3.58-1.71-6.48-1.53-9.67.16-6.4,3.37-7.6,10.46-2.34,20.44Z"></path>
  <path class="cls-2" d="m216.59,61.19c2.46-1.44,5.36-2.76,8.54-3.95,9.65-3.62,15.9-1.7,18.12,4.21,1.7,4.54.67,9.31-4.12,12.37l-1.53.98c3.37.06,6.21,2.11,8.56,4.68l6.76,7.43c.69.78.52,1.53-.44,1.89l-2.43.91c-.76.28-1.38.17-1.89-.44l-7.23-8.06c-4.06-4.53-4.73-4.62-9.43-2.86l-3.28,1.23,5.53,14.75c.32.86.04,1.48-.82,1.81l-2.53.95c-.86.32-1.48.04-1.81-.82l-12.48-33.28c-.3-.81-.14-1.45.48-1.79Zm21.64,2.55c-1.95-5.2-6.02-6.21-12.48-3.79-1.47.55-2.79,1.16-4.16,1.96l5.68,15.15,3.28-1.23c7.38-2.76,9.78-6.49,7.68-12.1Z"></path>
  <path class="cls-2" d="m276.22,44.06v.05c.23.89-.12,1.48-1.01,1.7l-16.23,4.03,3.27,13.19,15.24-3.78c.89-.22,1.48.13,1.7,1.02.21.84-.16,1.37-1.05,1.59l-15.24,3.78,4,16.12,16.23-4.03c.89-.22,1.48.13,1.7,1.02v.05c.23.89-.12,1.48-1.01,1.7l-20.27,5.03c-.89.22-1.48-.13-1.7-1.02l-8.63-34.76c-.22-.89.13-1.48,1.02-1.7l20.27-5.03c.89-.22,1.48.13,1.7,1.02Z"></path>
  <path class="cls-2" d="m351.97,36.94l11.71,36.06c.31.98-.13,1.62-1.16,1.6l-2.8-.05c-.86-.01-1.34-.4-1.6-1.16l-3.12-10.41-13.97-.23-3.46,10.3c-.28.75-.77,1.12-1.64,1.11l-2.64-.04c-1.02-.02-1.45-.67-1.11-1.64l12.88-35.66c.28-.75.77-1.12,1.58-1.11l3.78.06c.81.01,1.29.4,1.55,1.16Zm2.26,23.34l-5.83-19.29-6.46,19.09,12.3.2Z"></path>
  <path class="cls-2" d="m395.27,77.61c-2.72.42-5.76.41-8.71.04-10.6-1.34-16.24-9.62-14.68-21.87,1.55-12.2,8.65-18.91,19.52-17.53,3,.38,5.89,1.18,8.37,2.2.72.31,1.03.89.93,1.69l-.05.37c-.14,1.07-.83,1.36-1.75.92-2.61-1.26-5.02-2-7.48-2.31-7.12-.9-12.6,4.6-13.97,15.35-1.35,10.65,2.89,17.49,9.85,18.37,2.57.33,5.09.21,7.93-.35,1-.2,1.6.26,1.46,1.33l-.04.32c-.11.86-.55,1.34-1.38,1.46Z"></path>
  <path class="cls-2" d="m429.21,85.31c-2.75.1-5.77-.26-8.65-.97-10.37-2.57-15.01-11.44-12.04-23.42,2.95-11.94,10.79-17.77,21.42-15.14,2.93.73,5.71,1.86,8.05,3.16.68.39.92,1.01.72,1.79l-.09.37c-.26,1.05-.98,1.26-1.84.71-2.45-1.55-4.76-2.57-7.16-3.16-6.96-1.72-13.05,3.1-15.65,13.63-2.58,10.42.84,17.71,7.65,19.39,2.51.62,5.03.8,7.92.57,1.02-.08,1.56.44,1.3,1.49l-.08.31c-.21.84-.7,1.27-1.54,1.29Z"></path>
  <path class="cls-2" d="m474.96,62.63l-.02.05c-.32.86-.95,1.14-1.8.82l-15.67-5.85-4.76,12.73,14.71,5.49c.86.32,1.14.95.82,1.8-.3.81-.91,1.04-1.77.72l-14.71-5.49-5.81,15.56,15.67,5.85c.86.32,1.14.95.82,1.8l-.02.05c-.32.86-.95,1.14-1.81.82l-19.56-7.3c-.86-.32-1.14-.95-.82-1.8l12.53-33.55c.32-.86.95-1.14,1.8-.82l19.56,7.3c.86.32,1.14.95.82,1.8Z"></path>
  <path class="cls-2" d="m474.06,97.32c1.73,3.17,3.72,5.08,6.37,6.41,4.43,2.23,7.76,1.38,10.14-3.34,1.97-3.9,1.08-7.18-2.53-10.94-5.65-5.93-7.11-10.95-4.93-15.28,2.5-4.96,7.86-6.37,14.31-3.11,3.37,1.7,6.24,3.93,8.33,6.37.5.56.53,1.23.19,1.91l-.36.72c-.49.96-1.28.98-1.91.07-2.23-3.12-4.45-5.08-7.19-6.46-3.32-1.68-6.41-1.18-8.5,2.96-1.77,3.52-.84,7.06,2.07,10.04,6.76,6.97,7.98,11.27,5.48,16.23-2.96,5.88-8.54,7.35-16.15,3.52-3.13-1.58-5.85-3.85-7.58-6.3-.46-.65-.48-1.21-.11-1.93l.44-.87c.53-1.06,1.35-1.01,1.93,0Z"></path>
  <path class="cls-2" d="m502.54,112.46c1.38,3.33,3.17,5.44,5.66,7.05,4.17,2.69,7.57,2.19,10.44-2.25,2.37-3.67,1.84-7.03-1.35-11.14-4.99-6.49-5.91-11.64-3.28-15.72,3.01-4.67,8.49-5.5,14.56-1.58,3.17,2.05,5.79,4.57,7.61,7.22.44.61.39,1.28-.02,1.91l-.44.68c-.58.91-1.38.84-1.9-.14-1.89-3.34-3.89-5.52-6.47-7.19-3.13-2.02-6.25-1.85-8.77,2.05-2.13,3.31-1.58,6.94.99,10.2,5.98,7.64,6.74,12.05,3.73,16.71-3.57,5.53-9.27,6.41-16.43,1.79-2.95-1.9-5.41-4.45-6.87-7.06-.38-.7-.35-1.25.09-1.93l.53-.82c.64-1,1.45-.86,1.92.21Z"></path>
  <path class="cls-2" d="m553.75,109.12l-21.9,28.34c-.56.73-1.24.81-1.97.25l-2.39-1.85c-.73-.56-.81-1.24-.25-1.97l21.9-28.34c.56-.73,1.24-.81,1.97-.25l2.39,1.85c.73.56.81,1.24.25,1.97Z"></path>
  <path class="cls-2" d="m567.42,118.71c2.39,1.55,4.75,3.37,6.89,5.34,7.09,6.56,8.38,12.31,4.42,16.58-2.56,2.77-7.9,3.05-12.74.26l-.07.23c4.12,4.92,4.22,11.32,1.14,14.65-5.06,5.46-11.64,4.88-19.33-2.23-2.26-2.09-4.37-4.41-6.26-6.82-.52-.63-.47-1.32.11-1.95l23.89-25.81c.59-.63,1.27-.74,1.94-.27Zm-21.16,29.21c1,1.3,2.08,2.44,3.35,3.61,4.95,4.58,9.39,4.87,13.67.23,3.88-4.2,2.52-8.76-3.5-14.33l-2.06-1.9-11.47,12.39Zm28.18-10.52c3.41-3.68,2.67-7.01-2-11.33-1.11-1.03-2.21-1.9-3.46-2.69l-9.42,10.17,2.06,1.9c5.27,4.87,9.35,5.71,12.83,1.95Z"></path>
  <path class="cls-2" d="m596.95,149.7l-25.96,22.42,11.15,12.9c.6.69.55,1.38-.14,1.98l-.08.07c-.69.6-1.38.55-1.98-.14l-14-16.21c-.6-.69-.55-1.38.14-1.98l27.11-23.41c.69-.6,1.38-.55,1.98.14l1.94,2.25c.6.69.55,1.38-.14,1.98Z"></path>
  <path class="cls-2" d="m630.36,193.66l-.04.03c-.76.52-1.43.39-1.95-.36l-9.47-13.79-11.2,7.69,8.89,12.94c.52.76.39,1.43-.36,1.95-.71.49-1.34.33-1.86-.42l-8.89-12.94-13.69,9.4,9.47,13.79c.52.76.39,1.43-.36,1.95l-.05.03c-.76.52-1.43.39-1.95-.36l-11.82-17.21c-.52-.76-.39-1.43.36-1.95l29.52-20.26c.76-.52,1.43-.39,1.95.36l11.82,17.21c.52.76.39,1.43-.36,1.95Z"></path>
</svg>
