<?xml version="1.0" encoding="utf-8"?>
<!-- Generator: Adobe Illustrator 24.3.0, SVG Export Plug-In . SVG Version: 6.00 Build 0)  -->
<svg version="1.1" xmlns="http://www.w3.org/2000/svg" xmlns:xlink="http://www.w3.org/1999/xlink" x="0px" y="0px"
	 viewBox="0 0 24 24" style="enable-background: new 0 0 24 24;" xml:space="preserve">
<style type="text/css">
	.st0 {
		display: none;
	}

	.st1 {
		display: inline;
	}
</style>
<g id="left" focusable="false" class="st0">
	<path class="st1" d="M16.1,2.6l-0.8-0.7c-0.2-0.2-0.5-0.2-0.7,0l-8.7,9.7c-0.2,0.2-0.2,0.5,0,0.7l8.7,9.7c0.2,0.2,0.5,0.2,0.7,0
		l0.8-0.7c0.2-0.2,0.2-0.5,0-0.7l-7.7-8.3c-0.2-0.2-0.2-0.5,0-0.7l7.7-8.3C16.3,3.1,16.3,2.8,16.1,2.6z"/>
</g>
<g id="right">
	<path d="M7.9,21.4l0.8,0.7c0.2,0.2,0.5,0.2,0.7,0l8.7-9.7c0.2-0.2,0.2-0.5,0-0.7L9.4,2c-0.2-0.2-0.5-0.2-0.7,0L7.9,2.6
		c-0.2,0.2-0.2,0.5,0,0.7l7.7,8.3c0.2,0.2,0.2,0.5,0,0.7l-7.7,8.3C7.7,20.9,7.7,21.2,7.9,21.4z"/>
</g>
</svg>
