<?xml version="1.0" encoding="utf-8"?>
<!-- Generator: Adobe Illustrator 26.2.1, SVG Export Plug-In . SVG Version: 6.00 Build 0)  -->
<svg version="1.1" id="レイヤー_2_1_" xmlns="http://www.w3.org/2000/svg" xmlns:xlink="http://www.w3.org/1999/xlink" x="0px"
	 y="0px" viewBox="0 0 56 56" style="enable-background:new 0 0 56 56;" xml:space="preserve">
<g>
	<path d="M24,23.5c0.8,0,1.5-0.7,1.5-1.5s-0.7-1.5-1.5-1.5s-1.5,0.7-1.5,1.5S23.2,23.5,24,23.5z"/>
</g>
<polygon points="13.6,34.8 12.4,33.2 21.7,26.3 26.5,29.7 34.8,22.7 43.6,29 42.4,30.6 34.9,25.3 26.5,32.3 21.7,28.7 "/>
<g>
	<path d="M44,44H12V12h32V44z M14,42h28V14H14V42z"/>
	<polygon points="54,42 50,42 50,14 54,14 54,12 48,12 48,44 54,44 	"/>
	<polygon points="2,14 6,14 6,42 2,42 2,44 8,44 8,12 2,12 	"/>
</g>
</svg>
