<?xml version="1.0" encoding="utf-8"?>
<!-- Generator: Adobe Illustrator 26.2.1, SVG Export Plug-In . SVG Version: 6.00 Build 0)  -->
<svg version="1.1" id="レイヤー_2_1_" xmlns="http://www.w3.org/2000/svg" xmlns:xlink="http://www.w3.org/1999/xlink" x="0px"
	 y="0px" viewBox="0 0 56 56" style="enable-background:new 0 0 56 56;" xml:space="preserve">
<g>
	<rect x="19" y="21.2" width="18" height="1.5"/>
	<rect x="19" y="33.2" width="10" height="1.5"/>
	<path d="M35.8,35.2h-3.5c-0.7,0-1.2-0.6-1.2-1.2l0,0c0-0.7,0.6-1.2,1.2-1.2h3.5c0.7,0,1.2,0.6,1.2,1.2l0,0
		C37,34.7,36.4,35.2,35.8,35.2z"/>
	<rect x="19" y="27.2" width="18" height="1.5"/>
</g>
<g>
	<path d="M44,44H12V12h32V44z M14,42h28V14H14V42z"/>
	<polygon points="54,42 50,42 50,14 54,14 54,12 48,12 48,44 54,44 	"/>
	<polygon points="2,14 6,14 6,42 2,42 2,44 8,44 8,12 2,12 	"/>
</g>
</svg>
