<?xml version="1.0" encoding="UTF-8"?>
<svg xmlns="http://www.w3.org/2000/svg" id="_アートボード10" viewBox="0 0 208 50">
  <defs>
    <style>.cls-1{fill:#6b8082;}</style>
  </defs>
  <path class="cls-1" d="m36.8,16.06l8.96,1.11V4.02h-7.49c-.09,2.9-.43,7.22-1.47,12.05Z"></path>
  <path class="cls-1" d="m32.6,15.54c1.03-4.6,1.37-8.76,1.47-11.53H4v7.99l28.6,3.54h0Z"></path>
  <path class="cls-1" d="m23.24,34.63c4.03-4.25,6.57-9.52,8.18-14.64l-27.42-3.39v26.91c7.89-.74,14.35-3.72,19.24-8.87Z"></path>
  <path class="cls-1" d="m35.66,20.51c-1.75,5.83-4.63,11.97-9.37,16.97-3.61,3.81-7.94,6.58-12.95,8.3h32.43v-24.02l-10.11-1.25Z"></path>
  <path class="cls-1" d="m57.06,25.88c-.35.55-.83.63-1.38.28l-1.07-.7c-.52-.34-.63-.83-.24-1.37,3.35-4.87,5.59-8.77,7.45-13.03l-4.5-.47c-1.23-.13-1.01-1.8.18-1.67l4.99.52c.49-1.15.9-2.39,1.37-3.72.19-.59.64-.85,1.27-.63l1.22.45c.63.23.81.67.56,1.26-.4,1.04-.83,2.04-1.23,2.93l2.91.31c1.19.12,1,1.79-.18,1.67l-3.43-.36c-2.06,4.68-4.24,8.9-7.93,14.48l.02.02h0v.03Zm23.4-6.79c-1.26-.78-2.43-1.28-3.42-1.4-1.24-.19-1.81.51-2.17,1.96-.18.74-.24,1.66-.33,2.74-.06,1.01-.13,2.17-.2,3.4.74.37,3.3,2.18,5.74,4.42.49.44.49.91.06,1.37l-.6.65c-.42.49-.91.46-1.36-.02-1.86-1.95-3.14-3.27-4.01-4.12-.04.38-.08.77-.17,1.17-.12.52-.32,1.05-.61,1.53-1.5,2.25-4.77,2.44-7.12,1.93-1.08-.21-2.38-.7-3.35-1.7-2.31-2.3-.88-5.64,2.03-6.54,2.23-.69,4.58-.33,6.44.31.09-1.29.12-2.39.22-3.34.06-1.03.24-1.89.57-2.65.86-1.99,3.04-2.55,5.02-2.35.45.05,1.24.23,1.54.29-.84-1.33-2.05-2.86-3.77-4.09-1.12-.81.07-2.22,1.05-1.63,2.56,1.57,4.65,3.52,6.72,5.99.4.49.35.98-.15,1.39l-.76.57c-.46.34-.9.36-1.37.06v.06-.02.02Zm-14.65,6.93c-1.26.52-1.87,2.21-.95,3.45.4.53,1.11.83,1.95,1.02,1.64.33,3.48-.12,4.03-1.25.16-.35.29-.75.34-1.21l.15-1.39c-1.67-.79-3.6-1.4-5.48-.64l-.02.02h-.02Z"></path>
  <path class="cls-1" d="m88.1,25.88c-.35.55-.83.63-1.38.28l-1.07-.7c-.52-.34-.63-.83-.24-1.37,3.35-4.87,5.59-8.77,7.45-13.03l-4.5-.47c-1.23-.13-1.01-1.8.18-1.67l4.99.52c.49-1.15.9-2.39,1.37-3.72.19-.59.64-.85,1.27-.63l1.22.45c.63.23.81.67.56,1.26-.4,1.04-.83,2.04-1.23,2.93l2.91.31c1.19.12,1,1.79-.18,1.67l-3.43-.36c-2.06,4.68-4.24,8.9-7.93,14.48l.02.02h0v.03Zm23.4-6.79c-1.26-.78-2.43-1.28-3.42-1.4-1.24-.19-1.81.51-2.17,1.96-.18.74-.24,1.66-.33,2.74-.06,1.01-.13,2.17-.2,3.4.74.37,3.3,2.18,5.74,4.42.49.44.49.91.06,1.37l-.6.65c-.42.49-.91.46-1.36-.02-1.86-1.95-3.14-3.27-4.01-4.12-.04.38-.08.77-.17,1.17-.12.52-.32,1.05-.61,1.53-1.5,2.25-4.77,2.44-7.12,1.93-1.08-.21-2.38-.7-3.35-1.7-2.31-2.3-.88-5.64,2.03-6.54,2.23-.69,4.58-.33,6.44.31.09-1.29.12-2.39.22-3.34.06-1.03.24-1.89.57-2.65.86-1.99,3.04-2.55,5.02-2.35.45.05,1.24.23,1.54.29-.84-1.33-2.05-2.86-3.77-4.09-1.12-.81.07-2.22,1.05-1.63,2.56,1.57,4.65,3.52,6.72,5.99.4.49.35.98-.15,1.39l-.76.57c-.46.34-.9.36-1.37.06v.06-.02.02Zm-14.65,6.93c-1.26.52-1.87,2.21-.95,3.45.4.53,1.11.83,1.95,1.02,1.64.33,3.48-.12,4.03-1.25.16-.35.29-.75.34-1.21l.15-1.39c-1.67-.79-3.6-1.4-5.48-.64l-.02.02h-.02Z"></path>
  <path class="cls-1" d="m137.66,7.77c-.35,1.18-.83,2.6-1.36,3.94,3.03.86,6.77,3.13,8.21,6.88,3.47,8.95-6.53,14.92-14.46,14.33-1.09-.07-1.02-1.65.11-1.64,3.18.04,5.79-.99,8.07-2.73,2.73-2.12,4.2-5.8,3.2-9.19-.84-2.95-3.35-5.08-5.93-5.84-1.64,4.04-3.79,7.92-6.66,11.13.05.16.51,1.33,1.1,2.64.21.51.06,1.03-.43,1.31l-.59.33c-.59.33-1.21.08-1.46-.53l-.78-1.93c-1.27,1.55-3.86,3.31-6.54,2.43-2.66-.84-3.2-3.77-2.79-6.09.38-1.98,1.22-3.87,2.42-5.47.95-1.25,2.18-2.34,3.29-3.21-.24-1.79-.48-3.64-.53-5.54-.04-.56.37-.99.89-1.01l1.16-.09c.63-.04,1.11.4,1.1,1.04,0,2.03,0,3.18.14,4.25,2.03-1.16,4.83-1.75,7.03-1.68.65-1.51,1.13-2.94,1.54-4.32.15-.54.68-.86,1.22-.69l1.33.4c.54.15.86.68.65,1.26h.09Zm-17.24,15.52c-.22,1.17-.21,2.98.68,3.4,1.39.64,3.19-1.04,4.52-2.52-.99-2.63-1.66-4.55-2.02-7.31-1.66,1.92-2.71,3.86-3.18,6.44h0Zm7.4-1.23c1.61-2.23,3.36-5.44,4.6-9.04-1.93.03-4.28.65-6.23,2.07.28,2.59.87,4.81,1.63,6.96h0Z"></path>
  <path class="cls-1" d="m170.48,16.29c-4.22,8.92-8.88,13.37-17.42,16.57-.57.22-1.03.06-1.23-.46-.25-.55-.06-.95.51-1.23,7.5-3.85,10.29-7.83,13.52-15.01l-17.28-1.21c-.65-.05-1-.36-.91-.94.09-.55.43-.83,1.04-.79l20.86,1.46c.65.05,1.48.37.91,1.6h0Zm-19.61-9.02c.04-.55.43-.85,1.04-.81l15.1,1.05c.65.05.95.39.91.94-.04.59-.39.89-1.04.85l-15.1-1.05c-.65-.05-.95-.39-.91-.99Z"></path>
  <path class="cls-1" d="m186.99,32.96l-1.35-.09c-.59-.04-.91-.38-.87-1l1.24-17.79-10.08-.7c-.59-.04-.91-.34-.87-.9s.42-.82,1-.78l10.05.7.29-4.26c.05-.63.38-.91,1.01-.93l1.37.09c.59.04.91.42.87,1l-.3,4.32,10.3.72c.63.05.91.34.87.9s-.37.82-1,.78l-10.3-.72-1.24,17.78c-.04.59-.38.91-1,.87h0Zm-12.61-6.06c2.11-2.36,3.64-4.87,4.82-7.78.24-.55.65-.74,1.2-.59l.4.12c.55.16.79.62.61,1.19-.91,3.24-2.47,6.12-4.65,8.96-.39.5-.86.53-1.33.16l-.95-.74c-.5-.39-.53-.86-.1-1.32h0Zm22.09,2.49c-.98-3.21-2.05-6.02-4.11-8.66-.37-.49-.36-1.01.15-1.35l.12-.09c.49-.32.91-.31,1.3.13,2.45,2.59,4.02,5.51,5.46,8.87.24.55.05,1.01-.52,1.22l-1.23.45c-.58.21-1.01.03-1.18-.6v.02h0Zm-.32-17.86h-.2c-.56-.06-.81-.32-.77-.85l.25-3.49c.04-.53.3-.76.87-.72h.2c.53.05.83.32.79.85l-.25,3.49c-.04.53-.37.76-.89.72Zm2.86.2h-.2c-.53-.05-.83-.32-.79-.85l.25-3.49c.04-.53.37-.76.89-.72h.2c.56.06.81.32.77.85l-.25,3.49c-.04.53-.3.76-.87.72Z"></path>
  <path class="cls-1" d="m84.39,43.56c-.49,0-.92-.11-1.3-.32-.38-.22-.67-.51-.88-.88s-.32-.79-.32-1.25.11-.87.34-1.25c.22-.38.53-.68.91-.9.38-.22.8-.34,1.27-.34.56,0,1.03.16,1.41.49.38.33.65.76.82,1.28l-4.1,1.58-.17-.41,3.76-1.46-.12.17c-.14-.32-.34-.6-.62-.83-.28-.23-.61-.35-1.01-.35-.36,0-.68.09-.97.26-.29.18-.52.41-.69.71-.17.3-.26.63-.26,1.01,0,.35.08.68.25.98.16.3.39.55.69.73s.64.28,1.02.28c.26,0,.5-.05.74-.14.24-.1.45-.22.63-.37l.29.41c-.22.18-.48.32-.77.43-.29.11-.59.17-.89.17h-.03Z"></path>
  <path class="cls-1" d="m88.69,38.78l.06,1.48-.07-.29c.14-.41.39-.73.77-.97s.8-.35,1.27-.35.8.13,1.07.39.41.6.42,1.01v3.42h-.58v-3.26c0-.3-.1-.56-.29-.76-.18-.2-.45-.3-.8-.31-.31,0-.6.08-.88.23-.27.15-.49.36-.65.64-.16.27-.25.59-.25.95v2.52h-.56v-4.69h.49Z"></path>
  <path class="cls-1" d="m94.14,45.72l-.36-.35c.21-.21.37-.47.5-.78.12-.31.19-.66.19-1.06v-4.76h.58v4.75c0,.5-.07.94-.22,1.3s-.37.66-.68.89h-.01Zm.2-8.68c0-.11.04-.21.13-.28s.18-.11.29-.11.21.04.29.11c.08.08.12.17.12.28,0,.12-.04.22-.12.29-.08.08-.18.11-.29.11-.1,0-.2-.04-.29-.12s-.13-.18-.13-.29h0Z"></path>
  <path class="cls-1" d="m96.57,41.09c0-.46.11-.87.33-1.25s.52-.67.9-.89c.38-.22.81-.33,1.28-.33s.91.11,1.28.33c.38.22.67.52.89.89s.32.79.32,1.25-.11.87-.32,1.25-.51.67-.89.89-.81.33-1.29.33-.9-.11-1.27-.32-.67-.5-.89-.88c-.22-.37-.33-.8-.33-1.28h-.01Zm.56,0c0,.37.09.7.26,1,.17.3.4.54.7.71.29.18.62.26.98.26s.69-.09.98-.26c.29-.18.52-.41.7-.71.17-.3.26-.63.26-1s-.09-.7-.26-1-.4-.54-.7-.72-.62-.27-.98-.27-.7.09-.99.28-.52.43-.69.74-.25.63-.25.97h-.01Z"></path>
  <path class="cls-1" d="m104.61,43.52l-2.22-4.74h.64l2.03,4.44-.44.3h0Zm-1.06,2.21l3.06-6.95h.55l-3.02,6.95h-.59Z"></path>
  <path class="cls-1" d="m110.44,43.56c-.45,0-.85-.1-1.22-.31s-.65-.49-.86-.86-.32-.8-.32-1.28c0-.52.11-.97.34-1.34.22-.37.53-.66.91-.85.38-.2.82-.29,1.31-.29.42,0,.81.12,1.18.37s.64.56.8.94l-.08.17.07-1.33h.5v4.69h-.56v-1.45l.12.22c-.06.16-.15.32-.29.47-.14.16-.3.3-.5.43s-.41.24-.65.31c-.24.08-.49.11-.75.11Zm.12-.48c.35,0,.67-.07.95-.22s.51-.35.69-.62c.18-.26.28-.57.3-.91v-.67c-.06-.3-.19-.56-.38-.79-.19-.23-.42-.42-.69-.55-.27-.14-.57-.2-.89-.2-.35,0-.68.08-.97.25-.3.16-.53.39-.71.69s-.26.64-.26,1.04c0,.37.09.7.26,1,.18.3.41.54.71.72.3.18.63.27.98.27h0Z"></path>
  <path class="cls-1" d="m117.84,43.56c-.48,0-.92-.12-1.31-.37-.4-.25-.69-.56-.87-.94l.12-.32v1.54h-.56v-9.12h.56v5.81l-.07-.31c.18-.37.48-.66.88-.88.4-.22.84-.33,1.32-.33.44,0,.84.11,1.2.32s.65.5.86.87.32.79.32,1.26c0,.53-.11.98-.34,1.35s-.52.65-.89.85c-.37.19-.77.29-1.21.29v-.02Zm-.1-.49c.4,0,.75-.08,1.04-.26.29-.17.52-.41.68-.71.16-.3.24-.64.24-1.03,0-.36-.08-.69-.25-.99s-.39-.54-.68-.72-.63-.27-1.03-.27c-.33,0-.63.07-.91.2-.28.14-.51.32-.69.55s-.31.5-.37.8v.73c.03.3.14.57.31.83.18.26.41.46.7.62s.61.23.96.23v.02Z"></path>
  <path class="cls-1" d="m121.94,34.35h.56v9.12h-.56v-9.12Z"></path>
  <path class="cls-1" d="m126.69,43.56c-.49,0-.92-.11-1.3-.32-.38-.22-.67-.51-.88-.88s-.32-.79-.32-1.25.11-.87.34-1.25c.22-.38.53-.68.91-.9s.8-.34,1.27-.34c.56,0,1.03.16,1.41.49s.65.76.82,1.28l-4.1,1.58-.17-.41,3.76-1.46-.12.17c-.14-.32-.34-.6-.62-.83-.28-.23-.61-.35-1.01-.35-.36,0-.68.09-.97.26-.29.18-.52.41-.69.71s-.26.63-.26,1.01c0,.35.08.68.25.98.16.3.39.55.69.73s.64.28,1.02.28c.26,0,.5-.05.74-.14.24-.1.45-.22.63-.37l.29.41c-.22.18-.48.32-.77.43-.29.11-.59.17-.89.17h-.03Z"></path>
  <path class="cls-1" d="m136.1,43.56c-.44,0-.84-.11-1.2-.32s-.65-.51-.86-.88-.32-.8-.32-1.27c0-.5.11-.94.32-1.31.22-.37.51-.65.88-.85s.78-.3,1.23-.3.87.12,1.28.35c.4.23.7.54.88.91l-.1.26v-5.81h.56v9.12h-.58v-1.44l.12.26c-.2.38-.5.68-.9.92-.4.24-.84.35-1.33.35h.02Zm.14-.49c.36,0,.68-.08.97-.23.29-.16.52-.37.7-.64s.28-.57.3-.91v-.6c-.06-.3-.18-.58-.37-.82-.19-.24-.42-.43-.7-.57-.27-.14-.57-.21-.9-.21-.36,0-.69.08-.98.25-.3.17-.53.4-.71.7-.18.3-.26.64-.26,1.03s.09.7.26,1c.18.3.41.54.71.72s.63.27.98.27h0Z"></path>
  <path class="cls-1" d="m142.96,43.56c-.49,0-.92-.11-1.3-.32-.38-.22-.67-.51-.88-.88s-.32-.79-.32-1.25.11-.87.34-1.25c.22-.38.53-.68.91-.9s.8-.34,1.27-.34c.56,0,1.03.16,1.41.49s.65.76.82,1.28l-4.1,1.58-.17-.41,3.76-1.46-.12.17c-.14-.32-.34-.6-.62-.83-.28-.23-.61-.35-1.01-.35-.36,0-.68.09-.97.26-.29.18-.52.41-.69.71s-.26.63-.26,1.01c0,.35.08.68.25.98.16.3.39.55.69.73s.64.28,1.02.28c.26,0,.5-.05.74-.14.24-.1.45-.22.63-.37l.29.41c-.22.18-.48.32-.77.43-.29.11-.59.17-.89.17h-.03Z"></path>
  <path class="cls-1" d="m147.87,43.56c-.27,0-.56-.05-.85-.15-.3-.1-.54-.26-.72-.49l.26-.37c.16.17.35.3.57.4.22.1.45.15.7.15.18,0,.36-.03.52-.08.16-.05.3-.14.4-.27.1-.13.16-.3.16-.52s-.06-.4-.19-.52-.28-.22-.47-.29c-.19-.08-.39-.15-.59-.21-.34-.11-.63-.26-.85-.46-.22-.19-.33-.46-.33-.82,0-.26.06-.48.19-.67.12-.19.29-.34.51-.45s.46-.16.73-.16c.25,0,.49.04.74.12s.47.22.67.41l-.25.4c-.13-.18-.3-.3-.51-.36-.21-.06-.4-.1-.56-.11-.14,0-.28.03-.43.08s-.27.14-.37.25c-.1.11-.15.25-.15.43s.05.33.16.45c.1.12.24.21.4.28.16.07.33.14.51.2.23.07.45.16.65.26s.37.23.5.4.2.38.2.65-.06.52-.18.74-.3.39-.53.52c-.24.12-.53.19-.89.19Z"></path>
  <path class="cls-1" d="m151.06,37.05c0-.11.04-.21.13-.28s.18-.11.29-.11.21.04.29.11.12.17.12.28c0,.12-.04.22-.12.29s-.18.11-.29.11c-.1,0-.2-.04-.29-.12s-.13-.18-.13-.29h0Zm.12,1.73h.56v4.69h-.56v-4.69Z"></path>
  <path class="cls-1" d="m155.97,45.76c-.26,0-.52-.03-.76-.09-.24-.06-.48-.16-.71-.31-.23-.14-.47-.33-.72-.56l.34-.38c.34.33.66.55.96.67s.58.17.86.17c.49,0,.88-.08,1.16-.23.29-.16.5-.36.62-.62s.2-.55.2-.87v-1.52l.14.14c-.16.42-.45.76-.86,1.02-.41.26-.88.4-1.4.4-.44,0-.84-.11-1.21-.33-.36-.22-.65-.52-.87-.89s-.32-.79-.32-1.24c0-.49.11-.92.34-1.28.22-.37.53-.66.91-.87s.81-.32,1.27-.32c.43,0,.84.11,1.23.34.39.22.67.52.85.89l-.07.26.06-1.34h.5v4.76c0,.38-.09.75-.26,1.09s-.44.61-.82.82c-.37.21-.86.31-1.47.31l.03-.02Zm-1.98-4.67c0,.37.09.7.26,1,.18.3.41.54.71.72s.63.27,1,.27.67-.08.96-.23.52-.37.71-.63c.18-.26.29-.55.31-.85v-.7c-.06-.3-.19-.57-.38-.8s-.42-.42-.7-.55c-.28-.14-.58-.2-.91-.2-.37,0-.7.08-1,.25s-.54.4-.71.7c-.18.3-.26.64-.26,1.03h0Z"></path>
  <path class="cls-1" d="m161.14,38.78l.06,1.48-.07-.29c.14-.41.39-.73.77-.97s.8-.35,1.27-.35.8.13,1.07.39.41.6.42,1.01v3.42h-.58v-3.26c0-.3-.1-.56-.29-.76-.18-.2-.45-.3-.8-.31-.31,0-.6.08-.88.23-.27.15-.49.36-.65.64-.16.27-.25.59-.25.95v2.52h-.56v-4.69h.49,0Z"></path>
  <path class="cls-1" d="m167.9,43.56c-.27,0-.56-.05-.85-.15-.3-.1-.54-.26-.72-.49l.26-.37c.16.17.35.3.57.4.22.1.45.15.7.15.18,0,.36-.03.52-.08.16-.05.3-.14.4-.27.1-.13.16-.3.16-.52s-.06-.4-.19-.52-.28-.22-.47-.29c-.19-.08-.39-.15-.59-.21-.34-.11-.63-.26-.85-.46-.22-.19-.33-.46-.33-.82,0-.26.06-.48.19-.67.12-.19.29-.34.51-.45s.46-.16.73-.16c.25,0,.49.04.74.12s.47.22.67.41l-.25.4c-.13-.18-.3-.3-.51-.36-.21-.06-.4-.1-.56-.11-.14,0-.28.03-.43.08s-.27.14-.37.25c-.1.11-.15.25-.15.43s.05.33.16.45c.1.12.24.21.4.28.16.07.33.14.51.2.23.07.45.16.65.26s.37.23.5.4.2.38.2.65-.06.52-.18.74-.3.39-.53.52c-.24.12-.53.19-.89.19Z"></path>
</svg>
