<?xml version="1.0" encoding="UTF-8"?>
<svg id="_レイヤー_2" data-name="レイヤー_2" xmlns="http://www.w3.org/2000/svg" xmlns:xlink="http://www.w3.org/1999/xlink" viewBox="0 0 1319.21 190.1">
  <defs>
    <style>
      .cls-1 {
        fill: url(#_新規グラデーションスウォッチ_07);
      }
    </style>
    <linearGradient id="_新規グラデーションスウォッチ_07" data-name="新規グラデーションスウォッチ 07" x1="7832.93" y1="95.05" x2="9152.14" y2="95.05" gradientTransform="translate(9152.14) rotate(-180) scale(1 -1)" gradientUnits="userSpaceOnUse">
      <stop offset=".34" stop-color="#dae0f5"/>
      <stop offset=".62" stop-color="#e2e7f6"/>
      <stop offset="1" stop-color="#f6f6fb"/>
    </linearGradient>
  </defs>
  <g id="blob">
    <path id="blob-02" class="cls-1" d="M0,190.1h1319.21s0-176.04,0-176.04c-27.19,10.69-57.46,18.44-88.81,22.6,0,.07-.07.07-.07.07h-.07c-5.74.79-11.48,1.43-17.29,2.01h-.07c-48.92,4.52-99.57.57-144.4-13.92C1003.93,4.02,931.62-3.23,860.75,1.29h-.07c-10.62.72-21.23,1.65-31.71,2.87-107.1,12.27-207.82,51.51-269.87,111.84-11.19,10.83-24.32,20.01-39.02,27.76-4.09,2.15-8.25,4.23-12.63,6.17-74.17,33.29-181.06,35.08-274.67,31.06-76.76-3.23-161.12-5.67-232.78,9.11Z"/>
  </g>
</svg>