<svg xmlns="http://www.w3.org/2000/svg" data-name="レイヤー_2" viewBox="0 0 1316.76 356.73"><defs><linearGradient id="a" x1="5039.23" x2="6300.86" y1="178.37" y2="178.37" data-name="新規グラデーションスウォッチ 07" gradientTransform="matrix(-1 0 0 1 6300.86 0)" gradientUnits="userSpaceOnUse"><stop offset=".34" stop-color="#dae0f5"/><stop offset=".62" stop-color="#e2e7f6"/><stop offset="1" stop-color="#f6f6fb"/></linearGradient></defs><path d="M0 0v356.73c2.5-6.64 5.49-13.2 9.13-19.62 24.54-43.31 92.46-73.77 139.91-47.16 62.29 35.03 146.55 40.31 214.33 13.56 53.15-21.05 94.68-61.22 113.94-107.8 1.93-4.71 3.64-9.56 5.14-14.41 2.5-8.28 4.35-16.77 5.42-25.26 7.85-63.14 83.05-106.59 158.75-114.23 5.71-.64 11.49-1 17.19-1.14 2-.07 3.92-.07 5.92-.07 79.05-.86 154.25 27.04 227.95 51.37 59.5 19.62 123.22 37.31 186.14 35.96 5.42-.14 10.84-.43 16.34-.86 11.49-.86 22.97-2.5 34.39-4.85 67.14-14.06 126.57-66.71 127.07-122.22H0Z" style="fill:url(#a)"/><path d="M278.3 282.32c-3.68 0-7.42-.06-11.23-.19-71.64-2.4-123.71-24.1-169.46-55.71C55.42 197.27 18.5 157.2 0 114.92V83.07c14.84 70.73 134.49 184.65 267.41 189.11 74.35 2.5 124.65-19.57 168.19-73.79 37.4-46.57 89.79-89.66 147.54-121.34 58.31-32 116.85-49.37 164.74-48.96 96.45.86 175.69 26.43 272.29 67.41 65.9 27.96 133.43 26.46 200.7-4.46 39.42-18.12 66.28-45.73 85.43-91.05h10.46c-20.17 47.75-49.92 80.87-91.73 100.09-34.97 16.07-70.59 24.53-105.88 25.16-34.63.62-69.23-6.31-102.87-20.58-128.77-54.63-198.2-66-268.49-66.62-46.25-.42-103.02 16.54-159.87 47.73-56.63 31.07-107.97 73.28-144.57 118.85-23.44 29.19-49.08 49.42-78.38 61.87-25.01 10.62-53.46 15.82-86.67 15.82Z" style="fill:#b2b2f9"/></svg>