<?xml version="1.0" encoding="UTF-8"?>
<svg id="_レイヤー_2" data-name="レイヤー_2" xmlns="http://www.w3.org/2000/svg" viewBox="0 0 1319.21 190.1">
  <defs>
    <style>
      .cls-1 {
        fill: #fff;
      }
    </style>
  </defs>
  <g id="blob">
    <path id="blob-wh-lb" class="cls-1" d="M1319.21,190.1H0S0,14.06,0,14.06c27.19,10.69,57.46,18.44,88.81,22.6,0,.07.07.07.07.07h.07c5.74.79,11.48,1.43,17.29,2.01h.07c48.92,4.52,99.57.57,144.4-13.92C315.28,4.02,387.59-3.23,458.46,1.29h.07c10.62.72,21.23,1.65,31.71,2.87,107.1,12.27,207.82,51.51,269.87,111.84,11.19,10.83,24.32,20.01,39.02,27.76,4.09,2.15,8.25,4.23,12.63,6.17,74.17,33.29,181.06,35.08,274.67,31.06,76.76-3.23,161.12-5.67,232.78,9.11Z"/>
  </g>
</svg>