<?xml version="1.0" encoding="UTF-8"?>
<svg xmlns="http://www.w3.org/2000/svg" id="_アートボード10" viewBox="0 0 220 60">
  <g>
    <path d="M43.27,19.42l10.73,1.33V5h-8.97c-.11,3.47-.51,8.64-1.76,14.42Z"></path>
    <path d="M38.24,18.8c1.23-5.51,1.64-10.49,1.76-13.8H4V14.57l34.24,4.24Z"></path>
    <path d="M27.03,41.65c4.82-5.09,7.87-11.4,9.79-17.53L4,20.06V52.27c9.45-.89,17.18-4.45,23.03-10.62Z"></path>
    <path d="M41.9,24.75c-2.09,6.98-5.54,14.33-11.22,20.32-4.32,4.56-9.51,7.88-15.5,9.93H54V26.25l-12.1-1.5Z"></path>
  </g>
  <g>
    <path d="M61.06,29.86c-.35,.55-.83,.63-1.38,.28l-1.07-.7c-.52-.34-.63-.83-.24-1.37,3.35-4.87,5.59-8.77,7.45-13.03l-4.5-.47c-1.23-.13-1.01-1.8,.18-1.67l4.99,.52c.49-1.15,.9-2.39,1.37-3.72,.19-.59,.64-.85,1.27-.63l1.22,.45c.63,.23,.81,.67,.56,1.26-.4,1.04-.83,2.04-1.23,2.93l2.91,.31c1.19,.12,1,1.79-.18,1.67l-3.43-.36c-2.06,4.68-4.24,8.9-7.93,14.48l.02,.02h0Zm23.4-6.79c-1.26-.78-2.43-1.28-3.42-1.4-1.24-.19-1.81,.51-2.17,1.96-.18,.74-.24,1.66-.33,2.74-.06,1.01-.13,2.17-.2,3.4,.74,.37,3.3,2.18,5.74,4.42,.49,.44,.49,.91,.06,1.37l-.6,.65c-.42,.49-.91,.46-1.36-.02-1.86-1.95-3.14-3.27-4.01-4.12-.04,.38-.08,.77-.17,1.17-.12,.52-.32,1.05-.61,1.53-1.5,2.25-4.77,2.44-7.12,1.93-1.08-.21-2.38-.7-3.35-1.7-2.31-2.3-.88-5.64,2.03-6.54,2.23-.69,4.58-.33,6.44,.31,.09-1.29,.12-2.39,.22-3.34,.06-1.03,.24-1.89,.57-2.65,.86-1.99,3.04-2.55,5.02-2.35,.45,.05,1.24,.23,1.54,.29-.84-1.33-2.05-2.86-3.77-4.09-1.12-.81,.07-2.22,1.05-1.63,2.56,1.57,4.65,3.52,6.72,5.99,.4,.49,.35,.98-.15,1.39l-.76,.57c-.46,.34-.9,.36-1.37,.06v.06s0-.02,0-.02Zm-14.65,6.93c-1.26,.52-1.87,2.21-.95,3.45,.4,.53,1.11,.83,1.95,1.02,1.64,.33,3.48-.12,4.03-1.25,.16-.35,.29-.75,.34-1.21l.15-1.39c-1.67-.79-3.6-1.4-5.48-.64l-.02,.02h0Z"></path>
    <path d="M93.1,30.23c-.35,.55-.83,.63-1.38,.28l-1.07-.7c-.52-.34-.63-.83-.24-1.37,3.35-4.87,5.59-8.77,7.45-13.03l-4.5-.47c-1.23-.13-1.01-1.8,.18-1.67l4.99,.52c.49-1.15,.9-2.39,1.37-3.72,.19-.59,.64-.85,1.27-.63l1.22,.45c.63,.23,.81,.67,.56,1.26-.4,1.04-.83,2.04-1.23,2.93l2.91,.31c1.19,.12,1,1.79-.18,1.67l-3.43-.36c-2.06,4.68-4.24,8.9-7.93,14.48l.02,.02h0Zm23.4-6.79c-1.26-.78-2.43-1.28-3.42-1.4-1.24-.19-1.81,.51-2.17,1.96-.18,.74-.24,1.66-.33,2.74-.06,1.01-.13,2.17-.2,3.4,.74,.37,3.3,2.18,5.74,4.42,.49,.44,.49,.91,.06,1.37l-.6,.65c-.42,.49-.91,.46-1.36-.02-1.86-1.95-3.14-3.27-4.01-4.12-.04,.38-.08,.77-.17,1.17-.12,.52-.32,1.05-.61,1.53-1.5,2.25-4.77,2.44-7.12,1.93-1.08-.21-2.38-.7-3.35-1.7-2.31-2.3-.88-5.64,2.03-6.54,2.23-.69,4.58-.33,6.44,.31,.09-1.29,.12-2.39,.22-3.34,.06-1.03,.24-1.89,.57-2.65,.86-1.99,3.04-2.55,5.02-2.35,.45,.05,1.24,.23,1.54,.29-.84-1.33-2.05-2.86-3.77-4.09-1.12-.81,.07-2.22,1.05-1.63,2.56,1.57,4.65,3.52,6.72,5.99,.4,.49,.35,.98-.15,1.39l-.76,.57c-.46,.34-.9,.36-1.37,.06v.06s0-.02,0-.02Zm-14.65,6.93c-1.26,.52-1.87,2.21-.95,3.45,.4,.53,1.11,.83,1.95,1.02,1.64,.33,3.48-.12,4.03-1.25,.16-.35,.29-.75,.34-1.21l.15-1.39c-1.67-.79-3.6-1.4-5.48-.64l-.02,.02h0Z"></path>
    <path d="M143.44,11.14c-.36,1.22-.86,2.7-1.41,4.09,3.15,.89,7.03,3.25,8.52,7.14,3.6,9.29-6.78,15.49-15.01,14.88-1.13-.07-1.06-1.71,.11-1.7,3.3,.04,6.01-1.03,8.38-2.83,2.83-2.2,4.36-6.02,3.32-9.54-.87-3.06-3.48-5.27-6.16-6.06-1.7,4.19-3.93,8.22-6.91,11.55,.05,.17,.53,1.38,1.14,2.74,.22,.53,.06,1.07-.45,1.36l-.61,.34c-.61,.34-1.26,.08-1.52-.55l-.81-2c-1.32,1.61-4.01,3.44-6.79,2.52-2.76-.87-3.32-3.91-2.9-6.32,.39-2.06,1.27-4.02,2.51-5.68,.99-1.3,2.26-2.43,3.42-3.33-.25-1.86-.5-3.78-.55-5.75-.04-.58,.38-1.03,.92-1.05l1.2-.09c.65-.04,1.15,.42,1.14,1.08,.01,2.11,0,3.3,.15,4.41,2.11-1.2,5.01-1.82,7.3-1.74,.68-1.57,1.17-3.05,1.6-4.48,.16-.56,.71-.89,1.27-.72l1.38,.42c.56,.16,.89,.71,.67,1.31h.05s0,0,0,0Zm-17.9,16.11c-.23,1.21-.22,3.09,.71,3.53,1.44,.66,3.31-1.08,4.69-2.62-1.03-2.73-1.72-4.72-2.1-7.59-1.72,1.99-2.81,4.01-3.3,6.69h0Zm7.68-1.28c1.67-2.32,3.49-5.65,4.78-9.38-2,.03-4.44,.68-6.47,2.15,.29,2.69,.9,4.99,1.69,7.23h0Z"></path>
    <path d="M181.69,20.31c-4.44,9.39-9.35,14.08-18.34,17.45-.6,.23-1.08,.06-1.3-.48-.26-.58-.06-1,.54-1.3,7.9-4.05,10.84-8.24,14.24-15.8l-18.2-1.27c-.68-.05-1.05-.38-.96-.99,.09-.58,.45-.87,1.09-.83l21.96,1.54c.68,.05,1.56,.39,.96,1.68h0Zm-20.65-9.5c.04-.58,.45-.89,1.09-.85l15.9,1.11c.68,.05,1,.41,.96,.99-.04,.62-.41,.94-1.09,.9l-15.9-1.11c-.68-.05-1-.41-.96-1.04Z"></path>
    <path d="M198.67,37.96l-1.42-.1c-.62-.04-.96-.4-.92-1.05l1.31-18.73-10.61-.74c-.62-.04-.96-.36-.92-.95s.44-.86,1.05-.82l10.58,.74,.31-4.49c.05-.66,.4-.96,1.06-.98l1.44,.1c.62,.04,.96,.44,.92,1.05l-.32,4.55,10.85,.76c.66,.05,.96,.36,.92,.95s-.39,.86-1.05,.82l-10.85-.76-1.31,18.72c-.04,.62-.4,.96-1.05,.92h0Zm-13.28-6.38c2.22-2.49,3.83-5.13,5.08-8.19,.25-.58,.68-.78,1.26-.62l.42,.13c.58,.17,.83,.65,.64,1.25-.96,3.41-2.6,6.44-4.9,9.43-.41,.53-.91,.56-1.4,.17l-1-.78c-.53-.41-.56-.91-.11-1.39h0Zm23.26,2.62c-1.03-3.38-2.16-6.34-4.33-9.12-.39-.52-.38-1.06,.16-1.42l.13-.09c.52-.34,.96-.33,1.37,.14,2.58,2.73,4.23,5.8,5.75,9.34,.25,.58,.05,1.06-.55,1.28l-1.3,.47c-.61,.22-1.06,.03-1.24-.63v.02s0,0,0,0Zm-.34-18.81h-.21c-.59-.06-.85-.34-.81-.9l.26-3.67c.04-.56,.32-.8,.92-.76h.21c.56,.05,.87,.34,.83,.9l-.26,3.67c-.04,.56-.39,.8-.94,.76Zm3.01,.21h-.21c-.56-.05-.87-.34-.83-.9l.26-3.67c.04-.56,.39-.8,.94-.76h.21c.59,.06,.85,.34,.81,.9l-.26,3.67c-.04,.56-.32,.8-.92,.76Z"></path>
  </g>
  <g>
    <path d="M94.23,52.8c-.49,0-.92-.11-1.3-.32-.38-.22-.67-.51-.88-.88s-.32-.79-.32-1.25,.11-.87,.34-1.25c.22-.38,.53-.68,.91-.9,.38-.22,.8-.34,1.27-.34,.56,0,1.03,.16,1.41,.49,.38,.33,.65,.76,.82,1.28l-4.1,1.58-.17-.41,3.76-1.46-.12,.17c-.14-.32-.34-.6-.62-.83-.28-.23-.61-.35-1.01-.35-.36,0-.68,.09-.97,.26-.29,.18-.52,.41-.69,.71-.17,.3-.26,.63-.26,1.01,0,.35,.08,.68,.25,.98,.16,.3,.39,.55,.69,.73s.64,.28,1.02,.28c.26,0,.5-.05,.74-.14,.24-.1,.45-.22,.63-.37l.29,.41c-.22,.18-.48,.32-.77,.43-.29,.11-.59,.17-.89,.17Z"></path>
    <path d="M98.53,48.02l.06,1.48-.07-.29c.14-.41,.39-.73,.77-.97,.38-.24,.8-.35,1.27-.35s.8,.13,1.07,.39c.27,.26,.41,.6,.42,1.01v3.42h-.58v-3.26c0-.3-.1-.56-.29-.76-.18-.2-.45-.3-.8-.31-.31,0-.6,.08-.88,.23-.27,.15-.49,.36-.65,.64-.16,.27-.25,.59-.25,.95v2.52h-.56v-4.69h.49Z"></path>
    <path d="M103.98,54.96l-.36-.35c.21-.21,.37-.47,.5-.78,.12-.31,.19-.66,.19-1.06v-4.76h.58v4.75c0,.5-.07,.94-.22,1.3-.15,.36-.37,.66-.68,.89Zm.2-8.68c0-.11,.04-.21,.13-.28s.18-.11,.29-.11c.11,0,.21,.04,.29,.11,.08,.08,.12,.17,.12,.28,0,.12-.04,.22-.12,.29-.08,.08-.18,.11-.29,.11-.1,0-.2-.04-.29-.12s-.13-.18-.13-.29Z"></path>
    <path d="M106.41,50.33c0-.46,.11-.87,.33-1.25,.22-.38,.52-.67,.9-.89,.38-.22,.81-.33,1.28-.33s.91,.11,1.28,.33c.38,.22,.67,.52,.89,.89s.32,.79,.32,1.25-.11,.87-.32,1.25-.51,.67-.89,.89c-.38,.22-.81,.33-1.29,.33s-.9-.11-1.27-.32-.67-.5-.89-.88c-.22-.37-.33-.8-.33-1.28Zm.56,.01c0,.37,.09,.7,.26,1,.17,.3,.4,.54,.7,.71,.29,.18,.62,.26,.98,.26s.69-.09,.98-.26c.29-.18,.52-.41,.7-.71,.17-.3,.26-.63,.26-1s-.09-.7-.26-1-.4-.54-.7-.72-.62-.27-.98-.27-.7,.09-.99,.28c-.29,.19-.52,.43-.69,.74s-.25,.63-.25,.97Z"></path>
    <path d="M114.45,52.76l-2.22-4.74h.64l2.03,4.44-.44,.3Zm-1.06,2.21l3.06-6.95h.55l-3.02,6.95h-.59Z"></path>
    <path d="M120.28,52.8c-.45,0-.85-.1-1.22-.31s-.65-.49-.86-.86c-.21-.37-.32-.8-.32-1.28,0-.52,.11-.97,.34-1.34,.22-.37,.53-.66,.91-.85,.38-.2,.82-.29,1.31-.29,.42,0,.81,.12,1.18,.37s.64,.56,.8,.94l-.08,.17,.07-1.33h.5v4.69h-.56v-1.45l.12,.22c-.06,.16-.15,.32-.29,.47-.14,.16-.3,.3-.5,.43-.2,.13-.41,.24-.65,.31-.24,.08-.49,.11-.75,.11Zm.12-.48c.35,0,.67-.07,.95-.22,.28-.15,.51-.35,.69-.62,.18-.26,.28-.57,.3-.91v-.67c-.06-.3-.19-.56-.38-.79-.19-.23-.42-.42-.69-.55-.27-.14-.57-.2-.89-.2-.35,0-.68,.08-.97,.25-.3,.16-.53,.39-.71,.69-.18,.3-.26,.64-.26,1.04,0,.37,.09,.7,.26,1,.18,.3,.41,.54,.71,.72,.3,.18,.63,.27,.98,.27Z"></path>
    <path d="M127.68,52.8c-.48,0-.92-.12-1.31-.37-.4-.25-.69-.56-.87-.94l.12-.32v1.54h-.56v-9.12h.56v5.81l-.07-.31c.18-.37,.48-.66,.88-.88,.4-.22,.84-.33,1.32-.33,.44,0,.84,.11,1.2,.32s.65,.5,.86,.87c.21,.37,.32,.79,.32,1.26,0,.53-.11,.98-.34,1.35s-.52,.65-.89,.85c-.37,.19-.77,.29-1.21,.29Zm-.1-.49c.4,0,.75-.08,1.04-.26,.29-.17,.52-.41,.68-.71,.16-.3,.24-.64,.24-1.03,0-.36-.08-.69-.25-.99s-.39-.54-.68-.72c-.29-.18-.63-.27-1.03-.27-.33,0-.63,.07-.91,.2-.28,.14-.51,.32-.69,.55-.18,.23-.31,.5-.37,.8v.73c.03,.3,.14,.57,.31,.83,.18,.26,.41,.46,.7,.62s.61,.23,.96,.23Z"></path>
    <path d="M131.79,43.59h.56v9.12h-.56v-9.12Z"></path>
    <path d="M136.53,52.8c-.49,0-.92-.11-1.3-.32-.38-.22-.67-.51-.88-.88s-.32-.79-.32-1.25,.11-.87,.34-1.25c.22-.38,.53-.68,.91-.9,.38-.22,.8-.34,1.27-.34,.56,0,1.03,.16,1.41,.49,.38,.33,.65,.76,.82,1.28l-4.1,1.58-.17-.41,3.76-1.46-.12,.17c-.14-.32-.34-.6-.62-.83-.28-.23-.61-.35-1.01-.35-.36,0-.68,.09-.97,.26-.29,.18-.52,.41-.69,.71-.17,.3-.26,.63-.26,1.01,0,.35,.08,.68,.25,.98,.16,.3,.39,.55,.69,.73s.64,.28,1.02,.28c.26,0,.5-.05,.74-.14,.24-.1,.45-.22,.63-.37l.29,.41c-.22,.18-.48,.32-.77,.43-.29,.11-.59,.17-.89,.17Z"></path>
    <path d="M145.94,52.8c-.44,0-.84-.11-1.2-.32s-.65-.51-.86-.88-.32-.8-.32-1.27c0-.5,.11-.94,.32-1.31,.22-.37,.51-.65,.88-.85s.78-.3,1.23-.3,.87,.12,1.28,.35c.4,.23,.7,.54,.88,.91l-.1,.26v-5.81h.56v9.12h-.58v-1.44l.12,.26c-.2,.38-.5,.68-.9,.92-.4,.24-.84,.35-1.33,.35Zm.14-.49c.36,0,.68-.08,.97-.23,.29-.16,.52-.37,.7-.64,.18-.27,.28-.57,.3-.91v-.6c-.06-.3-.18-.58-.37-.82-.19-.24-.42-.43-.7-.57-.27-.14-.57-.21-.9-.21-.36,0-.69,.08-.98,.25-.3,.17-.53,.4-.71,.7-.18,.3-.26,.64-.26,1.03,0,.37,.09,.7,.26,1,.18,.3,.41,.54,.71,.72,.3,.18,.63,.27,.98,.27Z"></path>
    <path d="M152.8,52.8c-.49,0-.92-.11-1.3-.32-.38-.22-.67-.51-.88-.88s-.32-.79-.32-1.25,.11-.87,.34-1.25c.22-.38,.53-.68,.91-.9,.38-.22,.8-.34,1.27-.34,.56,0,1.03,.16,1.41,.49,.38,.33,.65,.76,.82,1.28l-4.1,1.58-.17-.41,3.76-1.46-.12,.17c-.14-.32-.34-.6-.62-.83-.28-.23-.61-.35-1.01-.35-.36,0-.68,.09-.97,.26-.29,.18-.52,.41-.69,.71-.17,.3-.26,.63-.26,1.01,0,.35,.08,.68,.25,.98,.16,.3,.39,.55,.69,.73s.64,.28,1.02,.28c.26,0,.5-.05,.74-.14,.24-.1,.45-.22,.63-.37l.29,.41c-.22,.18-.48,.32-.77,.43-.29,.11-.59,.17-.89,.17Z"></path>
    <path d="M157.71,52.8c-.27,0-.56-.05-.85-.15-.3-.1-.54-.26-.72-.49l.26-.37c.16,.17,.35,.3,.57,.4,.22,.1,.45,.15,.7,.15,.18,0,.36-.03,.52-.08,.16-.05,.3-.14,.4-.27,.1-.13,.16-.3,.16-.52s-.06-.4-.19-.52-.28-.22-.47-.29c-.19-.08-.39-.15-.59-.21-.34-.11-.63-.26-.85-.46-.22-.19-.33-.46-.33-.82,0-.26,.06-.48,.19-.67,.12-.19,.29-.34,.51-.45,.22-.11,.46-.16,.73-.16,.25,0,.49,.04,.74,.12s.47,.22,.67,.41l-.25,.4c-.13-.18-.3-.3-.51-.36-.21-.06-.4-.1-.56-.11-.14,0-.28,.03-.43,.08s-.27,.14-.37,.25c-.1,.11-.15,.25-.15,.43s.05,.33,.16,.45c.1,.12,.24,.21,.4,.28,.16,.07,.33,.14,.51,.2,.23,.07,.45,.16,.65,.26,.2,.1,.37,.23,.5,.4s.2,.38,.2,.65-.06,.52-.18,.74c-.12,.22-.3,.39-.53,.52-.24,.12-.53,.19-.89,.19Z"></path>
    <path d="M160.9,46.29c0-.11,.04-.21,.13-.28s.18-.11,.29-.11c.11,0,.21,.04,.29,.11s.12,.17,.12,.28c0,.12-.04,.22-.12,.29s-.18,.11-.29,.11c-.1,0-.2-.04-.29-.12s-.13-.18-.13-.29Zm.12,1.73h.56v4.69h-.56v-4.69Z"></path>
    <path d="M165.81,55c-.26,0-.52-.03-.76-.09-.24-.06-.48-.16-.71-.31-.23-.14-.47-.33-.72-.56l.34-.38c.34,.33,.66,.55,.96,.67,.3,.12,.58,.17,.86,.17,.49,0,.88-.08,1.16-.23,.29-.16,.5-.36,.62-.62s.2-.55,.2-.87v-1.52s.14,.14,.14,.14c-.16,.42-.45,.76-.86,1.02-.41,.26-.88,.4-1.4,.4-.44,0-.84-.11-1.21-.33-.36-.22-.65-.52-.87-.89-.22-.37-.32-.79-.32-1.24,0-.49,.11-.92,.34-1.28,.22-.37,.53-.66,.91-.87,.38-.21,.81-.32,1.27-.32,.43,0,.84,.11,1.23,.34,.39,.22,.67,.52,.85,.89l-.07,.26,.06-1.34h.5v4.76c0,.38-.09,.75-.26,1.09-.17,.34-.44,.61-.82,.82-.37,.21-.86,.31-1.47,.31Zm-1.98-4.67c0,.37,.09,.7,.26,1,.18,.3,.41,.54,.71,.72,.3,.18,.63,.27,1,.27s.67-.08,.96-.23,.52-.37,.71-.63c.18-.26,.29-.55,.31-.85v-.7c-.06-.3-.19-.57-.38-.8-.19-.23-.42-.42-.7-.55-.28-.14-.58-.2-.91-.2-.37,0-.7,.08-1,.25-.3,.17-.54,.4-.71,.7-.18,.3-.26,.64-.26,1.03Z"></path>
    <path d="M170.98,48.02l.06,1.48-.07-.29c.14-.41,.39-.73,.77-.97,.38-.24,.8-.35,1.27-.35s.8,.13,1.07,.39c.27,.26,.41,.6,.42,1.01v3.42h-.58v-3.26c0-.3-.1-.56-.29-.76-.18-.2-.45-.3-.8-.31-.31,0-.6,.08-.88,.23-.27,.15-.49,.36-.65,.64-.16,.27-.25,.59-.25,.95v2.52h-.56v-4.69h.49Z"></path>
    <path d="M177.74,52.8c-.27,0-.56-.05-.85-.15-.3-.1-.54-.26-.72-.49l.26-.37c.16,.17,.35,.3,.57,.4,.22,.1,.45,.15,.7,.15,.18,0,.36-.03,.52-.08,.16-.05,.3-.14,.4-.27,.1-.13,.16-.3,.16-.52s-.06-.4-.19-.52-.28-.22-.47-.29c-.19-.08-.39-.15-.59-.21-.34-.11-.63-.26-.85-.46-.22-.19-.33-.46-.33-.82,0-.26,.06-.48,.19-.67,.12-.19,.29-.34,.51-.45,.22-.11,.46-.16,.73-.16,.25,0,.49,.04,.74,.12s.47,.22,.67,.41l-.25,.4c-.13-.18-.3-.3-.51-.36-.21-.06-.4-.1-.56-.11-.14,0-.28,.03-.43,.08s-.27,.14-.37,.25c-.1,.11-.15,.25-.15,.43s.05,.33,.16,.45c.1,.12,.24,.21,.4,.28,.16,.07,.33,.14,.51,.2,.23,.07,.45,.16,.65,.26,.2,.1,.37,.23,.5,.4s.2,.38,.2,.65-.06,.52-.18,.74c-.12,.22-.3,.39-.53,.52-.24,.12-.53,.19-.89,.19Z"></path>
  </g>
</svg>
