<?xml version="1.0" encoding="UTF-8"?>
<svg xmlns="http://www.w3.org/2000/svg" id="_レイヤー_2" viewBox="0 0 200 195">
  <defs>
    <style>.cls-1{fill:#001e36;}.cls-2{fill:#31a8ff;}</style>
  </defs>
  <g id="colored-photoshop">
    <g id="Layer_2">
      <g id="Surfaces">
        <g id="Photo_Surface">
          <g id="Outline_no_shadow">
            <path class="cls-1" d="m35.42,0h129.17c19.58,0,35.42,15.83,35.42,35.42v124.17c0,19.58-15.83,35.42-35.42,35.42H35.42c-19.58,0-35.42-15.83-35.42-35.42V35.42C0,15.83,15.83,0,35.42,0Z"></path>
          </g>
        </g>
      </g>
      <g id="Outlined_Mnemonics_Logos">
        <g id="Ps">
          <path class="cls-2" d="m45,136.75V51c0-.58.25-.92.83-.92,1.42,0,2.75,0,4.67-.08,2-.08,4.08-.08,6.33-.17,2.25-.08,4.67-.08,7.25-.17,2.58-.08,5.08-.08,7.58-.08,6.83,0,12.5.83,17.17,2.58,4.17,1.42,8,3.75,11.17,6.83,2.67,2.67,4.75,5.92,6.08,9.5,1.25,3.5,1.92,7.08,1.92,10.83,0,7.17-1.67,13.08-5,17.75s-8,8.17-13.42,10.17c-5.67,2.08-11.92,2.83-18.75,2.83-2,0-3.33,0-4.17-.08s-2-.08-3.58-.08v26.75c.08.58-.33,1.08-.92,1.17h-16.17c-.67,0-1-.33-1-1.08Zm18.17-70.58v28c1.17.08,2.25.17,3.25.17h4.42c3.25,0,6.5-.5,9.58-1.5,2.67-.75,5-2.33,6.83-4.42,1.75-2.08,2.58-4.92,2.58-8.58.08-2.58-.58-5.17-1.92-7.42-1.42-2.17-3.42-3.83-5.83-4.75-3.08-1.25-6.42-1.75-9.83-1.67-2.17,0-4.08,0-5.67.08-1.67-.08-2.83,0-3.42.08h0Z"></path>
          <path class="cls-2" d="m160,89.08c-2.5-1.33-5.17-2.25-8-2.83-3.08-.67-6.17-1.08-9.33-1.08-1.67-.08-3.42.17-5,.58-1.08.25-2,.83-2.58,1.67-.42.67-.67,1.5-.67,2.25s.33,1.5.83,2.17c.75.92,1.75,1.67,2.83,2.25,1.92,1,3.92,1.92,5.92,2.75,4.5,1.5,8.83,3.58,12.83,6.08,2.75,1.75,5,4.08,6.58,6.92,1.33,2.67,2,5.58,1.92,8.58.08,3.92-1.08,7.83-3.25,11.08-2.33,3.33-5.58,5.92-9.33,7.42-4.08,1.75-9.08,2.67-15.08,2.67-3.83,0-7.58-.33-11.33-1.08-2.92-.5-5.83-1.42-8.5-2.67-.58-.33-1-.92-.92-1.58v-14.5c0-.25.08-.58.33-.75.25-.17.5-.08.75.08,3.25,1.92,6.67,3.25,10.33,4.08,3.17.83,6.5,1.25,9.83,1.25s5.42-.42,6.92-1.17c1.33-.58,2.25-2,2.25-3.5,0-1.17-.67-2.25-2-3.33-1.33-1.08-4.08-2.33-8.17-3.92-4.25-1.5-8.17-3.5-11.83-6-2.58-1.83-4.75-4.25-6.33-7.08-1.33-2.67-2-5.58-1.92-8.5,0-3.58,1-7,2.83-10.08,2.08-3.33,5.17-6,8.75-7.67,3.92-2,8.83-2.92,14.75-2.92,3.42,0,6.92.25,10.33.75,2.5.33,4.92,1,7.17,1.92.33.08.67.42.83.75.08.33.17.67.17,1v13.58c0,.33-.17.67-.42.83-.75.17-1.17.17-1.5,0Z"></path>
        </g>
      </g>
    </g>
  </g>
</svg>
